<svg height="368" viewBox="0 0 603 368" width="603" xmlns="http://www.w3.org/2000/svg"><path d="m417 9.9c0 .5.7 1.1 1.4 1.4 1 .4 1.3.1.9-.9-.6-1.5-2.3-1.9-2.3-.5zm4 .2c.8.5 2.7.9 4.1.9 1.5 0 3.2.7 3.9 1.5 1 1.3 5.2 1.5 26.4 1.5l25.1-.1 1.8-2.4 1.7-2.4h-32.2c-19.9 0-31.6.4-30.8 1zm90.9-.8c0 .1-.3 1.8-.5 3.7l-.3 3.5 1.1-3c1.5-4.1 1.6-4.1 3.8-1.7 1.9 2 2.7 2.1 26.2 2 22.6-.1 24.7-.3 30.3-2.4l6-2.2-33.2-.1c-18.3 0-33.3.1-33.4.2zm-490.6 1.9c1.1.5 2.4 1.1 3 1.3.7.1 2.1.6 3.2 1.1s22.3.9 47.3.8c40.5-.1 45.4-.3 47-1.8 2.6-2.3 3.2-2.1 7.7 2.1 2.3 2.1 5.9 5.3 8.2 7.1 2.6 2.1 4 3.9 3.6 4.8-.3 1 0 1.2 1 .8.8-.3 1.8-.1 2.1.4s-.5 1.2-1.9 1.4c-1.3.3-2.2.2-2-.3.3-.4 0-1.1-.6-1.4-.5-.4-.8-1.4-.4-2.2.4-1.2.2-1.3-.8-.5-1.1.9-1.8.5-3.6-1.8-1.2-1.7-2.9-3-3.8-3-1.3 0-1.3.3-.3 1.5.7.9 1.5 1.3 1.7 1.1.3-.3 1.8 1 3.4 2.9l2.9 3.3-.6 94.4c-.5 68.2-.4 94.9.4 96.4.9 1.8.7 2.4-1.8 4.3-1.7 1.2-3 1.8-3 1.4 0-.8-26-.9-68.5-.3-10.4.1-18.4.5-17.7.7.6.3.9 1 .5 1.6-.5.9-.3.9.8 0 1.9-1.6 13.2-1.2 13.5.5.1.7 0 .8-.2.3-.3-.6-1.2-.7-2-.4-1.3.5-1.3.8.1 2.3 1.6 1.7 1.5 1.9-.7 3.1-1.3.7-2.5 1.2-2.8 1.1-.2-.1-.5.9-.6 2.3 0 1.3.3 2.2.8 1.9 1.9-1.2.5 2.2-1.5 3.7l-2.3 1.7-.2-6.6c-.4-11.4-1.2-8.1-1.2 4.9v12.5l4 .2 3.9.3-.4-8.3c-.2-4.6-.4-8.3-.5-8.3s-.3-.8-.5-1.8c-.5-2.7 1.1-2 2.3 1 1.8 4.8 2.2 8.2 1.2 8.8-1.7 1-1.2 7.5.5 7.5.8 0 1.5-.7 1.5-1.6 0-.8-.3-1.3-.7-1.1-.5.3-.8-.5-.8-1.8s.5-2.1 1.2-1.8c.9.3 1.1-2.4 1-10.4-.2-9 0-10.8 1.3-10.8.8 0 1.7.9 2 2 .4 1.3 1.5 2 3.3 2 1.4.1 3 .5 3.4.9.4.5-.9.7-2.9.4-2.2-.2-3.8 0-3.9.7-.1.5-.5-.1-.9-1.5-.6-2-.8-1.6-.9 2.3-.1 2.7.3 4.6.8 4.2.5-.3 1.2-.1 1.6.5.3.5-.1 1-1 1-1.3 0-1.6.9-1.5 3.7.1 2.1.2 5.9.1 8.5l-.1 4.8h-29.9l.1 4.5.1 4.6 14.1-.3 14.1-.3-.2-3.8c-.1-2 .3-3.7.8-3.7.6 0 .9 2 .8 4.5l-.3 4.5-10 .2-10.1.2 10 .6c8.7.5 9.3.6 4.5 1-5.3.5-5.5.6-5.8 3.7-.3 3.3-2.4 5-4 3-1.3-1.7-1.1-4.6.4-4 .6.2 1.5-.1 2-.8.4-.7.3-1-.4-.5-.6.3-1.3.2-1.6-.2-.3-.5-1.5-.8-2.8-.6-1.3.1-4.4.3-7 .3l-4.7.1v16c0 8.8.3 16 .7 16s2.1-1.3 3.9-2.8c1.7-1.5 5.4-4.5 8.2-6.7l5.2-4-5.3-.6-5.3-.6 6.5-.3c6.3-.4 6.3-.4-3-1l-9.5-.6 10.4-.2c9.5-.2 10.7-.4 13.8-2.8 2.6-2 3.3-3.3 3.4-6.2.2-3 .3-3.2.6-1 .2 1.6.7 2.8 1 2.8.7 0 11.3-8.1 11.3-8.6 0-.2-2.5-.1-5.6.2-3.8.4-5.4.2-4.9-.5.3-.6 3.4-1.2 6.8-1.3l6.2-.1-6.5-.7c-5.9-.6-6.1-.7-1.8-.8 5.7-.2 7.8-1 7.8-2.8 0-.8 1.1-1.9 2.5-2.4s2.5-1.5 2.5-2.2c0-.8.3-.9.8-.3 1 1.4 4.6 1.9 3.7.6-.3-.7.3-1.1 1.5-1.1 1.5 0 2-.5 1.7-1.4-.4-1 .4-1.5 2.6-1.9 1.8-.2 3.3-.4 3.4-.3.2.1-16.5 13.4-30.2 24.1-11.1 8.6-11.9 9.2-16.4 13.1-4 3.4-16.9 13.4-17.3 13.4-.2 0-.3-53.6-.3-119s-.3-119-.6-119c-1.1 0-1.5 4.2-1.3 12.7.2 7.5 0 8.4-1.9 9.9-2.1 1.4-2.1 1.5-.2 1.2 1.6-.2 2.1.3 2.3 3.1.2 2-.1 3.1-.6 2.7-1.1-.7-1 .8.3 3.7 1 2.3-.2 6.8-2.3 8.4-1.4 1.1-1.4 1.3-.2 1.1 1.1-.2 1.4.4 1.2 2.1-.2 1.3 0 2.1.5 1.8s.9.5.9 1.7-.6 2.3-1.3 2.3c-.6 0-1-.4-.7-.9.3-.4 0-.8-.5-.8-.6 0-1.1 1.2-1.1 2.6 0 1.7.4 2.3 1.2 1.8 1-.6 1-.4.2.7-1.7 2.1-1.9 18.9-.2 18.9.9 0 1 .2.1.8-1.5 1-1.5 25.1.1 27.1.8 1.1.8 1.3-.1.8-.8-.5-1.1.8-1.1 4.3-.1 2.7.4 5.2.9 5.6.6.4.5 1.1-.3 2.1-1 1.2-1.3 16-1.6 67.7-.4 53.8-.7 66.6-1.8 68.8-1.7 3.2-2 7.3-.4 4.8.5-.8 1-1.1 1-.7s4.6-2.9 10.3-7.4c13.2-10.7 12.7-10.3 12.7-9.3 0 .5-1.6 2-3.5 3.3-3.5 2.3-3.8 4.4-.7 3.9.9-.2 1.6.3 1.4.9-.1.7.7 1.3 1.8 1.3 2.2 0 2.7-1.6.8-2.3-.7-.2-1-.8-.5-1.3.4-.4 1.5 0 2.5 1 1.6 1.6 1.6 1.8-.1 2.7-1 .6-1.4 1.5-1 2.2s-.1.6-1-.2c-1.5-1.2-1.7-1.2-1.2.1.3.9 1.8 2.1 3.2 2.7 1.4.7 3.4 2.3 4.5 3.6 1.7 2.2 5 2.7 6.7 1 1-1.1-4.2-4.3-5.8-3.7-1.4.5-1.4.4-.1-1 1.1-1.2 2-1.3 3.3-.6 1.5.7 3 .1 7.3-3.3 3-2.3 5.4-4.3 5.4-4.6 0-.8-2.8-3.3-3.7-3.3-.4 0-1.4-.9-2.1-2s-1.9-2-2.7-2-1.5-.4-1.5-.8c0-.5-1.1-1.4-2.4-2.2-2.2-1.1-2.8-.9-6.3 1.6-2.6 1.9-3.2 2.1-1.8.6 3.3-3.5 33.9-27.1 34.5-26.5.3.2-.9 1.4-2.5 2.6-1.7 1.2-4 3.1-5.2 4.3-1.1 1.2-2.8 2.4-3.7 2.7-1.4.5-1.5 1.1-.6 2.7.6 1.1 1.6 1.7 2.2 1.4.6-.4.8-.3.5.3-.4.6.5 1.8 1.9 2.8 1.4.9 2.3 1.9 2 2.2s-2.5-1.1-5-3.1c-2.4-2-4.6-3.6-4.9-3.6-.2 0-1.6 1.1-3.2 2.6-2.5 2.3-2.6 2.6-1.1 4.3 2.3 2.5 2 3-1.4 2.9-1.6-.1-3-.5-3-1 0-.4-.4-.8-1-.8-.5 0-1 .5-1 1.1 0 1.6 2.6 3.9 4.5 3.9.9 0 1.3.4 1 1-.3.5.1 1 .9 1 .9 0 2.1.9 2.8 2s1.8 2 2.5 2c.6 0 1.3.5 1.5 1.1.5 1.4 4.8-.6 4.8-2.1 0-1.4-2.4-1.2-3.8.2-.9.9-1.3.7-1.8-.5-.3-.9-1.3-1.7-2.2-1.7-.8 0-1.2-.3-.9-.7.4-.3-.1-1.1-1-1.8-1.3-.9-1.3-1.4-.3-2 .9-.5 1.1-.4.6.3-.5.8.1 1.2 1.4 1.2 1.2 0 1.8-.5 1.5-1-.3-.6.1-1 .9-1 .9 0 1.6.6 1.6 1.4 0 .7 1 1.6 2.3 2 3.4.9 3.7.8 3.7-1.4 0-1.6.5-1.9 2.5-1.6 2 .4 2.5.1 2.5-1.5 0-1.1.4-1.8.9-1.4.5.3 1.2.1 1.6-.4.7-1.3-1.6-5.1-3.1-5.1-.6 0-1.7-.6-2.3-1.4-.9-1.1-.7-1.5 1-1.9 1.1-.3 1.8-1 1.5-1.5s.3-2 1.3-3.3 1.7-3 1.5-3.7c-.1-.7 0-.8.3-.2.2.5 1 1 1.7 1s2.8 1.4 4.7 3.1c3.3 3 3.3 3 .7 2.4-1.9-.5-3.2-.1-4.7 1.4-1.2 1.2-2.6 2.1-3.1 2.1-1.2 0-1.3 1-.2 2.8.9 1.4 3.8.7 6.2-1.5.8-.8 2.4-2 3.5-2.8 1.8-1.2 1.8-1.6.6-3.6s-1.1-2.5.8-4c2.7-2.2 2.7-3.5-.4-5.5-3.6-2.4-3.1-3.8 1.1-3.1 4.9.8 6.6 0 5.2-2.3-.9-1.4-.9-2.2.1-3.3 2.7-3.3-1-2.5-5.8 1.3-2.8 2.2-5.5 4-6.1 4-.5 0-1 .4-1 .9s-.7 1.2-1.6 1.5c-2.5.9-.6-1.2 4.1-4.7 2.3-1.8 7.8-6 12.1-9.4 32.7-25.7 43.9-34.1 44.3-33.7.3.3-.2 1-1.2 1.5-.9.6-1.7 1.4-1.7 2 0 .5 1.1.2 2.6-.7 1.7-1.2 2.8-1.4 3.6-.6.7.7.5 1-.8.9-1.1-.1-2 .5-2 1.3-.1.8-.2 1.9-.3 2.4 0 .4-1.3.1-2.7-.9-1.5-.9-2.9-1.3-3.3-.9-.3.5-3.9 3.4-7.8 6.3-6.5 4.9-9 8.1-6.4 8.1 1.2 0 2.1 3.9 1 4.6-1.5.9-1 2.1 1 2.7 1.4.3 2.3-.3 3.1-2.4 1.2-2.8 2-3.3 4.8-3 .6.1 1.2-.3 1.2-.9 0-.5-.4-1-1-1-2.2 0-.8-2 3.5-5.1s4.4-3.3 2.8-5.1c-1-1.1-1.2-1.8-.4-1.8.7 0 2.3 1.2 3.6 2.6 1.8 1.9 3 2.4 4.2 1.9 2.6-1.2 10.3-1.4 10.3-.3 0 .5-.8 1.2-1.7 1.5-1 .4-2 .9-2.3 1.3-.3.3-2.7 2.3-5.5 4.5-7.1 5.6-7.1 5.5-5.5 5.5.8 0 3.1-1.5 5.1-3.3 6.3-5.5 10.2-8.2 12-8.2 3.1 0 2.8-1-.9-3.5-2-1.4-4.3-3.3-5-4.2-.7-1-2-1.8-2.8-1.8s-1.4-.3-1.4-.8c0-.4-2.5-2.5-5.6-4.7l-5.6-4 .6-96.3c.7-85.5.6-96.2-.8-96.2-.8 0-1.9-.6-2.3-1.3s-4.7-4.3-9.5-8l-8.6-6.7h-52.9c-37.5.1-52.3.4-51 1.2zm12.2 1.6c-.3.3-1.1 0-1.8-.7-.9-1-.8-1.1.6-.5 1 .3 1.5.9 1.2 1.2zm111.5 29.4c0 6.7-.2 11.9-.4 11.7s-.7-3.8-1.1-7.9c-.3-4.1-.8-7.7-1.1-7.9-.4-.5-.7 2.9-.6 6.6.1 1.3-.3 2.3-.8 2.3-1.5 0-1.3-15.7.3-16.3 3.5-1.5 3.7-.9 3.7 11.5zm-1.4 23.6c-1.1 1-1.5-.4-.8-2.8l.7-2.5.3 2.3c.2 1.3.1 2.6-.2 3zm.4 3.7c-1.4 1.7-3 2-3 .4 0-.5.5-.7 1-.4.6.3 1 .1 1-.4 0-.6.5-1.1 1.1-1.1.8 0 .8.5-.1 1.5zm.7 10.1c0 2.4-.5 4.4-1 4.4s-.6-.7-.3-1.6c.4-1.1.2-1.5-.8-1.1-1.6.6-3-3-1.4-3.9.5-.3.7-1.2.4-1.9-.3-.8.2-1.1 1.4-.8 1.4.4 1.8 1.4 1.7 4.9zm.1 9c.1.1-.5.4-1.6.6-1.2.4-1.8-.1-1.9-1.4-.2-1.7 0-1.8 1.5-.7.9.8 1.8 1.4 2 1.5zm-112.1 34.9c0 .8-.4 1.2-.9.9s-.6-1-.3-1.5c.9-1.3 1.2-1.1 1.2.6zm61.3 112c0 5.2-.4 9.5-.8 9.5-.9 0-1.3-16.9-.5-18.3 1-1.8 1.3-.1 1.3 8.8zm21-2.3v6l3.8-2.8c2-1.5 3.9-3.1 4.2-3.4 1.8-2.1 9.2-7.1 9.7-6.6.4.3.4.7.2.9s-3.3 2.5-6.9 5.2-10.6 8.2-15.7 12.2c-5 4-9.5 7.3-9.9 7.3-1 0 7.2-7 10.8-9.3 2.9-1.7 2.9-1.8 2.2-9.3-.4-5.5-.3-7.5.5-7 .6.4 1.1 3.4 1.1 6.8zm3-3.9c0 .5-.4.5-1 .2-.5-.3-1-1.4-1-2.3 0-1.5.2-1.5 1-.2.5.8 1 1.9 1 2.3zm-13 1.3c0 .9-.6 1.4-1.2 1.1-.7-.2-2.6.7-4.2 2.2l-2.8 2.6 1.6-3.2c.8-1.7 2.1-3.3 2.8-3.6 2.5-1 3.8-.7 3.8.9zm-25 1c0 .8-1.9 1.3-2.4.6-.3-.5.1-.9.9-.9s1.5.2 1.5.3zm80.6 1.6c.3.4-.1.5-1 .4-.8-.1-1.8-.5-2.2-.8-.3-.4.1-.5 1-.4.8.1 1.8.5 2.2.8zm-50.3 3.3c-.3.9-.8 1.4-1 1.1-.3-.3-.2-.9.2-1.5.9-1.6 1.5-1.3.8.4zm-22.3 1.5c0 1.1.5 2 1 2 .6 0 1 1 1 2.3 0 2.1-.5 2.3-6.6 2.5-4.3.2-6.3-.1-5.9-.8.3-.5 1.1-1 1.7-1s2.4-1.6 4.1-3.5c3.4-4 4.7-4.4 4.7-1.5zm-13 6.2c0 .5-1.8.8-4 .8s-4-.4-4-.9 1.8-.9 4-.8 4 .5 4 .9zm-20.3 5.8c.1 1.1-.2 2.2-.8 2.5-1 .7-1.3-2.8-.2-3.8.9-.9.9-1 1 1.3zm15.5 6.2c-.9.9-1.5.9-2.4 0s-.7-1.2 1.2-1.2 2.1.3 1.2 1.2zm14.3-.1c-3.8 1.1-12.5.9-12.5-.2 0-.4 3.5-.8 7.8-.7 5.9.1 7 .3 4.7.9zm11 29.9c.3.5.1 1-.4 1-.6 0-1.1-.5-1.1-1 0-.6.2-1 .4-1 .3 0 .8.4 1.1 1zm-52.5.8c0 .5-1.3.7-3 .4-1.6-.2-3-.6-3-.8s1.4-.4 3-.4c1.7 0 3 .4 3 .8zm32 4.2c0 .5-.7 1-1.6 1-.8 0-1.2-.5-.9-1 .3-.6 1-1 1.6-1 .5 0 .9.4.9 1zm2 2c0 .5-.5 1-1.1 1-.5 0-.7-.5-.4-1 .3-.6.8-1 1.1-1 .2 0 .4.4.4 1zm-19.3 12c-.1 1.5-.8 2-2.9 2-3 0-3.5-.9-1.6-2.8s4.7-1.5 4.5.8zm8.3 4.5c0 .5-.8 1.1-1.8 1.1-.9.1-2 .2-2.4.3-.5.1-1.1.1-1.5.2-.5 0-1.5.5-2.3 1.1s-.3-.1 1.2-1.4c2.6-2.5 6.9-3.3 6.8-1.3z"/><path d="m83.8 242.7c.6.2 1.8.2 2.5 0 .6-.3.1-.5-1.3-.5s-1.9.2-1.2.5zm99-230.7c1.9 2 2.9 2.1 39.1 2.1 20.5-.1 37.7-.3 38.2-.6.5-.4.9-1.3.9-2.1 0-1.2-5.8-1.4-40-1.4h-40.1zm128.4-.2c.3 1.6 3.5 1.7 40.3 2 30.5.1 40.2.5 41 1.5 2.3 2.9 10.6 8.8 11.5 8.2 1.1-.7-.5-4.6-1.8-4.3-.4.2-2-1-3.6-2.4-1.5-1.5-3.1-2.7-3.5-2.6-1.9.2-2.9-.4-3.4-2.2-.5-2-1.2-2-40.7-2-37.3.1-40.1.2-39.8 1.8zm87.8 5.6c0 .3-.4.8-1 1.1-.5.3-1 .1-1-.4 0-.6.5-1.1 1-1.1.6 0 1 .2 1 .4zm3.5 2.8c.5-.4.5-.1.1.6-.6 1-1.1 1-2.2.1-.8-.6-1.4-1.4-1.4-1.6 0-.3.6 0 1.3.6.8.6 1.8.7 2.2.3zm20.5-6.2c1.2 1.2 1.8 2.5 1.5 2.9-.2.5.3.8 1.3.7 1.1-.1 1.6.5 1.5 1.9-.3 2.8-.3 134 0 166.8.2 24.5.1 26.9-1.5 27.8-2.4 1.3-1.9 4.4 1.1 6.6 4.1 3 22.5 17.4 23.5 18.3.4.5.4 1.4 0 2.2-1.4 2.1-1.2 11.8.2 11.8.7 0 1.5-.6 1.8-1.3s.5-.7.3.3c-.1.8 0 1.7.3 1.8.7.5 6-2 6-2.8 0-.4-1.6-2.7-3.5-5.1s-3.5-4.7-3.5-5.2c0-.4 4 2.4 9 6.3 4.9 3.8 9.1 7 9.4 7 .2 0 .2-25.2 0-56-.1-34.4.1-55.8.7-55.5.5.4.9 2.6.9 5 0 2.5 1.2 9.5 2.6 15.7s4.3 18.9 6.4 28.3c2.1 9.3 6 26.4 8.5 38 2.5 11.5 5 22.7 5.5 24.7.6 2.1 1.5 5.6 2 7.8 1 3.8 2.3 5 3.4 3.1.3-.4 1.6-5 3-10.2 2.4-9.3 4-15.4 9-33.9 1.4-5.2 4.5-17 6.8-26.2 2.4-9.3 4.7-16.8 5.1-16.8.5 0 .6.4.3.9-.3.4-.5 15-.4 32.2.1 17.3.2 41.2.2 53.2l.1 21.8-3 2.8c-1.6 1.5-3.4 2.7-3.9 2.8s-1.2.6-1.5 1.2c-.4.6-3.8 3.4-7.6 6.3-6.7 5.2-9.5 8.5-5.9 7.1 1.3-.5 1.5-.3.9.7-.5.9-.4 1.1.4.6.6-.4.9-1.2.5-1.7-.3-.6.2-.9 1.2-.7 1.1.2 1.8-.2 1.7-.9-.2-.6 1.3-2.1 3.2-3.3s4.6-3.5 5.9-5.1l2.6-3 7.9 6c4.3 3.3 8.5 6.6 9.2 7.3.8.7 4.8 3.9 9 7s8.9 6.9 10.5 8.4c4.3 4 17.5 13.7 18 13.1.2-.2-.4-2.4-1.3-4.8-1.6-4-1.8-10.6-2.3-70.5-.4-56.7-.7-66.4-2-67.9-.9-1.1-1-1.6-.2-1.1.9.5 1.2-1.2 1.2-7.4s-.3-8-1.2-7.4c-1 .6-1 .4 0-.7 1.5-1.6 1.6-5.5.2-6.4-.7-.4-.7-1.1-.2-1.8 1.5-1.9 1.5-3.5 1.6-37 .1-27.2-.1-31.9-1.4-32.7-1-.7-1.1-1-.2-1 .6 0 1.2-.5 1.2-1.1 0-.5-.4-.8-.8-.5-.4.2-.8-.4-.8-1.4s.4-1.6.8-1.4c.4.3.8.1.8-.4 0-1.5-2.6-2.2-3.8-1-.7.7-1 .4-.9-.8.1-1.1.7-2.2 1.3-2.6 1.6-1 1.1-7.4-.5-7-.9.2-1.2-.5-.9-2.3.3-1.4.1-2.8-.3-3.1-.5-.3-.5-1.4.1-2.4.5-1 1-3.4 1-5.4 0-1.9.4-3.7 1-4.1 1.1-.7.2-3.5-1.2-3.5-.6 0-.7.7-.4 1.6.3.8.2 1.3-.3 1-1-.7-.7-8.3.4-9.4.4-.4.5.5.3 2-.5 2.9.1 3.5 1.7 1.9.6-.6 1 2.3 1.1 8 .1 8.1-.6 11-1.9 7.6-.4-.9-.6-.9-.6.1-.1.7.5 1.5 1.2 1.8.7.2 1.4 2.3 1.6 4.7.1 2.3.4 4.3.7 4.6.2.2.4-14.1.4-31.8 0-21.8-.3-32-1-31.6-.6.4-.9 1.3-.8 2 .2.8-.1 1.4-.7 1.3-.5 0-.9-.5-.7-1.1.2-.7 0-.8-.4-.4-1.6 1.6-1.2 3.5.7 3.2 1.9-.4 2 .2 1.8 8.6-.1 8.4-1.1 11.6-1.4 4.9-.2-3.5-1.5-5.4-1.5-2.1 0 1.2-.4 2-.9 1.6-1.6-.9-.8-4.5.9-4.5 1 0 1.6-.9 1.6-2.5 0-1.3-.2-2.2-.5-1.9-.4.3-.6 1-.6 1.5s-.4.9-1 .9c-.5 0-1.1-2.1-1.3-4.7-.2-2.9-.6-4.2-1.1-3.4-.9 1.4-.4 278.5.5 284.1.3 1.9.7 4.8 1 6.4.2 1.6 1.1 4 1.9 5.3 2.3 3.5.5 2.8-6.1-2.3-8.1-6.3-8.7-7.7-.8-1.8 3.6 2.7 4.7 2.3 3.3-1.3-.5-1.3-.9-6-.9-10.4 0-4.3-.4-7.9-.9-7.9s-1.1.6-1.4 1.2c-.3 1-.7 1-1.8.2-.8-.7-3.5-1.2-6.1-1.2-3.7-.1-4.6.2-4.1 1.3.3.8 0 1.5-.6 1.5s-1.1-.7-1.1-1.5c0-1.1-1.2-1.5-4.5-1.5-3.2 0-4.5.4-4.5 1.4 0 1.6 2.7 2.9 4.1 2 .5-.3.9 0 .9.7s.8 2.1 1.8 3.2c.9 1.1 1.3 1.8.7 1.6-1.5-.6-13.4-9.3-13.4-9.9-.1-.3 3.9-.4 8.9-.2l9 .2-.4-17.1c-.4-16.4-.3-17.1 1.5-16.6 1 .3 2.2.1 2.5-.4.7-1.1-4.9-1.1-9.7 0-2.1.5-4.3.4-5.3-.1-1.1-.6-2.2-.6-3.2.2-1 .9-1.4.9-1.4.1 0-.6-.1-1.4-.2-1.8-.2-.4 2.2-.6 5.2-.5 5.6.1 9.6-.6 8.6-1.5-.3-.3.1-2 .8-3.8 1.4-3.2 1.4-3.3-1.2-3.1-1.5 0-3.2.7-3.8 1.4-.8 1.1-1.6.7-3.7-2.1-1.4-1.9-2.3-3.7-2-4.1.4-.3-.7-.6-2.3-.6-2 0-2.5-.3-1.5-.9 1.1-.7 1.1-.9 0-1.3-2.1-.8-.3-2.1 2.8-2.3 2.4-.1 3.6-1.4 1.6-1.6-.5 0-1.4-.6-2.2-1.2-1.2-1-1.3-.9-.6.3.6 1.2.5 1.3-.6.2-.7-.7-1.4-2.8-1.6-4.7-.2-3.9 1.6-5.5 5.5-4.9 2.1.4 2.2.3.8-1.2-.9-.8-2-1.2-2.6-.9-.9.6-1.4-.8-1.1-2.8.1-.5-.3-.6-.9-.2-.7.4-.7 1.3.1 2.8 1 2.1.9 2.1-.5.3-1.3-1.6-1.5-7.1-1.6-35.5-.1-18.5-.5-37-.9-41.1-.6-6.8-.7-7.2-1.5-4-1 4.3-5.4 17.8-6.7 20.5-.5 1.1-2.1 6.5-3.5 12-1.3 5.5-2.9 11.3-3.4 13-8.7 30.3-14 49.3-14.6 52.7l-.7 4.3-.9-3c-.4-1.7-.6-4-.3-5.2s.1-2.4-.4-2.7c-1.7-1.1-2.2-6-.9-10.3.7-2.4 1.6-4.3 2-4.3s1.1 1.8 1.4 4c.8 4.6 1.9 5.2 2.7 1.3.4-2-.2-3.4-2.4-5.7-2.8-3-2.9-3-4.4-1.1-1.2 1.6-1.4 1.7-.9.2.4-1.1.1-1.7-.8-1.7-1.6 0-2-3.2-.5-4.1.6-.4.5-2-.3-4.4-.9-2.6-.9-4.3-.2-5.9.6-1.1 1.3-3 1.6-4 .6-1.6.4-1.7-.9-.6-1.1.9-1.5.9-1.5.1 0-.7-.5-.9-1-.6-.7.4-.7 1.2 0 2.5s.7 2.1 0 2.5c-.6.4-.8 1.6-.5 2.8.5 1.7.4 1.9-.4.7-.6-.8-1.1-2.7-1.1-4.2s-.4-3.8-1-5.2l-.9-2.5 5 .6c4.6.5 5.1.4 4.7-1.3-.3-2-.7-2.1-7.1-2.3-2.2-.1-3.6-.5-3.2-1.1.3-.5.2-1.8-.4-2.8-.5-1-2.5-9-4.4-17.7-2-8.8-4.7-21.4-6.1-27.9-1.5-6.6-2.9-13.1-3.1-14.5s-1.1-5.3-1.9-8.6c-.9-3.3-2.7-11.3-4.2-17.8-1.4-6.4-2.7-11.7-2.8-11.7-.5 0-.8 47.9-.7 97.8.1 45.2 0 53.2-1.2 52.5-.8-.4-5.2-3.7-9.8-7.2l-8.4-6.5.3-14.4c.2-13.2.1-14.3-1.5-14.2-1 .1-2 .1-2.3 0s-1.6-.3-2.9-.6c-1.8-.3-2.2-.1-1.7 1.1.3.9.2 1.3-.4 1s-1-1.4-1-2.4c0-1.3 1-1.8 4.2-2 2.3-.1 4.5-.4 5-.7 1.2-.7.8-13.3-.4-14-.6-.4-1.5-.1-2.1.6-.9.9-.9 1.1.2.8 1.8-.4 2.2 2.7.6 4.8-.7 1-2.5 1.9-3.9 2-1.8 0-2.4-.2-1.7-.9.5-.5.7-1.5.5-2.2-.3-.6.2-1.2 1.1-1.2.8 0 1.4.6 1.3 1.3-.2.7.2 1.3.7 1.3.6.1 1.1-.8 1.1-1.9.1-1.1-.1-1.8-.4-1.5-.3.2-1.1 0-1.9-.6-.7-.6-1.3-.8-1.3-.3s-.5.2-1.1-.6c-.9-1.3-1-1.3-.6.1.3.9.2 2.2-.3 2.9s-.8-1.3-.8-4.8c.1-3.4.5-5.9 1-5.6.4.3.6.9.3 1.4s-.1 1.2.5 1.5c.6.4.9.1.8-.7-.2-.8.5-1.2 1.7-1.1 1.8.2 1.8.2-.2-.9-1.6-.8-2.2-1.8-1.9-3.4.3-1.3.1-2.6-.4-2.9s-.7.4-.5 1.6c.3 1.5.1 1.9-.6 1.2-.6-.6-1.2-20.6-1.5-54.9-.3-29.6-.8-54.1-1-54.3-.9-.9-.3-3.2.6-2.6.6.3 1 .2 1-.4 0-.5-.4-1.1-1-1.3-1.1-.3-1.4-3.6-.7-8.8.5-3.7-.7-8-2.1-8-.5 0-.9.7-.9 1.5s.5 1.5 1 1.5c.6 0 .7.3.4.7-.4.3-.1 1.3.6 2.2 1 1.4 1 1.4-.4.4-1.2-1-1.8-1-2.8 0-1.1 1-1.2.8-.4-.8 1.1-2.3 1.1-3.5-.1-5.3-.4-.7-.5-1.6-.2-1.9.3-.4.6-.1.6.6 0 .9.5.9 2.3 0 1.2-.7 2.4-1.3 2.7-1.3.3-.1.4-.5.2-1.1-.2-.5-.4-5.4-.4-10.7 0-9.3-.1-9.9-2.5-11.8-1.4-1.1-3-1.7-3.5-1.4s-2-.1-3.3-1c-3.3-2.2-3.9-2-1.5.4zm8.5 7.9c-.3.6-1.1.8-1.7.5-.7-.4-.8-.2-.4.4 1.2 2 1.5 9.9.2 9.9-1.6 0-1.5-10.9.2-11.5.7-.2.9-.9.6-1.5-.5-.9-.4-.9.6 0 .7.6.9 1.6.5 2.2zm1.3 6.8c.1 3.1-.1 5.4-.4 5-.9-.9-1.5-10.7-.6-10.7.4 0 .9 2.5 1 5.7zm-.6 6.8c.3-.3.5.2.5 1s-.2 1.3-.5 1c-.3-.2-1.3 0-2.3.6-1.3.6-1.9.6-1.9-.1 0-.5.6-1 1.3-1.1 1 0 1-.2 0-.6-.7-.2-1.3-.9-1.3-1.4 0-.6.7-.6 1.9 0 1 .6 2 .8 2.3.6zm133.3 5.9c0 .9.7 2.1 1.5 2.6 1.4.9 1.2 1-1.5 1-.3 0-.6-.3-.6-.8-.1-.4-.5-1.8-1-3-.7-1.8-.6-2.3.3-1.9.7.2 1.3 1.1 1.3 2.1zm2.2 6.8c-.3.8-.6.5-.6-.6-.1-1.1.2-1.7.5-1.3.3.3.4 1.2.1 1.9zm-2.4.9c-.4 1.3-.9 1.7-1.5 1.1-1.1-1.1-.3-3.2 1.2-3.2.4 0 .6.9.3 2.1zm-134.7 5.6c-.7 8.9-.9 9.3-1.5 2.8-.5-5.1.1-8.5 1.5-8.5.3 0 .2 2.6 0 5.7zm.4 9.8c-.9 1-.9 1.5-.1 1.5.6 0 1.1.7 1.1 1.5s-.5 1.5-1.1 1.5c-.8 0-.8.5.1 1.5 1 1.2 1 1.5-.2 1.5-1.7 0-2-7.1-.4-8.2 1.7-1.2 1.9-.9.6.7zm134.5 18.2c-.2 1-.4 2.2-.4 2.6-.1.5-.5.6-1 .3-1.1-.7-.3-4.6.9-4.6.5 0 .7.8.5 1.7zm-134.1 22.1c.3.5-.1.9-.9.9s-1.2-.4-.9-.9c.3-.4.7-.8.9-.8s.6.4.9.8zm135.6 1.5c-1.4.8-2.7 1.2-3 1-.7-.6 2.3-2.3 4-2.3.8 0 .4.6-1 1.3zm-136.3 10.9c-.3.8-.6.5-.6-.6-.1-1.1.2-1.7.5-1.3.3.3.4 1.2.1 1.9zm.8 14.7c.3.5.2 1.2-.3 1.5s-.9-.1-.9-.9c0-1.7.3-1.9 1.2-.6zm93.2 43.3c-.3.8-.6.5-.6-.6-.1-1.1.2-1.7.5-1.3.3.3.4 1.2.1 1.9zm-83.7 17.4c0 .8-1.9 1.3-2.4.6-.3-.5.1-.9.9-.9s1.5.2 1.5.3zm.3 7.9c.9-.2 1.5.1 1.1.6-.3.5-1 .7-1.5.4s-.6.1-.3.9c.3.9 1.1 1.3 1.8.9.6-.4.6 0-.2.9-1 1.3-1 1.7 0 2.1.8.4.5.8-.9 1.2-1.3.4-2.1 1.1-1.8 1.5.8 1.2-.6 4.1-1.6 3.4-.5-.3-.6-1-.3-1.6.4-.7.2-.8-.4-.4-.7.4-1.2 1.6-1.2 2.6s-.4 2.2-1 2.5c-1.8 1.1-1 2.3 4 6 2.8 2.1 4.9 4 4.6 4.3-.5.4-5.1-2.8-9.8-6.7-1.5-1.3-1.5-1.6-.1-3.7.8-1.3 1.5-3.8 1.6-5.6.2-2.9.5-3.3 2.8-3 1.8.2 2.6-.2 2.6-1.2 0-1.2-.4-1.3-1.4-.5-.9.9-1.7.8-2.8-.1-1.7-1.4-2.1-3.5-.5-2.5.9.6 1.5-.8 1.1-2.9-.1-.5.4-.5 1.1.1s2.1.9 3.1.8zm101.7 53.5c0 .5-.4 1-1 1-.5 0-1-.5-1-1 0-.6.5-1 1-1 .6 0 1 .4 1 1zm-2.5 14.8c-.2.2-1.9-.4-3.8-1.2-2.7-1.1-3.7-1.1-4-.3-.2.7-.4-.3-.5-2l-.1-3.3 4.4 3.3c2.3 1.7 4.2 3.3 4 3.5zm-2.5 2.1c1.3 1.9 3.6 1.9 2.5 0-.4-.5-.1-.9.4-.9 1.5 0 1.4.6-.5 3.5-1.6 2.5-4.4 2.4-4.4-.1 0-.8-.7-1.4-1.5-1.4-.9 0-1.2-.6-.9-1.5.8-2.1 2.7-1.9 4.4.4zm3.8 8.2c-.2.6-.8 1-1.3 1s-1.1-.4-1.3-1 .4-1.1 1.3-1.1 1.5.5 1.3 1.1zm9.3 29.1c.8.3 1.1.9.7 1.3-.9.9-6.7-3.5-6.7-5.2-.1-.7.9-.2 2.2 1.1s3 2.5 3.8 2.8z"/><path d="m508.5 12.8c-.6.4-1.1 2-1.2 3.7l-.2 3 1.5-3.4c1.6-3.5 1.5-4.5-.1-3.3zm-200.5 2.4c0 .6-.3.8-.6.5-.4-.4-2.1.6-3.8 2.1s-4.3 3.4-5.6 4.3c-1.4.9-2.2 2-1.8 2.4.9 1 12.8-7.5 12.8-9.1 0-.8-.2-1.4-.5-1.4s-.5.5-.5 1.2zm102.1 1.1c-.8 1-.7 1.4.2 1.4.8 0 1.4-.6 1.4-1.4 0-.7-.1-1.3-.2-1.3-.2 0-.8.6-1.4 1.3zm6.3.9-1.9 2.3 2.3-1.9c1.2-1.1 2.2-2.1 2.2-2.3 0-.8-.8-.2-2.6 1.9zm-390.7.8c1.7 1.8 2.5 2.1 3.6 1.2.8-.7 1.8-.8 2.2-.4.5.4.5.2.1-.5-.3-.6-1.6-1-2.8-.8-1.2.3-2.9-.1-3.7-.7-.9-.7-.6-.1.6 1.2zm243.1-1.3c.6.2.9 1 .6 1.5-.4.7-.2.8.5.4 1.3-.9.5-2.6-1.2-2.5-.9 0-.8.2.1.6zm-94.6 1.5c-.7.7-1.2 1.7-1.2 2.4s-1 .9-2.5.6c-1.8-.3-2.5 0-2.3.8.2.7-.8 1.6-2.2 2-2.1.6-2.2.8-.8 1.5 2.1.9 10-4.2 10.4-6.8.3-2 .2-2.1-1.4-.5zm390.4-.1c.2.4-.2.9-.8 1.2-.7.2-1 .7-.7 1.1.3.3 1.6-.3 2.8-1.3 2.2-1.9 2.2-2 .3-1.8-1.2 0-1.9.4-1.6.8z"/><path d="m271.2 19.6c-.9 1-.6 1.7 1.6 3.2 1.5 1.1 3.3 1.7 3.9 1.5.7-.3 1.8.8 2.3 2.3 1 2.5.9 6.3-.3 31.1 0 .7-.3 1-.7.8-.3-.2-.5-4.8-.3-10.3.2-7.5 0-10.2-1.1-11.1-1.5-1.2-1.4-5.4-1.5 107.9l-.1 60.6-3 1.7c-1.6 1-7.2 5.1-12.4 9.2s-9.9 7.5-10.4 7.5-1.7.9-2.7 2c-2.1 2.3-4.4 2.8-2.5.5 1.6-1.9 1.4-2.1-3-3.3-2.4-.7-2.8-1-1.3-1.1 1.2-.1 2.5-.5 2.8-1.1s-.1-.7-.9-.4c-2 .7-2.1-.9-.3-2.5 1.8-1.4 2.6-.5 2.1 2.4-.3 1.6.2 2.4 1.6 2.8 1.1.3 2.3.1 2.6-.4s1.2-.9 2.1-.9 2.3-.7 3.2-1.5 3.4-3.1 5.6-5.1 3.4-3.3 2.6-2.9c-1.1.6-1.3.4-.8-1 .4-.9.2-2.5-.5-3.4-1.1-1.4-1.1-1.4.3-.3 1.3 1 1.9.9 2.9-.3 1.4-1.7 4-2 4-.5 0 1.7 1.6 1.1 4.4-1.7 2.7-2.6 2.9-4.6.2-2.4-1.1.9-1.6.9-2.2 0-.5-.8-.3-1 .7-.4.8.5 1.1.4.6 0-.4-.5-2.1-.9-3.7-1-2.3-.1-2.7.1-1.9 1.2.6.7 1.6 1 2.2.6.6-.3.7-.1.3.5-.5.9-1.3.8-3-.3-2.1-1.4-2.4-1.4-3.7.2-1.3 1.7-1.3 1.7.6.3s1.9-1.4.6.3c-1.4 1.7-1.5 1.7-3.5-.5-1.2-1.3-1.7-1.8-1.2-1.1 1 1.5.1 2.8-1.7 2.8-.7 0-1.1.8-.9 1.7.1.8-.6 1.8-1.5 2-1.5.4-1.8-.3-2-4.4-.2-5.7.3-5.9 11.2-5.5 3.9.2 8.1 0 9.5-.4s-2.8-.7-9.4-.8c-9.4-.1-11.7-.4-11.3-1.4.3-.8.1-2-.4-2.8-.5-.9-.9 4.1-.9 12.8 0 12.6-.2 14.2-1.6 13.6-1-.4-1.2-.8-.4-1.3 1.6-1 .1-4-2.1-4-1 0-1.9-.3-2-.8 0-.4-.2-1.8-.3-3-.2-1.3.3-2.6 1.1-2.9.7-.3 1.3-1 1.3-1.6s.7-1.8 1.6-2.8c1.9-2.1 1.2-3.8-1.4-3.4-.9.1-1.6.9-1.4 1.9.2.9-.2 1.6-.7 1.6s-.8-.9-.6-2c.2-1.2-.2-2-1-2s-1.2.6-1 1.2c.3.7.1 2.6-.5 4.3-.6 2-.9-23.4-.7-74.5l.2-77.5-16.7-.3c-11-.2-16.8.1-16.8.8 0 .5.5 1 1 1 .6 0 1 .7 1 1.5 0 .9-.6 1.2-1.5.9-.8-.4-1.5-1.6-1.5-2.7 0-1.3-.3-1.8-1-1.1-.5.5-1 12.2-1.1 27.7-.1 23.6-.3 26.8-1.8 27.8s-1.5 1 .1.5 1.7 2 1.7 34.6c0 19.3.3 35.3.6 35.6.2.3 0 1-.5 1.7-.7.8-.5 1.2.5 1.2.8 0 1.2-.4.9-.9-.3-.4-.1-.8.5-.8.5 0 1.1.3 1.3.8.2.4 2.4 2.5 5.1 4.6 2.6 2.1 4.7 4.5 4.7 5.2 0 .8.5 1.5 1 1.5.6.1 1.4.2 1.9.3.5 0 1.3.5 1.8 1s.2.6-.7.2c-.8-.4-.7-.1.3.8 1.1.8 2.5 1.2 3.3.9s1.4-.1 1.4.5-5.8 1.1-15.5 1.1c-8.5.1-15.5-.2-15.5-.6 0-.5 2.9-.8 6.5-.7s6.8-.2 7.1-.7 1-.7 1.5-.4c.5.4.9.1.9-.4 0-1.4-1.3-1.4-2.6-.1-.6.6-1.4.2-2.2-1.1-.8-1.2-.9-1.8-.4-1.5 1.4.8 4.5-3.1 3.9-4.8-.7-1.7-3.8-1.1-3.4.6.1.6-.6 1.2-1.6 1.3-1.4.3-1.5 0-.8-.9.6-.7.7-1.7.3-2.1-.4-.5-.1-.5.6-.1.6.4 1.2.2 1.2-.4s.4-.9.9-.5c.5.3 1.2.1 1.6-.4.3-.6-.4-.8-1.7-.5-4.8 1.1-5.3 1-5.1-1.6l.3-2.5-1 2.3c-.5 1.3-1.4 2.1-1.9 1.7-.6-.3-1.5.4-2.1 1.6-1 1.7-.9 2 .1 1.4.8-.6 1-.4.4.5-.5.9-.4 1.1.4.6.6-.4.9-1.2.6-1.7-.7-1.1 3.1-.7 4.2.5.5.4.3.7-.2.6-2-.4-3.6 0-3.1.8.2.4-.6.8-1.9.8-1.7 0-2.2-.5-2-1.8.2-1 0-1.8-.6-1.8-.5 0-.9 2.7-.9 6v6h-13.7c-7.5 0-13.4-.3-13-.6.3-.4 5.9-.8 12.4-.9 6.5-.2 12.2-.3 12.6-.4.5 0 .8-2 .7-4.4-.3-7 0-11.1.7-10.4.3.4 1.2.2 2-.5.8-.6 1.3-.7 1.1-.2s0 1 .5 1.1c.4.2.7 0 .6-.3 0-.4.5-1.1 1.3-1.6 1-.8 1-.9-.2-.5-.8.2-2.3 0-3.2-.5-1.2-.6-1.8-.5-1.8.3 0 .6-.9.9-2 .6-1.3-.3-2 0-2 .9 0 .8.5 1.4 1 1.4.6 0 1 .5 1 1.1 0 .5-.4.8-.8.5-.5-.3-1 1.8-1.1 4.7-.1 2.8-.4 5.3-.6 5.5-.2.3-5.4.6-11.5.9l-11 .4v-6c0-6.2.5-6.8 5.1-6.3.3.1.6-.5.6-1.2s-.6-1.3-1.4-1.3c-.7 0-1.3.4-1.3.9 0 .4-.7.8-1.5.8-1.9 0-2.2-21.3-1.5-93.5.6-57.3.5-59.5-1.6-59.5-.8 0-1.4.4-1.4 1 0 .5.4 1 .9 1 1 0 .8 4-.3 5.8-.3.6-.2 1.3.4 1.7 1.3.8.7 11.4-.7 12.3-.6.4-1.3 1.6-1.6 2.7s-.5-4.3-.5-12c-.1-16.4-.2-17.7-1.2-11-.5 2.7-.9 45.9-.9 96l-.1 91 11.6 9c10.4 8 11.4 9.1 9.8 10.2-1 .7-1.3 1.3-.7 1.3s2.7 1.6 4.6 3.5 4 3.5 4.7 3.5c.6 0 .9.4.6.9s.1 1.2.9 1.5c1.2.4 1.3.2.6-1.3-.6-1-.7-2.1-.4-2.5.3-.3.2-.6-.3-.6s-2.2-1.1-3.8-2.5-3.6-2.5-4.5-2.5c-1.1 0-1.2-.3-.4-1.1s3.6.9 10.5 6.4l9.4 7.4 13.8.1h13.8l5.2-4.7c6.5-5.7 21.8-17.9 26.6-21.1 4.4-3 11.7-8.6 15.8-12.1l4.2-3.6.1-8.9c0-6.1.3-8.2.9-6.8.5 1.2 1.3 2.5 1.9 2.9 1.6.9 1.3 2.5-.4 2.5-.9 0-1.5.9-1.5 2.5s.6 2.5 1.5 2.5c1.7 0 1.9 1.4.5 4-.7 1.3-.6 1.9.5 2.4 1.3.4 1.5-1.1 1.5-10.4 0-9.6-.2-11-1.9-11.9-1-.6-2.1-.7-2.5-.4-.3.3-.5-2.7-.5-6.8.1-4.1.3-6.5.6-5.4.2 1.1.7 2.7 1 3.5s.5 1.8.5 2.2c-.1.5.2.8.8.8 1.3 0 1.3-1.3-.2-2.8-.9-.9-.7-1.3.5-1.8 2.5-.9 2.1-3.9-.8-5.4-2.2-1.2-2.5-2-2.4-6.4.1-4.1.3-4.6.9-2.6.8 2.4.8 2.3.9-.8.1-2-.3-3.1-.9-2.7s-1-1.9-.9-6.2c.1-3.7.4-5.7.6-4.3.3 1.3 1.1 2.9 1.9 3.5s1.5 3.5 1.7 7c.3 4.8.4 4.2.5-2.9.2-7.5 0-8.7-1.3-8.2-.9.3-1.5 0-1.5-.9 0-.8-.4-1.5-1-1.5-.7 0-1-20.3-1.1-58.8-.1-32.3-.4-59.7-.7-60.9-.4-1.2-2.5-3.5-4.7-5.1-3.3-2.3-4.3-2.6-5.3-1.6zm-105.2 33.4c0 .5-.5 1-1.1 1-.5 0-.7-.5-.4-1 .3-.6.8-1 1.1-1 .2 0 .4.4.4 1zm56 2.4c.8.2-1.6.4-5.3.5-3.8 0-6.6-.2-6.3-.7.4-.7 8.1-.5 11.6.2zm11.5-.4c-.3.5-1.1 1-1.6 1-.6 0-.7-.5-.4-1 .3-.6 1.1-1 1.6-1 .6 0 .7.4.4 1zm5.2 6c.1 4.2-.2 7-.8 7s-.8-1.3-.5-3c.2-1.7.1-3-.2-3-3.2.1-3.3 1.3-3.6 60.1-.1 32.1 0 61.9.3 66.2.3 4.2.5 7.7.5 7.7-.1 0-5.7-4.3-12.5-9.6-9.9-7.6-12.4-10.1-12.6-12.3-.1-1.4-.3-17.8-.3-36.4-.1-25.2-.4-33.7-1.3-33.7-.8 0-.8-.3.1-.9 1.6-1 1.3-12.7-.4-12.4-.6.1-1.1-.5-1.1-1.2 0-1.1.4-1.2 1.4-.3 1.1.9 1.3.2 1.2-4.1-.2-3.5-.6-5.1-1.6-5.1s-1.3-2.3-1.2-10.5c0-5.8.4-10.5.8-10.5.3 0 .6 4.2.5 9.2-.2 13.2 1 13.4 1.6.3l.5-11h12.3c7.8 0 12.5-.4 13-1.1.4-.6 1.4-1.4 2.2-1.7s1.5-.6 1.5-.6c0-.1.1 3.1.2 6.9zm-9.4-5.3c-.7.2-1.9.2-2.5 0-.7-.3-.2-.5 1.2-.5s1.9.2 1.3.5zm-64.3 1.8c0 .8-.6 1.5-1.2 1.5-.9 0-.9.3-.2.8 1.3.9 1.2 10.4-.2 10.9-.7.2-1-2.2-1-7.2 0-5.4.4-7.5 1.3-7.5.7 0 1.3.7 1.3 1.5zm114 6.5c0 .5-.5 1-1.1 1-.5 0-.7-.5-.4-1 .3-.6.8-1 1.1-1 .2 0 .4.4.4 1zm0 4.6c0 .8-.4 1.2-1 .9-.5-.3-1-1-1-1.6 0-.5.5-.9 1-.9.6 0 1 .7 1 1.6zm-40.4 4.8c-.2 1.7-.5 3.5-.6 4.1-.1.5-.1 1.2 0 1.5.6 1.6.7 7 .1 7-.4 0-.7-1.2-.6-2.8.1-1.5-.1-3.2-.4-3.7-1-1.8-1-7.6 0-7 .5.4.9.1.9-.4 0-.6-.4-1.1-1-1.1-.5 0-1-.4-1-1 0-.5.7-.7 1.5-.4 1 .4 1.4 1.6 1.1 3.8zm-74.8 5.7c-1.1.7-1 .9.1.9 1 0 1.1.3.2 1.4-.8 1-.9 1.6-.1 2.1.5.3 1 1.2 1 1.8 0 .7-.7.3-1.5-.7-1.8-2.4-1.9-7.7-.2-9.5 1-1.1 1-1.3 0-.7-.8.4-1.3.1-1.3-.8 0-.8.6-1.6 1.3-1.9 1.7-.6 2.2 6.3.5 7.4zm115.2-6.6c0 .8-.2 1.5-.4 1.5s-.6-.7-1-1.5c-.3-.8-.1-1.5.4-1.5.6 0 1 .7 1 1.5zm-.3 4.7c-.3.8-.6.5-.6-.6-.1-1.1.2-1.7.5-1.3.3.3.4 1.2.1 1.9zm-113.7 10.2c0 1.1-1.9 1.5-2.5.6-.3-.5.1-1 .9-1 .9 0 1.6.2 1.6.4zm120.7 106.3c-.3 1-.5.2-.5-1.7s.2-2.7.5-1.8c.2 1 .2 2.6 0 3.5zm-95.2 6.3c.4.6 1.2.7 1.8.3.7-.5 4.5-.8 8.5-.8h7.2v7.7c0 6.7-.2 7.8-1.7 7.9-1 0-6.4 0-12-.1-9-.1-10.2.1-10.6 1.7-.3 1.3-.5 1.1-.6-.7l-.1-2.5 11.9.3 11.9.4-.3-6.2c-.1-3.4-.7-6.6-1.3-7.2-.7-.7-.9.1-.7 2.6.1 1.9-.2 3.3-.6 3.1-.4-.3-.6-1.6-.4-3 .1-1.4-.2-2.5-.6-2.5-.5 0-.9.8-.9 1.8s-.7 2.8-1.6 4c-.8 1.2-1.2 2.2-.8 2.2.3 0 .1.7-.6 1.5s-1.6 1.2-2.2.9c-.5-.4-.5-1 0-1.7s1.3-2.7 1.7-4.5c.5-2.5.3-3.2-.9-3.2-.9 0-1.6.7-1.6 1.6s-.6 1.4-1.2 1.1c-.7-.2-2.8.4-4.5 1.5-1.8 1.1-3.4 1.6-3.4 1.1-.1-.4-.2-2.2-.3-3.8-.2-2.2-.7-2.9-1.9-2.7-.9.2-1.7-.2-1.7-.8 0-1.3 6.7-1.3 7.5 0zm23.3.3c.7.5.9 1.4.5 2.2-.5.7-.7 5.7-.5 10.9.3 9.5.4 9.6 2.8 9.6h2.5l-.2-10.3c-.1-5.9-.6-10.8-1.3-11.6-.8-1.1-.8-1.3.1-.8.6.4 1.4.3 1.8-.3s1.1-.8 1.6-.4c.5.3.6 1.1.2 1.7-1 1.5-1.3 7.9-.5 9.2 1 1.6 1.1 3.6.1 2.9-.5-.3-.9 1.7-.9 4.5 0 3.7.5 5.3 1.8 6.1 1.6 1.1 1.6 1.1-.1.6-1-.3-4.4-.7-7.5-.7-3.1-.1-4.7-.4-3.4-.6 2.2-.4 2.3-.8 2-8.6-.2-5.1-.7-8-1.3-7.7-.5.3-1 1-1 1.7 0 .6-.4 1.5-.8 1.9s-.7-.5-.7-1.9c0-1.5.4-2.7.8-2.7 1 0 .9-3.6-.1-4.6-2.1-2.2 1-2.9 4.1-1.1zm13.6.8c-.8.9-1.4 2-1.3 2.5s0 1.1-.1 1.4c-.2.3-.4 3.2-.5 6.5-.2 3.3-.4 6.9-.4 7.9-.2 3.8-1.3.6-1.3-3.6.1-2.3-.5-4.9-1.1-5.7-1-1.2-.9-1.3.3-.6s1.3.6.5-.6c-.9-1.2-1.1-4.3-.6-8.5 0-.7 1.4-1.1 3-1 2.7.1 2.8.2 1.5 1.7zm-46.2 5c-.4 11-.4 10.9-5.7 8.9-2-.8-2.4-1.4-1.7-2.3.5-.6 1.3-2.7 1.7-4.5.3-1.8 1.5-3.7 2.6-4.3 1.1-.5 1.7-1.4 1.4-2-.4-.5-1-.7-1.5-.4s-1.1.1-1.4-.3c-.3-.5.7-.8 2.2-.7 2.6.1 2.6.3 2.4 5.6zm4.2-4c-.4.6-.8 2.5-.9 4.1-.4 4.5-1.5 4.6-1.5 0 0-3.4.6-4.6 2.8-5.1.2-.1 0 .4-.4 1zm49.2 1c1.3 2.2-1.3 3.2-3.8 1.4-1.5-1.1-1.7-1.5-.5-1.2.9.4 1.7.2 1.7-.3 0-1.3 1.7-1.3 2.6.1zm3.4 3.3c0 .3-.4.8-1 1.1-.5.3-1 .1-1-.4 0-.6.5-1.1 1-1.1.6 0 1 .2 1 .4zm-46.3 1.9c0 .8-.6 1.4-1.4 1.4-.9 0-1-.4-.2-1.4.6-.7 1.2-1.3 1.4-1.3.1 0 .2.6.2 1.3zm2.8 2.4c-.2 1-.4 1.9-.4 2.1-.1.2-.6 0-1.1-.3-.8-.5-.7-1.1.1-2.1 1.5-1.8 1.8-1.8 1.4.3zm61.3 1.8c-.3.3-.9-.2-1.2-1.2-.6-1.4-.5-1.5.5-.6.7.7 1 1.5.7 1.8zm-81.6 6c1.2 1.1 3.9 3.1 5.8 4.5 1.9 1.3 4 2.9 4.5 3.6.6.6 3 2.5 5.5 4.2s6.1 4.4 8 6.1c3.7 3.3 5.5 4 4.7 1.7-.3-.7 0-1.9.6-2.5.7-.7.8-1.1.2-1-1.4.4-5.5-1.1-5.5-2 0-.4.7-.8 1.5-.8s1.2.4.9.9c-.3.4.4.8 1.5.8 1.2 0 2.1-.7 2.1-1.5 0-.9-.9-1.5-2.4-1.5-1.3 0-2.9-.7-3.6-1.5-1.1-1.4-.7-1.9 1.3-1.6.4.1 1-.6 1.3-1.4.4-.9 1.9-1.5 4-1.5h3.4v6.6c0 4.9.3 6.3 1.3 5.8.8-.5.8-.2-.2.9-1.2 1.5-1 1.7 2 1.8 2.9.1 2.5.3-2 1.3l-5.4 1.1 4.6 3c2.6 1.6 4.7 3.3 4.7 3.8 0 1-.8.4-27.9-20.7-10.5-8.1-19.1-15.5-19.1-16.3 0-1 .9-.6 2.9 1.3 1.6 1.6 4 3.8 5.3 4.9zm18.2-1.6c-.8.8-3.4 1-3.8.2-.3-.4.6-.7 1.9-.7 1.4 0 2.2.2 1.9.5zm7-.1c.3.5-.1.9-.9.9s-1.2-.4-.9-.9c.3-.4.7-.8.9-.8s.6.4.9.8zm8.6 3.2v4l-6.7-.2-6.8-.2 6.4-.3 6.3-.4-.5-2.8c-.5-2.5-.1-4.1 1-4.1.2 0 .3 1.8.3 4zm-27-1.5c1 1.2 1 1.5-.4 1.5-.9 0-1.6-.7-1.6-1.5s.2-1.5.4-1.5.9.7 1.6 1.5zm56 3.5c0 .5-1.2 1-2.7.9l-2.8-.1 2.5-.8c1.4-.4 2.6-.8 2.8-.9.1-.1.2.3.2.9zm-6.7.7c-.7.2-2.1.2-3 0-1-.3-.4-.5 1.2-.5 1.7 0 2.4.2 1.8.5zm-38.6.9c-.3.3-1.2.4-1.9.1-.8-.3-.5-.6.6-.6 1.1-.1 1.7.2 1.3.5zm35 1c-.3.3-1.2.4-1.9.1-.8-.3-.5-.6.6-.6 1.1-.1 1.7.2 1.3.5zm6.8.4c-.3.5-1.3 1-2.1 1s-1.4-.5-1.4-1c0-.6.9-1 2.1-1 1.1 0 1.7.4 1.4 1zm3.5 1.1c0 1.5.5 1.9 1.9 1.4 1.2-.4 2.1 0 2.5 1.1.4 1.2-.6 2.8-3.6 5.3-2.3 2-6.2 5.5-8.6 7.9-6.1 5.8-10.4 8.8-9.6 6.8.3-.9 1-1.6 1.4-1.6.9 0 9-7.5 9-8.3 0-.3-2.4-.8-5.2-1l-5.3-.3 5.8-.2c6.3-.2 8.2-.9 12.3-4.7 3-2.8 2.7-3.8-1.2-3.8-1.4 0-2.2-.2-1.6-.6.5-.3.8-1.4.6-2.4-.1-.9.2-1.7.7-1.7s.9.9.9 2.1zm-45.3-.5c-.3.3-1.2.4-1.9.1-.8-.3-.5-.6.6-.6 1.1-.1 1.7.2 1.3.5zm6 0c-.3.3-1.2.4-1.9.1-.8-.3-.5-.6.6-.6 1.1-.1 1.7.2 1.3.5zm16.3.9c-1 1.2-1 1.5.1 1.5 1.2 0 1.2.2 0 .9-.9.6-1.4 2.4-1.3 5 .2 3.8.1 4-1.8 2.9-1.3-.8-1.5-1.5-.8-1.9 1.9-1.2 1.9-4.2.1-3.5-1.2.5-1.3.4-.5-.7.7-.8.9-1.7.5-2.1s.1-.4 1.2 0 1.7.4 1.3-.1c-.7-.8.8-3.5 1.9-3.5.3 0 0 .7-.7 1.5zm5.5-.5c-.4.6-.1 1.8.7 2.7.9 1.2.9 1.5.1.9-1-.5-1.3.5-1.3 4.3 0 3 .5 5.1 1.3 5.4.6.2.9.8.5 1.2-.4.5-1.8.3-3-.3-1.3-.6-1.7-1.1-1-1.1.8-.1 1.2-2.1 1.2-6.7 0-4.1-.4-6.3-1-5.9-.5.3-1 .1-1-.4 0-.6.9-1.1 2.1-1.1 1.1 0 1.7.4 1.4 1zm13.5 2.6c0 2.2-1.6 2.4-3.2.5-1.5-1.7-1.4-1.9.8-1.9 1.3 0 2.4.6 2.4 1.4zm-6.5 1.4c.3.5.1 1-.4 1-.6 0-1.1-.5-1.1-1 0-.6.2-1 .4-1 .3 0 .8.4 1.1 1zm-2.8 1.5c0 .8-.4 1.2-.9.9-.4-.3-.8-.9-.8-1.5 0-.5.4-.9.8-.9.5 0 .9.7.9 1.5zm.8 8.5c-.3.5-1.2 1-1.8 1-.7 0-.6-.4.3-1 1.9-1.2 2.3-1.2 1.5 0zm-3.5 3.6c0 1.3-.3 1.4-1.5.4s-1.4-.8-1 .8c.2 1.2-.4 2.7-1.2 3.4-1.4 1.1-1.5.9-1.1-1.9.3-2.4 0-3.3-1.1-3.6-.9-.3.1-.5 2.2-.6 2.8-.1 3.7.3 3.7 1.5z"/><path d="m234.6 60.5c-.3.8-.1 1.5.4 1.5 1.3 0 2.2-1.8 1.1-2.4-.5-.3-1.1.1-1.5.9zm-24.1 71.5c-.3.5.3 2 1.5 3.2 1.1 1.2 1.8 2.8 1.6 3.5-.3.7.1 1.3.9 1.3.9 0 1.2.8 1 2.2-.3 1.2.1 2.6.8 3 .9.6.9.8 0 .8-.8 0-1 .7-.6 1.7.5 1.4.1 1.3-1.9-.5-3.2-2.9-4-2.8-3.6.5.2 1.6.8 2.6 1.3 2.4.6-.1.9-.7.7-1.3-.3-1 1.2-.4 3.6 1.5 1.1.8 1.1 1.2 0 1.8-1 .7-.9 1.2.5 2.6 1.6 1.6 1.7 1.6 1.7-.8 0-1.4-.5-3-1.2-3.7s-.8-1.2-.2-1.2c2 0 .9-7.8-1.4-10.9-1.2-1.7-1.8-3.1-1.2-3.1 1.6 0 1.2-1.4-1-2.7-1.2-.8-2.1-.9-2.5-.3zm8.8 8c-.1 1.1.2 2.2.8 2.5.5.4.8-.3.6-1.4-.4-2.8-1.2-3.4-1.4-1.1zm-8.7 13.7c-.6 1.4-.5 1.5.5.6.7-.7 1-1.5.7-1.8s-.9.2-1.2 1.2zm8.8 3.2c.1 2.5.4 2.8 1.8 2 1.3-.7 1.6-.6 1.3.3-.3.7.3 1.8 1.4 2.5 1.6 1 2 .9 2.4-.8.3-1 .1-1.7-.4-1.4-.9.6-4.9-3-4.9-4.5 0-.6-.4-1-.9-1s-.8 1.3-.7 2.9zm-9.2 6.1c.3 4.1.9 8.4 1.3 9.4.6 1.4.5 1.7-.3 1.2-.7-.4-1.2-.1-1.2.8 0 .8.6 1.3 1.3 1.2 2.4-.3 3.6-1.7 3-3.4-.3-.9-.3-1.4.2-1 .4.4.8 1.8.9 3 .1 1.4.8 2.4 2 2.6 1.7.4 1.8 0 1.3-3.2-.7-4.2.7-5.5 3.3-3.1 2.3 2.1 1.6 5.3-.7 3.3-1.3-1-1.5-.9-1.2.7.3 1.3 1.3 1.9 3.6 2 2.9.1 3.2-.1 3.1-2.4-.1-1.4-.6-3.2-1.2-4-.6-.7-.9-2.6-.8-4.1.2-1.6-.1-3.1-.7-3.5-.7-.3-1.1.2-1.1 1.4 0 1.5-.6 2.1-2.2 2.1-1.9 0-2-.2-.8-1 .9-.6 1-1 .3-1s-1.7.8-2.3 1.7c-.9 1.6-1.2 1.6-3.3-.9-1.2-1.6-2.3-3.8-2.4-4.9-.1-1.2-.7-2.7-1.3-3.3-.9-.8-1.1.8-.8 6.4zm4.8 6.3c0 .6-.9.2-2-.8s-2-2.3-2-2.8c0-.6.9-.2 2 .8s2 2.3 2 2.8zm15.3-11.3c-.1 1.1.2 2 .7 2 .4 0 .7-.7.6-1.5-.3-2.3-1.2-2.6-1.3-.5zm-2.3 9.8c0 1.6.4 2.1 1.3 1.6.8-.5.8-.3-.2.9-1.1 1.4-1.1 1.8.2 2.3.9.3 1.3 1.2 1.1 1.9-.3.7 0 1.6.6 2 1.8 1.1.4-7.6-1.5-9.4-1.3-1.4-1.5-1.3-1.5.7zm-35.5 33.2c-.3.5-1.5 1-2.5 1-1.1 0-1.7.6-1.6 1.5s.6 1.4 1.2 1.3c.5-.2.8-.7.6-1.1-.1-.4.5-.7 1.4-.5 1 .2 1.8-.4 1.9-1.5.4-1.9-.1-2.2-1-.7zm18.5.5c.7.8.9 1.9.6 2.4-.4.5-.3 1.2.2 1.5s.9 0 .9-.7.2-1.8.4-2.6c.2-.7-.4-1.5-1.4-1.6-1.4-.3-1.6-.1-.7 1zm-34.4 9c-.3.8-.1 1.5.4 1.5.6 0 .9.4.8.9-.2.5 0 .9.5 1 .4.1.6 0 .5-.2-.1-.1.4-1.2 1.1-2.5 1-1.9.9-2.2-.8-2.2-1 0-2.1.7-2.5 1.5zm25.4 17c-.7.9-2 1.3-2.9 1-.8-.3-1.2-.2-.7.2.4.4 2.2.8 3.9.8 2.9 0 3.1.3 3.2 3.8.1 2.1-.2 4-.7 4.3-.4.3-.8 1.2-.8 2.1 0 1.3.3 1.3 1.5.3 2.3-1.9 1.7-14-.6-14-.9 0-2.2.7-2.9 1.5zm295.4-204.9c-4.3 3.9-4.6 4.4-2.4 4.2 1.6-.2 2.5-.9 2.5-2 0-.9.4-2 .9-2.5.5-.4.6-.3.2.4-1.2 2.2 1.2 1.4 3.7-1.1 4.6-4.6.2-3.6-4.9 1zm-87.8-2.7c-.3.5-1.6.7-2.9.4-2-.5-1.9-.3.7 1.9 1.9 1.6 2.5 2.7 1.8 3.2-.6.3-1.5-.2-2.1-1.1-.8-1.5-1.2-1.6-2.3-.5s-1 1.5.2 2.2c.8.5 2.3 1 3.2 1 1.2 0 1.6.6 1.2 1.7-.5 1.7-.5 1.7.9 0 1.4-1.6 1.5-1.5 1.9 1.3.3 1.6.1 3-.4 3-.4 0-.8-.5-.8-1 0-.6-.4-1-1-1-.5 0-.7.7-.4 1.5.4.8 1.2 1.5 1.8 1.5.7 0 1.3.7 1.3 1.5 0 1-.4 1.2-1.2.5-.7-.5-1.5-.7-1.8-.3-1.3 1.3-.7 2.3 1.6 2.4 1.2 0 1.6.3 1 .6-.9.3-1 1-.3 2.4.6 1.1.7 1.9.2 1.9-.6 0-1.2-1-1.5-2.2-1-3.6-1.6-1.7-2.1 7-.4 7.9-.4 8.2 1.7 8.1 1.7-.1 1.8-.2.5-.6-1-.2-1.8-.9-1.8-1.4 0-.6.6-.7 1.3-.3.7.5.7.2-.2-1-1.2-1.5-1.2-1.7 0-1.4 1.4.3 2.9 3.7 2.2 5-.2.5-1.3.8-2.3.8-1.7 0-1.8 1-1.7 18 .1 11.2-.2 18.2-.8 18.4-.5.3-.4.5.3.5.7.1 1.1.5.8 1-.6.9-.9 107.1-.4 110.2.2 1.1-8.8 8.6-27.2 22.8-15.1 11.7-28.1 21.5-28.8 21.8s-2.8-.7-4.5-2.3c-1.8-1.6-5-4.3-7.2-6s-7.7-5.9-12.3-9.4c-4.5-3.4-8.5-6.8-8.9-7.4-.3-.6 0-.5.8.1.7.7 2 1.3 3 1.3 1.4 0 1.6-1 1.4-5.9-.2-5 0-5.9 1.4-5.6 1 .1 1.6 1.2 1.6 2.7 0 2 .4 2.4 2.4 2.3s2.5-.6 2.6-3.3c.2-4.1 1.5-5.4 1.6-1.6.1 1.6.2 4 .3 5.4.1 1.6.6 2.4 1.6 2.2 1.1-.3 1 .2-.4 1.7-1.9 2.1-1.9 2.1 1.8 2.1h3.8l-.4-8c-.2-4.4 0-8 .5-8 .4 0 .7 7.1.7 15.7l.1 15.8 2.6 1.9c1.8 1.4 2.8 1.6 3.1.8.2-.7 1-1.2 1.8-1.2s1.3-.6 1.2-1.3c-.2-.7.6-1.1 2.3-.9l2.6.2-.4-11.5c-.4-10.1-.2-11.4 1.1-10.9.9.3 1.6.1 1.6-.5s-.6-1-1.2-.9c-.8.2-1.4-1-1.6-2.9-.3-3.1-.4-3.2-6-3.6l-5.7-.3 6.3-.2c6-.2 6.2-.1 6.2 2.3 0 2.9 1.7 3.3 3.5.8.9-1.3 1.4-1.3 2-.3.5.9.4 1.1-.3.6-.7-.4-1.2-.2-1.2.3 0 .6.4 1.1.9 1.1s1.1.9 1.4 2.1c.4 1.4 1 1.8 1.8 1.3.9-.5 1-.2.6.9-.3.9-.2 1.9.3 2.2s.7 1.4.5 2.4c-.4 1.9 2 3.7 2.9 2.2.3-.4.5-6.5.4-13.5 0-6.9.2-12.9.6-13.3.7-.7 1 7.8.7 16.9-.2 3.9.1 5.8 1 5.8.8 0 .9.4.1 1.3-.6.7-.9 2.5-.6 4 .4 2.6-.5 3.5-2 1.9-.4-.4-1.2-.8-1.7-.8-.5-.1-1.2-.3-1.6-.4-.5-.2-2.1-.3-3.8-.4-2.1-.1-3.1-.7-3.3-2.1-.2-1.1-.7-2.3-1-2.7-.5-.5-.6 16.5-.2 22.2 0 .3.4 0 .8-.5.4-.6 4.2-3.7 8.5-6.9 4.3-3.3 8.1-6.4 8.4-6.9.3-.6-.2-1.6-1.2-2.4-1.1-.7-1.3-1.3-.7-1.3h1.7c.3 0 1.9-1.5 3.5-3.2 2.8-3.1 3.1-3.2 4.4-1.5s5.1 1.4 4-.4c-.3-.5.2-.9 1.1-.9s1.3-.5 1-1c-.4-.6-.3-1 .2-.9 2.6.4 3.4-.3 3.1-2.8-.3-2.9-4-4.6-6.9-3.2-.8.4-2.2.3-3-.2-1.1-.7-1-.9.6-1 1.1-.1 2.3-.1 2.7-.1.3.1 1.2-.5 1.8-1.3 1-1.2 1-1.8 0-3-1.1-1.3-.8-1.5 1.9-1.5 2.1 0 3.1-.5 3.1-1.6 0-.8-.5-1.2-1.1-.9-.6.4-.6-.1.2-1.2 1.3-2.2 3.6-2.6 3.6-.6 0 .7-.4 1.3-.9 1.3s-.4 1 .3 2.1c.8 1.5.8 1.9 0 1.5-.6-.4-1.1 0-1.1.8 0 .9.5 1.6 1.1 1.6.8 0 .8.4 0 1.4-.9 1.1-.9 1.6 0 2.1.8.6.8.9-.1 1.5-.7.4-.8 1-.3 1.3.8.5 3.2-1.1 10.1-6.9 1.9-1.6 2.6-3.1 2.7-6.3l.1-4.2-25.3.2c-22.9.1-25.3.3-25.3 1.8 0 .9.5 2.2 1.1 2.8.8.8.8 1.3 0 1.7-.6.4-1.1 1.6-1.1 2.7 0 1.8-.9 1.9-19 1.9-18.4 0-19 .1-18.1 1.9.8 1.5.7 2-.5 2.5-.8.3-1.3 1-1 1.5s-.1 1.2-1 1.5c-.9.4-1.4 1.2-1 2.1 2 4.9 2 4.8 0 3.5-1.6-1-1.9-2.2-1.7-7.1l.2-5.9h-6.2l-6.2.1 2.5 2.2c1.4 1.2 3.8 3.2 5.4 4.5 1.6 1.2 2.7 2.4 2.5 2.6-.2.3-3.4-1.9-7.2-4.7-4.7-3.6-6.7-5.9-6.7-7.4 0-1.2.4-2.4.9-2.7.5-.4.7.3.4 1.4-.5 1.9 0 2 7 2h7.6l-.2-4.2c-.2-3.1-.6-4.2-1.9-4.4-1.1-.1-1.8.4-1.8 1.5 0 1.6-3.3 5.1-4.8 5.1-.5 0-1.5-1.2-2.3-2.8-2-3.9-3.3-4.5-4.1-1.9-.3 1.2-.6-12.9-.7-31.3-.1-24.9.2-33.9 1.1-34.8s.9-1.2 0-1.2c-1.4 0-1.6-4.6-.2-5.5 1.6-1 1.2-2.5-.6-1.8-1.2.4-1.4 0-1-2.3.2-1.6.5-3.1.6-3.4s.1-5.2 0-11-.3-20.6-.4-33-.6-23.2-1-23.9c-.6-1-.5-1.2.2-.7.8.5 1.2-.1 1.2-1.6 0-1.6-.3-1.9-.9-1-.5.9-.7-.3-.5-3 .4-5-.3-8.1-1.7-7.3-.5.4-1 0-1.1-.7s-.4 1.4-.8 4.7c-.6 5.1-.7 4.4-.6-4 .1-8.9.3-10 2-10.3 1.1-.2 1.6 0 1.2.6-.3.6-.3 1.3.2 1.6.4.2.9-.5.9-1.6.1-1.2-.6-2.2-1.7-2.5s-1.7-1-1.3-1.7c.3-.6-.2-.3-1.3.6-1.7 1.7-1.8 6.1-2.1 95.5-.2 51.6-.6 97.6-.9 102.3-.3 5.3-.2 8 .4 7.2.7-1 1.1-1 2.2.3 2.3 2.8 5 3.8 6.6 2.4 1.9-1.6 1.9.3-.1 4.1-1.4 2.7-1.4 3 0 3 .8 0 1.5.4 1.5 1 0 .5.8 1 1.8 1 1.6-.1 1.6-.1 0-1.4-1-.7-1.8-1.6-1.8-2 0-1.1 2.3-.6 4 .9 2.3 2.1 4.9 1 4.3-1.8-.4-2.2-.4-2.2 1.2-.2.9 1.1 2.6 2 3.8 2 1.6 0 2.1.5 2 2.1-.2 1.5.3 2 1.8 1.9 1-.1 2.5-.7 3.1-1.3 1.8-1.8 2.8-1.5 2.1.5-.4 1-.9 2-1.2 2.3-1.7 1.4-3 5-2.1 5.5.6.3 1 0 1-.7 0-.8.3-.9.8-.3 1.1 1.7 4.6 1.2 5-.7.2-1-.2-1.8-.8-1.8s-.8-.5-.5-1c1.1-1.7 2.3-1.1 3.3 1.7.6 1.6 1.1 2.3 1.1 1.7.1-.6 1.2-.9 2.6-.6 1.4.2 2.5.1 2.5-.3 0-1-3-3.8-3-2.8 0 .4-.6.1-1.3-.7s-3.2-3.1-5.7-4.9c-2.5-1.9-6.1-4.9-8-6.6-4.8-4.4-11.2-8.1-10.4-6.2.3.9 0 2.6-.7 3.8-.9 1.7-.9 2.4 0 2.7.6.2 1.1.8 1.1 1.4 0 .5-3-1.4-6.7-4.3-9-6.9-9.3-7.3-6.4-6.6 1.6.4 2.9 0 3.8-1.1 1.3-1.5 1.4-1.5.9.7-.5 2.5 1.6 5.5 2.9 4.3.5-.4.5-.1.1.5-.4.8-.1 1.3.8 1.3 1.9 0 2-1.3.6-4.1-.8-1.4-.7-1.9.2-1.9.7 0-.1-1-1.9-2.1-3.8-2.4-4.6-2.5-4.9-.3-.4 2.4-1 2.6-2.8.9-1.7-1.8-2.1-5.2-.7-7.4.7-1.2 10.6 5.8 27.1 19.2.8.7 6.1 4.7 11.7 9l10.2 7.7h22.3l4.1-3.5c2.3-2 4.7-3.3 5.4-3.1.6.3 1 0 .8-.7-.5-1.6 13.2-12 14.7-11.1.6.4.8.3.4-.4-.6-1.1 11-11.2 12.9-11.2.5 0-.6 1.3-2.5 2.9-6.3 5.3-8.5 7.3-7.3 6.7.6-.4 1.4-.2 1.8.4.9 1.5 2.5.2 1.8-1.6-.3-.8-.2-1.4.3-1.3.5.2 2.8-1.6 5.2-3.9 2.3-2.3 3.5-3.9 2.7-3.6-3.3 1.3-1.1-1.3 4.5-5.4 3.3-2.4 6-4.9 6.1-5.5.1-.7 0-42.4 0-92.7l-.2-91.5-2.4-2.1c-1.7-1.6-2-2.5-1.2-3.3.6-.6.8-1.1.5-1.1-.4 0-.9.4-1.2.9zm3.2 27.3c-.2.6-1 1.4-1.6 1.6-.7.2-1-.2-.6-1.2.7-1.8 2.8-2.2 2.2-.4zm-1 17.4c-.1 3-.6 5.8-1.1 6.1-.6.3-.7.1-.3-.5.4-.7.1-1.2-.6-1.3-1 0-1-.2 0-.6.6-.2 1-.8.8-1.2-1.1-1.7-1.4-6.1-.5-6.7.5-.3.6-1 .3-1.6-.4-.6-.2-.8.4-.4.6.3 1 3.1 1 6.2zm-.2 12.2c-.4.3-1.2 0-1.8-.6-.9-.9-.9-1.2 0-1.2.7 0 1.3-.8 1.3-1.8.1-1 .3-.8.6.6.3 1.3.2 2.6-.1 3zm-.4 4c.3.9.2 2.6-.2 3.7-.6 1.5-.8 1-.8-1.8 0-4 .3-4.7 1-1.9zm-29.2 118.5c0 .2-1 1.2-2.2 2.3l-2.3 1.9 1.9-2.3c1.8-2.1 2.6-2.7 2.6-1.9zm-20 1.9c0 .4-.4.8-.9.8-.6 0-1.2-.4-1.5-.8-.3-.5.1-.9.9-.9s1.5.4 1.5.9zm26.4-.3c-.5.6-.9.7-3.5 1-.5 0-.7.7-.3 1.3.4.7.4 1-.1.6-.4-.4-1.3-.3-2 .2-.8.7-1.2.5-1.2-.5 0-.8.2-1.3.5-1 .3.2 1.3-.2 2.3-.9 1.8-1.2 5.5-1.8 4.3-.7zm15.1 1.9c-.3.3-1.1 0-1.8-.7-.9-1-.8-1.1.6-.5 1 .3 1.5.9 1.2 1.2zm-4 .9c-.2 1-.4 1.9-.4 2.1-.1.2-.6 0-1.1-.3-.8-.5-.7-1.1.1-2.1 1.5-1.8 1.8-1.8 1.4.3zm-21 1.1c-.3.3-1.1 0-1.8-.7-.9-1-.8-1.1.6-.5 1 .3 1.5.9 1.2 1.2zm7.5 2.7c.8 1.1 1 1.7.5 1.2-.4-.4-1.8.1-2.9 1-1.2 1-1.8 1.4-1.4.9 1.1-1.3-1.2-3.7-2.5-2.9-1.9 1.2-4.7 1-4.7-.2 0-1.7 6.3-1.4 7.7.4 1.1 1.4 1.2 1.3 1.3-.8 0-1.3.1-2.2.3-2 .1.2.9 1.3 1.7 2.4zm-75.9 3.6c-1.6.6-2.8.6-3.5-.1s.1-1 2.5-.9c3.2 0 3.3.1 1 1zm15.9-.7c0 1.1-1.9 1.5-2.5.6-.3-.5.1-1 .9-1 .9 0 1.6.2 1.6.4zm6 0c0 1.1-1.9 1.5-2.5.6-.3-.5.1-1 .9-1 .9 0 1.6.2 1.6.4zm43.3 9.3c-.7.2-1.9.2-2.5 0-.7-.3-.2-.5 1.2-.5s1.9.2 1.3.5zm6 0c-.7.2-2.1.2-3 0-1-.3-.4-.5 1.2-.5 1.7 0 2.4.2 1.8.5zm-19.6 13.5c-.3.8-.6.5-.6-.6-.1-1.1.2-1.7.5-1.3.3.3.4 1.2.1 1.9zm-331.2-212.1c-1.8.9-1.8.9.3.5 1.9-.4 2.3-.1 2 1.7-.2 1.2-.9 2.1-1.6 1.9-.8-.1-1.1.2-.7.8.3.6 1 .8 1.5.5 1.5-.9 1.7 4.4.3 6.5-1.1 1.5-1.1 2-.2 1.8.8-.2 1.2.8 1.2 2.7-.1 5-.3 5.6-1.3 5-.7-.4-.7-1.2 0-2.5s.7-2.1 0-2.5c-.5-.3-1.1-.3-1.1.2-.4 2.9-.3 3.9.4 4.9.4.7.6 1.8.5 2.5-.2.8.3 1.3 1.1 1.1 1.1-.2 1.2 0 .3 1.1-1.1 1.3-.7 2.7.8 2.7.4 0 .7-6.8.6-15 0-15.4-.1-15.8-4.1-13.9zm474.5.2c-.8.7-2 2.1-2.5 3.2-1.1 2.1-.9 6.5.4 6.5.6 0 5.1-9.2 5.1-10.5 0-.9-1.5-.5-3 .8zm-14.3 6.4c-.4.3-.7 1.1-.7 1.7s.5.5 1.2-.2c.6-.6.9-1.4.7-1.7-.3-.3-.9-.2-1.2.2zm4.9 1c-1 1-.7 6.3.4 6.3.6 0 1-1 1-2.1 0-1.7.3-1.9 1.3-1 1 .8 1.4.7 1.4-.3 0-1.5-3.2-3.8-4.1-2.9zm-450 2.1c-.3.5.1.9.9.9s1.2-.4.9-.9c-.3-.4-.7-.8-.9-.8s-.6.4-.9.8zm79.4.2c0 .5.5 1 1.1 1 .5 0 .7-.5.4-1-.3-.6-.8-1-1.1-1-.2 0-.4.4-.4 1zm378.1 2.6c0 1.1.3 1.4.6.6.3-.7.2-1.6-.1-1.9-.3-.4-.6.2-.5 1.3z"/><path d="m293.3 34.6c0 .8.3 1.2.5.9.3-.3 1.1 0 1.8.6.9.7 1.2.6 1-.7-.3-2.1-3.3-2.8-3.3-.8zm198.4.4c.6 2.3 3.3 4.9 3.3 3.1 0-.6-.4-1.1-1-1.1-.5 0-1-.6-1-1.4s-.4-1.7-.9-2c-.5-.4-.7.3-.4 1.4zm-130.7 0c0 .5.5 1 1.1 1 .5 0 .7-.5.4-1-.3-.6-.8-1-1.1-1-.2 0-.4.4-.4 1zm139.6 16.1c-1.5 5.6-2.5 10.4-2.2 10.7.3.2.7-.1 1-.9 3.3-10.9 5.2-19.9 4.4-19.9-.3 0-1.7 4.6-3.2 10.1zm-470.9-3.5c-.4.4-.3 1.2.1 1.8.7 1.1.8 1.7 1.1 3.7 0 .5.6.7 1.1.4.6-.4.7-1.2.4-1.8-.4-.7-.3-.8.1-.4 2.2 1.9 1.2 4.2-1.6 3.9-.3-.1-.6.6-.6 1.4 0 .7.2 1.2.5 1 .2-.3 1 .1 1.7.7 1.6 1.5 0 5.1-1.8 4-.7-.4-.6 0 .2 1 2.4 3 3.6 1.3 3.8-5.5.1-6.1 0-6.6-2.3-7.7-1.4-.6-2.2-1.6-1.9-2.1.7-1.1.2-1.3-.8-.4z"/><path d="m505.8 50.4c-.9 1.8-2.4 6.4-3.3 10.2-1.9 7.5-4.4 13.2-4.5 10.1 0-.9-.4-1.7-1-1.7-.5 0-1-2.6-1.2-5.7-.3-4.9-.6-5.8-2.3-6.1-1.2-.2-1.6 0-.9.5.6.4 1.4 3.2 1.8 6.2s1.4 7.2 2.1 9.5c.8 2.3 1.5 5 1.6 6.1.1 2.4 0 2.6 5.9-17.3 4.2-14.5 4.7-18 1.8-11.8zm-437.2 9.7c-.3 4-.6 38.5-.6 76.6.1 53.9.4 69.3 1.3 68.5 7-5.4 12.9-9.2 14.3-9.2 1 0 1.4-.3 1.1-.6-.7-.7.9-2.2 5.8-5.8 1.4-1.1 3.6-2.8 4.8-3.9 1.2-1 3.3-2.8 4.7-3.9l2.5-2v-126.3l-16.6-.3-16.6-.2zm9.9-4.3c-1.6.2-3.4.8-4 1.3-.7.7 3.2.9 11.2.7 14.3-.4 13.4-1.1 12.8 11.7-.3 4.4-.5 30.4-.5 57.7v49.6l-11.8 9.6c-6.6 5.3-12.2 9.6-12.6 9.6s-.6-30.8-.4-68.5c.1-37.6-.1-68.7-.5-69.1s-.7.3-.7 1.6c0 3.3-1 1.9-1.5-2.1l-.5-3.4 5.8.5c3.7.3 4.7.5 2.7.8zm23.5.3c0 .7-1.6.8-4.7.3-6.5-.9-6.7-1.4-.5-1.4 3 0 5.2.4 5.2 1.1zm-30.3 10.1c-.3.8-.6.5-.6-.6-.1-1.1.2-1.7.5-1.3.3.3.4 1.2.1 1.9zm29.6 3.3c-.3.9-.8 1.4-1 1.1-.3-.3-.2-.9.2-1.5.9-1.6 1.5-1.3.8.4zm-29.4 11.4c-.2 15.3-1.5 15.7-1.7.6-.2-8.6.1-12.4.8-12s1 4.9.9 11.4zm28.8-.7c-.3.8-.6.5-.6-.6-.1-1.1.2-1.7.5-1.3.3.3.4 1.2.1 1.9zm0 7c-.2 1.3-.4.5-.4-1.7-.1-2.2.1-3.2.4-2.3.2 1 .2 2.8 0 4zm0 7c-.3.8-.6.5-.6-.6-.1-1.1.2-1.7.5-1.3.3.3.4 1.2.1 1.9z"/><path d="m77.8 136.7c-.2 2.1-.8 3.7-1.4 3.6-1.4-.3-1.2 9.6.3 10.5s3.2 13.6 2.1 15.6c-.5.8-.4 1.7.2 2.1s.7 1.1.4 1.7c-1 1.5-1.1 8.8-.1 8.8.4 0 .7-.6.7-1.4 0-.7.7-1.9 1.5-2.6 2.2-1.9 2.2-19-.1-19-.8 0-1.2-.5-.9-1 .4-.6 1.1-.8 1.6-.5.5.4.7-.4.5-1.7-.3-1.3-.5-2.6-.5-3-.1-.4-1-.9-2.1-1.3-1.8-.6-1.9-.8-.4-3.1 1.4-2 1.4-2.4.2-2.4-1.1 0-1.3-1-.8-5 .4-2.8.3-5-.1-5s-.9 1.7-1.1 3.7zm0 8.8c-.3.3-.9-.2-1.2-1.2-.6-1.4-.5-1.5.5-.6.7.7 1 1.5.7 1.8z"/><path d="m81.3 143.7c0 2.7.2 3.8.4 2.5.3-1.2 1.1-2.2 1.8-2.2.8 0 1.9-.9 2.5-2 .9-1.6.8-1.8-.5-1.4-.8.4-1.5.1-1.5-.5s-.6-1.1-1.4-1.1c-1.1 0-1.4 1.3-1.3 4.7zm5.7 2.4c0 2.7 1.7 3.2 2.2.6.3-1.5 0-2.4-.9-2.4-.7 0-1.3.8-1.3 1.8zm-3.4 7.4c.4.8 1 1.2 1.5.9 1.4-.8 1-2.4-.6-2.4-.9 0-1.2.6-.9 1.5zm4.4 2.3c0 .5.7 1.5 1.5 2.2s1.5.8 1.5.2c0-.5-.7-1.5-1.5-2.2s-1.5-.8-1.5-.2zm4.7.9c.3.7.6 1.3.8 1.3s.5-.6.8-1.3c.3-.8-.1-1.4-.8-1.4s-1.1.6-.8 1.4zm-17.7 4.2c0 2.8.5 5.1 1 5.1.6 0 .9-.3.8-.8 0-.4.2-1.5.6-2.4 1-2.3.4-6.1-1.1-6.6-.9-.2-1.3 1.1-1.3 4.7z"/><path d="m84 157.1c0 .6.9 1.3 2 1.6s2 .8 2 1.2 1.4.8 3.1.9c1.9.2 2.8-.1 2.4-.8-.3-.6-1.1-.8-1.6-.5-.5.4-2.2-.3-3.8-1.4-3.3-2.4-4.1-2.6-4.1-1zm.7 6.5c-1.5 1.5-.6 5.2 1.6 6.7 1.8 1.3 2 1.8 1 3.4-.9 1.6-.8 2 .3 2 .8 0 1.2-.2.9-.5-.2-.3 0-1.3.5-2.3.7-1.1.7-2 0-2.4-.5-.3-.7-1.1-.5-1.8.6-1.5-2.8-6-3.8-5.1zm8.3 2.4c0 .5.5 1 1.1 1 .5 0 .7-.5.4-1-.3-.6-.8-1-1.1-1-.2 0-.4.4-.4 1zm-18 3.4c0 1.4.5 2.6 1.1 2.6.5 0 .8.4.5.8-.2.4-.1 1.4.5 2.2.6 1 .8.1.6-2.9-.2-4.8-2.7-7.2-2.7-2.7z"/><path d="m84 172c0 .5.5 1 1.1 1 .5 0 .7-.5.4-1-.3-.6-.8-1-1.1-1-.2 0-.4.4-.4 1zm-2 4.3c0 .7-.7 2.3-1.6 3.5l-1.5 2.2-1.9-2.2-1.9-2.3-.2 6.2c-.1 3.5-.2 6.7-.3 7.3-.1.5.4.9.9.7.6-.1.9-.8.9-1.4-.1-.7.2-1 .7-.8 1.2.8 4.2-4.3 3.5-6-.3-.9-.2-1.4.3-1.1.4.3 1.8-.6 3.1-1.9 1.9-2 2.1-2.7 1-4-1.5-1.8-3-2-3-.2zm1.7 1.9c-.3.8-.6.5-.6-.6-.1-1.1.2-1.7.5-1.3.3.3.4 1.2.1 1.9zm250.9-123c-1 3.7-.7 148.8.3 150.6.8 1.5 2.3 1.7 10.5 1.4l9.7-.3-.3-3.5c-.3-4.1-1.2-4.9-5-4.6-1.5.1-2.8-.2-2.8-.7 0-1.3 3.9-2.1 4.6-1 .9 1.5 3.4-1 3.4-3.3 0-2.8 10.2-11.4 12.2-10.2.5.3.8-.1.8-.9 0-.7.7-1.4 1.5-1.4s1.5.6 1.5 1.4c0 1.3.8 1.6 4.3 1.6 1.1 0 1.7.7 1.7 2.3s-.4 2.2-1.4 1.8c-.8-.3-1.7-.1-2.1.5-1 1.8-2.1 1.3-3.4-1.5-.9-2.1-1.4-2.4-2.6-1.4-1.1.9-1.5.9-1.5.1 0-.7-.9-.6-2.5.5-2.9 1.9-3.4 5.1-.7 5.1 6.1 0 6.6.5 2.3 1.8-2.5.8-4.8 1.2-5.3.9-.4-.3-.8-.1-.8.4 0 1.7 2.9 2.2 12.1 2.2h8.9v-7c0-5.1-.3-7-1.2-6.8-.7.1-2.3-.3-3.5-1-1.3-.7-2.3-1-2.3-.6s-.8 0-1.7-.9c-1.7-1.5-1.8-5.8-1.8-63.6 0-34.2-.3-62.1-.7-62.1-.5 0-.8.6-.8 1.4s-.6 1.6-1.2 1.9c-1.5.4-1.4-4.9-1.6 64.7l-.3 54.5-11.6 9c-6.4 4.9-11.9 9.1-12.2 9.2-.3.2-.6-30.3-.6-67.8v-68.1l-2.2-1.8c-1.3-1-2.3-2.3-2.3-3 0-1.3 3.2-1 4.2.4.4.6 2 .6 4.2-.1s3.6-.7 3.6-.1c0 .5.6.6 1.3.1.6-.4 2.1-.9 3.2-1 1.6-.3 1.7-.1.5.7-.9.6-1 1-.3 1 .6 0 1.9.3 2.9.7 1.3.5 1.6.3 1.1-1-.3-.9-.2-1.7.3-1.7.6 0 1 .7 1 1.5s.5 1.5 1.1 1.5c.5 0 .8-.4.4-.9-.9-1.6 3.5-2.4 5.2-.9 1 .8 1.4.8 1 .1-.5-.7.1-1.3 1.5-1.6 1.3-.2-5.4-.5-14.8-.6-17-.1-17.2-.1-17.8 2.1zm4.4 9.9c0 3.7-.3 4.8-1.2 4.3-1-.6-1-.4 0 .7 1.4 1.6 1.6 4.9.2 4.9-1.1 0-1.2-.8-1.4-9.3-.1-4 .2-5.7 1.1-5.7s1.3 1.6 1.3 5.1zm29-3.5c0 .8-.5 1.2-1 .9-.6-.4-.8-1.1-.5-1.6.9-1.4 1.5-1.1 1.5.7zm-.3 10.1c-.2 1.6-.4.3-.4-2.7s.2-4.3.4-2.8c.2 1.6.2 4 0 5.5zm-29.1 8.7c-.1 5.3-1.1 6.7-2 3-.5-1.7-.3-3 .4-3.4.9-.5.9-.9.1-1.4-1.5-1-1.4-2.6.2-2.6 1 0 1.4 1.3 1.3 4.4zm29.1.8c-.3.8-.6.5-.6-.6-.1-1.1.2-1.7.5-1.3.3.3.4 1.2.1 1.9zm-28.7 6.2c0 .2-.7.9-1.5 1.6-1.3 1.1-1.4 1-.9-.4s2.4-2.3 2.4-1.2zm29 100.1c-1.2 1.4-.7 2 1.5 1.5.6-.1.6.2.2.7-.5.4-2.1.8-3.6.9-2.3.1-2.7-.2-2.3-1.8.2-1.1 1-1.7 1.8-1.4.7.3 1.6.1 1.9-.4.4-.6.9-1 1.2-1s0 .7-.7 1.5zm8.7 4c0 .6-1.4 1.1-3.1 1.2-2.1 0-2.4-.1-.8-.4 1.2-.2 2-.8 1.8-1.2-.3-.4.1-.8.8-.8s1.3.5 1.3 1.2zm.1-136.8c.6.2 1.8.2 2.5 0 .6-.3.1-.5-1.3-.5s-1.9.2-1.2.5z"/><path d="m361 56c0 .5.7 1 1.5 1s1.5-.5 1.5-1c0-.6-.7-1-1.5-1s-1.5.4-1.5 1zm-251 14.1c0 .5.5.7 1 .4.6-.3 1-.8 1-1.1 0-.2-.4-.4-1-.4-.5 0-1 .5-1 1.1zm-66 3c0 .5.5.7 1 .4.6-.3 1-.8 1-1.1 0-.2-.4-.4-1-.4-.5 0-1 .5-1 1.1zm329.3 8.4c0 3.3.2 4.5.4 2.7s.2-4.5 0-6-.4 0-.4 3.3zm16.9-3.5c0 1.4.2 1.9.5 1.2.2-.6.2-1.8 0-2.5-.3-.6-.5-.1-.5 1.3zm-217.3 1.2c1.1 1.5 4.1 1.5 4.1.1 0-.3-.6-.3-1.4 0-.7.3-2 0-2.7-.6-1.1-1-1.1-.9 0 .5zm204.6-.2c-.3.5-.1 1 .4 1 .6 0 1.1-.5 1.1-1 0-.6-.2-1-.4-1-.3 0-.8.4-1.1 1zm-59 1c-.3.5-.1 1 .4 1 .6 0 1.1-.5 1.1-1 0-.6-.2-1-.4-1-.3 0-.8.4-1.1 1zm123 0c-.3.5-.1 1 .4 1 .6 0 1.1-.5 1.1-1 0-.6-.2-1-.4-1-.3 0-.8.4-1.1 1zm93.3-.3c.6.2 1.8.2 2.5 0 .6-.3.1-.5-1.3-.5s-1.9.2-1.2.5zm-349.8 1.2c0 .5.5 1.3 1 1.6.6.3 1 .2 1-.4 0-.5-.4-1.3-1-1.6-.5-.3-1-.2-1 .4zm-134.1.3c-.5 1.7-.4 4.8.3 4.8.4 0 .8-1.1.8-2.5 0-2-.7-3.4-1.1-2.3zm453.6 1.8c-.3.5-.1 1 .4 1 .6 0 1.1-.5 1.1-1 0-.6-.2-1-.4-1-.3 0-.8.4-1.1 1zm-334.5 1.1c0 .5.5.7 1 .4.6-.3 1-.8 1-1.1 0-.2-.4-.4-1-.4-.5 0-1 .5-1 1.1zm207.8-.4c1.2.2 3.2.2 4.5 0 1.2-.2.2-.4-2.3-.4s-3.5.2-2.2.4zm9.7.3c.3.5.8 1 1.1 1 .2 0 .4-.5.4-1 0-.6-.5-1-1.1-1-.5 0-.7.4-.4 1zm61.5.5c0 .4.8 1.4 1.8 2.2 2 1.6 6.1 3.9 4.7 2.7-5.2-4.7-6.5-5.6-6.5-4.9zm70.1 1.1c0 1.1.3 1.4.6.6.3-.7.2-1.6-.1-1.9-.3-.4-.6.2-.5 1.3zm25.4-.6c.3.5.8 1 1.1 1 .2 0 .4-.5.4-1 0-.6-.5-1-1.1-1-.5 0-.7.4-.4 1zm6.5.1c0 .5.5.7 1 .4.6-.3 1-.8 1-1.1 0-.2-.4-.4-1-.4-.5 0-1 .5-1 1.1zm6-.1c0 .5.5 1 1.1 1 .5 0 .7-.5.4-1-.3-.6-.8-1-1.1-1-.2 0-.4.4-.4 1zm-23.4.9c-.3.5.1 1.1.9 1.5 1.5.6 2.9-.7 1.8-1.8-.9-.9-2.1-.8-2.7.3zm-363.9 2.2c.4 1.3.8 1.8 1.1 1 .2-.7-.1-1.8-.6-2.3-.8-.8-.9-.4-.5 1.3zm218.6-1.3c-1.3.2-2.3.7-2.3 1.2 0 1.4 3.5 1.7 4.8.4 1.4-1.6.5-2.1-2.5-1.6zm72.7.1c0 .5.5 1.3 1 1.6.6.3 1 .2 1-.4 0-.5-.4-1.3-1-1.6-.5-.3-1-.2-1 .4zm36.9 2.8c-1.3 1.6-1.2 1.7.4.4.9-.7 1.7-1.5 1.7-1.7 0-.8-.8-.3-2.1 1.3zm-124.7 2.3c0 1.9.2 2.7.5 1.7.2-.9.2-2.5 0-3.5-.3-.9-.5-.1-.5 1.8zm116.3-1c-1 1.2-2.5 1.8-3.2 1.6-.8-.3-1.3.2-1.3 1.2s-.5 2.3-1.2 3-1 1.2-.7 1.2 2.5-2 4.9-4.5 4.2-4.5 3.9-4.5-1.4.9-2.4 2zm26.5-1c0 .5.5 1 1 1 .6 0 1-.5 1-1 0-.6-.4-1-1-1-.5 0-1 .4-1 1zm-346.7 3.2c.1 1.5.6 2.3 1.1 1.8.4-.4.4-1.6-.2-2.6-.9-1.6-1-1.4-.9.8zm215.6-.5c-1.3 1.7-1.3 1.7.6.3 1.1-.8 2.2-1.6 2.4-1.7.2-.2 0-.3-.6-.3s-1.7.8-2.4 1.7zm66.3-.1c1 1 2 1.6 2.2 1.3.3-.3-.5-1.1-1.7-1.8-2.1-1.3-2.1-1.2-.5.5zm29.8.4c0 .5.5 1 1 1 .6 0 1-.5 1-1 0-.6-.4-1-1-1-.5 0-1 .4-1 1zm-176.8 3c0 1.9.2 2.7.5 1.7.2-.9.2-2.5 0-3.5-.3-.9-.5-.1-.5 1.8zm75.3-2c-.3.6.1 1.3 1 1.6 2.1.9 2.6.2 1-1.3-.9-.8-1.6-.9-2-.3zm-184 .9c-.3.5-.1 1.2.5 1.6.5.3 1-.1 1-.9 0-1.8-.6-2.1-1.5-.7zm323.1 1.7c-.5 1.4-.4 1.5.9.4 1.7-1.4 1.9-2 .6-2-.5 0-1.2.7-1.5 1.6zm25.9-.6c-.3.5-.1 1 .4 1 .6 0 1.1-.5 1.1-1 0-.6-.2-1-.4-1-.3 0-.8.4-1.1 1zm-484 1c-.3.5-.1 1 .4 1 .6 0 1.1-.5 1.1-1 0-.6-.2-1-.4-1-.3 0-.8.4-1.1 1zm74.4.3c-1.7 1.3-1.5 3.7.3 3.7.6 0 .8-.6.5-1.4-.3-.7 0-1.9.6-2.5 1.5-1.5.6-1.4-1.4.2zm239.9-.5c-1 .2-1.8.8-1.8 1.3 0 1.3 2.7 1.1 3.5-.2.9-1.3.4-1.6-1.7-1.1zm175 .9c1.2.2 3 .2 4 0 .9-.3-.1-.5-2.3-.4-2.2 0-3 .2-1.7.4zm-509.8 2.3c0 1.1.5 2 1 2 .6 0 1-.9 1-2s-.4-2-1-2c-.5 0-1 .9-1 2zm160-1.1c0 .6.4 1.3 1 1.6s.7-.1.4-.9c-.7-1.8-1.4-2.1-1.4-.7zm107.8-.2c.7.3 1.6.2 1.9-.1.4-.3-.2-.6-1.3-.5-1.1 0-1.4.3-.6.6zm22.5 4.8c0 3.3.2 4.5.4 2.7s.2-4.5 0-6-.4 0-.4 3.3zm-134.4-2.1c1.3 1.3 3.2 2.7 4.3 3 1.6.3 1.2-.3-1.3-2.4-4.1-3.5-6.1-3.9-3-.6zm283.6-1.4c.4.6 1.1.8 1.6.5 1.4-.9 1.1-1.5-.7-1.5-.8 0-1.2.5-.9 1zm-418.5.9c0 .6.5 1.3 1 1.6.6.3 1-.1 1-.9 0-.9-.4-1.6-1-1.6-.5 0-1 .4-1 .9zm59 .1c0 .5.5 1 1.1 1 .5 0 .7-.5.4-1-.3-.6-.8-1-1.1-1-.2 0-.4.4-.4 1zm55.2.6c1 1 2 1.5 2.4 1.2.3-.4-.5-1.2-1.8-1.8-2.2-1.2-2.2-1.2-.6.6zm356.1.2c0 .7.7 1.2 1.5 1 2.2-.4 2.5-2.4.4-2.4-1 0-1.9.6-1.9 1.4zm-209.1 1.2c0 1.4.2 1.9.5 1.2.2-.6.2-1.8 0-2.5-.3-.6-.5-.1-.5 1.3zm76.8-1c0 .5-.7 1-1.5 1s-1.5.4-1.5 1c0 1.6 1.5 1.2 3.5-1 1-1.1 1.3-2 .7-2-.7 0-1.2.4-1.2 1zm-143.5 1c-.3.5-.1 1 .4 1 .6 0 1.1-.5 1.1-1 0-.6-.2-1-.4-1-.3 0-.8.4-1.1 1zm126.6.6c0 1.1.3 1.4.6.6.3-.7.2-1.6-.1-1.9-.3-.4-.6.2-.5 1.3zm-253.1.4c0 1.3 1.1 1.3 3 0 1.2-.8 1.1-1-.7-1-1.3 0-2.3.4-2.3 1zm66 1c.6 1.1 1.6 2 2.2 2s.3-.9-.7-2-2-2-2.2-2 .1.9.7 2zm118.1-.4c0 1.1.3 1.4.6.6.3-.7.2-1.6-.1-1.9-.3-.4-.6.2-.5 1.3zm61.8-.6c-.5 9.5-.4 14 .2 14 1 0 1.6-12.9.7-14.4-.5-.7-.8-.6-.9.4zm118.9-.3c.7.3 1.6.2 1.9-.1.4-.3-.2-.6-1.3-.5-1.1 0-1.4.3-.6.6zm8.2.3c0 1.3 1.2 1.9 2.6 1.3 2.1-.8 1.7-1.9-.6-1.9-1.1 0-2 .3-2 .6zm-461.5 1c-.3.5-.1 1 .4 1 .6 0 1.1-.5 1.1-1 0-.6-.2-1-.4-1-.3 0-.8.4-1.1 1zm149.5 1.4c0 1.3-.3 3.3-.6 4.3-.5 1.3-.4 1.5.4.8 1.5-1.4 2.3-6.3 1.1-7-.5-.4-.9.5-.9 1.9zm117 1.6c0 2.2.5 4 1 4 .6 0 1-1.8 1-4s-.4-4-1-4c-.5 0-1 1.8-1 4zm173.5-3c.3.5.8 1 1.1 1 .2 0 .4-.5.4-1 0-.6-.5-1-1.1-1-.5 0-.7.4-.4 1zm30.9.4c-.3.8-.4 3.1-.2 5.2.3 3.6.4 3.5.8-1.4.5-5.3.4-6.3-.6-3.8zm-391.4 1.6c0 1.7.3 1.9 1.9.8 2.1-1.3 1.9-2.8-.5-2.8-.8 0-1.4.9-1.4 2zm270-.4c0 .8.5 1.2 1 .9.6-.4.8-1.1.5-1.6-.9-1.4-1.5-1.1-1.5.7zm131.1 0c0 1.1.3 1.4.6.6.3-.7.2-1.6-.1-1.9-.3-.4-.6.2-.5 1.3zm-406.1 2.2c0 1.8.5 3.2 1 3.2.6 0 .8-1.1.4-2.8-1-3.9-1.4-4-1.4-.4zm68-2c0 .4.9 1.8 2 3.2 2.1 2.8 3.7 2.2 2.1-.8-1-2-4.1-3.8-4.1-2.4zm77-.8c-.1.3-.4 1.8-.6 3.4-.3 3.1-2.1 4.9-4.1 4.1-.7-.2-1.3.2-1.3 1 0 2.1 3.4 1.8 5.4-.4 1.2-1.3 1.6-3 1.3-5.3-.2-1.8-.5-3.1-.7-2.8zm62.1 1.6c0 1.1.3 1.4.6.6.3-.7.2-1.6-.1-1.9-.3-.4-.6.2-.5 1.3zm138.1.4c-.1 1.5-.7 3.1-1.4 3.8-1.4 1.4-.7 2.4 1.1 1.3.8-.5 1.1-2.1.8-4.2-.3-2.5-.4-2.7-.5-.9zm25.8-.9c0 .5.5.7 1 .4.6-.3 1-.8 1-1.1 0-.2-.4-.4-1-.4-.5 0-1 .5-1 1.1zm-168.5 1.3c-2 2.2-1.4 4.6 1.1 4.6 1.3 0 2.4-.5 2.4-1 0-.6-.4-1-.9-1s-1.1-.9-1.3-1.9c-.2-1.4-.6-1.6-1.3-.7zm64.7 1.3c.1 3.8-.1 3.7 3.2 2.2 2.7-1.3 4-3.5 2.6-4.4-.6-.4-1 0-1 .8 0 2.6-3 2.9-3.9.4-.8-1.9-.9-1.8-.9 1zm98.8-2c0 .5 1.3 1.7 2.8 2.7l2.7 1.9-2.4-2.6c-2.6-2.8-3.1-3.2-3.1-2zm-286.7 1.1c.4.6 2.2 2.1 3.9 3.4 1.7 1.2 2.8 1.7 2.5 1-.4-.6-2.2-2.1-3.9-3.4-1.7-1.2-2.8-1.7-2.5-1zm60.7.2c0 .5.5 1 1.1 1 .5 0 .7-.5.4-1-.3-.6-.8-1-1.1-1-.2 0-.4.4-.4 1zm-194.5 1c-.3.5-.2 1 .4 1 .5 0 1.3-.5 1.6-1 .3-.6.2-1-.4-1-.5 0-1.3.4-1.6 1zm87.6.6c0 1.1.3 1.4.6.6.3-.7.2-1.6-.1-1.9-.3-.4-.6.2-.5 1.3zm373.2 4.4c0 3.6.2 5 .4 3.2.2-1.7.2-4.7 0-6.5-.2-1.7-.4-.3-.4 3.3zm22.2-5.1c-.3.6.4.8 1.5.6 1.5-.3 2.4.3 3 1.8.5 1.2.9 1.7.9 1 .2-3.5-3.7-6-5.4-3.4zm-47.5 1.1c0 .5.5 1 1.1 1 .5 0 .7-.5.4-1-.3-.6-.8-1-1.1-1-.2 0-.4.4-.4 1zm-440.5.9c-.3.5-.2 1.2.3 1.5s.9-.1.9-.9c0-1.7-.3-1.9-1.2-.6zm-15.5 2.1c0 .5.7 1 1.6 1 .8 0 1.2-.5.9-1-.3-.6-1-1-1.6-1-.5 0-.9.4-.9 1zm4.8.7c.6.2 1.8.2 2.5 0 .6-.3.1-.5-1.3-.5s-1.9.2-1.2.5zm66.4 1c.2 1.1-.3 2.7-1.1 3.6-1.2 1.5-1.1 1.7.3 1.7.9 0 1.9-.6 2.1-1.3 1-3 .9-5-.3-5.5-.9-.3-1.2.3-1 1.5zm133.8-.8c0 .5.7 1.1 1.4 1.4 1 .4 1.3.1.9-.9-.6-1.5-2.3-1.9-2.3-.5zm62 .1c0 .5.5 1 1 1 .6 0 1-.5 1-1 0-.6-.4-1-1-1-.5 0-1 .4-1 1zm-117.2.7c.7.3 1.6.2 1.9-.1.4-.3-.2-.6-1.3-.5-1.1 0-1.4.3-.6.6zm127.9.7c-1.1.8-1.4 1.7-.8 2 .5.4 1.5-.3 2.1-1.4 1.3-2.3 1.1-2.4-1.3-.6zm191.9-.6c-.3.6 1.3 2.4 3.6 4.1 4.7 3.4 6 3.9 5.1 1.6-.3-.9-.8-1.3-1.1-1s-2-.9-3.8-2.6-3.4-2.6-3.8-2.1zm-465.8.9c2.3.2 5.9.2 8 0 2-.2.1-.4-4.3-.4s-6.1.2-3.7.4zm282.2.8c0 .8.2 1.5.4 1.5s.6-.7 1-1.5c.3-.8.1-1.5-.4-1.5-.6 0-1 .7-1 1.5zm-287.7.6c1.3.8 1.7 1.8 1.3 3.5-.5 1.8-.2 2.4.9 2.4 1.2 0 1.4-.7.9-2.8-.7-2.7-2.1-4.2-3.9-4.2-.5.1-.2.5.8 1.1zm211 1.4c0 1.4.3 2.8.8 3.1s.9-.9.9-2.5c0-1.7-.4-3.1-.9-3.1s-.8 1.1-.8 2.5zm63-.7c1 1 1.7 2.8 1.7 4s.5 2.2 1 2.2c1.7 0 1.1-4.6-.8-6.3-2.5-2.3-3.9-2.2-1.9.1zm-56.3 3.7c0 2.7.3 4.5.7 4.1.7-.7.5-7.7-.3-8.5-.2-.2-.4 1.7-.4 4.4zm235-1.2c0 1.4.5 2.9 1 3.2.7.4.8-.3.4-2.2-.9-3.8-1.4-4.2-1.4-1zm-164 1.6c-3.1 2.5-3.5 3.4-3.7 8.2-.1 3 .3 5.7.9 6 .7.4.7 1.3 0 2.6-1.1 2-.6 6.3.8 6.3.4 0 1.5-1 2.6-2.2 1-1.2 1.3-1.8.7-1.4-2 1.1-1.6-4.4.5-6.8l1.7-2.1-2.3 2c-1.9 1.6-2.5 1.7-3.2.6-1.2-2 0-4.3 1.7-3.7.9.4 1.7-.1 2-1.4.3-1.1 1.2-2 2.1-2 1.2 0 1.3-.3.4-1.2s-1.6-.8-3 .5c-2.3 2.1-2.8 2.1-3.6 0-.5-1.2.4-2.7 3.1-5 2.1-1.8 3.6-3.2 3.3-3.3-.3 0-2.1 1.3-4 2.9zm148.4-1.4c-1.1 2.9.2 3.7 1.9 1.1 1.5-2.3 1.6-2.6.2-2.6-.9 0-1.8.7-2.1 1.5zm-278.1 1c0 .8.4 1.2.9.9s.6-1 .3-1.5c-.9-1.3-1.2-1.1-1.2.6zm88.8.1c0 1.1.3 1.4.6.6.3-.7.2-1.6-.1-1.9-.3-.4-.6.2-.5 1.3zm-137.8 1.6c.2 3.4 4.4 5.6 4.4 2.4 0-.8-.8-1.3-1.8-1.1-1.2.2-1.6-.1-1.3-1 .3-.7.1-1.6-.5-1.9-.5-.4-.9.3-.8 1.6zm161.9.8c.1 1.6.5 3 1 3 .4 0 .8-1.4.8-3 0-1.7-.4-3-.9-3s-.9 1.3-.9 3zm50.4-2.1c-.4.5.3.7 1.4.4 2.3-.6 2.6-1.3.6-1.3-.8 0-1.7.4-2 .9zm-299.4 2.1c0 1.4.2 1.9.5 1.2.2-.6.2-1.8 0-2.5-.3-.6-.5-.1-.5 1.3zm447.8-1.5c0 .5.5 1.7 1 2.5s1 1 1 .5c0-.6-.5-1.7-1-2.5s-1-1.1-1-.5zm-246.1 9.7c-.1 5.1-.2 10.4-.3 11.8 0 1.4.4 2.6.9 2.7.6.2 1.1-4.3 1.2-11.7.1-7-.2-12-.8-12-.5 0-.9 4.2-1 9.2zm162-9c-.6 1.1-.3 13.6.2 13.2.5-.2.7-3.4.7-6.9-.1-5.6-.4-7.3-.9-6.3zm88.2 1.3c0 1.1.4 2.9.8 3.9.7 1.8.8 1.8 1.4-.4.4-1.6.1-3-.8-4-1.3-1.3-1.5-1.2-1.4.5zm6.9-.8c0 .6-.3 2-.6 3-.7 1.7-.6 1.7 1.2.1 1.4-1.4 1.6-2.1.6-3-.8-.8-1.2-.9-1.2-.1zm31 1.8c0 1.4.4 2.5.9 2.5.4 0 .6-1.1.3-2.5-.2-1.4-.6-2.5-.8-2.5s-.4 1.1-.4 2.5zm-194.5 0c-.3.8-.7 2.2-1 3-.2.8-.1 1.6.3 1.9.4.2 1.2-1.1 1.8-3s.7-3.4.2-3.4-1.1.7-1.3 1.5zm141.6.1c0 1.1.3 1.4.6.6.3-.7.2-1.6-.1-1.9-.3-.4-.6.2-.5 1.3zm28.4.4c-.3.5.1 1 .9 1 .9 0 1.6-.5 1.6-1 0-.6-.4-1-.9-1-.6 0-1.3.4-1.6 1zm-480.9 1.3c.3 1 .9 1.5 1.2 1.2s0-1.1-.7-1.8c-1-.9-1.1-.8-.5.6zm197.9 4.2c0 3 .4 5.7.8 6.1s.7-1.8.7-4.9-.4-5.8-.8-6.1c-.5-.3-.8 1.9-.7 4.9zm24.5-3.6c0 2.9 1.5 3.3 1.8.5.1-1.3-.3-2.4-.8-2.4-.6 0-1 .9-1 1.9zm3.1-.3c0 1.1.3 1.4.6.6.3-.7.2-1.6-.1-1.9-.3-.4-.6.2-.5 1.3zm43 0c0 1.1.3 1.4.6.6.3-.7.2-1.6-.1-1.9-.3-.4-.6.2-.5 1.3zm46.9-.6v1.5c0 .3.2.5.5.5s.5-.3.4-.6c0-.4.5-1.1 1.3-1.5 1-.7.9-.9-.4-.9-1 0-1.8.4-1.8 1zm186.7-.3c-.4.3-1.5.7-2.5.8-2.9.2-2.4 1.9.8 2.3 2.5.3 3 0 3-1.7 0-2.2-.3-2.5-1.3-1.4zm-493.3 1.4c-.3.6-.1 1.6.5 2.2.8.8 1.1.5 1.1-1.1 0-2.4-.5-2.8-1.6-1.1zm6.9 0c-2.2.8-3.2 2-1.5 1.8 2.1-.4 3 .3 3.4 2.6.5 2.3-.4 3.7-2.4 4.1-2.1.4-2.1.7.2 1.3 1.9.5 2.4 1.3 2.3 3.6-.1 5.2-.2 5.3-2.5 4.7-1.4-.3-1.9-.2-1.4.6.4.7 1.8 1.2 3.1 1.2 2.4 0 2.4-.1 2.3-10 0-5.5-.3-10.2-.7-10.4-.3-.2-1.6 0-2.8.5zm92.7-.2c-.8.6-1.9.7-2.5.4-.5-.4-.6-.2-.2.3.5.5 1.4.9 2 .9.8 0 1.1 1.4 1 3.8-.2 2 .2 3.7.7 3.7.6 0 1-2.3 1-5 0-2.8-.1-5-.2-5-.2 0-1 .4-1.8.9zm94.8.2c.6.7 1.2 1.7 1.2 2.2 0 .4-.6.5-1.2.1-1-.6-1-.4 0 .8.9 1.1.9 1.7.2 2-.7.2-.5 1 .4 2.3 1.4 1.9 1.5 1.7 1.6-2.6 0-3.6-.4-4.8-1.7-5.4-1.5-.5-1.6-.4-.5.6zm58.4.6c.2.8.6 1.4 1.1 1.4.4-.1 1.6-.1 2.8-.1 2.7 0 1.6-1.6-1.6-2.3-1.9-.3-2.5 0-2.3 1zm-51 1.8c0 1.6.2 2.2.5 1.2.2-.9.2-2.3 0-3-.3-.6-.5.1-.5 1.8zm234.8-.5c0 .6.7 1 1.5 1s1.5-.2 1.5-.4-.7-.6-1.5-1c-.8-.3-1.5-.1-1.5.4zm19-.1c0 .6.4 1.3 1 1.6s.7-.1.4-.9c-.7-1.8-1.4-2.1-1.4-.7zm10.6.5c2.1 1.5 3 1.4 1.9-.3-.3-.6-1.4-1.1-2.3-1.1-1.3 0-1.3.2.4 1.4zm-158.1.6c-.4.6-1 .8-1.4.6-.4-.3-.8.1-.8.9 0 1 .5 1.1 1.9.4 1-.5 1.8-1.4 1.8-1.9 0-1.3-.7-1.3-1.5 0zm190.5 0c0 .5.7.7 1.5.4.8-.4 1.5-.8 1.5-1s-.7-.4-1.5-.4-1.5.4-1.5 1zm-404.4 2.9c-1.4 1.6-1.5 2-.2 3 .8.7 2.1.9 2.7.5.7-.4.9-.3.6.3-.3.5 1.2 2.7 3.3 4.7 5.2 4.9 4 1.5-1.2-3.8-2.2-2.1-3.7-4.5-3.4-5.2.7-1.9.2-1.8-1.8.5zm119.4-.9c0 .5.5 1 1 1 .6 0 1-.5 1-1 0-.6-.4-1-1-1-.5 0-1 .4-1 1zm86.9 1.7c-.7 1.9-.6 2.8.3 3.4 1.4.9 3.1.1 2.3-1.1-.3-.5-.1-1.1.5-1.5 1.5-.9 1.2-2.2-.5-2.9-1.1-.4-1.9.3-2.6 2.1zm144.9 0c.5 2.1.7 2.3 1 .9.2-1 0-2.2-.6-2.8s-.7 0-.4 1.9zm24.8-1c-.6 1.4-.5 1.5.5.6.7-.7 1-1.5.7-1.8s-.9.2-1.2 1.2zm-477.1.3c-.3.5-.1 1 .4 1 .6 0 1.1-.5 1.1-1 0-.6-.2-1-.4-1-.3 0-.8.4-1.1 1zm6.2.1c.7.7 1.5 1 1.8.7s-.2-.9-1.2-1.2c-1.4-.6-1.5-.5-.6.5zm432.9-.3c-.3.5.1 1.5.9 2.2 1.6 1.4 2 .3.6-1.9-.5-.8-1.1-.9-1.5-.3zm29 2.8c.3 2.2 1 5.5 1.5 7.4s.9 4.8.9 6.5c.1 2.7.2 2.8 1.4 1.3 1-1.4 1.6-1.5 2.7-.5.8.7.4.2-.9-1.1-1.7-1.6-2.7-4.2-3.6-9.2-1.2-7.2-2.9-11-2-4.4zm-259.6-1.2c0 .9.5 1.6 1 1.6.6 0 1-.4 1-.9 0-.6-.4-1.3-1-1.6-.5-.3-1 .1-1 .9zm15.2 2.1c0 1.6.2 2.2.5 1.2.2-.9.2-2.3 0-3-.3-.6-.5.1-.5 1.8zm31.9-.9c0 1.1.3 1.4.6.6.3-.7.2-1.6-.1-1.9-.3-.4-.6.2-.5 1.3zm116.9-1.2c0 .2.7.7 1.6 1 .8.3 1.2.2.9-.4-.6-1-2.5-1.4-2.5-.6zm92 .5c0 .5.5 1.3 1 1.6.6.3 1 .2 1-.4 0-.5-.4-1.3-1-1.6-.5-.3-1-.2-1 .4zm46 1.6c.1 2.6.2 2.8 1.1 1.2.8-1.4.8-2.2 0-3s-1.1-.3-1.1 1.8zm-506.7-.8c-2.3.9-1.4 2 1.4 1.8 1.5 0 2.8-.6 3.1-1.3.4-1.2-2.2-1.5-4.5-.5zm298 .9c-.3.8-.1 2 .5 2.6.7.7 1 .2.9-1.6-.2-3-.5-3.2-1.4-1zm196 .4c.5 3.1 1.7 3.6 1.7.7 0-1.5-.4-2.7-1-2.7-.5 0-.9.9-.7 2zm-499.9.9c.1 1.3 6.6 4.8 6.6 3.6 0-.4-1.3-1.1-2.9-1.6-1.7-.6-3.2-1.6-3.4-2.2-.2-.7-.3-.6-.3.2zm263.1-1.1c-1.3 1.3-.3 2.2 2 1.9 3.5-.4 4-1.4 1.1-1.9-1.4-.3-2.8-.3-3.1 0zm52.6.9c-2.4 2-3.6 6-1.7 6 .7 0 1.2-1.2 1.1-2.6 0-1.6.5-2.6 1.4-2.6.8 0 1.6-.6 1.9-1.3.5-1.7-.2-1.5-2.7.5zm162 .2c-.6 1.1-1.1 2.8-1.1 3.9 0 2.3 2.5 4.8 3.4 3.4.3-.6-.1-1.2-.9-1.6-1.5-.5-2.1-3.7-.8-4.9.3-.4 1.2-.2 2 .4.8.7 1.3.8 1.3.1 0-.5-.6-1.5-1.4-2.1-1.2-1-1.7-.8-2.5.8zm-267 .7c0 1.1.3 1.4.6.6.3-.7.2-1.6-.1-1.9-.3-.4-.6.2-.5 1.3zm11.9-.5c0 .5.5.7 1 .4.6-.3 1-.8 1-1.1 0-.2-.4-.4-1-.4-.5 0-1 .5-1 1.1zm155.9.6c-1.3 1.6-1.2 1.7.4.4s2.1-2.1 1.3-2.1c-.2 0-1 .8-1.7 1.7zm109.1-.2c0 .8.7 1.5 1.6 1.5 1.4 0 1.4-.3.4-1.5-.7-.8-1.4-1.5-1.6-1.5s-.4.7-.4 1.5zm-216.7 4.5c0 3 .2 4.3.4 2.7.2-1.5.2-3.9 0-5.5-.2-1.5-.4-.2-.4 2.8zm-262.7-3.2c-.3.6-.1 1.4.5 1.7 1.5 1 2.5-.3 1.2-1.6-.7-.7-1.3-.7-1.7-.1zm447.5-.3c.1 1.9 1.8 5.1 1.8 3.5 0-.8-.4-2.2-.9-3s-.9-1.1-.9-.5zm-457.9 1.7c.3.7 1.3 1.5 2.4 1.7 1.6.3 1.7.1.5-1.3-1.6-1.9-3.4-2.1-2.9-.4z"/><path d="m61.1 143.6c0 1.1.3 1.4.6.6.3-.7.2-1.6-.1-1.9-.3-.4-.6.2-.5 1.3zm187.9 1.8c0 1.9.5 3.8 1 4.1.6.4 1-.8 1-2.9 0-1.9-.4-3.8-1-4.1-.6-.4-1 .8-1 2.9zm57.4 5.6c0 5.2.1 7.4.3 4.7.2-2.6.2-6.8 0-9.5-.2-2.6-.3-.4-.3 4.8zm56.5-8.5c-.4.5-.6 3.1-.6 5.8 0 2.6-.4 5.1-.8 5.5-.5.4-.5.1 0-.7.5-1 .4-1.2-.4-.7-.6.4-.9 1.1-.6 1.6s-.2 1.6-1.1 2.4c-1.3 1.4-1.4 1.6 0 1.6.8 0 1.8.6 2.2 1.2.4.7.4 1-.1.6-.4-.4-1.6.4-2.7 1.7-3.7 4.8-6.7 1.7-3.2-3.3.8-1.2 1.2-2.2.8-2.2-.3 0-.1-.6.5-1.3.6-.8.7-1.7.3-2.1-.7-.7-.8-1.1-1.1-3.7 0-.7-1.2-.9-2.6-.7-1.4.3-2.5.1-2.5-.6 0-.6-.5-.4-1 .4s-.7 2.3-.4 3.4c.4 1 .2 1.6-.3 1.3-.5-.4-1 0-1 .7 0 1.1.4 1.2 1.9.3 1-.7 1.8-1.6 1.9-2.2.1-.5.4.1.8 1.5s.4 3.6-.1 4.9c-.5 1.4-.6 3.1-.4 3.8.3.8.2 1.2-.3.9s-1.5.2-2.2 1.2c-1.3 1.5-1.2 1.6.3.4 2.3-1.9 3.5.4 1.3 2.8-1.1 1.2-1.3 2-.6 2.5.6.3 1.1-.1 1.1-.9 0-.9.3-1.5.8-1.5 1.9.3 3.1-.3 6.1-3.1 1.7-1.7 3.1-2.6 3.1-2.2 0 1.3-3.6 5.2-4.3 4.6-.5-.5-2 2.9-2.2 5.1 0 .5-.7.8-1.5.6s-2.3-.3-3.2-.3c-1 0-1.5-.5-1.2-1.2s-.1-1.8-.8-2.4c-1-.8-1.3-.2-1.3 3 0 3.1-.4 4.2-1.7 4.4-2 .2-2.4-1.6-.8-3.2.6-.6.3-1-.8-1-2 0-2.5 2.3-1 4.3.5.6 1.7 1 2.6.8s2-.4 2.4-.4c.3-.1.8-.8 1-1.7.2-1.3.8-1.2 3.3.7 1.6 1.3 2.5 1.8 2.1 1.1-.6-.9-.3-1.2 1-1 1.4.2 1.9-.3 1.9-2.1 0-1.3.6-2.6 1.3-2.9.7-.2 1.1.2 1 1-.2.7.3 1.2 1 1 .8-.1 1.1.1.9.5-.3.5.1 1.7.9 2.8 1.2 1.7 1.4.6 1.4-9.1 0-7.1-.4-10.4-1-9.4-.5.8-1.3 1.1-1.7.6-.4-.4 0-1.4 1-2.1 1.5-1.1 1.7-2.5 1.5-7.6-.2-3.5-.6-6-.9-5.4zm-8.9 31.7c0 .6-.6.5-1.5-.2-.8-.7-1.5-1.4-1.5-1.6s.7-.1 1.5.2c.8.4 1.5 1.1 1.5 1.6zm2.7-.7c0 .8-.4 1.2-.9.9s-.6-1-.3-1.5c.9-1.3 1.2-1.1 1.2.6zm-111.6-29.6c-.8.5-.9 1.1-.3 1.5.5.3 1.2-.1 1.6-.9.6-1.7.6-1.8-1.3-.6zm11.1 5.6c.1 4.6.3 5.6.5 3 .3-2.2.9-4.3 1.5-4.6.7-.5.5-1.5-.6-3-1.5-2.3-1.6-2.1-1.4 4.6z"/><path d="m352.5 144.3c-.4 1-.5 2.1-.1 2.4 1 1 1.8-.4 1.3-2.4-.4-1.7-.4-1.7-1.2 0zm68.6.1c-.8 1-.9 1.6-.1 2.1.5.3 1 .5 1.1.3.4-1.8.7-3.8.4-3.8-.1 0-.8.6-1.4 1.4zm89.1 1.6c0 1.9.2 2.7.5 1.7.2-.9.2-2.5 0-3.5-.3-.9-.5-.1-.5 1.8zm35.8 9.8c0 8.5-.4 13.2-1 13.2s-1 .8-.8 1.7c.2 1.2-.4 1.9-1.9 2.1-1.7.3-2.3-.3-2.6-2.5-.2-1.5-.2-.3 0 2.7.6 6.8 1 7.5 3.3 5.5 1.6-1.4 1.8-1.4 2.3 0 .4.8 1.1 1.5 1.7 1.5s.4-.7-.4-1.6c-.9-.8-1.6-2-1.6-2.6s-1-.3-2.2.8c-2.1 1.7-2.1 1.6.1-.9 2.4-2.7 3.8-3.6 2.6-1.7-.3.5-.2 1 .3 1 1 0 1 0 1.1-18.5 0-7.1-.2-13.1-.4-13.4-.3-.2-.5 5.5-.5 12.7zm-216-10.8c0 .5.5 1 1 1 .6 0 1-.5 1-1 0-.6-.4-1-1-1-.5 0-1 .4-1 1zm224.8 1.5c.2 1.4.6 2.5.8 2.5s.4-1.1.4-2.5-.4-2.5-.9-2.5c-.4 0-.6 1.1-.3 2.5zm3.2 10.1c0 7.1.4 13.4.8 14.1.4.6.7-4.9.6-12.3s-.4-13.7-.8-14.1c-.3-.3-.6 5.2-.6 12.3zm-249-10.5c0 .5.5.7 1 .4.6-.3 1-.8 1-1.1 0-.2-.4-.4-1-.4-.5 0-1 .5-1 1.1zm92.3.4c0 .8.4 1.2.9.9s.6-1 .3-1.5c-.9-1.3-1.2-1.1-1.2.6zm-253.3 3.6c-.2 46.6-.1 51.4.9 51.7 1.6.5 1.4 4.9-.4 7.6-1.4 2.1-1.4 2.4.2 3.7 2.7 2.1 8.9 6.3 8.1 5.4-.4-.4-.3-1.4.3-2.1.6-.8 1.2-2.9 1.4-4.8.1-2.5-.2-3.3-1.4-3.1-.8.1-2.6-1.1-3.9-2.7-2.4-2.8-2.4-2.9-.7-4.8 1-1.1 1.3-2 .7-2s-1.3.6-1.5 1.2c-.3.7-.6.2-.6-1.1-.1-1.3.2-2.1.6-1.8.3.4 1.2-.1 1.9-1 1-1.5 1.3-1.2 2.3 2.7 2.2 8.6 2.9 8.8 2.6.7-.2-4.2-.6-8-.8-8.5-1-1.7-1.8-9-1-9.5.5-.3 1 .8 1.1 2.6.4 4.4 1.2 4.7 1.2.4 0-2-.4-3.9-1-4.2-.5-.3-1-1.2-1-1.8 0-.7.4-.6 1 .3.7 1.1.9-.3.8-4.7-.2-3.3-.6-5.9-.9-5.7s-1.4-.3-2.4-1c-1.4-1-1.5-1.5-.5-2.1.9-.6 1.1-.4.5.6-.5.8-.4 1 0 .6.5-.4 1-1.3 1.1-2 .2-.7.7-2.8 1.3-4.7.9-3.1.9-3.3-.4-1.6-.8 1-1.1 2.4-.8 3 .4.6-.1.5-1.1-.3-.9-.8-1.6-1-1.5-.5.3 1.9-.1 3.4-1 3.4-.6 0-.8-1-.6-2.1.3-1.2.1-2.7-.2-3.3-1.2-1.9-1-4.6.3-4.6.7 0 1.8.8 2.3 1.7 1 1.7 1 1.6 1.1-.2 0-2.9-1.4-4.6-3.7-4.8-1.2 0-1.9-.6-1.6-1.2.2-.7-.3-1.8-1.2-2.5-1.3-1.1-1.5-.7-1.5 3.1zm6 21.8c0 .7.6 1.1 1.5.8.8-.4 1.7-.2 2 .4.4.5.1.8-.7.7-.8-.2-1.2.4-1 1.4.2 1.1-.3 1.8-1.2 1.8-.8 0-1.6.8-1.9 1.7-.2 1-.4.4-.4-1.4s-.6-4-1.4-5c-1.2-1.4-1.2-1.6 0-.8 1.1.6 1.2.5.5-.6-.4-.8-1-2.3-1.1-3.4-.3-1.8-.1-1.7 1.7.5 1.1 1.4 2 3.1 2 3.9zm-2.8 10.1c-.2 1.1 0 1.1 1.3 0 1.4-1.2 1.6-1 1.3 1.6-.4 3.9-2 4.8-3.5 2.1-1.6-2.9-1.6-6 0-5.4.6.2 1.1 1 .9 1.7zm.5 12.7c-.3 1-.5.4-.5-1.2 0-1.7.2-2.4.5-1.8.2.7.2 2.1 0 3zm3.2 15.2c.9.6 1 1.1.2 1.5-.6.4-1.1.2-1.1-.5s-.3-.9-.7-.5c-.5.4-.1 1.3.8 1.9.9.7 1.6 2 1.6 2.9 0 1.4-.4 1.4-2.3-.5-3.8-3.6-2.6-7.4 1.5-4.8zm267.8-61.9c-1.4 1.1-2.5 2.9-2.4 4 .2 2.3 1.6 2.7 1.8.5.3-2.8.4-3.3 1.2-3.9.4-.3.5-.3.2 0-.2.4 0 1.5.5 2.5.7 1.2.7 2 0 2.4-.5.3-1 1.1-1 1.8 0 .8.4.7 1.3-.1 1-1.1 2.1-9.2 1.2-9.2-.1 0-1.4.9-2.8 2zm117.1-1.4c-.6.6.1 12.6.8 13.3.2.2.4-2.8.4-6.7 0-7.1-.1-7.7-1.2-6.6zm-494.3 1.5c-.4.6-.5 1.2-.2 1.5.2.3.7-.2 1-1.1.7-1.7.1-2-.8-.4zm225.7.9c0 1.4.2 1.9.5 1.2.2-.6.2-1.8 0-2.5-.3-.6-.5-.1-.5 1.3zm145.7-1.8c-.5 1.8-.6 3.8-.1 3.4.7-.8 1.2-3.6.6-3.6-.2 0-.4.1-.5.2zm97.9 3.5c.4 5.8 1.3 10.3 2.3 10.9 1.2.7 1.1-1.9-.3-8.8-1.4-6.6-2.4-7.7-2-2.1z"/><path d="m544.1 148.6c0 1.1.3 1.4.6.6.3-.7.2-1.6-.1-1.9-.3-.4-.6.2-.5 1.3zm-235.1.7c0 .7.5 1.8 1.2 2.5.9.9.9 1.2 0 1.2-.7 0-1.2.8-1.2 1.7.1 1.6.2 1.6 1.5-.1 2-2.6 1.9-6.6 0-6.6-.8 0-1.5.6-1.5 1.3zm193.6.2c.4.8.8 1.5 1 1.5s.4-.7.4-1.5-.4-1.5-1-1.5c-.5 0-.7.7-.4 1.5zm-261.6 4.6c0 2.9.2 5 .4 4.8.9-.9 1.3-9 .5-9.5-.5-.3-.9 1.8-.9 4.7zm83.2-3.1c0 1.4.2 1.9.5 1.2.2-.6.2-1.8 0-2.5-.3-.6-.5-.1-.5 1.3zm-273.4-.3c.6.2 1.8.2 2.5 0 .6-.3.1-.5-1.3-.5s-1.9.2-1.2.5zm11.4 1.8c0 1.6.2 2.2.5 1.2.2-.9.2-2.3 0-3-.3-.6-.5.1-.5 1.8zm95.1-.6c0 1.1.5 1.8.9 1.5s.5-1.1.1-1.9c-.7-2.1-1.2-1.9-1 .4zm-120.5-.2c.7.3 1.6.2 1.9-.1.4-.3-.2-.6-1.3-.5-1.1 0-1.4.3-.6.6zm209.9.8c-.4.8-.2 1.7.3 2 .6.4 1 .4 1 .1 0-.2.3-1.1.6-2s.2-1.6-.4-1.6c-.5 0-1.2.7-1.5 1.5zm155.2.2c-1.3 1.6-1.2 1.7.4.4s2.1-2.1 1.3-2.1c-.2 0-1 .8-1.7 1.7zm132.3.8c-.1 1.6-.2 5.1-.4 7.7-.2 3.1.1 4.9 1 5.3.6.2 1.2 0 1.2-.6s.4-.8.9-.5 1.5-.2 2.2-1.2c1.3-1.5 1.2-1.6-.3-.4-1.4 1.1-1.8 1-2.8-.8-1.5-2.7-.9-7.6.8-7.2.8.1 1.1-.2.7-.8-.3-.6-1-.8-1.5-.5s-1.1-.5-1.3-1.7c-.4-1.8-.5-1.6-.5.7zm-482.5-.4c-.9.6-2.1.8-2.6.4-.5-.3-1.2-.1-1.6.5s.6 1 2.4 1c1.6 0 3.3-.5 3.6-1.1 1-1.5.2-1.9-1.8-.8zm219.3 5.6c-.3 4-.1 6.8.3 6.4s.7-3.7.5-7.2l-.3-6.4zm43-4.3c0 2.2.3 2.7 1.1 1.9s.8-1.6 0-3c-.9-1.6-1-1.4-1.1 1.1zm-53.4-.6c-.3.5.1.9.9.9s1.2-.4.9-.9c-.3-.4-.7-.8-.9-.8s-.6.4-.9.8zm134 0c-.3.5.1.9.9.9s1.2-.4.9-.9c-.3-.4-.7-.8-.9-.8s-.6.4-.9.8zm-127.6 1.8c0 .8.5 1.2 1 .9.6-.3 1-1 1-1.6 0-.5-.4-.9-1-.9-.5 0-1 .7-1 1.6zm36-.6c0 .5.5 1 1.1 1 .5 0 .7-.5.4-1-.3-.6-.8-1-1.1-1-.2 0-.4.4-.4 1zm15.3 1.2c-1.9 2.2-1.9 2.4-.2 4 1.6 1.5 1.7 1.4 2.1-2.3.2-2.1.3-3.9.3-3.9-.1 0-1.1 1-2.2 2.2zm9.7-1.2c-1.3.9-1.3 1.1 0 2 1.5 1 2.5 0 1.8-2-.2-.6-.8-.6-1.8 0zm89.1-.3c.1.4-.1 1.6-.6 2.6-.9 2-.1 3.2 1.4 2.2 1.4-.8 1.4-4.2.1-5-.6-.4-1-.3-.9.2zm-134.1 1.2c0 .6.4 1.3 1 1.6s.7-.1.4-.9c-.7-1.8-1.4-2.1-1.4-.7zm-233.2.8c.6.2 1.8.2 2.5 0 .6-.3.1-.5-1.3-.5s-1.9.2-1.2.5zm11.3 1.7c-.7 1.3-1.1 3.2-.8 4.2.3 1.4.5 1.3.6-.7 0-1.4.6-3 1.3-3.7.6-.6.9-1.4.7-1.7-.3-.3-1.1.6-1.8 1.9zm248.5-1.4c-1.5.5-1.6.9-.7 1.4.7.5 1.8.3 2.4-.3 1.4-1.4.6-2-1.7-1.1zm210 2.1c.9 4.5 1 4.5 2.3.8.6-1.8.8-3 .5-2.6-.4.4-1.3.2-2.1-.4-1.1-.9-1.2-.5-.7 2.2zm-272.9 0c-.4 1.6-.3 1.8.9.8.7-.6 1.1-1.5.8-2-.8-1.3-1.1-1.1-1.7 1.2z"/><path d="m536.5 158c-.3.5-.1 1 .4 1 .6 0 1.1-.5 1.1-1 0-.6-.2-1-.4-1-.3 0-.8.4-1.1 1zm18.1.5c.4.8.8 1.5 1 1.5s.4-.7.4-1.5-.4-1.5-1-1.5c-.5 0-.7.7-.4 1.5zm-506.9 1.3c1.1.8 1.9.9 2.1.2.2-.5.9-.7 1.4-.4.7.4.8.2.4-.4-.4-.7-1.8-1.1-3.2-1-2.3.2-2.4.3-.7 1.6zm275.7-.4c-.3.8-.4 2.3-.2 3.3.3 1.1.6.6.9-1.5.6-3.4.2-4.2-.7-1.8zm25 1.1c0 1.9.3 2.2 1.3 1.3 1-.8 1-1.4.2-2.4-1.5-1.8-1.5-1.8-1.5 1.1zm26.5-2.3c-.8 2.6-.4 3.4 1.7 3.4 2.2 0 2.2-.1.7-1.8s-2.2-2.1-2.4-1.6zm-74 3.6c0 1.5-.1 5.6-.2 9.1-.1 4.2.2 6.6 1 6.8.8.3 1.2-1.5 1.2-6.1 0-3.6.5-7.4 1-8.5 1.5-2.6 1.4-2.8-.9-3.4-1.6-.4-2 0-2.1 2.1zm12-1.1c-1.3 1.6-1.2 1.7.4.4s2.1-2.1 1.3-2.1c-.2 0-1 .8-1.7 1.7zm79.6-.6c-.4.6-.5 1.2-.2 1.5.2.3.7-.2 1-1.1.7-1.7.1-2-.8-.4zm-335.5.9c-.9.6-1 1-.3 1 .6 0 1.5-.5 1.8-1 .8-1.2.4-1.2-1.5 0zm201 1.1c-1.1 1.9-.9 2.4 1.1 4 2.4 1.8 5.9 1.3 6.7-1 .3-.9-.3-.8-1.9.2-2.1 1.4-2.7 1.4-4.3.2s-1.7-1.7-.6-3c.7-.8 1-1.8.7-2.1s-1.1.4-1.7 1.7zm8-1c0 .5.5.7 1 .4.6-.3 1-.8 1-1.1 0-.2-.4-.4-1-.4-.5 0-1 .5-1 1.1zm158.2.2c-1.7 2-2.2 5.1-1.1 6.8.6 1 .9 1.1 1 .1.2-1.6.4-2.4 1.3-4.4 1.2-2.6.3-4.3-1.2-2.5zm-377.3 1.3c-1.3 1.6 3.8 1.1 5.4-.5.8-.8.4-1.1-1.7-.9-1.5.1-3.2.8-3.7 1.4zm508.3 6.7c-.2 7.2-.6 9.3-2.4 11.7-1.8 2.5-2.4 2.8-4.2 1.7-1.2-.6-2.4-1-2.8-.9-.5.1-.8-.3-.8-.8 0-.6-.5-1-1.1-1-.8 0-.8.5.1 1.5.7.8 1.6 1.3 2 1s1 .2 1.4 1c.9 2.4 3.9 1.7 6.4-1.5 2.1-2.6 2.2-3.8 1.9-12.2l-.3-9.3zm-518.9-5.2c-.2 2.3.3 2.5 1 .4.4-.8.3-1.6-.1-1.9s-.9.4-.9 1.5zm2.7-1.2c0 .6.7 1.1 1.5 1.1s1.5.9 1.5 2-.7 2-1.5 2-1.5.4-1.5 1c0 .5.5.9 1.2.7.6-.1 1.4.6 1.6 1.5.4 2-1 2.3-3.9.8-1.6-.9-1.9-.7-1.9 1 0 2.1 0 2.2 4.3 2.4l2.8.2-.3-6.5c-.2-5.3-.6-6.6-2-6.9-1-.2-1.8.1-1.8.7zm404.1 0c-1 .6-.9 1 .3 1.4.8.3 1.8.2 2.1-.3.8-1.3-.9-2-2.4-1.1zm-389.5.9c-.2.4-.1 1.4.5 2.2.7 1.2.9 1 .9-.8 0-2.3-.5-2.8-1.4-1.4zm69.6 1.2c0 1.4.2 1.9.5 1.2.2-.6.2-1.8 0-2.5-.3-.6-.5-.1-.5 1.3zm47.3-1c-1.1.5-1.4.9-.6.9.8.1 1.1.7.7 1.7-.3.8-.2 1.3.3 1 .7-.5 2.4-4.8 1.8-4.5-.1 0-1.1.4-2.2.9zm3.6.4c-.9 1.1-.9 1.6.1 2.2.7.4 1 .4.6-.1-.4-.4-.3-1.4.3-2.2.6-.7.9-1.3.6-1.3-.2 0-1 .6-1.6 1.4zm135 .2c0 1.1.3 1.4.6.6.3-.7.2-1.6-.1-1.9-.3-.4-.6.2-.5 1.3zm7.9-1.6c-.8 2.6-.7 4.1.2 3.2.6-.6.8-1.6.5-2.4-.3-.7-.6-1.1-.7-.8zm103.7.7c-.4.3-.7 1.3-.7 2.1 0 1.8 1.3.7 1.6-1.3.2-1.7.1-1.8-.9-.8zm17.8.3c-.3.5-.2 1 .4 1 .5 0 1.3-.5 1.6-1 .3-.6.2-1-.4-1-.5 0-1.3.4-1.6 1zm-188.5.4c0 .2.8 1 1.8 1.7 1.5 1.3 1.6 1.2.3-.4s-2.1-2.1-2.1-1.3zm124.6.8c.3.5.9.7 1.2.4s1.1-.1 1.8.5c.8.7 1.4.7 1.9-.1.4-.6.3-1-.2-.9-.4.1-1 0-1.3-.1-2-.7-3.9-.7-3.4.2zm9.7.3c0 .8.4 1.2.9.9s.6-1 .3-1.5c-.9-1.3-1.2-1.1-1.2.6zm159.9.5c0 1.4.2 1.9.5 1.2.2-.6.2-1.8 0-2.5-.3-.6-.5-.1-.5 1.3zm-494.4.7c-1.8 2.2-3 6.3-1.7 6.3.5 0 .9-1 .9-2.2s.7-3 1.7-4c.9-1 1.4-1.8 1.1-1.8s-1.2.8-2 1.7z"/><path d="m417.3 166.1c-.7.7-1.3 1.8-1.3 2.3 0 .6.5.4 1-.4.7-1.1 1-.4 1 2.5 0 2.3-.5 4.6-1 5.1-.7.7-.6 1.1.4 1.1.8 0 1.3-.4 1-.8-.2-.4.4-1.3 1.5-1.8 2.5-1.4 3.1-1.4 3.1 0 0 .5-.5.7-1 .4-1.4-.8-3 3.7-1.9 5.1.5.6.5 1.5.1 2-.4.4.1.2 1.1-.5 1.2-1 1.5-1.7.7-2.5-1.2-1.2-1.4-3.7-.2-3.4 1.6.3 4.2-1.5 4.2-3.1s-4.4-4.3-5.5-3.3c-.3.3-.6 1.5-.7 2.6 0 1.2-.4.2-.7-2.2-.5-3.5-.8-4.1-1.8-3.1zm132.5-.4c.7.3 1.6.2 1.9-.1.4-.3-.2-.6-1.3-.5-1.1 0-1.4.3-.6.6zm-236.1.9c-.4.4-.7 1.4-.7 2.3 0 1.1.3 1.2 1.1.4.6-.6 1-1.6.7-2.3-.2-.6-.7-.8-1.1-.4zm28.8 1.3c.3 2.1 3.1 2.2 3.2 0 .1-1.1-.5-1.7-1.6-1.6-1 0-1.8.8-1.6 1.6zm-72 0c-.3.6-1 .9-1.4.7-.3-.3-.7.4-.7 1.4 0 1.8.1 1.8 1.9-.1 1.1-1.1 1.7-2.3 1.4-2.5-.3-.3-.8 0-1.2.5zm39.7 1.6c0 1.6.2 2.2.5 1.2.2-.9.2-2.3 0-3-.3-.6-.5.1-.5 1.8zm89-1.5c.2.8-.2 1.4-.9 1.5-2.4.1-2.5 1.5-.1 1.5 2.6 0 3.3-1.9 1.4-3.7-.4-.4-.6-.1-.4.7zm-27.9 1.7c0 .9.4 1 1.3.2.8-.7 1.4-.6 1.7.3.4.9.6.9.6-.2.1-1.2.3-1.2.9-.2.5.7 1.6 1 2.5.6 3-1.1 1.8-2-2.6-2-2.9 0-4.4.5-4.4 1.3zm81.3.9c-1.5 2.1-1.2 3.4.7 3.4.5 0 .7-.6.5-1.2-.3-.7.4-2 1.5-2.9 1.7-1.3 1.8-1.6.4-1.6-.9 0-2.3 1-3.1 2.3zm-277.6-1.1c0 .7 3 1.3 3.4.7.3-.4-.4-.9-1.5-.9-1-.1-1.9 0-1.9.2zm131.1 1.3c0 1.3-.5 2.1-1 1.8-.5-.4-.7.3-.4 1.5.8 3 2.5.7 2-2.7-.3-2.3-.4-2.4-.6-.6zm2.1.2c0 1.4.2 1.9.5 1.2.2-.6.2-1.8 0-2.5-.3-.6-.5-.1-.5 1.3zm75.8-1c0 .5-.6.9-1.2.7-1-.1-1.3 3.1-1.4 13-.1 7.9.2 13.3.8 13.3.5 0 .6-.6.2-1.3-.6-.9-.3-.8.9.1 1.7 1.4 6.4 1.4 8.4-.1.6-.4 1.4-.3 1.8.3.9 1.4 6.5 1.3 6.5-.3 0-.9.2-.9.8.1.9 1.3 4.6 1.2 5.9-.3.5-.4.2-.5-.4-.1-.9.5-1.1-.3-.7-3.4l.6-4-4.4.1c-2.9.2-3.4.3-1.5.6 1.5.3 2.7 1.1 2.7 1.9s.4 1.3.9 1c.5-.4.7.4.4 1.5l-.6 2.1-1.2-2.2-1.2-2.3-2.3 2.3c-1.8 1.8-2.4 2-3.1.9-.5-.8-.9-1.6-.9-2 0-.3-1.1-.5-2.4-.5-1.4 0-2.2.5-1.9 1.1.6 1.6-2.3 3.9-3.2 2.5-.3-.5-.1-1 .5-1s.8-.5.4-1.1c-.4-.8-1.1-.4-1.9 1.1l-1.2 2.2-.6-2.2c-.3-1.2-1-2-1.4-1.7-.5.3-.9-.8-.8-2.4 0-3.3-.8-3.1 13.3-3 5.6 0 10.2-.3 10.3-.7.5-4.2.4-7.4-.3-8.4-.5-.9-.8-.9-.8-.2s-.7 1.5-1.6 1.8c-.8.3-1.2.2-.9-.3s0-1.3-.6-1.7c-.8-.5-.9-.3-.4.6.6 1 .4 1.2-.8.7-.9-.3-1.9-.2-2.2.3-.4.6-1.1 1-1.6 1-.6 0-.8-.4-.4-.9.6-1-2.7-.7-4.4.3-.5.4-1.2 0-1.4-.6-.4-1-.6-1-.6-.1-.1.7-.6 1.3-1.2 1.3-.5 0-.8-.4-.5-.9.4-.5-.2-.8-1.1-.7-2.2.4-4.8 4.2-3.4 5.1 1 .6 1.6-.8 1.2-2.9-.1-.5.4-.4 1.1.2.9.7 1.9.7 2.8.2.9-.6 1.7-.5 2.2.3.6.9.8.9.8-.1 0-.6.5-1.2 1.1-1.2.5 0 .8.4.4.9-.3.5-.1 1.2.4 1.6.6.3.8-.4.6-1.5s0-1.8.5-1.5c1.5.9.3 4-1.5 3.7-1.2-.2-1.5.1-.9 1 .5.9.2.8-1.1-.2-1-.8-1.6-1-1.2-.3.4.6.3 1.5-.3 1.8-.6.4-1 .3-.9-.2.6-3.5-1.6-4.1-3.9-1-2.1 2.8-2.9 1.2-2.9-5.4 0-4.6.3-5.8 1.1-4.8 1.6 2 5.4 2 5.1 0-.1-.9-.7-1.7-1.3-1.7-.7-.1-1.6-.2-2.2-.3-.5 0-.7-.8-.4-1.6.4-.8.3-1.5 0-1.5s-.6.4-.6 1zm3.5 3.3c.4-.5.5-.2.1.5-.8 1.3-3.9.2-5.2-1.9-.3-.6.5-.4 1.8.5 1.4.9 2.8 1.3 3.3.9zm13.1 8.3c.1.9 0 1.3-.3 1-.4-.3-1.2-.1-1.9.5-1.4 1.2-1.4-.7 0-2.9.9-1.5 1.9-.9 2.2 1.4zm-7.1 11.4c.3.5.1 1-.4 1-.6 0-1.1-.5-1.1-1 0-.6.2-1 .4-1 .3 0 .8.4 1.1 1zm155.5-22.5c0 .8.7 1.5 1.5 1.5s1.5-.7 1.5-1.5-.7-1.5-1.5-1.5-1.5.7-1.5 1.5zm-276.9 1c-1 6.8-1 9.9 0 8.2.6-.9.8-3.6.6-6-.2-2.3-.5-3.3-.6-2.2zm263.4.5c-.3 1.1-1.4 2-2.3 2-1.5 0-1.5.2-.2 1 3 2 5 1.2 5-2 0-3.4-1.5-4-2.5-1zm-95.4.4c-.8 1-.9 1.6-.1 2.1.5.3 1 .5 1.1.3.4-1.8.7-3.8.4-3.8-.1 0-.8.6-1.4 1.4zm-305.5.8c.3.5 1 .6 1.5.3 1.3-.9 1.1-1.2-.6-1.2-.8 0-1.2.4-.9.9zm46.9-.2c-.3.5-.2 1 .2 1.2 1.3.7 3.3.3 3.6-.6.3-1.2-3.1-1.7-3.8-.6zm191.9.1c-.8 1.4 1.4 1.9 2.5.6.8-1 .7-1.4-.5-1.4-.8 0-1.7.4-2 .8z"/><path d="m390.3 174.1c-.2 2.6 6.3 2.4 7-.2.6-2.2-1.2-2.5-3.2-.7-1 .9-1.2.9-.7.1.4-.7 0-1.1-1.2-1-1 0-1.9.9-1.9 1.8zm14.2-1c-.4.6-.3 1.5.3 2.1s1.1.4 1.5-.6c.7-1.8-.9-3.1-1.8-1.5zm38.9-.4c.3.4.1 1.2-.5 1.9-.7.8-.7 1.4.1 1.9.5.3 1-.1 1-.9 0-.9.3-1.5.8-1.4.4.2.9-.1 1.2-.6s-.3-1-1.3-1.2c-1.1-.1-1.6 0-1.3.3zm-315.8 1.5c.3.5 1 .6 1.5.3 1.3-.9 1.1-1.2-.6-1.2-.8 0-1.2.4-.9.9zm45.8-.4c.4.3 1.4.7 2.2.8.9.1 1.3 0 1-.4-.4-.3-1.4-.7-2.2-.8-.9-.1-1.3 0-1 .4zm205.6.1c0 .7-.5.9-1.2.5-.7-.5-.8-.3-.3.5.5.9 1 1 1.8.2.6-.6.8-1.4.4-1.8-.4-.3-.7-.1-.7.6zm170 0c0 2 1.3 4.1 2.1 3.5 1.5-.9 1-4.4-.6-4.4-.8 0-1.5.4-1.5.9zm-427.8 2.1c0 1.4.2 1.9.5 1.2.2-.6.2-1.8 0-2.5-.3-.6-.5-.1-.5 1.3zm13.8-.1c0 .5-1 .7-2.2.3-1.3-.3-1.9-.1-1.5.6.9 1.3 4 .9 4.5-.6.2-.7.1-1.2-.2-1.2s-.6.4-.6.9zm35 .3c0 1.5 4.2 1.9 5.5.6.4-.4-.1-.5-1.2-.4-1 .2-2.4-.1-3-.7-.9-.7-1.3-.5-1.3.5zm-47 .8c0 .5.5 1 1.1 1 .5 0 .7-.5.4-1-.3-.6-.8-1-1.1-1-.2 0-.4.4-.4 1zm57.6-.2c-.3.5.1.9.9.9s1.2-.4.9-.9c-.3-.4-.7-.8-.9-.8s-.6.4-.9.8zm10.2-.1c.7.3 1.6.2 1.9-.1.4-.3-.2-.6-1.3-.5-1.1 0-1.4.3-.6.6zm-16.8 3.3c0 .5.6 1 1.4 1 .7 0 1.9.7 2.6 1.5 1 1.2 1.6 1.3 2.6.4 1.1-.9 1.4-.9 1.4 0 0 .8.6.9 1.8.2 1-.5 2.4-.6 3.3-.1 1.1.6 1.6.5 1.6-.5 0-2.5-6.2-4.1-8.6-2.1-.8.6-1.7.9-2 .8-3.2-1.9-4.1-2.2-4.1-1.2zm12.5 1.2c.3.3-.7.4-2.2.4-1.6-.1-3.3.2-4 .7-.6.4-1.4.3-1.9-.4-.4-.7-.3-.9.4-.5.6.3 1.3.2 1.6-.3.6-1 5.1-.9 6.1.1zm260.8 6.2.1 8.6h4.8c3.6 0 4.8-.4 4.8-1.5 0-.8.4-1.5.8-1.5 1.3 0 .8-3.6-.8-5.4-1.4-1.8-2.3-1.4-2.6 1-.2 1 .2 1.2 1 .7.6-.4 0 .2-1.4 1.5-1.4 1.2-2.4 2.7-2.3 3.2.2.5-.4.7-1.2.4-.8-.4-1.5-1.6-1.6-2.8-.1-4.3-.9-12-1.3-12.3-.2-.2-.3 3.4-.3 8.1zm111.7-7.3c0 .5.5.7 1 .4.6-.3 1-.8 1-1.1 0-.2-.4-.4-1-.4-.5 0-1 .5-1 1.1zm-448.7.6c.9.2 2.5.2 3.5 0 .9-.3.1-.5-1.8-.5s-2.7.2-1.7.5zm9.5 0c.7.3 1.6.2 1.9-.1.4-.3-.2-.6-1.3-.5-1.1 0-1.4.3-.6.6zm9 0c.7.3 1.6.2 1.9-.1.4-.3-.2-.6-1.3-.5-1.1 0-1.4.3-.6.6zm295.5 1c-.7.3-1.3 1.4-1.3 2.6 0 1.6-.3 1.8-.9.9-.6-1-1-.8-1.4 1-1 3.4-.8 9.8.2 9.8 1.2 0 2.1-3.9 1-4.6-.5-.3-.9-1.3-.8-2.2 0-1.1.2-1.3.6-.4.3.8 1.3-.1 2.5-2.3 2-3.9 2.1-5.5.1-4.8zm63.9.5c-.7.7-1.2 1.6-1.2 2.2 0 .5.3.6.7.3.3-.4 1.2-.2 2 .4.9.9 1.3.8 1.3 0 0-.6-.5-1.1-1.1-1.1s-.9-.7-.5-1.5c.7-1.8.4-1.9-1.2-.3zm68.8-.4c0 .4 1 1.3 2.3 2.1 2.2 1.4 2.2 1.4.3-.8-2-2.2-2.6-2.5-2.6-1.3zm-421.3.9c-.4.3-.7 1.6-.8 2.7 0 2.1-.1 2.1-.9.1-.7-1.7-.9-1.7-.9-.3-.1 1-.8 1.8-1.7 1.8s-1.4.6-1.1 1.3c.3.8.1 2-.4 2.8-.6 1-.9.6-.9-1.4 0-1.6-.4-2.6-1-2.2-.5.3-1 1.3-1 2.1 0 1.8-2.4 4.5-3.4 3.9-.3-.3 0 .3.8 1.2.9.9 2.9 1.7 4.5 1.8 1.7.1 3.4.4 3.7.8.4.4-6.4.7-15.1.7s-15.5.3-15.1.7c.4.5 3.6.8 6.9.8 4.8 0 6.1.3 5.9 1.4s0 1.2 1.1.3c1-.9 1.6-.9 2.5 0 2.1 2.1 1.3 2.5-4 2.4-4.1-.1-5.3.2-5.3 1.4 0 .9 1 1.5 2.3 1.6 3.4.2 4 1.4.7 1.4-4.7 0-1.5 1.8 3.5 2 2.5.1 5 .1 5.6.1 1.4-.1 2.4-7 1.2-7.7-.4-.3-.8 0-.8.7s-.2 1-.5.7c-1.1-1.1.8-3.8 2.7-3.8 1.1 0 1.6.4 1.3 1.1-.4.6.3.5 1.4-.3 1.8-1.1 2.3-1.1 3.1.2.6 1 1 1.1 1 .2 0-.6.4-1.2.8-1.2s.8 2 .8 4.5c-.1 2.8-.4 4.1-1 3.5-1.5-1.5-2.6-1.2-2.6.6 0 .8.5 1.2 1 .9.6-.3 1-.1 1 .4 0 1.9-2.2 1.2-2.7-.9-.3-1.1-1.4-2-2.4-2-1.9 0-2 .3-2.1 10-.1 6.1-.3 6 6.8 6h6.5l-.3-12.5c-.2-10-.6-12.5-1.8-12.9-1.2-.3-1.1-.4.2-.5 1.4-.1 1.6-1.2 1.5-7.6 0-4.1-.2-7.5-.2-7.5-.1 0-.5.3-.8.7zm-1.3 6.1c.3.5-.1.9-.9.9s-1.2-.4-.9-.9c.3-.4.7-.8.9-.8s.6.4.9.8zm.8 13c-.9.3-1 .8-.3 1.6.6.7.6 1.7.1 2.6-1 1.5-1.2 1-1.2-2.5 0-3 .2-3.6 1.4-2.9.9.6.9.9 0 1.2zm-16.2 5.4c0 .4-.7.8-1.5.8s-1.5-.4-1.5-.8c0-.5.7-.9 1.5-.9s1.5.4 1.5.9zm14.3 11.3c-.3.9-.8 1.4-1 1.1-.3-.3-.2-.9.2-1.5.9-1.6 1.5-1.3.8.4z"/><path d="m124.2 186c0 1.9.2 2.7.5 1.7.2-.9.2-2.5 0-3.5-.3-.9-.5-.1-.5 1.8zm204.8-2.1c0 .6.4 1.3 1 1.6s.7-.1.4-.9c-.7-1.8-1.4-2.1-1.4-.7zm88.5-.1c.2.3 0 1.3-.5 2.3-.6 1.1-.6 2-.1 2.4.7.4.8 6 .1 6-.1 0-.4 1.1-.6 2.4-.2 1.4-.2 2.2.2 1.9.3-.3.6-1.2.8-2 .1-.7.4-1.8.8-2.3.3-.6.5-2.1.4-3.5s.1-3.7.5-5.1c.5-1.8.3-2.6-.7-2.6-.8 0-1.2.2-.9.5zm-106.9 1c-.3.5.1.9.9.9s1.5-.4 1.5-.9c0-.4-.4-.8-.9-.8-.6 0-1.2.4-1.5.8zm140 .5c.3 1 .9 1.5 1.2 1.2s0-1.1-.7-1.8c-1-.9-1.1-.8-.5.6zm49 .4c-.6 1.4-.5 1.5.5.6.7-.7 1-1.5.7-1.8s-.9.2-1.2 1.2zm53.9-1c.4.8 0 1.3-.9 1.3-2.1 0-2 1.6.1 2.4.9.4 2 .1 2.4-.6.9-1.3 1.4-.3 2.1 3.7.3 1.8.4 1.8 1.1.2.4-1.2-.3-2.7-2.4-5-1.7-1.7-2.8-2.6-2.4-2zm-384 1.3c.4.6 1 .8 1.5.5.4-.3 1.4.3 2.1 1.3.7.9.9 1.4.5 1-.5-.4-1.5-.3-2.3.4-.9.7-1.3.8-1.1.1.2-.6-.1-1.3-.6-1.5-.5-.1-1 .5-1.2 1.4-.1 1 .2 1.8.8 1.8s.8.7.4 1.5c-.4 1 .1 1.5 1.6 1.5 1.7 0 1.8-.3.8-1.5-1.5-1.8-.5-3.5 2-3 1 .2 2.5-.4 3.2-1.3 1.1-1.3 1.1-1.5-.4-.9-1 .3-1.9.3-2.2-.2-.3-.4 1.4-.7 3.8-.7 2.9 0 4.3.4 4.3 1.3s-.4 1-1.1.3c-1.4-1.4-2.9-1.3-2 .2.4.6.3.8-.4.4-1.2-.7-2.5 1-2.7 3.5-.1 1 .5 1.6 1.4 1.4.9-.1 1.5-1 1.3-2.1-.2-1.6.1-1.5 1.7.6 1.1 1.4 2.1 2.2 2.2 1.7.1-.4.3-1.2.4-1.7.1-.6.3-1.5.4-2.1 0-.5.5-.8.9-.5.4.2.8-.5.8-1.8 0-2.1-.4-2.2-8.3-2.4-5.3-.1-8.2.2-7.8.8zm17-.1c-.3.5-.1 1.2.4 1.5s1.1-.1 1.5-.9c.6-1.6-.9-2.1-1.9-.6zm321 .1-3 .8 3.3.1c1.7 0 3.2-.4 3.2-.9 0-.6-.1-.9-.2-.9-.2.1-1.6.5-3.3.9zm52.6 1.6c0 1.1.3 1.4.6.6.3-.7.2-1.6-.1-1.9-.3-.4-.6.2-.5 1.3zm-446.3.1c.7.3 1.6.2 1.9-.1.4-.3-.2-.6-1.3-.5-1.1 0-1.4.3-.6.6zm200.8.1c-.2.4-.1 1.4.5 2.2.7 1.2.9 1 .9-.8 0-2.3-.5-2.8-1.4-1.4zm110 .7c-.3.9-.6 2.4-.5 3.3 0 .9.5.4 1-1.2.9-3.2.6-4.8-.5-2.1zm-105.8.2c.7.3 1.6.2 1.9-.1.4-.3-.2-.6-1.3-.5-1.1 0-1.4.3-.6.6zm6 0c.7.3 1.6.2 1.9-.1.4-.3-.2-.6-1.3-.5-1.1 0-1.4.3-.6.6zm4.5 0c.9.2 2.3.2 3 0 .6-.3-.1-.5-1.8-.5-1.6 0-2.2.2-1.2.5zm54.3 1c-.3.6.2 1.7 1 2.4 1.2 1 1.5 1 1.2-.2-.2-.8.7-1.5 2-1.7 1.2-.2 2.2-.7 2.2-1.2 0-1.2-5.9-.7-6.4.7zm8.4-.5c0 .4.4.8.9.8.6 0 1.2-.4 1.5-.8.3-.5-.1-.9-.9-.9s-1.5.4-1.5.9zm-278.5 1.1c-.4 1-.5 2.1-.1 2.4 1 1 1.8-.4 1.3-2.4-.4-1.7-.4-1.7-1.2 0z"/><path d="m117.7 189.7c-.4.3-.7 1.7-.7 2.9 0 2.3-.2 2.3-11.7 2.7l-11.8.3 12.2.2 12.1.2.7-3.1c.7-3.1.4-4.4-.8-3.2zm124.1 2.7c-.4 3.3-.2 3.4 2.9 3.4 1.8 0 3.3-.3 3.4-.7 0-.3.2-1.7.5-3.1.3-1.7.1-2.1-.5-1.1-.7 1.1-1.1 1-2-.5-1-1.7-1-1.6-.7.6.2 1.4.9 2.4 1.6 2.2.6-.1.9.2.6.7s-1.4.7-2.5.4c-1.2-.3-1.7-1.2-1.5-2.9.1-1.3-.1-2.4-.6-2.4-.4 0-1 1.5-1.2 3.4zm208.6-1.3c0 1.3.3 1.5 1.3.7.7-.6 1.3-1.4 1.3-1.8 0-.3-.6-.7-1.3-.7s-1.3.8-1.3 1.8zm9.5-1.1c-.3 2-.4 2.5-1.1 3.6-1 1.5 0 2.4 2.5 2.4 1.9 0 1.9-.1.2-2.6-.9-1.5-1.2-2.4-.7-2 .6.3 1.3.2 1.6-.3s-.1-1.1-.9-1.5c-.8-.3-1.6-.1-1.6.4zm-149.4.9c-.6 1.1.9 2.3 1.9 1.4.9-.9.7-2.3-.3-2.3-.6 0-1.2.4-1.6.9zm11.9.3c.3 1.7 3.6 2.3 3.6.8 0-.7-.6-1-1.4-.7s-1.7.2-2-.4c-.2-.5-.3-.4-.2.3zm237.8 1.3c0 1.6.2 2.2.5 1.2.2-.9.2-2.3 0-3-.3-.6-.5.1-.5 1.8zm-440.2 1.1c-1.3 3.2-1.3 3.1.5 3.1 1 0 1.5-1 1.5-2.9 0-3.5-.8-3.6-2-.2zm91.7-1.4c.7.8.9 1.9.5 2.4-.4.4 0 .3.9-.4.9-.6 1.8-1.1 2-.9.2.1.3 0 .1-.3s-.7-.5-1-.5c-.4 0-1.4-.4-2.2-1-1.2-.7-1.3-.6-.3.7zm106.2-1.1c-.5 2.5-.4 5.1.3 5.5.5.3.8.2.7-.3-.1-.4-.1-1.5 0-2.3.1-1.3.2-1.3 1.1 0 .5.8 1 1 1 .4 0-1.1-2.9-4.1-3.1-3.3zm10.5 2.3c-.9 2-.9 2.6.3 3 3.2 1.2 4.3.6 4.3-2.4 0-3.8-3-4.1-4.6-.6zm-75.1.7c-.2 1.9 1.1 2.6 2.1 1 .3-.5 0-1.4-.7-1.9-1-.8-1.3-.6-1.4.9zm61.9 5.4c0 6.6.2 7.2.8 3.7.3-2.4.3-6-.1-8-.5-2.8-.7-1.6-.7 4.3zm40.8-5.1c0 3.1.6 3.4 1.3.6.3-1.1.1-2.3-.4-2.6s-.9.6-.9 2zm-266.7.1c0 .6.9 1.1 1.9 1.1s1.8-.5 1.8-1.1-.8-1.1-1.8-1.1-1.9.5-1.9 1.1zm172.3-.7c-.3.6-.1 1.4.5 1.7 1.5 1 2.5-.3 1.2-1.6-.7-.7-1.3-.7-1.7-.1zm9.4.1c0 .5.5 1.3 1 1.6.6.3 1 .2 1-.4 0-.5-.4-1.3-1-1.6-.5-.3-1-.2-1 .4zm33.5 0c-.3.6-1.4.8-2.5.6s-2.2 0-2.5.6c-.7 1-.2 1.1 8.2 1.2 5 .1 5.8-.2 6.2-1.8.3-1.6.1-1.7-1.1-.7-.8.6-1.7 1-1.9.8-1.2-1-5.9-1.5-6.4-.7zm229 0c-.3.5-.2 1.2.3 1.5s.9-.1.9-.9c0-1.7-.3-1.9-1.2-.6zm-266.5 1.3c0 .4.7.8 1.5.8s1.5-.4 1.5-.8c0-.5-.7-.9-1.5-.9s-1.5.4-1.5.9zm156.8 0c-.6 1.5.1 3.8 1.1 3.8.4 0 .7-1.1.7-2.5 0-2.6-1.1-3.4-1.8-1.3zm84.2-.2c0 .5.5 1 1 1 .6 0 1-.5 1-1 0-.6-.4-1-1-1-.5 0-1 .4-1 1zm-4 1.2c0 .4.4.8.9.8.6 0 1.2-.4 1.5-.8.3-.5-.1-.9-.9-.9s-1.5.4-1.5.9zm-262.2 2c-.9.5-.5.8 1.2.9 1.4 0 3.3.2 4.3.4.9.2 1.7 0 1.7-.5 0-1.1-5.7-1.8-7.2-.8zm257.9.4c-1.1 3.6-.5 9.9 1.1 11.7.8.9 1.2 2 .9 2.4-.4.3-.7.1-.7-.5 0-.7-.4-1.2-1-1.2-.5 0-1 .8-1 1.8 0 2.7 8 3.1 8 .4.1-.9.7-3.4 1.4-5.4.9-2.4 1-4.1.4-5-.7-.9-.8-.8-.4.6.5 1.5.4 1.7-.8.7-1-.9-1.5-.8-1.9.3-.3.7-.1 1.8.4 2.3s.1.9-1.1 1c-2.2.2-2.4-.4-1.1-2.7 1.4-2 .2-3.3-1.6-1.8-1.3 1-1.4.8-1.1-1.2.2-2 .9-2.5 3.3-2.5 1.7.1 3.3-.4 3.7-1 .5-.6.8-.5.8.3 0 .7.5 1 1 .7 2.1-1.3.8-2.1-3.5-2-2.5 0-4.5.4-4.5 1 0 .5-.4.4-.9-.4-.7-1.1-1-1-1.4.5zm2.3 8.5c0 1.1-.4 1.8-1 1.4-.5-.3-.7-1.2-.3-2 .7-2.1 1.3-1.9 1.3.6zm34.6-9.3c-.3.5.1.9.9.9s1.2-.4.9-.9c-.3-.4-.7-.8-.9-.8s-.6.4-.9.8zm-495.6 1.2c0 .5.5 1 1.1 1 .5 0 .7-.5.4-1-.3-.6-.8-1-1.1-1-.2 0-.4.4-.4 1zm52.4-.1c.7 1 5.5 1.1 6.1.1.2-.4-1.2-.7-3.1-.8s-3.2.2-3 .7zm224.6.2c0 .5.5.7 1 .4.6-.3 1-.8 1-1.1 0-.2-.4-.4-1-.4-.5 0-1 .5-1 1.1zm4.4 0c-.7 1.3 1.1 1.8 2.6.8 1.7-1 3.7-1.2 2.7-.3-.3.4-.2 1.5.3 2.5.7 1.2.7 2 0 2.4-1.9 1.1-1 2.3 2 2.7 3.1.5 3.1.4 2.8-3.6-.2-2.8-.8-4.1-1.8-4.2-.8-.1-1.7-.2-2-.4-1.1-.6-6.2-.5-6.6.1zm96.5.6c-1.2 1.5-1.2 1.6.1.9.9-.4.8-.1-.2.7-2.8 2.2-2.2 4 .6 2.2 1.3-.9 2.3-2.2 2.2-3-.3-2.4-1.2-2.6-2.7-.8zm27.1-.6c0 .5.5.7 1.2.3.7-.5.8-.3.3.7-1.1 1.7-1.3 7.9-.3 7.3.5-.3.8.4.8 1.5s-.4 2.2-.8 2.5c-1 .6-.2 8.6.9 8.6.5 0 .9-.9.9-2 0-1.2.9-4 2-6.2 1.1-2.3 2-5.4 2-7 0-2 .5-2.8 1.8-2.9.9 0 3-.2 4.6-.2 1.9-.1 3-.8 3.2-1.9.1-1.3-.4-1.7-2.2-1.6-1.4.2-2.4.9-2.4 1.8-.1 1.2-.4 1.1-1.5-.4-1.5-2-1.5-2-1.6 0 0 1.8-.1 1.8-.9-.1-.7-1.6-.9-1.7-.9-.3-.1 1.8-2.5 1.8-4.3 0-1.5-1.5-2.8-1.5-2.8-.1zm15.4.7c.3.5-.1.9-.9.9s-1.2-.4-.9-.9c.3-.4.7-.8.9-.8s.6.4.9.8zm-11.3 4.5c-.7.7-.5 1.4.6 2.2 1 .8 1.2 1.4.6 1.8s-1.8-.4-2.7-1.8c-1.2-1.8-1.3-2.4-.4-2.3.7.2 1.2-.3 1-1-.1-.8.2-1.1.9-.7.7.5.8 1 0 1.8zm-345.1-2.2c0 .5.5.7 1 .4.6-.3 1-.8 1-1.1 0-.2-.4-.4-1-.4-.5 0-1 .5-1 1.1zm147.3.4c0 .8.4 1.2.9.9s.6-1 .3-1.5c-.9-1.3-1.2-1.1-1.2.6z"/><path d="m318.6 203.1c.2.4 0 1-.6 1.4-2.3 1.4-.7 2.5 3.5 2.5 4.1 0 4.5-.2 4.1-2.3-.4-2.6-3.6-3.7-3.6-1.2 0 .9-.5 1.3-1 1-.6-.4-.8-1-.6-1.4.3-.4-.1-.8-.9-.8s-1.2.4-.9.8zm-241.1 1c-.4.6-.5 1.2-.2 1.5.2.3.7-.2 1-1.1.7-1.7.1-2-.8-.4zm176.4.6c-1.2 1.6-1.2 1.7.2.6.9-.7 2-.9 2.4-.5.5.4.5.1.1-.6-.9-1.6-1.1-1.5-2.7.5zm-165.4.3c-.4.6-1.1.7-1.7.4-.7-.5-.8-.2-.4.5.5.7 1.1 1 1.4.7s1.1-.1 1.9.6c1.7 1.4 2.5.6 1.7-1.6-.7-1.8-2-2.1-2.9-.6zm11.7 1.4c-.6 1.3-.8 3.3-.5 4.4.2 1.1 0 2.3-.6 2.6-.6.4-1.2.2-1.2-.3-.3-2.6-.4-3-1-3.5-.4-.4-.6.4-.5 1.6.1 1.3-.4 3.5-1.1 5s-1.3 3.6-1.3 4.8c0 1.8.6 2 6.5 2 6.3 0 6.5-.1 6.5-2.5 0-1.4-.7-2.8-1.5-3.1-.8-.4-1.5-1.5-1.5-2.5s-.4-1.9-1-1.9c-.5 0-1-.7-1-1.5s-.6-1.5-1.2-1.5c-.9 0-1-.3-.2-.8 1.3-.8 2.5-5.2 1.5-5.2-.4 0-1.3 1.1-1.9 2.4zm323.3-1.1c-1.2.9-1.4 1.6-.7 2.1.6.3 1.6-.3 2.2-1.4 1.3-2.4 1-2.5-1.5-.7zm30.5-.3c0 .5 2.1 1 4.6 1 2.7 0 4.3-.4 3.9-1-.3-.6-2.4-1-4.6-1-2.1 0-3.9.4-3.9 1zm-392.4.8c-.3.5.1.9.9.9s1.2-.4.9-.9c-.3-.4-.7-.8-.9-.8s-.6.4-.9.8zm11.7.7c0 .8.4 1.2.9.9s.6-1 .3-1.5c-.9-1.3-1.2-1.1-1.2.6zm-3.3.5c0 .5.5 1 1.1 1 .5 0 .7-.5.4-1-.3-.6-.8-1-1.1-1-.2 0-.4.4-.4 1zm12 0c0 .5.5 1 1.1 1 .5 0 .7-.5.4-1-.3-.6-.8-1-1.1-1-.2 0-.4.4-.4 1zm372 1.7c0 1.5.2 1.5 2.4.7 2.2-.9 2-2-.4-2-1.1 0-2 .6-2 1.3zm-413.6.7c.1.8.5 1.8.8 2.2.4.3.5-.1.4-1-.1-.8-.5-1.8-.8-2.2-.4-.3-.5.1-.4 1zm274.6.5c0 2.5.6 2.7 1.3.6.4-.8.2-1.7-.3-2-.6-.4-1 .3-1 1.4zm144.8-1.2c2.2.9 1.2 2.3-1.7 2.3-1.6 0-3.4.7-4.2 1.6-1.1 1.4-.8 1.5 2.9 1.1 2.5-.2 4.2 0 4.2.6 0 2.4 1.3-.6 1.5-3.3.1-2.5-.2-3-1.9-2.9-1.2 0-1.5.3-.8.6zm-422.1 1.9c-.4 1-1 2.6-1.3 3.4-.4 1.2-.4 1.2.4.1.8-1 1.2-.9 2.4.8 1.3 1.8 1.7 1.9 2.1.7.4-.9.2-1.8-.4-2.2-.6-.3-1.4-1.5-1.8-2.7-.7-2-.8-2-1.4-.1zm2.4 3.1c1.3 1.6 1.2 1.7-.3.4-1-.7-1.8-1.5-1.8-1.7 0-.8.8-.3 2.1 1.3zm28.8-2.5c-.1.7-.2 2-.3 2.8-.2.8-.3 2.6-.4 4-.2 2-.4 2.2-1.2 1s-.9-.9-.7 1c.4 2.4.7 2.5 8.5 2.8 8 .3 8.2.2 8.2-2 0-1.3-.9-3.1-2-4-1.8-1.6-2-1.6-3 0-.9 1.4-1.1 1.4-.7.1.8-2.4-.9-4.7-2.4-3.2-.9.9-.9 1.6-.1 2.6.9 1 .8 1.4-.3 1.4-.7 0-1.3-.5-1.2-1.1s-.6-1-1.5-1c-1.6.1-1.8-2.2-.3-4.6.3-.6-.1-1-.9-1-.9 0-1.6.6-1.7 1.2zm40.5 6.3.1 6 4-.3c4.8-.5 4.5-.3 4.9-3.8.2-1.8 1.1-3.3 2.4-3.9 1.2-.5 2.2-1.7 2.2-2.5 0-1.2-1.4-1.5-6.9-1.5h-6.8zm423.2-4.2c.3 1 .9 1.5 1.2 1.2s0-1.1-.7-1.8c-1-.9-1.1-.8-.5.6zm-252.6.4c-3.3 1.3-5.7 6.3-3 6.3.6 0 1-.5 1-1.1 0-.8.6-.7 1.7.2 1.4 1.2 1.6 1.2 1.1-.1-.3-.8-.1-2.5.3-3.8.5-1.2.7-2.2.6-2.1-.1 0-.9.3-1.7.6zm3.1-.2c-.1 1.2 1.9 3.5 3.1 3.5.4 0 .5-.7.2-1.5-.4-.8-1-1.3-1.4-1-.5.3-1.1-.1-1.3-.7-.3-.7-.6-.8-.6-.3zm268.3.9c-.3.8-.4 2.3-.2 3.3.3 1.1.6.6.9-1.5.6-3.4.2-4.2-.7-1.8zm-489.7 1.3c.3.7.9 1 1.4.7 1.4-.8 1.1-2.1-.5-2.1-.8 0-1.2.6-.9 1.4zm264 0c-1 .9-.9 2.3.1 2.3.5 0 .9-.7.9-1.5 0-1.7-.1-1.8-1-.8zm128.1 2.8c-.4 3.4-.3 3.5 3.3 3.5 4 0 7.1-2.3 4.5-3.3-.9-.4-1.8-.2-2.1.2-.8 1.4-4.7 0-4.1-1.5.3-.7.1-1.6-.3-1.9-.5-.2-1.1 1.1-1.3 3zm-46.3-1.5c-.3.5-.2 1 .4 1 .5 0 1.3-.5 1.6-1 .3-.6.2-1-.4-1-.5 0-1.3.4-1.6 1zm87.9.1c-.3.5 1.2.9 3.2.9 4.1 0 4.1-1 0-1.4-1.5-.2-2.9.1-3.2.5zm-450.9.9c-.3.5-.3 1 .2 1 .4 0 .2.4-.6.9s-2.3.8-3.3.6-1.6 0-1.3.6c.8 1.2-.8 1.2-2.1-.1-.7-.7-1.1-.6-1.1.3 0 1 1.8 1.4 6.6 1.5 6.3.1 6.7 0 6.6-2.1-.2-3-1.9-3.7-2.3-1-.2 1.3-.8 2.3-1.3 2.3s-.7-1.1-.5-2.5c.5-2.6.1-3.2-.9-1.5zm248 0c.3.5 1.1 1 1.6 1 .6 0 .7-.5.4-1-.3-.6-1.1-1-1.6-1-.6 0-.7.4-.4 1zm211.3-.3c.7.3 1.6.2 1.9-.1.4-.3-.2-.6-1.3-.5-1.1 0-1.4.3-.6.6zm-443.4 1.2c1.2 1.8-1.1 3.2-3.7 2.2-2.1-.8-2.7-.7-2.7.2 0 .8 1.5 1.4 4 1.5 3.1.2 3.8 0 3.4-1.2-.3-.8-.1-1.7.5-2.1.7-.3 1.1.3 1.1 1.5s.5 1.8 1 1.5c1.4-.9-.3-3.8-2.4-4.1-.9-.1-1.4.1-1.2.5z"/><path d="m273.7 218.6c-.9 1 2.2 6.6 3.3 5.9 1.7-1.1 1.1-3.2-1.1-3.8-1.2-.3-1.8-1-1.4-1.6.7-1.2.2-1.5-.8-.5zm143.6 2.4c-3.7 3.3-4 4-1.8 4 .8 0 3 1.6 4.8 3.6 2.4 2.6 4.2 3.7 6.5 3.7 2.6.2 3.2.6 3.1 2.2-.1 1.1.1 2.8.6 3.8.6 1.5 1 1.5 2.4.5 1.4-1.1 1.4-1.1.3.4-1.1 1.4-1.6 1.4-4.1.2-1.6-.8-3.2-2.1-3.5-3-.3-.8-1.1-1.2-1.6-.9-1.3.8 6.9 7.5 9.1 7.5.9 0 2-.7 2.3-1.6.4-.9 1.3-1.4 2.2-1 .8.3 1.2.2.9-.3s-.1-1.2.5-1.6c.5-.3 1 .1 1 1 0 .8.7 1.8 1.5 2.1 1.1.5 1.2 1 .4 2.6-.6 1.1-.7 1.9-.2 1.6 5.1-2.4 6.3-3.3 5.9-4.5-.3-.8-.1-1.1.4-.8.6.3 1 .2 1-.3 0-1.3-4.2-3.2-6.5-2.9-1.5.1-2.1-.5-2.3-2.5-.3-2.8-5.4-7.4-7.1-6.4-.5.3-1.5-.2-2.2-1.2-1.3-1.6-1.2-1.6.6-.3 1.9 1.4 1.9 1.4.3-.3-.9-1-2.1-1.5-2.7-1.2-1.7 1.1-1.3 3.6.5 3.6 1.4 0 1.4.2.3 1.6-1.2 1.5-1.5 1.4-3.4-.8-1.1-1.4-3.5-3.3-5.2-4.4-3.7-2.1-4-3-1.6-5.6 2.4-2.7 1.2-2.1-2.4 1.2zm20.7 13.8c-.7.3-1.6-.2-2.1-.9-.5-.8-.9-1-.9-.6 0 .5-.5.5-1 .2-.6-.4-.8-1.1-.5-1.6s1.8-.1 3.2.8c1.6 1.1 2.1 1.9 1.3 2.1zm12-15.3c0 1.3-1.1 1.9-3.1 1.7-.3-.1-.6.6-.6 1.4 0 .7.4 1.4.9 1.4.4 0 .8.5.8 1.1 0 .5-.4.7-1 .4-.5-.3-1-.2-1 .3 0 .6.7 1.3 1.6 1.6 2.1.8 2.6.8 2-.2-.3-.5.2-.9 1-.9.9 0 1.1.4.5 1-1.7 1.7 0 4.2 5.4 7.9 3 2.1 5.6 3.8 5.9 3.8s.6-2.7.6-6c0-4.1-.4-6-1.2-6-1 0-1-.2 0-.9 3.4-2.1-4.7-3.6-9.1-1.6-1.3.5-2.4.2-3.5-.9-1.4-1.4-1.4-1.6-.2-1.1 1.1.4 1.6-.2 1.8-2 .1-1.4 0-2.5-.3-2.5s-.5.7-.5 1.5zm-361.1 1.2c-1.3 1.6-1.2 1.7.4.4.9-.7 1.7-1.5 1.7-1.7 0-.8-.8-.3-2.1 1.3zm30.7-.1c-.8 2.1-.3 2.6 1.7 1.8.9-.3 1.3-1.2 1-2-.7-1.9-1.9-1.8-2.7.2zm39.9.4c1 1.1 2 2 2.3 2s-.3-.9-1.3-2-2-2-2.3-2 .3.9 1.3 2z"/><path d="m421.6 219.9c-.3.5.3 1.1 1.5 1.4 1.6.4 1.8.3.8-.9-1.3-1.6-1.6-1.7-2.3-.5zm-156.1 4.3c-5.4 4.3-7.8 6.6-5.7 5.4 1.4-.8 1.5-.2.3 2.2-.5.9-1.3 2.8-1.8 4.2l-1 2.5-1.2-2.3c-1-1.9-1-2.7.1-4 2-2.4-5.2 2.7-9.2 6.7-1.9 1.9-2.9 3.1-2.2 2.7.6-.4 1.2-.2 1.2.3 0 .6-.4 1.1-1 1.1-.5 0-1 1.1-1 2.5 0 1.5-.6 2.5-1.4 2.5-2.2 0-2.9-1.9-1.4-3.7 1.1-1.4.8-1.3-1.5.2-2.5 1.6-5.4 5.4-4.5 5.9.2.1 2 .9 4.1 1.9 2 .9 3.7 2.2 3.7 2.9 0 .6 1.1.1 2.5-1.2 1.8-1.7 2.2-2.6 1.3-3.1-.7-.4-.9-1.1-.5-1.5.3-.4 1.3-.1 2.1.6.9.6 2.1 1 2.8.7.8-.3.2-1-1.5-1.7-2.4-1.2-3.1-1.1-5.8.9-1.7 1.3-3.3 2-3.6 1.8-.3-.3 1.4-1.8 3.6-3.3 2.3-1.4 4.1-2.9 4.1-3.1s-.5-.1-1.2.3-.8.3-.4-.5c.4-.6 1.2-.9 1.7-.5.5.3 2.1-.2 3.5-1 2.9-2 2.9-.1 0 2.4-1.8 1.6-1.7 1.7.9 3.4 1.5 1 2.4 1.3 2.1.7-.7-1.2 1-5.1 2.8-6.3.6-.4 1.6-.6 2.3-.3.7.2 1.5 0 1.8-.5.4-.6.1-1-.5-1-.8 0-.8-.6 0-2 1.3-2.4 4.7-2.6 7.7-.5 1.8 1.3 2.3 1.3 3 .2.4-.8 2.2-2.1 3.8-3 2.7-1.4 2.8-1.6.8-1.7-2.2 0-2.2-.1-.5-3 3-5.2.4-5.6-6.4-.9-3.2 2.2-6.3 4.6-6.9 5.3-.5.7-2.3 2.1-4 3.2l-2.9 1.9 2.4-3.3c1.3-1.7 3-3.2 3.7-3.2s1.3-.5 1.3-1.1c0-.5-.5-.7-1.2-.3s-.8.3-.4-.4 1.6-1.2 2.7-1.2c1.2 0 4-1.4 6.4-3.1 3.5-2.5 4.2-3.5 3.5-4.9-2.1-4-3.3-3.9-8.5.2zm9.5 7.3c-.7.9-1.5 1.3-1.8 1-.3-.2.1-1.1.8-2s1.5-1.3 1.8-1c.3.2-.1 1.1-.8 2zm227.6-10c.4.8.8 1.5 1 1.5s.4-.7.4-1.5-.4-1.5-1-1.5c-.5 0-.7.7-.4 1.5zm-142.9.2c-.4.3-.7 1.1-.7 1.7s.5.5 1.2-.2c.6-.6.9-1.4.7-1.7-.3-.3-.9-.2-1.2.2zm191.5 1c-.5 1-.7 2.4-.4 3.2s0 1.1-.6.7c-.6-.3-1.3-.2-1.6.3-.4.5.2.8 1.1.7.9-.2 2-1.6 2.5-3.1.9-3.4.3-4.4-1-1.8zm-222.7.3c-.4.6-1.1.7-1.7.4-.6-.4-.9-.1-.6.6.6 1.8 2.9 2.6 2.6.8-.2-.7.3-1.2 1-1.1.6.2 1.2-.2 1.2-.7 0-1.3-1.7-1.3-2.5 0zm151 0c-.3.5-.1 1 .4 1 .6 0 1.1-.5 1.1-1 0-.6-.2-1-.4-1-.3 0-.8.4-1.1 1zm64-.2c-.2.2-.1 1.1.2 2 .4.9.2 1.3-.4.9-.5-.3-1 0-1 .7s.6 1.3 1.4 1.3c.7 0 1.3-.9 1.3-1.9s1-2.3 2.3-2.8c2.1-.8 2-.9-.6-.7-1.5.1-3 .3-3.2.5zm-164.9 1.7c-.3.9 0 1.5.9 1.5.8 0 1.5-.7 1.5-1.5s-.4-1.5-.9-1.5-1.1.7-1.5 1.5zm-340.8 1.2c.7.3 1.6.2 1.9-.1.4-.3-.2-.6-1.3-.5-1.1 0-1.4.3-.6.6zm3.6 0c.4.5 1.2.8 1.7.8s.9.3.9.7v2c0 .6-.9.3-2.1-.8-1.1-1-2-1.4-1.9-.9.2.6.1 1.3 0 1.7-.1.5-.3 1.4-.4 2 0 .7-.7 1.3-1.5 1.3s-1.5.8-1.7 1.7c-.1 1 .3 1.6.9 1.5s1.3.7 1.5 1.8c.4 1.7.2 1.8-1.2.6s-1.6-1-1.6 1.3c0 1.9.4 2.5 1.2 2 2.1-1.3 4.9-1.2 3.8.1-.6.7-.4 1.9.5 3.2.8 1.2 1.7 2.9 1.9 4 1.2 5.4 1.8 6.3 4.8 6.3h2.9l-.5-8.8c-.2-4.8-.5-8.7-.6-8.7s-.3-1.7-.5-3.8c-.4-5.3-2.4-6.8-2.8-2-.1 2.5-2.3 2.6-2.4.1-.1-1 .2-1.6.6-1.3.5.2.8-.8.8-2.3-.1-2.2-.7-2.8-2.6-3-1.3-.1-2.1.1-1.7.5zm1 5.4c-.3.5-1 .7-1.5.3-.5-.3-.7-1-.3-1.5.3-.5 1-.7 1.5-.3.5.3.7 1 .3 1.5zm.6 2.5c0 .8-1.9 1.3-2.4.6-.3-.5.1-.9.9-.9s1.5.2 1.5.3zm477.6-6.1c-.9 1.4-2.1 2.4-2.7 2.2-.7-.1-1.4.4-1.6 1-.3.7-.1 1.3.4 1.3 1.3 0 6.8-5.9 6.1-6.5-.3-.3-1.3.6-2.2 2zm-107.7.2c-1.3 1.6-1.2 1.7.4.4s2.1-2.1 1.3-2.1c-.2 0-1 .8-1.7 1.7zm-242.7 1.3c.7 1.1 2.1 2 3 2 1 0 1.8.4 1.8 1 0 .5.6 1 1.3 1 1.2-.1-5.2-5.9-6.6-6-.4 0-.2.9.5 2zm162-1.2-7.4.3 6.5 4.9c3.6 2.7 6.8 5.4 7.2 6 .3.5 1 1 1.6 1 1.1 0 1.3-11.7.2-12.2-.5-.2-4.1-.2-8.1 0zm42.9.8c1.3 1.6 2.9 1.9 2.9.5 0-.5-.9-1.1-2.1-1.4-1.6-.4-1.8-.3-.8.9zm39.9.3c0 .5.5 1.3 1 1.6.6.3 1 .2 1-.4 0-.5-.4-1.3-1-1.6-.5-.3-1-.2-1 .4zm-132.5 1.1c-.3.5-.1 1 .4 1 .6 0 1.1-.5 1.1-1 0-.6-.2-1-.4-1-.3 0-.8.4-1.1 1zm.3 3.4c-1.9 1.4-2.5 3.2-.8 2.1.6-.3 1 .4 1 1.6 0 1.7.3 2 1.1 1.2.6-.6.9-2.2.7-3.6-.3-2.3-.5-2.4-2-1.3zm107.8.3c-.6 1.4-.5 1.5.5.6.7-.7 1-1.5.7-1.8s-.9.2-1.2 1.2zm158.4-.6c0 .5.5.7 1 .4.6-.3 1-.8 1-1.1 0-.2-.4-.4-1-.4-.5 0-1 .5-1 1.1zm-164 1.4c-1.4 1.6-.3 2 1.9.6.8-.5.9-1.1.3-1.5-.5-.3-1.5.1-2.2.9zm33.3 0c0 .8.4 1.2.9.9s.6-1 .3-1.5c-.9-1.3-1.2-1.1-1.2.6zm-241 1c0 .8.4 1.2.9.9s.6-1 .3-1.5c-.9-1.3-1.2-1.1-1.2.6zm338.7 0c-.7.8-.9 1.5-.6 1.5.4 0 .2.9-.4 2-.8 1.5-.8 2 .1 2 .8 0 .8.4-.1 1.5-2.5 3 0 2.6 4-.6 3.3-2.7 3.8-3.5 2.5-3.8-1-.1-2.2.4-2.7 1.3-1.1 2-2.8 2.1-2.8 0 0-.8.5-1.2 1-.9.6.4 1-.5 1-1.9 0-3-.3-3.2-2-1.1zm-367 2.2c0 .5.7 1.8 1.5 3 .9 1.3 1.1 2.3.5 2.6s-.5.4.2.2c.7-.1 1.2-.8 1-1.5s.3-1 1.2-.7c.9.4 1.8.3 2-.2.5-.7-1-1.6-5.6-3.9-.5-.2-.8.1-.8.5zm21.5 2.6c.4 3.7.5 3.8 1.5 3.2.8-.5.8-1.1.1-1.9-.6-.7-.8-1.5-.5-1.8s.1-.9-.4-1.2-.8.5-.7 1.7zm211.6.6c-2.6 3.6-2.7 4.7-.3 2.3 1.1-.9 1.7-2 1.5-2.4s.5-1.1 1.4-1.7c1-.6 1.3-1.1.6-1.1-.6 0-2.1 1.3-3.2 2.9zm-216-.3c.6.7 1.6 1.1 2.1.8 1.1-.7.3-1.7-1.8-2-1.2-.2-1.3.1-.3 1.2zm210.6 1.9c-.4.8-.1 1.7.6 2.1s.9.4.5-.1c-.4-.4-.3-1.4.3-2.2.7-.8.8-1.3.1-1.3-.5 0-1.2.7-1.5 1.5zm175-.8c-.2.5-.3 1.6-.2 2.5.2.9-.4 1.9-1.2 2.2-.7.3-1.1.2-.8-.3s0-1.3-.6-1.7c-.7-.4-.9-.3-.5.4 1 1.7-1.3 2.5-2.9.9-.8-.8-1.3-1.6-1.2-1.9.1-.2-.5.4-1.4 1.3-1.5 1.6-1.8 1.6-3.2.2-.8-.8-2-1.2-2.7-.8-1.7 1 .8 3.5 2.8 2.8 1.5-.6 1.6-.5.2 1.3-1.4 1.9-1.4 1.9.8 0 1.6-1.4 2.5-1.7 3.3-.9.6.6 1.7 1 2.3.8s2.3-.6 3.7-.9c2.2-.5 2.6-1.1 2.5-3.6-.1-3.2-.2-3.5-.9-2.3zm-6.6 5c1.3 1.6 1.2 1.7-.3.4-1-.7-1.8-1.5-1.8-1.7 0-.8.8-.3 2.1 1.3zm-363.1-4.3c0 .2.7.7 1.6 1 .8.3 1.2.2.9-.4-.6-1-2.5-1.4-2.5-.6zm170 0c0 .2.8 1 1.8 1.7 1.5 1.3 1.6 1.2.3-.4s-2.1-2.1-2.1-1.3zm-226.4 2.5c-.3.5.5 1.6 1.9 2.5 3.1 2 3.4 2 3-.2-.2-.9-.4-2-.4-2.5-.1-1-3.9-.9-4.5.2zm224 .6c.4.8 1.1 1.5 1.6 1.5.6 0 .5-.6-.2-1.5-.7-.8-1.4-1.5-1.6-1.5s-.1.7.2 1.5zm133.4-.5c0 .5.5 1 1 1 .6 0 1-.5 1-1 0-.6-.4-1-1-1-.5 0-1 .4-1 1zm34 .5c-.7.9-.8 1.5-.2 1.5.5 0 1 2 .9 4.5 0 2.5-.4 4-.8 3.4-.4-.7-.5-1.9-.2-2.7.5-1.2.3-1.2-1.5-.1s-1.9 1.5-.7 2.2c1.8 1 2 2.5.3 2.3-1.4-.1-1.8.6-1.8 3.1.1 1.7.2 1.7 1.4 0 1.3-1.7 1.5-1.7 2.4-.1 1.9 3.5 3.3.4 3.1-7.2-.2-7.8-.9-9.4-2.9-6.9z"/><path d="m262.5 246c.3.5 1.2.7 2 .3 2.1-.7 1.9-1.3-.6-1.3-1.1 0-1.8.4-1.4 1zm225.1 1.1c-1.1 1.3-1.3 2-.4 1.7.7-.3 1.8.2 2.5 1.1.9 1.3.8 2-.3 3.2-1.3 1.5-1.3 1.7.5 2.2 2.3.6 4.1-3 2.2-4.3-.7-.4-1.1-1.1-1-1.6.3-1.9-.1-4.4-.9-4.4-.4 0-1.6 1-2.6 2.1zm23.7.5c-.3.8-.1 2 .6 2.7.8.8 1.1.4.9-1.6-.3-3.1-.6-3.4-1.5-1.1zm-389.8.4c-.5.6-2.5 2.2-4.3 3.6-2.9 2.4-3.2 2.9-1.9 4.1 1.6 1.6 1.1 1.8 8.5-4.3 1.4-1.2 2.2-2.6 1.8-3.2-.9-1.4-2.7-1.5-4.1-.2zm319.7.3c-1.2 1.4-1.2 5.7-.1 5.7.4 0 1.4-1 2.3-2.3.9-1.2 1.4-1.6 1-.9-.5 1.2-.2 1.2 1.7.2 2.2-1.2 2.2-1.3.4-2.6-2.4-1.7-4-1.8-5.3-.1zm-404.6.5c-.2.4-.1 1.4.3 2.1.6 1 1 .9 1.4-.3.6-1.6-.8-3.2-1.7-1.8zm105.3 1.9c-1.3 1.7-1.3 1.7.6.3 1.1-.8 2.2-1.6 2.4-1.7.2-.2 0-.3-.6-.3s-1.7.8-2.4 1.7zm415.1-.6c0 .5.5.7 1 .4.6-.3 1-.8 1-1.1 0-.2-.4-.4-1-.4-.5 0-1 .5-1 1.1zm-434 3.5c-2.5 2-4.5 4-4.5 4.4 0 1.2 8.8 7 9.7 6.4 1.5-1 .8-2.4-1.1-2.4-3.8 0-3-1.8 1-2.4 2.2-.3 4.2-1.3 4.5-2.1.4-.8 1.3-1.5 2.1-1.5s1.1.4.8 1c-1.2 2 .6 2.9 2.5 1.2 2.5-2 2.5-3.1.3-4.8-1.2-.8-2.2-.9-3-.2-.9.7-2 .4-3.9-1.1-1.5-1.2-2.9-2.1-3.3-2-.3 0-2.6 1.6-5.1 3.5zm7.9-.3c.6.8.8 1.7.5 2-.7.7-4.4-1.4-4.4-2.5 0-1.3 2.7-.9 3.9.5zm13.4-1.4c-1.6 1.4-1.9 2.1-1 3 1.7 1.7 2.7 1.3 2-.7-.3-.9-.3-1.4.2-1 1.1 1 4.7-1.1 4-2.3-.9-1.4-2.7-1-5.2 1zm10.2.1c.3.5 1.1 1 1.6 1 .6 0 .7-.5.4-1-.3-.6-1.1-1-1.6-1-.6 0-.7.4-.4 1zm352.5 1c-.9.6-1 1-.3 1 .6 0 1.5-.5 1.8-1 .8-1.2.4-1.2-1.5 0zm14.6-.2c-.6 1-.2 3.9.7 4.8.4.4.7-.7.7-2.4 0-3.2-.4-3.9-1.4-2.4zm35.4 1.8c0 2.5 1.4 3.9 3.1 2.8.7-.4.7-1 .1-1.6s-.8-1.6-.6-2.3c.3-.6-.2-1.2-1.1-1.2s-1.5.9-1.5 2.3zm-448.9 4.1c-2.9 2.2-3.1 2.7-1.6 3.5 1.1.7 2.4.5 4-.6 2.1-1.4 2.4-1.4 2.7 0 .2 1.3.6 1.3 2.1.2 1.6-1.2 1.6-1.5.2-3.6-2.1-2.8-3.2-2.8-7.4.5zm412.9 2.4c0 .5.5.7 1 .4.6-.3 1-.8 1-1.1 0-.2-.4-.4-1-.4-.5 0-1 .5-1 1.1zm36-.1c0 .5.5 1 1.1 1 .5 0 .7-.5.4-1-.3-.6-.8-1-1.1-1-.2 0-.4.4-.4 1zm-441.3 2.3-2.8 2.2 5.1 3.4c3.6 2.4 5.4 3.1 6.1 2.4.8-.8.4-1.5-1.1-2.6-1.2-.8-1.9-2-1.6-2.6 1-1.5 5.8 1.8 5.2 3.5-.3.8 0 1.1 1 .7 1.2-.4.5-1.6-3.1-4.9-2.6-2.4-5-4.4-5.3-4.4-.4 0-1.9 1-3.5 2.3zm4.7 1.8c-.3.5-1 .7-1.5.3-.5-.3-.7-1-.3-1.5.3-.5 1-.7 1.5-.3.5.3.7 1 .3 1.5zm61.6-2.1c.7 1.4 1 11.4.8 30.3l-.3 28.2 17.9 14.3c9.9 7.8 18 14.1 18.2 13.9.2-.1-.1-2-.6-4.2s-1-11.8-1-21.3v-17.2h-13v11.1l-4-3.2c-3.8-3-4-3.5-4-8.6v-5.3h13v-14h-13v-12h3.4c2.1 0 3.6.6 4 1.5.4 1.1 2.2 1.5 7.1 1.5h6.5v-6.4c0-6.2-.1-6.5-3.4-8.5-3-1.9-4.9-2.1-18-2.1-14.4 0-14.7 0-13.6 2zm37 26.5v28.5l6.8 4.9c3.7 2.8 7 5 7.4 5.1.4 0 .9-6.6 1-14.7l.3-14.7 4 9.3c2.3 5.1 4.5 9.4 5 9.4.5.1 2.5-3.8 4.5-8.8l3.5-8.9.3 14.3c.3 16.2-.3 15.6 9 8.9l6.1-4.3v-28.8l.1-28.7h-14.9l-4.7 9.7-4.6 9.8-2.4-5c-1.3-2.8-3.3-7.1-4.4-9.8l-2.1-4.7h-14.9zm53.2-26.2c-2.1 2.3-2.2 3-2.2 29.3v27l6.4 5.2c3.5 2.8 6.7 4.8 7 4.5.3-.4.6-5.3.6-11v-10.3h6v11c0 6 .2 11 .5 11s3.7-2.4 7.5-5.2l7-5.2v-27.1c0-33.9 1.4-31.5-17.6-31.5-12.3 0-13.2.1-15.2 2.3zm17.8 21.2v9.5h-6v-19h6zm18.6-20.4-2.6 3.1v51.5l8.2 6.4c4.4 3.5 8.5 6.3 8.9 6.2.5-.2 4.9-3.2 9.9-6.9l9-6.6v-14.8h-15v3.4c0 2.7-.7 3.9-3.5 6l-3.5 2.7v-40.1h3.5c3.3 0 3.5.2 3.5 3.5v3.5h15v-7.7c0-7-.2-7.9-2.7-10.5-2.7-2.8-2.8-2.8-15.4-2.8h-12.7zm35.4-2.2c0 .6.5 1.3 1 1.6.6.4 1 7.1 1 16.9v16.3l9.8 5.5 9.7 5.5.3 4.3c.3 4.3.3 4.3-2 2.8-1.3-.8-2.7-2.5-3.3-3.6-.9-1.9-1.8-2.2-7.7-2.2h-6.8v12.8l17.1 13.7c9.4 7.5 17.1 13.5 17.2 13.3.1-.1 0-10.8-.3-23.6l-.5-23.3-10-5.3-10-5.4-.3-8.1-.3-8.1h3.6c2.4 0 3.5.4 3.5 1.5 0 1.2 1.4 1.5 7 1.5h7v-6.4c0-6.3-.1-6.4-3.6-8.5-3.1-1.9-5.1-2.1-18-2.1-8.3 0-14.4.4-14.4.9zm-263 1.7c0 .8.5 1.2 1 .9.6-.3 1-1 1-1.6 0-.5-.4-.9-1-.9-.5 0-1 .7-1 1.6zm427 3.6c0 4.2.1 4.2 1.3 1.8 1.4-2.6 1.1-6-.4-6-.5 0-.9 1.9-.9 4.2zm-37.8-1.2c0 1.4.2 1.9.5 1.2.2-.6.2-1.8 0-2.5-.3-.6-.5-.1-.5 1.3zm34.8.8c0 1-.6 2.4-1.2 3.1-1.1 1-1 1.1.5.6 1.5-.6 2.6-5.5 1.2-5.5-.3 0-.5.8-.5 1.8zm7.2 2.3c-1.3 2.2-2.7 3.7-3.2 3.4-.6-.4-1-.1-1 .4 0 1.7.9 1.3 4.9-1.9 2.3-1.8 4.1-2.6 4.7-2s1.5.5 2.4 0c1.2-.8 1.2-1-.4-1-1.1 0-2.7-.6-3.5-1.4-1.4-1.3-1.9-1-3.9 2.5zm-476.2-2.1c0 .5.9 1 2 1s2-.5 2-1c0-.6-.9-1-2-1s-2 .4-2 1zm6.8-.3c.7.3 1.6.2 1.9-.1.4-.3-.2-.6-1.3-.5-1.1 0-1.4.3-.6.6zm63.9 4.1-4.3 3.8 2.2 1.7c3 2.3 4.3 2.1 3.7-.3-.3-1.1-1.2-2-2-2s-1.2-.4-.8-.9c.7-1.2 4.6-1.1 6.3.2.8.7 1.2.4 1.2-.9 0-1.5.2-1.6.9-.5.6 1 1 1 1.6.1.7-1.1-2.1-5-3.6-5-.4 0-2.8 1.7-5.2 3.8zm374.5-1.8c0 1.4.2 1.9.5 1.2.2-.6.2-1.8 0-2.5-.3-.6-.5-.1-.5 1.3zm68.7-1.8c0 .2-.2 4.5-.3 9.6-.2 7.2 0 9.2 1 8.8 1.3-.5 2.8 2.4 2.9 5.8 0 1.6.8 2 3.8 2.1l3.9.2-.6-6.7c-.6-8.2-1.5-12.2-2.7-11.5-.4.3-.6 1.2-.3 1.9.3.8 0 1.7-.5 2.1-.6.3-.9 1-.7 1.4.3.4-.1.8-.7.8-1.2 0-1.7-1.6-2-6.2-.1-1.1-.7-2.6-1.4-3.3-.7-.8-1.1-1.8-.8-2.3.4-.5.1-.9-.5-.9s-.8-.5-.5-1c.3-.6.4-1 .1-1s-.6.1-.7.2zm-61.1 1.5c.7.3 1.6.2 1.9-.1.4-.3-.2-.6-1.3-.5-1.1 0-1.4.3-.6.6zm5.2 1.3c-.9.6-1 1-.3 1 .6 0 1.5-.5 1.8-1 .8-1.2.4-1.2-1.5 0zm-23 .9c0 .5.5 1.3 1 1.6.6.3 1 .2 1-.4 0-.5-.4-1.3-1-1.6-.5-.3-1-.2-1 .4zm29 .1c0 .5.5 1 1 1 .6 0 1-.5 1-1 0-.6-.4-1-1-1-.5 0-1 .4-1 1zm21.8-.4c-.5.4-.8 1.6-.8 2.8 0 1.4.3 1.7 1.1.9.6-.6.9-1.9.7-2.8-.1-.9-.6-1.3-1-.9zm-35.3 1.3c-1 1.7 1.2 2.1 2.5.6 1-1.2 1-1.5-.3-1.5-.9 0-1.8.4-2.2.9zm-371.1 2.6-2.9 2.4 3.2-.1c2.2-.1 3-.5 2.6-1.5-.4-.9 0-1.1 1.1-.7.9.3 1.6.2 1.6-.4 0-2.1-2.8-1.9-5.6.3zm-14.4 4.4c0 .5.7 1.2 1.6 1.5 2.2.9 2.4.8 1.8-.9-.7-1.6-3.4-2.1-3.4-.6zm7.5 1.1c-2.7 3-1.2 3.4 1.5.5 1.3-1.4 1.9-2.5 1.3-2.5-.5 0-1.8.9-2.8 2zm-9.5.5c0 2 1.6 3.4 2.9 2.6.9-.6 1-1.1.2-1.5-.6-.4-1.1-.4-1.1.1 0 .4-.5.1-1-.7s-1-1.1-1-.5zm10 2.5c0 .5.4 1 .9 1 .6 0 1.3-.5 1.6-1 .3-.6-.1-1-.9-1-.9 0-1.6.4-1.6 1zm399.7 6.5c-.4.8-.2 1.7.3 2 .6.4 1-.3 1-1.4 0-2.5-.6-2.7-1.3-.6zm-414.4 4.3c.1 1.4.5 1.8 1.1 1.2.7-.7.6-1.4-.1-2.1-.9-.9-1.2-.7-1 .9zm-5.7 2.8c-2.1 2.1-2.1 2.1 1.4 1.6 2.5-.3 2.8-.7 1.9-1.8-1.4-1.7-1.4-1.7-3.3.2zm429.4.2c0 1-.3 2.2-.7 2.6s-.8 2.6-.8 4.9c0 3.6-.3 4.2-2 3.9-1.5-.3-1.7-.1-.9.8.9.9 2.5.4 6.7-2.3 3-2 5.8-4.1 6.2-4.8 1-1.5-3.4-5.1-5.7-4.5-1.1.2-1.5-.1-1.1-1 .3-.8 0-1.4-.6-1.4s-1.1.8-1.1 1.8zm-436 5.2c-1.4 2.6.3 3.4 2.4 1.1 1.5-1.6 1.5-1.9.2-2.4-1-.4-2 .1-2.6 1.3zm446.4 1.7c.2.9 1 1.7 1.9 1.9 2.3.3 2.1-.8-.2-2.3-1.6-1-1.9-.9-1.7.4zm3.7 3.7c-.9 1-.8 1.6.4 2.6.8.7 1.5.9 1.5.4s.7.2 1.6 1.4c1.3 1.9 1.4 2.5.2 3.9-1.1 1.4-1.1 1.6.2.9.8-.4.5.1-.8 1.1-2.1 1.7-2.1 2-.7 3.8 1.1 1.4 1.5 1.6 1.4.5-.3-2.8.1-4.1 1-3.6.5.4 1.2 0 1.4-.6.3-.8.6-.6.6.4.1 1-.5 1.8-1.1 1.8-.9 0-.8.3.2.9.8.6 1.8.7 2.2.5.4-.3.8.1.8.8s.7.2 1.6-1c1.5-2.1 1.5-2.5-.1-4.2-1-1.1-2.1-1.7-2.6-1.4-.4.2-1.3-.4-1.9-1.5-.7-1.3-.7-2.2 0-2.6 1-.6.3-1.6-3.1-4.3-1.3-1-1.9-1-2.8.2zm-25.2 2.3c-1.3 1.6-1.2 1.7.4.4s2.1-2.1 1.3-2.1c-.2 0-1 .8-1.7 1.7zm15.1-1.3c0 .2.7.9 1.5 1.6.9.7 1.5.8 1.5.2 0-.5-.7-1.2-1.5-1.6-.8-.3-1.5-.4-1.5-.2zm-483.8 5-3.1 2.3 2.9 2.1c3.5 2.6 4.3 2.7 6 .7 1.4-1.7 3-2 3-.4 0 .5-.6.7-1.2.3-.7-.4-.9-.3-.5.1.4.5 1.4 1 2.1 1.1 1.8.2.8-3.6-1.3-5.4-.9-.8-1.1-1.1-.5-.8s1.1-.1 1.1-.9c0-1.1-.4-1.2-1.4-.4-.9.8-1.7.8-2.6 0-1-.8-2.1-.5-4.5 1.3zm487.4-.1c-1.5 1.1-1.4 1.3.5 2.5 1.2.8 1.8.9 1.5.3-.4-.5-.1-1.3.5-1.7.7-.4.9-.3.6.2-.8 1.4.9 3.8 2.2 3 .7-.5.8-1.3.1-2.5-1.3-2.5-3.5-3.2-5.4-1.8zm19.8 4.8c-.4 1.3-.7 2.9-.6 3.6.1.6-1.3 2.7-3.1 4.7-1.9 2-3.2 3.6-2.9 3.6.2 0 .1.6-.4 1.3s.1.1 1.4-1.3c1.2-1.4 2-1.8 1.7-.9-.6 1.7 1.8 4.9 3.6 4.9.6 0 .7.6.4 1.2-.4.7 0 .5.8-.4.8-1 1.7-1.5 2-1.1.4.3 1.6-.2 2.7-1.2 1.5-1.4 1.7-2.1.9-3.2-1.3-1.5.2-1.8 1.8-.2.6.6 1.8 1.2 2.8 1.3s1.9 1 2.1 1.9c.1.9-.1 1.6-.4 1.6-1.9-.3-3.2.2-3.2 1.2 0 .7 1 .9 2.6.5 1.4-.4 2.3-.3 2 .2-.3.4.4 1.5 1.5 2.2 2.4 1.8 2.4 2.7.2 3.3-1 .3-.5.4 1 .4 3.4-.2 5.7-2.4 3.7-3.7-.7-.4-1.9-.6-2.6-.3-2 .7-3.7-3.2-2-4.6 1.8-1.5 9 3 7.5 4.8-.5.6-.1.5.8-.3 1.4-1.3 1.4-1.8.3-3.1-.7-.9-1.9-1.4-2.6-1.1-.8.3-1.3 0-1.1-.6.1-.6-3.4-3.9-7.8-7.3-6-4.8-8.2-6-8.8-4.9-.4.7-1.4 1.1-2.3.7-1.1-.4-1.2-.8-.3-2 .9-1 .9-1.7.2-2.4-.8-.8-1.3-.4-1.9 1.2zm3.5 6.4c0 .5-.6.8-1.2.6-.7-.2-1.7-.4-2.4-.4s-1-.3-.8-.7c.7-1.1 4.5-.6 4.4.5zm-2.5 6.3c-1.4 2.2-2.8 2.1-3.2-.3-.5-2.1 1.9-3.8 3.3-2.4.6.6.6 1.5-.1 2.7zm-515.9-10.8c-1 1.1-1.4 2-.9 2.1.5 0 0 .4-1.1.8-1.1.5-2.3.8-2.7.7-1.2-.2-4 4.3-3.3 5.4.3.6 1.3 1 2.1 1s1.4.4 1.4.9c0 1.6 4 2.3 5.5 1.1 2-1.7 1.9-3-.2-3-1.3 0-1.4-.3-.5-1.2.8-.8 1.5-.8 2.6.1 1 .8 1.6.9 2.1.1 1.1-1.7 4.3.7 5 3.9.9 4.4 6.3 8.6 6.1 4.8-.1-1.4.5-2.2 1.6-2.2.9 0 2-.4 2.4-.8s0-.7-.8-.7c-.9 0-1.9-.7-2.2-1.6-.6-1.7-2.7-.9-2.5.9.3 2.7-.2 4.8-1 4.3-.5-.3-.8-2.3-.6-4.3.2-4-1.2-6.2-3.4-5.5-1 .3-1.2 0-.8-1.1.3-.9-.1-2.1-.9-2.8-1.1-.9-1.2-1.5-.3-2.5.9-1.1.8-1.4-.7-1.1-1.1.1-2.4.6-3.1 1-.6.4-1.5.2-1.9-.4-.5-.8-.3-.9.6-.4s1.1.4.6-.3c-.9-1.6-1-1.5-3.1.8zm4.7 2.5c1.8-.7 4 1.6 3 3.2-.5.7-1.1.7-2-.3-1-1-1-1.4-.1-1.4.7 0 1-.3.6-.6-.3-.3-1.1-.3-1.7.1-.8.5-.8 1 0 2 .7.8.7 1.5.1 1.9-.5.4-1.2.2-1.6-.4-.3-.5-1.7-.7-2.9-.4-1.5.4-2.5 0-2.9-.9-.4-1.1.1-1.4 1.8-1.3 1.8.3 2.2-.1 2-1.6-.3-1.6-.1-1.7.9-.9.7.6 2 .9 2.8.6zm489.8-2.9c0 .8.5 1.2 1 .9.6-.3 1-1 1-1.6 0-.5-.4-.9-1-.9-.5 0-1 .7-1 1.6zm-475.4 2.9c-.3.9.1 1.8 1 2.2 1.9.7 2.8-.2 2.1-2.2-.8-1.9-2.3-1.9-3.1 0zm2.4.5c0 .5-.5 1-1.1 1-.5 0-.7-.5-.4-1 .3-.6.8-1 1.1-1 .2 0 .4.4.4 1z"/><path d="m44.7 324.3c-.3.9.2 2.1 1.1 2.8.9.8 1.4.9 1 .5-.4-.5-.3-1.5.4-2.3.6-.7.8-1.6.4-2-.3-.3-.6 0-.6.8 0 1.1-.2 1.2-.9.1s-.9-1.1-1.4.1zm5.8 3.7c.3.5 1 1 1.6 1 .5 0 .9-.5.9-1 0-.6-.7-1-1.6-1-.8 0-1.2.4-.9 1zm504.6 3.9c-1.4.4-2.6 1.2-2.7 1.9s0 .8.3.2c.2-.5.8-.8 1.2-.5.5.2 1.7-.2 2.7-1 2.1-1.6 2-1.6-1.5-.6zm-503.1 1.9c0 .5.7.9 1.5.9s1.5-.4 1.5-.9c0-.4-.7-.8-1.5-.8s-1.5.4-1.5.8zm-17.5 4.2c1 1.1 2 2 2.3 2s-.3-.9-1.3-2-2-2-2.3-2 .3.9 1.3 2zm513.9.4c.1.8.5 1.8.8 2.2.4.3.5-.1.4-1-.1-.8-.5-1.8-.8-2.2-.4-.3-.5.1-.4 1zm7.1 1.6c-1.6.7-1.7.9-.3.9.9.1 2-.4 2.3-.9.7-1.1.7-1.1-2 0z"/></svg>