<svg height="368" viewBox="0 0 603 368" width="603" xmlns="http://www.w3.org/2000/svg"><path d="m0 184v184h603v-368h-603zm419.3-173.6c.4 1 .1 1.3-.9.9-1.5-.6-1.9-2.3-.5-2.3.5 0 1.1.7 1.4 1.4zm63 1.1-1.8 2.4-25.1.1c-21.2 0-25.4-.2-26.4-1.5-.7-.8-2.4-1.5-3.9-1.5-1.4 0-3.3-.4-4.1-.9-.8-.6 10.9-1 30.8-1h32.2zm90.2-.1c-5.6 2.1-7.7 2.3-30.3 2.4-23.5.1-24.3 0-26.2-2-2.2-2.4-2.3-2.4-3.8 1.7l-1.1 3 .3-3.5c.2-1.9.5-3.6.5-3.7.1-.1 15.1-.2 33.4-.2l33.2.1zm-438.7 5.3c4.8 3.7 9.1 7.3 9.5 8s1.5 1.3 2.3 1.3c1.4 0 1.5 10.7.8 96.2l-.6 96.3 5.6 4c3.1 2.2 5.6 4.3 5.6 4.7 0 .5.6.8 1.4.8s2.1.8 2.8 1.8c.7.9 3 2.8 5 4.2 3.7 2.5 4 3.5.9 3.5-1.8 0-5.7 2.7-12 8.2-2 1.8-4.3 3.3-5.1 3.3-1.6 0-1.6.1 5.5-5.5 2.8-2.2 5.2-4.2 5.5-4.5.3-.4 1.3-.9 2.3-1.3.9-.3 1.7-1 1.7-1.5 0-1.1-7.7-.9-10.3.3-1.2.5-2.4 0-4.2-1.9-1.3-1.4-2.9-2.6-3.6-2.6-.8 0-.6.7.4 1.8 1.6 1.8 1.5 2-2.8 5.1s-5.7 5.1-3.5 5.1c.6 0 1 .5 1 1 0 .6-.6 1-1.2.9-2.8-.3-3.6.2-4.8 3-.8 2.1-1.7 2.7-3.1 2.4-2-.6-2.5-1.8-1-2.7 1.1-.7.2-4.6-1-4.6-2.6 0-.1-3.2 6.4-8.1 3.9-2.9 7.5-5.8 7.8-6.3.4-.4 1.8 0 3.3.9 1.4 1 2.7 1.3 2.7.9.1-.5.2-1.6.3-2.4 0-.8.9-1.4 2-1.3 1.3.1 1.5-.2.8-.9-.8-.8-1.9-.6-3.6.6-1.5.9-2.6 1.2-2.6.7 0-.6.8-1.4 1.7-2 1-.5 1.5-1.2 1.2-1.5-.4-.4-11.6 8-44.3 33.7-4.3 3.4-9.8 7.6-12.1 9.4-4.7 3.5-6.6 5.6-4.1 4.7.9-.3 1.6-1 1.6-1.5s.5-.9 1-.9c.6 0 3.3-1.8 6.1-4 4.8-3.8 8.5-4.6 5.8-1.3-1 1.1-1 1.9-.1 3.3 1.4 2.3-.3 3.1-5.2 2.3-4.2-.7-4.7.7-1.1 3.1 3.1 2 3.1 3.3.4 5.5-1.9 1.5-2 2-.8 4s1.2 2.4-.6 3.6c-1.1.8-2.7 2-3.5 2.8-2.4 2.2-5.3 2.9-6.2 1.5-1.1-1.8-1-2.8.2-2.8.5 0 1.9-.9 3.1-2.1 1.5-1.5 2.8-1.9 4.7-1.4 2.6.6 2.6.6-.7-2.4-1.9-1.7-4-3.1-4.7-3.1s-1.5-.5-1.7-1c-.3-.6-.4-.5-.3.2.2.7-.5 2.4-1.5 3.7s-1.6 2.8-1.3 3.3-.4 1.2-1.5 1.5c-1.7.4-1.9.8-1 1.9.6.8 1.7 1.4 2.3 1.4 1.5 0 3.8 3.8 3.1 5.1-.4.5-1.1.7-1.6.4-.5-.4-.9.3-.9 1.4 0 1.6-.5 1.9-2.5 1.5-2-.3-2.5 0-2.5 1.6 0 2.2-.3 2.3-3.7 1.4-1.3-.4-2.3-1.3-2.3-2 0-.8-.7-1.4-1.6-1.4-.8 0-1.2.4-.9 1 .3.5-.3 1-1.5 1-1.3 0-1.9-.4-1.4-1.2.5-.7.3-.8-.6-.3-1 .6-1 1.1.3 2 .9.7 1.4 1.5 1 1.8-.3.4.1.7.9.7.9 0 1.9.8 2.2 1.7.5 1.2.9 1.4 1.8.5 1.4-1.4 3.8-1.6 3.8-.2 0 1.5-4.3 3.5-4.8 2.1-.2-.6-.9-1.1-1.5-1.1-.7 0-1.8-.9-2.5-2s-1.9-2-2.8-2c-.8 0-1.2-.5-.9-1 .3-.6-.1-1-1-1-1.9 0-4.5-2.3-4.5-3.9 0-.6.5-1.1 1-1.1.6 0 1 .4 1 .8 0 .5 1.4.9 3 1 3.4.1 3.7-.4 1.4-2.9-1.5-1.7-1.4-2 1.1-4.3 1.6-1.5 3-2.6 3.2-2.6.3 0 2.5 1.6 4.9 3.6 2.5 2 4.7 3.4 5 3.1s-.6-1.3-2-2.2c-1.4-1-2.3-2.2-1.9-2.8.3-.6.1-.7-.5-.3-.6.3-1.6-.3-2.2-1.4-.9-1.6-.8-2.2.6-2.7.9-.3 2.6-1.5 3.7-2.7 1.2-1.2 3.5-3.1 5.2-4.3 1.6-1.2 2.8-2.4 2.5-2.6-.6-.6-31.2 23-34.5 26.5-1.4 1.5-.8 1.3 1.8-.6 3.5-2.5 4.1-2.7 6.3-1.6 1.3.8 2.4 1.7 2.4 2.2 0 .4.7.8 1.5.8s2 .9 2.7 2 1.7 2 2.1 2c.9 0 3.7 2.5 3.7 3.3 0 .3-2.4 2.3-5.4 4.6-4.3 3.4-5.8 4-7.3 3.3-1.3-.7-2.2-.6-3.3.6-1.3 1.4-1.3 1.5.1 1 1.6-.6 6.8 2.6 5.8 3.7-1.7 1.7-5 1.2-6.7-1-1.1-1.3-3.1-2.9-4.5-3.6-1.4-.6-2.9-1.8-3.2-2.7-.5-1.3-.3-1.3 1.2-.1.9.8 1.4.9 1 .2s0-1.6 1-2.2c1.7-.9 1.7-1.1.1-2.7-1-1-2.1-1.4-2.5-1-.5.5-.2 1.1.5 1.3 1.9.7 1.4 2.3-.8 2.3-1.1 0-1.9-.6-1.8-1.3.2-.6-.5-1.1-1.4-.9-3.1.5-2.8-1.6.7-3.9 1.9-1.3 3.5-2.8 3.5-3.3 0-1 .5-1.4-12.7 9.3-5.7 4.5-10.3 7.8-10.3 7.4s-.5-.1-1 .7c-1.6 2.5-1.3-1.6.4-4.8 1.1-2.2 1.4-15 1.8-68.8.3-51.7.6-66.5 1.6-67.7.8-1 .9-1.7.3-2.1-.5-.4-1-2.9-.9-5.6 0-3.5.3-4.8 1.1-4.3.9.5.9.3.1-.8-1.6-2-1.6-26.1-.1-27.1.9-.6.8-.8-.1-.8-1.7 0-1.5-16.8.2-18.9.8-1.1.8-1.3-.2-.7-.8.5-1.2-.1-1.2-1.8 0-1.4.5-2.6 1.1-2.6.5 0 .8.4.5.8-.3.5.1.9.7.9.7 0 1.3-1.1 1.3-2.3s-.4-2-.9-1.7-.7-.5-.5-1.8c.2-1.7-.1-2.3-1.2-2.1-1.2.2-1.2 0 .2-1.1 2.1-1.6 3.3-6.1 2.3-8.4-1.3-2.9-1.4-4.4-.3-3.7.5.4.8-.7.6-2.7-.2-2.8-.7-3.3-2.3-3.1-1.9.3-1.9.2.2-1.2 1.9-1.5 2.1-2.4 1.9-9.9-.2-8.5.2-12.7 1.3-12.7.3 0 .6 53.6.6 119s.1 119 .3 119c.4 0 13.3-10 17.3-13.4 4.5-3.9 5.3-4.5 16.4-13.1 13.7-10.7 30.4-24 30.2-24.1-.1-.1-1.6.1-3.4.3-2.2.4-3 .9-2.6 1.9.3.9-.2 1.4-1.7 1.4-1.2 0-1.8.4-1.5 1.1.9 1.3-2.7.8-3.7-.6-.5-.6-.8-.5-.8.3 0 .7-1.1 1.7-2.5 2.2s-2.5 1.6-2.5 2.4c0 1.8-2.1 2.6-7.8 2.8-4.3.1-4.1.2 1.8.8l6.5.7-6.2.1c-3.4.1-6.5.7-6.8 1.3-.5.7 1.1.9 4.9.5 3.1-.3 5.6-.4 5.6-.2 0 .5-10.6 8.6-11.3 8.6-.3 0-.8-1.2-1-2.8-.3-2.2-.4-2-.6 1-.1 2.9-.8 4.2-3.4 6.2-3.1 2.4-4.3 2.6-13.8 2.8l-10.4.2 9.5.6c9.3.6 9.3.6 3 1l-6.5.3 5.3.6 5.3.6-5.2 4c-2.8 2.2-6.5 5.2-8.2 6.7-1.8 1.5-3.5 2.8-3.9 2.8s-.7-7.2-.7-16v-16l4.7-.1c2.6 0 5.7-.2 7-.3 1.3-.2 2.5.1 2.8.6.3.4 1 .5 1.6.2.7-.5.8-.2.4.5-.5.7-1.4 1-2 .8-1.5-.6-1.7 2.3-.4 4 1.6 2 3.7.3 4-3 .3-3.1.5-3.2 5.8-3.7 4.8-.4 4.2-.5-4.5-1l-10-.6 10.1-.2 10-.2.3-4.5c.1-2.5-.2-4.5-.8-4.5-.5 0-.9 1.7-.8 3.7l.2 3.8-14.1.3-14.1.3-.1-4.6-.1-4.5h29.9l.1-4.8c.1-2.6 0-6.4-.1-8.5-.1-2.8.2-3.7 1.5-3.7.9 0 1.3-.5 1-1-.4-.6-1.1-.8-1.6-.5-.5.4-.9-1.5-.8-4.2.1-3.9.3-4.3.9-2.3.4 1.4.8 2 .9 1.5.1-.7 1.7-.9 3.9-.7 2 .3 3.3.1 2.9-.4-.4-.4-2-.8-3.4-.9-1.8 0-2.9-.7-3.3-2-.3-1.1-1.2-2-2-2-1.3 0-1.5 1.8-1.3 10.8.1 8-.1 10.7-1 10.4-.7-.3-1.2.5-1.2 1.8s.3 2.1.8 1.8c.4-.2.7.3.7 1.1 0 .9-.7 1.6-1.5 1.6-1.7 0-2.2-6.5-.5-7.5 1-.6.6-4-1.2-8.8-1.2-3-2.8-3.7-2.3-1 .2 1 .4 1.8.5 1.8s.3 3.7.5 8.3l.4 8.3-3.9-.3-4-.2v-12.5c0-13 .8-16.3 1.2-4.9l.2 6.6 2.3-1.7c2-1.5 3.4-4.9 1.5-3.7-.5.3-.8-.6-.8-1.9.1-1.4.4-2.4.6-2.3.3.1 1.5-.4 2.8-1.1 2.2-1.2 2.3-1.4.7-3.1-1.4-1.5-1.4-1.8-.1-2.3.8-.3 1.7-.2 2 .4.2.5.3.4.2-.3-.3-1.7-11.6-2.1-13.5-.5-1.1.9-1.3.9-.8 0 .4-.6.1-1.3-.5-1.6-.7-.2 7.3-.6 17.7-.7 42.5-.6 68.5-.5 68.5.3 0 .4 1.3-.2 3-1.4 2.5-1.9 2.7-2.5 1.8-4.3-.8-1.5-.9-28.2-.4-96.4l.6-94.4-2.9-3.3c-1.6-1.9-3.1-3.2-3.4-2.9-.2.2-1-.2-1.7-1.1-1-1.2-1-1.5.3-1.5.9 0 2.6 1.3 3.8 3 1.8 2.3 2.5 2.7 3.6 1.8 1-.8 1.2-.7.8.5-.4.8-.1 1.8.4 2.2.6.3.9 1 .6 1.4-.2.5.7.6 2 .3 1.4-.2 2.2-.9 1.9-1.4s-1.3-.7-2.1-.4c-1 .4-1.3.2-1-.8.4-.9-1-2.7-3.6-4.8-2.3-1.8-5.9-5-8.2-7.1-4.5-4.2-5.1-4.4-7.7-2.1-1.6 1.5-6.5 1.7-47 1.8-25 .1-46.2-.3-47.3-.8s-2.5-1-3.2-1.1c-.6-.2-1.9-.8-3-1.3-1.3-.8 13.5-1.1 51-1.2h52.9l8.6 6.7zm127.2-5.3c0 .8-.4 1.7-.9 2.1-.5.3-17.7.5-38.2.6-36.2 0-37.2-.1-39.1-2.1l-1.9-2h40.1c34.2 0 40 .2 40 1.4zm130.7.6c.5 1.8 1.5 2.4 3.4 2.2.4-.1 2 1.1 3.5 2.6 1.6 1.4 3.2 2.6 3.6 2.4 1.3-.3 2.9 3.6 1.8 4.3-.9.6-9.2-5.3-11.5-8.2-.8-1-10.5-1.4-41-1.5-36.8-.3-40-.4-40.3-2s2.5-1.7 39.8-1.8c39.5 0 40.2 0 40.7 2zm32.8 1.6c1.3.9 2.8 1.3 3.3 1s2.1.3 3.5 1.4c2.4 1.9 2.5 2.5 2.5 11.8 0 5.3.2 10.2.4 10.7.2.6.1 1-.2 1.1-.3 0-1.5.6-2.7 1.3-1.8.9-2.3.9-2.3 0 0-.7-.3-1-.6-.6-.3.3-.2 1.2.2 1.9 1.2 1.8 1.2 3 .1 5.3-.8 1.6-.7 1.8.4.8 1-1 1.6-1 2.8 0 1.4 1 1.4 1 .4-.4-.7-.9-1-1.9-.6-2.2.3-.4.2-.7-.4-.7-.5 0-1-.7-1-1.5s.4-1.5.9-1.5c1.4 0 2.6 4.3 2.1 8-.7 5.2-.4 8.5.7 8.8.6.2 1 .8 1 1.3 0 .6-.4.7-1 .4-.9-.6-1.5 1.7-.6 2.6.2.2.7 24.7 1 54.3.3 34.3.9 54.3 1.5 54.9.7.7.9.3.6-1.2-.2-1.2 0-1.9.5-1.6s.7 1.6.4 2.9c-.3 1.6.3 2.6 1.9 3.4 2 1.1 2 1.1.2.9-1.2-.1-1.9.3-1.7 1.1.1.8-.2 1.1-.8.7-.6-.3-.8-1-.5-1.5s.1-1.1-.3-1.4c-.5-.3-.9 2.2-1 5.6 0 3.5.3 5.5.8 4.8s.6-2 .3-2.9c-.4-1.4-.3-1.4.6-.1.6.8 1.1 1.1 1.1.6s.6-.3 1.3.3c.8.6 1.6.8 1.9.6.3-.3.5.4.4 1.5 0 1.1-.5 2-1.1 1.9-.5 0-.9-.6-.7-1.3.1-.7-.5-1.3-1.3-1.3-.9 0-1.4.6-1.1 1.2.2.7 0 1.7-.5 2.2-.7.7-.1.9 1.7.9 1.4-.1 3.2-1 3.9-2 1.6-2.1 1.2-5.2-.6-4.8-1.1.3-1.1.1-.2-.8.6-.7 1.5-1 2.1-.6 1.2.7 1.6 13.3.4 14-.5.3-2.7.6-5 .7-3.2.2-4.2.7-4.2 2 0 1 .4 2.1 1 2.4s.7-.1.4-1c-.5-1.2-.1-1.4 1.7-1.1 1.3.3 2.6.5 2.9.6s1.3.1 2.3 0c1.6-.1 1.7 1 1.5 14.2l-.3 14.4 8.4 6.5c4.6 3.5 9 6.8 9.8 7.2 1.2.7 1.3-7.3 1.2-52.5-.1-49.9.2-97.8.7-97.8.1 0 1.4 5.3 2.8 11.7 1.5 6.5 3.3 14.5 4.2 17.8.8 3.3 1.7 7.2 1.9 8.6s1.6 7.9 3.1 14.5c1.4 6.5 4.1 19.1 6.1 27.9 1.9 8.7 3.9 16.7 4.4 17.7.6 1 .7 2.3.4 2.8-.4.6 1 1 3.2 1.1 6.4.2 6.8.3 7.1 2.3.4 1.7-.1 1.8-4.7 1.3l-5-.6.9 2.5c.6 1.4 1 3.7 1 5.2s.5 3.4 1.1 4.2c.8 1.2.9 1 .4-.7-.3-1.2-.1-2.4.5-2.8.7-.4.7-1.2 0-2.5s-.7-2.1 0-2.5c.5-.3 1-.1 1 .6 0 .8.4.8 1.5-.1 1.3-1.1 1.5-1 .9.6-.3 1-1 2.9-1.6 4-.7 1.6-.7 3.3.2 5.9.8 2.4.9 4 .3 4.4-1.5.9-1.1 4.1.5 4.1.9 0 1.2.6.8 1.7-.5 1.5-.3 1.4.9-.2 1.5-1.9 1.6-1.9 4.4 1.1 2.2 2.3 2.8 3.7 2.4 5.7-.8 3.9-1.9 3.3-2.7-1.3-.3-2.2-1-4-1.4-4s-1.3 1.9-2 4.3c-1.3 4.3-.8 9.2.9 10.3.5.3.7 1.5.4 2.7s-.1 3.5.3 5.2l.9 3 .7-4.3c.6-3.4 5.9-22.4 14.6-52.7.5-1.7 2.1-7.5 3.4-13 1.4-5.5 3-10.9 3.5-12 1.3-2.7 5.7-16.2 6.7-20.5.8-3.2.9-2.8 1.5 4 .4 4.1.8 22.6.9 41.1.1 28.4.3 33.9 1.6 35.5 1.4 1.8 1.5 1.8.5-.3-.8-1.5-.8-2.4-.1-2.8.6-.4 1-.3.9.2-.3 2 .2 3.4 1.1 2.8.6-.3 1.7.1 2.6.9 1.4 1.5 1.3 1.6-.8 1.2-3.9-.6-5.7 1-5.5 4.9.2 1.9.9 4 1.6 4.7 1.1 1.1 1.2 1 .6-.2-.7-1.2-.6-1.3.6-.3.8.6 1.7 1.2 2.2 1.2 2 .2.8 1.5-1.6 1.6-3.1.2-4.9 1.5-2.8 2.3 1.1.4 1.1.6 0 1.3-1 .6-.5.9 1.5.9 1.6 0 2.7.3 2.3.6-.3.4.6 2.2 2 4.1 2.1 2.8 2.9 3.2 3.7 2.1.6-.7 2.3-1.4 3.8-1.4 2.6-.2 2.6-.1 1.2 3.1-.7 1.8-1.1 3.5-.8 3.8 1 .9-3 1.6-8.6 1.5-3-.1-5.4.1-5.2.5.1.4.2 1.2.2 1.8 0 .8.4.8 1.4-.1 1-.8 2.1-.8 3.2-.2 1 .5 3.2.6 5.3.1 4.8-1.1 10.4-1.1 9.7 0-.3.5-1.5.7-2.5.4-1.8-.5-1.9.2-1.5 16.6l.4 17.1-9-.2c-5-.2-9-.1-8.9.2 0 .6 11.9 9.3 13.4 9.9.6.2.2-.5-.7-1.6-1-1.1-1.8-2.5-1.8-3.2s-.4-1-.9-.7c-1.4.9-4.1-.4-4.1-2 0-1 1.3-1.4 4.5-1.4 3.3 0 4.5.4 4.5 1.5 0 .8.5 1.5 1.1 1.5s.9-.7.6-1.5c-.5-1.1.4-1.4 4.1-1.3 2.6 0 5.3.5 6.1 1.2 1.1.8 1.5.8 1.8-.2.3-.6.9-1.2 1.4-1.2s.9 3.6.9 7.9c0 4.4.4 9.1.9 10.4 1.4 3.6.3 4-3.3 1.3-7.9-5.9-7.3-4.5.8 1.8 6.6 5.1 8.4 5.8 6.1 2.3-.8-1.3-1.7-3.7-1.9-5.3-.3-1.6-.7-4.5-1-6.4-.9-5.6-1.4-282.7-.5-284.1.5-.8.9.5 1.1 3.4.2 2.6.8 4.7 1.3 4.7.6 0 1-.4 1-.9s.2-1.2.6-1.5c.3-.3.5.6.5 1.9 0 1.6-.6 2.5-1.6 2.5-1.7 0-2.5 3.6-.9 4.5.5.4.9-.4.9-1.6 0-3.3 1.3-1.4 1.5 2.1.3 6.7 1.3 3.5 1.4-4.9.2-8.4.1-9-1.8-8.6-1.9.3-2.3-1.6-.7-3.2.4-.4.6-.3.4.4-.2.6.2 1.1.7 1.1.6.1.9-.5.7-1.3-.1-.7.2-1.6.8-2 .7-.4 1 9.8 1 31.6 0 17.7-.2 32-.4 31.8-.3-.3-.6-2.3-.7-4.6-.2-2.4-.9-4.5-1.6-4.7-.7-.3-1.3-1.1-1.2-1.8 0-1 .2-1 .6-.1 1.3 3.4 2 .5 1.9-7.6-.1-5.7-.5-8.6-1.1-8-1.6 1.6-2.2 1-1.7-1.9.2-1.5.1-2.4-.3-2-1.1 1.1-1.4 8.7-.4 9.4.5.3.6-.2.3-1-.3-.9-.2-1.6.4-1.6 1.4 0 2.3 2.8 1.2 3.5-.6.4-1 2.2-1 4.1 0 2-.5 4.4-1 5.4-.6 1-.6 2.1-.1 2.4.4.3.6 1.7.3 3.1-.3 1.8 0 2.5.9 2.3 1.6-.4 2.1 6 .5 7-.6.4-1.2 1.5-1.3 2.6-.1 1.2.2 1.5.9.8 1.2-1.2 3.8-.5 3.8 1 0 .5-.4.7-.8.4-.4-.2-.8.4-.8 1.4s.4 1.6.8 1.4c.4-.3.8 0 .8.5 0 .6-.6 1.1-1.2 1.1-.9 0-.8.3.2 1 1.3.8 1.5 5.5 1.4 32.7-.1 33.5-.1 35.1-1.6 37-.5.7-.5 1.4.2 1.8 1.4.9 1.3 4.8-.2 6.4-1 1.1-1 1.3 0 .7.9-.6 1.2 1.2 1.2 7.4s-.3 7.9-1.2 7.4c-.8-.5-.7 0 .2 1.1 1.3 1.5 1.6 11.2 2 67.9.5 59.9.7 66.5 2.3 70.5.9 2.4 1.5 4.6 1.3 4.8-.5.6-13.7-9.1-18-13.1-1.6-1.5-6.3-5.3-10.5-8.4s-8.2-6.3-9-7c-.7-.7-4.9-4-9.2-7.3l-7.9-6-2.6 3c-1.3 1.6-4 3.9-5.9 5.1s-3.4 2.7-3.2 3.3c.1.7-.6 1.1-1.7.9-1-.2-1.5.1-1.2.7.4.5.1 1.3-.5 1.7-.8.5-.9.3-.4-.6.6-1 .4-1.2-.9-.7-3.6 1.4-.8-1.9 5.9-7.1 3.8-2.9 7.2-5.7 7.6-6.3.3-.6 1-1.1 1.5-1.2s2.3-1.3 3.9-2.8l3-2.8-.1-21.8c0-12-.1-35.9-.2-53.2-.1-17.2.1-31.8.4-32.2.3-.5.2-.9-.3-.9-.4 0-2.7 7.5-5.1 16.8-2.3 9.2-5.4 21-6.8 26.2-5 18.5-6.6 24.6-9 33.9-1.4 5.2-2.7 9.8-3 10.2-1.1 1.9-2.4.7-3.4-3.1-.5-2.2-1.4-5.7-2-7.8-.5-2-3-13.2-5.5-24.7-2.5-11.6-6.4-28.7-8.5-38-2.1-9.4-5-22.1-6.4-28.3s-2.6-13.2-2.6-15.7c0-2.4-.4-4.6-.9-5-.6-.3-.8 21.1-.7 55.5.2 30.8.2 56 0 56-.3 0-4.5-3.2-9.4-7-5-3.9-9-6.7-9-6.3 0 .5 1.6 2.8 3.5 5.2s3.5 4.7 3.5 5.1c0 .8-5.3 3.3-6 2.8-.3-.1-.4-1-.3-1.8.2-1 0-1-.3-.3s-1.1 1.3-1.8 1.3c-1.4 0-1.6-9.7-.2-11.8.4-.8.4-1.7 0-2.2-1-.9-19.4-15.3-23.5-18.3-3-2.2-3.5-5.3-1.1-6.6 1.6-.9 1.7-3.3 1.5-27.8-.3-32.8-.3-164 0-166.8.1-1.4-.4-2-1.5-1.9-1 .1-1.5-.2-1.3-.7.3-.4-.3-1.7-1.5-2.9-2.4-2.4-1.8-2.6 1.5-.4zm84.1 2.5-1.5 3.4.2-3c.1-1.7.6-3.3 1.2-3.7 1.6-1.2 1.7-.2.1 3.3zm-199.6-.7c0 1.6-11.9 10.1-12.8 9.1-.4-.4.4-1.5 1.8-2.4 1.3-.9 3.9-2.8 5.6-4.3s3.4-2.5 3.8-2.1c.3.3.6.1.6-.5 0-.7.2-1.2.5-1.2s.5.6.5 1.4zm102.7.9c0 .8-.6 1.4-1.4 1.4-.9 0-1-.4-.2-1.4.6-.7 1.2-1.3 1.4-1.3.1 0 .2.6.2 1.3zm7.3-1c0 .2-1 1.2-2.2 2.3l-2.3 1.9 1.9-2.3c1.8-2.1 2.6-2.7 2.6-1.9zm-390.2 2.2c1.2-.2 2.5.2 2.8.8.4.7.4.9-.1.5-.4-.4-1.4-.3-2.2.4-1.1.9-1.9.6-3.6-1.2-1.2-1.3-1.5-1.9-.6-1.2.8.6 2.5 1 3.7.7zm241.7-.6c.3.5 0 1.3-.6 1.7-.7.4-.9.3-.5-.4.3-.5 0-1.3-.6-1.5-.9-.4-1-.6-.1-.6.6-.1 1.4.3 1.8.8zm-94.9 1.8c-.4 2.6-8.3 7.7-10.4 6.8-1.4-.7-1.3-.9.8-1.5 1.4-.4 2.4-1.3 2.2-2-.2-.8.5-1.1 2.3-.8 1.5.3 2.5.1 2.5-.6 0-1 1.9-3.6 2.6-3.6.1 0 .1.8 0 1.7zm390.3.4c-1.2 1-2.5 1.6-2.8 1.3-.3-.4 0-.9.7-1.1.6-.3 1-.8.8-1.2-.3-.4.4-.8 1.6-.8 1.9-.2 1.9-.1-.3 1.8zm-284.7 7.2c.3 1.2.6 28.6.7 60.9.1 38.5.4 58.8 1.1 58.8.6 0 1 .7 1 1.5 0 .9.6 1.2 1.5.9 1.3-.5 1.5.7 1.3 8.2-.1 7.1-.2 7.7-.5 2.9-.2-3.5-.9-6.4-1.7-7s-1.6-2.2-1.9-3.5c-.2-1.4-.5.6-.6 4.3-.1 4.3.3 6.6.9 6.2s1 .7.9 2.7c-.1 3.1-.1 3.2-.9.8-.6-2-.8-1.5-.9 2.6-.1 4.4.2 5.2 2.4 6.4 2.9 1.5 3.3 4.5.8 5.4-1.2.5-1.4.9-.5 1.8 1.5 1.5 1.5 2.8.2 2.8-.6 0-.9-.3-.8-.8 0-.4-.2-1.4-.5-2.2s-.8-2.4-1-3.5c-.3-1.1-.5 1.3-.6 5.4 0 4.1.2 7.1.5 6.8.4-.3 1.5-.2 2.5.4 1.7.9 1.9 2.3 1.9 11.9 0 9.3-.2 10.8-1.5 10.4-1.1-.5-1.2-1.1-.5-2.4 1.4-2.6 1.2-4-.5-4-.9 0-1.5-.9-1.5-2.5s.6-2.5 1.5-2.5c1.7 0 2-1.6.4-2.5-.6-.4-1.4-1.7-1.9-2.9-.6-1.4-.9.7-.9 6.8l-.1 8.9-4.2 3.6c-4.1 3.5-11.4 9.1-15.8 12.1-4.8 3.2-20.1 15.4-26.6 21.1l-5.2 4.7h-13.8l-13.8-.1-9.4-7.4c-6.9-5.5-9.7-7.2-10.5-6.4s-.7 1.1.4 1.1c.9 0 2.9 1.1 4.5 2.5s3.3 2.5 3.8 2.5.6.3.3.6c-.3.4-.2 1.5.4 2.5.7 1.5.6 1.7-.6 1.3-.8-.3-1.2-1-.9-1.5s0-.9-.6-.9c-.7 0-2.8-1.6-4.7-3.5s-4-3.5-4.6-3.5-.3-.6.7-1.3c1.6-1.1.6-2.2-9.8-10.2l-11.6-9 .1-91c0-50.1.4-93.3.9-96 1-6.7 1.1-5.4 1.2 11 0 7.7.2 13.1.5 12s1-2.3 1.6-2.7c1.4-.9 2-11.5.7-12.3-.6-.4-.7-1.1-.4-1.7 1.1-1.8 1.3-5.8.3-5.8-.5 0-.9-.5-.9-1 0-.6.6-1 1.4-1 2.1 0 2.2 2.2 1.6 59.5-.7 72.2-.4 93.5 1.5 93.5.8 0 1.5-.4 1.5-.8 0-.5.6-.9 1.3-.9.8 0 1.4.6 1.4 1.3s-.3 1.3-.6 1.2c-4.6-.5-5.1.1-5.1 6.3v6l11-.4c6.1-.3 11.3-.6 11.5-.9.2-.2.5-2.7.6-5.5.1-2.9.6-5 1.1-4.7.4.3.8 0 .8-.5 0-.6-.4-1.1-1-1.1-.5 0-1-.6-1-1.4 0-.9.7-1.2 2-.9 1.1.3 2 0 2-.6 0-.8.6-.9 1.8-.3.9.5 2.4.7 3.2.5 1.2-.4 1.2-.3.2.5-.8.5-1.3 1.2-1.3 1.6.1.3-.2.5-.6.3-.5-.1-.7-.6-.5-1.1s-.3-.4-1.1.2c-.8.7-1.7.9-2 .5-.7-.7-1 3.4-.7 10.4.1 2.4-.2 4.4-.7 4.4-.4.1-6.1.2-12.6.4-6.5.1-12.1.5-12.4.9-.4.3 5.5.6 13 .6h13.7v-6c0-3.3.4-6 .9-6 .6 0 .8.8.6 1.8-.2 1.3.3 1.8 2 1.8 1.3 0 2.1-.4 1.9-.8-.5-.8 1.1-1.2 3.1-.8.5.1.7-.2.2-.6-1.1-1.2-4.9-1.6-4.2-.5.3.5 0 1.3-.6 1.7-.8.5-.9.3-.4-.6.6-.9.4-1.1-.4-.5-1 .6-1.1.3-.1-1.4.6-1.2 1.5-1.9 2.1-1.6.5.4 1.4-.4 1.9-1.7l1-2.3-.3 2.5c-.2 2.6.3 2.7 5.1 1.6 1.3-.3 2-.1 1.7.5-.4.5-1.1.7-1.6.4-.5-.4-.9-.1-.9.5s-.6.8-1.2.4c-.7-.4-1-.4-.6.1.4.4.3 1.4-.3 2.1-.7.9-.6 1.2.8.9 1-.1 1.7-.7 1.6-1.3-.4-1.7 2.7-2.3 3.4-.6.6 1.7-2.5 5.6-3.9 4.8-.5-.3-.4.3.4 1.5.8 1.3 1.6 1.7 2.2 1.1 1.3-1.3 2.6-1.3 2.6.1 0 .5-.4.8-.9.4-.5-.3-1.2-.1-1.5.4s-3.5.8-7.1.7-6.5.2-6.5.7c0 .4 7 .7 15.5.6 9.7 0 15.5-.5 15.5-1.1s-.6-.8-1.4-.5-2.2-.1-3.3-.9c-1-.9-1.1-1.2-.3-.8.9.4 1.2.3.7-.2s-1.3-1-1.8-1c-.5-.1-1.3-.2-1.9-.3-.5 0-1-.7-1-1.5 0-.7-2.1-3.1-4.7-5.2-2.7-2.1-4.9-4.2-5.1-4.6-.2-.5-.8-.8-1.3-.8-.6 0-.8.4-.5.8.3.5-.1.9-.9.9-1 0-1.2-.4-.5-1.2.5-.7.7-1.4.5-1.7-.3-.3-.6-16.3-.6-35.6 0-32.6-.1-35.1-1.7-34.6s-1.6.5-.1-.5 1.7-4.2 1.8-27.8c.1-15.5.6-27.2 1.1-27.7.7-.7 1-.2 1 1.1 0 1.1.7 2.3 1.5 2.7.9.3 1.5 0 1.5-.9 0-.8-.4-1.5-1-1.5-.5 0-1-.5-1-1 0-.7 5.8-1 16.8-.8l16.7.3-.2 77.5c-.2 51.1.1 76.5.7 74.5.6-1.7.8-3.6.5-4.3-.2-.6.2-1.2 1-1.2s1.2.8 1 2c-.2 1.1.1 2 .6 2s.9-.7.7-1.6c-.2-1 .5-1.8 1.4-1.9 2.6-.4 3.3 1.3 1.4 3.4-.9 1-1.6 2.2-1.6 2.8s-.6 1.3-1.3 1.6c-.8.3-1.3 1.6-1.1 2.9.1 1.2.3 2.6.3 3 .1.5 1 .8 2 .8 2.2 0 3.7 3 2.1 4-.8.5-.6.9.4 1.3 1.4.6 1.6-1 1.6-13.6 0-8.7.4-13.7.9-12.8.5.8.7 2 .4 2.8-.4 1 1.9 1.3 11.3 1.4 6.6.1 10.8.4 9.4.8s-5.6.6-9.5.4c-10.9-.4-11.4-.2-11.2 5.5.2 4.1.5 4.8 2 4.4.9-.2 1.6-1.2 1.5-2-.2-.9.2-1.7.9-1.7 1.8 0 2.7-1.3 1.7-2.8-.5-.7 0-.2 1.2 1.1 2 2.2 2.1 2.2 3.5.5 1.3-1.7 1.3-1.7-.6-.3s-1.9 1.4-.6-.3c1.3-1.6 1.6-1.6 3.7-.2 1.7 1.1 2.5 1.2 3 .3.4-.6.3-.8-.3-.5-.6.4-1.6.1-2.2-.6-.8-1.1-.4-1.3 1.9-1.2 1.6.1 3.3.5 3.7 1 .5.4.2.5-.6 0-1-.6-1.2-.4-.7.4.6.9 1.1.9 2.2 0 2.7-2.2 2.5-.2-.2 2.4-2.8 2.8-4.4 3.4-4.4 1.7 0-1.5-2.6-1.2-4 .5-1 1.2-1.6 1.3-2.9.3-1.4-1.1-1.4-1.1-.3.3.7.9.9 2.5.5 3.4-.5 1.4-.3 1.6.8 1 .8-.4-.4.9-2.6 2.9s-4.7 4.3-5.6 5.1-2.3 1.5-3.2 1.5-1.8.4-2.1.9-1.5.7-2.6.4c-1.4-.4-1.9-1.2-1.6-2.8.5-2.9-.3-3.8-2.1-2.4-1.8 1.6-1.7 3.2.3 2.5.8-.3 1.2-.2.9.4s-1.6 1-2.8 1.1c-1.5.1-1.1.4 1.3 1.1 4.4 1.2 4.6 1.4 3 3.3-1.9 2.3.4 1.8 2.5-.5 1-1.1 2.2-2 2.7-2s5.2-3.4 10.4-7.5 10.8-8.2 12.4-9.2l3-1.7.1-60.6c.1-113.3 0-109.1 1.5-107.9 1.1.9 1.3 3.6 1.1 11.1-.2 5.5 0 10.1.3 10.3.4.2.7-.1.7-.8 1.2-24.8 1.3-28.6.3-31.1-.5-1.5-1.6-2.6-2.3-2.3-.6.2-2.4-.4-3.9-1.5-2.2-1.5-2.5-2.2-1.6-3.2 1-1 2-.7 5.3 1.6 2.2 1.6 4.3 3.9 4.7 5.1zm221.1-4.7c-2.5 2.5-4.9 3.3-3.7 1.1.4-.7.3-.8-.2-.4-.5.5-.9 1.6-.9 2.5 0 1.1-.9 1.8-2.5 2-2.2.2-1.9-.3 2.4-4.2 5.1-4.6 9.5-5.6 4.9-1zm-92-1.5c-.8.8-.5 1.7 1.2 3.3l2.4 2.1.2 91.5c0 50.3.1 92 0 92.7-.1.6-2.8 3.1-6.1 5.5-5.6 4.1-7.8 6.7-4.5 5.4.8-.3-.4 1.3-2.7 3.6-2.4 2.3-4.7 4.1-5.2 3.9-.5-.1-.6.5-.3 1.3.7 1.8-.9 3.1-1.8 1.6-.4-.6-1.2-.8-1.8-.4-1.2.6 1-1.4 7.3-6.7 1.9-1.6 3-2.9 2.5-2.9-1.9 0-13.5 10.1-12.9 11.2.4.7.2.8-.4.4-1.5-.9-15.2 9.5-14.7 11.1.2.7-.2 1-.8.7-.7-.2-3.1 1.1-5.4 3.1l-4.1 3.5h-22.3l-10.2-7.7c-5.6-4.3-10.9-8.3-11.7-9-16.5-13.4-26.4-20.4-27.1-19.2-1.4 2.2-1 5.6.7 7.4 1.8 1.7 2.4 1.5 2.8-.9.3-2.2 1.1-2.1 4.9.3 1.8 1.1 2.6 2.1 1.9 2.1-.9 0-1 .5-.2 1.9 1.4 2.8 1.3 4.1-.6 4.1-.9 0-1.2-.5-.8-1.3.4-.6.4-.9-.1-.5-1.3 1.2-3.4-1.8-2.9-4.3.5-2.2.4-2.2-.9-.7-.9 1.1-2.2 1.5-3.8 1.1-2.9-.7-2.6-.3 6.4 6.6 3.7 2.9 6.7 4.8 6.7 4.3 0-.6-.5-1.2-1.1-1.4-.9-.3-.9-1 0-2.7.7-1.2 1-2.9.7-3.8-.8-1.9 5.6 1.8 10.4 6.2 1.9 1.7 5.5 4.7 8 6.6 2.5 1.8 5 4.1 5.7 4.9s1.3 1.1 1.3.7c0-1 3 1.8 3 2.8 0 .4-1.1.5-2.5.3-1.4-.3-2.5 0-2.6.6 0 .6-.5-.1-1.1-1.7-1-2.8-2.2-3.4-3.3-1.7-.3.5-.1 1 .5 1s1 .8.8 1.8c-.4 1.9-3.9 2.4-5 .7-.5-.6-.8-.5-.8.3 0 .7-.4 1-1 .7-.9-.5.4-4.1 2.1-5.5.3-.3.8-1.3 1.2-2.3.7-2-.3-2.3-2.1-.5-.6.6-2.1 1.2-3.1 1.3-1.5.1-2-.4-1.8-1.9.1-1.6-.4-2.1-2-2.1-1.2 0-2.9-.9-3.8-2-1.6-2-1.6-2-1.2.2.6 2.8-2 3.9-4.3 1.8-1.7-1.5-4-2-4-.9 0 .4.8 1.3 1.8 2 1.6 1.3 1.6 1.3 0 1.4-1 0-1.8-.5-1.8-1 0-.6-.7-1-1.5-1-1.4 0-1.4-.3 0-3 2-3.8 2-5.7.1-4.1-1.6 1.4-4.3.4-6.6-2.4-1.1-1.3-1.5-1.3-2.2-.3-.6.8-.7-1.9-.4-7.2.3-4.7.7-50.7.9-102.3.3-89.4.4-93.8 2.1-95.5 1.1-.9 1.6-1.2 1.3-.6-.4.7.2 1.4 1.3 1.7s1.8 1.3 1.7 2.5c0 1.1-.5 1.8-.9 1.6-.5-.3-.5-1-.2-1.6.4-.6-.1-.8-1.2-.6-1.7.3-1.9 1.4-2 10.3-.1 8.4 0 9.1.6 4 .4-3.3.7-5.4.8-4.7s.6 1.1 1.1.7c1.4-.8 2.1 2.3 1.7 7.3-.2 2.7 0 3.9.5 3 .6-.9.9-.6.9 1 0 1.5-.4 2.1-1.2 1.6-.7-.5-.8-.3-.2.7.4.7.9 11.5 1 23.9s.3 27.2.4 33 .1 10.7 0 11-.4 1.8-.6 3.4c-.4 2.3-.2 2.7 1 2.3 1.8-.7 2.2.8.6 1.8-1.4.9-1.2 5.5.2 5.5.9 0 .9.3 0 1.2s-1.2 9.9-1.1 34.8c.1 18.4.4 32.5.7 31.3.8-2.6 2.1-2 4.1 1.9.8 1.6 1.8 2.8 2.3 2.8 1.5 0 4.8-3.5 4.8-5.1 0-1.1.7-1.6 1.8-1.5 1.3.2 1.7 1.3 1.9 4.4l.2 4.2h-7.6c-7 0-7.5-.1-7-2 .3-1.1.1-1.8-.4-1.4-.5.3-.9 1.5-.9 2.7 0 1.5 2 3.8 6.7 7.4 3.8 2.8 7 5 7.2 4.7.2-.2-.9-1.4-2.5-2.6-1.6-1.3-4-3.3-5.4-4.5l-2.5-2.2 6.2-.1h6.2l-.2 5.9c-.2 4.9.1 6.1 1.7 7.1 2 1.3 2 1.4 0-3.5-.4-.9.1-1.7 1-2.1.9-.3 1.3-1 1-1.5s.2-1.2 1-1.5c1.2-.5 1.3-1 .5-2.5-.9-1.8-.3-1.9 18.1-1.9 18.1 0 19-.1 19-1.9 0-1.1.5-2.3 1.1-2.7.8-.4.8-.9 0-1.7-.6-.6-1.1-1.9-1.1-2.8 0-1.5 2.4-1.7 25.3-1.8l25.3-.2-.1 4.2c-.1 3.2-.8 4.7-2.7 6.3-6.9 5.8-9.3 7.4-10.1 6.9-.5-.3-.4-.9.3-1.3.9-.6.9-.9.1-1.5-.9-.5-.9-1 0-2.1.8-1 .8-1.4 0-1.4-.6 0-1.1-.7-1.1-1.6 0-.8.5-1.2 1.1-.8.8.4.8 0 0-1.5-.7-1.1-.8-2.1-.3-2.1s.9-.6.9-1.3c0-2-2.3-1.6-3.6.6-.8 1.1-.8 1.6-.2 1.2.6-.3 1.1.1 1.1.9 0 1.1-1 1.6-3.1 1.6-2.7 0-3 .2-1.9 1.5 1 1.2 1 1.8 0 3-.6.8-1.5 1.4-1.8 1.3-.4 0-1.6 0-2.7.1-1.6.1-1.7.3-.6 1 .8.5 2.2.6 3 .2 2.9-1.4 6.6.3 6.9 3.2.3 2.5-.5 3.2-3.1 2.8-.5-.1-.6.3-.2.9.3.5-.1 1-1 1s-1.4.4-1.1.9c1.1 1.8-2.7 2.1-4 .4s-1.6-1.6-4.4 1.5c-1.6 1.7-3.2 3.2-3.5 3.2h-1.7c-.6 0-.4.6.7 1.3 1 .8 1.5 1.8 1.2 2.4-.3.5-4.1 3.6-8.4 6.9-4.3 3.2-8.1 6.3-8.5 6.9-.4.5-.8.8-.8.5-.4-5.7-.3-22.7.2-22.2.3.4.8 1.6 1 2.7.2 1.4 1.2 2 3.3 2.1 1.7.1 3.3.2 3.8.4.4.1 1.1.3 1.6.4.5 0 1.3.4 1.7.8 1.5 1.6 2.4.7 2-1.9-.3-1.5 0-3.3.6-4 .8-.9.7-1.3-.1-1.3-.9 0-1.2-1.9-1-5.8.3-9.1 0-17.6-.7-16.9-.4.4-.6 6.4-.6 13.3.1 7-.1 13.1-.4 13.5-.9 1.5-3.3-.3-2.9-2.2.2-1 0-2.1-.5-2.4s-.6-1.3-.3-2.2c.4-1.1.3-1.4-.6-.9-.8.5-1.4.1-1.8-1.3-.3-1.2-.9-2.1-1.4-2.1s-.9-.5-.9-1.1c0-.5.5-.7 1.2-.3.7.5.8.3.3-.6-.6-1-1.1-1-2 .3-1.8 2.5-3.5 2.1-3.5-.8 0-2.4-.2-2.5-6.2-2.3l-6.3.2 5.7.3c5.6.4 5.7.5 6 3.6.2 1.9.8 3.1 1.6 2.9.6-.1 1.2.3 1.2.9s-.7.8-1.6.5c-1.3-.5-1.5.8-1.1 10.9l.4 11.5-2.6-.2c-1.7-.2-2.5.2-2.3.9.1.7-.4 1.3-1.2 1.3s-1.6.5-1.8 1.2c-.3.8-1.3.6-3.1-.8l-2.6-1.9-.1-15.8c0-8.6-.3-15.7-.7-15.7-.5 0-.7 3.6-.5 8l.4 8h-3.8c-3.7 0-3.7 0-1.8-2.1 1.4-1.5 1.5-2 .4-1.7-1 .2-1.5-.6-1.6-2.2-.1-1.4-.2-3.8-.3-5.4-.1-3.8-1.4-2.5-1.6 1.6-.1 2.7-.6 3.2-2.6 3.3s-2.4-.3-2.4-2.3c0-1.5-.6-2.6-1.6-2.7-1.4-.3-1.6.6-1.4 5.6.2 4.9 0 5.9-1.4 5.9-1 0-2.3-.6-3-1.3-.8-.6-1.1-.7-.8-.1.4.6 4.4 4 8.9 7.4 4.6 3.5 10.1 7.7 12.3 9.4s5.4 4.4 7.2 6c1.7 1.6 3.8 2.6 4.5 2.3s13.7-10.1 28.8-21.8c18.4-14.2 27.4-21.7 27.2-22.8-.5-3.1-.2-109.3.4-110.2.3-.5-.1-.9-.8-1-.7 0-.8-.2-.3-.5.6-.2.9-7.2.8-18.4-.1-17 0-18 1.7-18 1 0 2.1-.3 2.3-.8.7-1.3-.8-4.7-2.2-5-1.2-.3-1.2-.1 0 1.4.9 1.2.9 1.5.2 1-.7-.4-1.3-.3-1.3.3 0 .5.8 1.2 1.8 1.4 1.3.4 1.2.5-.5.6-2.1.1-2.1-.2-1.7-8.1.5-8.7 1.1-10.6 2.1-7 .3 1.2.9 2.2 1.5 2.2.5 0 .4-.8-.2-1.9-.7-1.4-.6-2.1.3-2.4.6-.3.2-.6-1-.6-2.3-.1-2.9-1.1-1.6-2.4.3-.4 1.1-.2 1.8.3.8.7 1.2.5 1.2-.5 0-.8-.6-1.5-1.3-1.5-.6 0-1.4-.7-1.8-1.5-.3-.8-.1-1.5.4-1.5.6 0 1 .4 1 1 0 .5.4 1 .8 1 .5 0 .7-1.4.4-3-.4-2.8-.5-2.9-1.9-1.3-1.4 1.7-1.4 1.7-.9 0 .4-1.1 0-1.7-1.2-1.7-.9 0-2.4-.5-3.2-1-1.2-.7-1.3-1.1-.2-2.2s1.5-1 2.3.5c.6.9 1.5 1.4 2.1 1.1.7-.5.1-1.6-1.8-3.2-2.6-2.2-2.7-2.4-.7-1.9 1.3.3 2.6.1 2.9-.4s.8-.9 1.2-.9c.3 0 .1.5-.5 1.1zm-375.7 14.9c.1 8.2-.2 15-.6 15-1.5 0-1.9-1.4-.8-2.7.9-1.1.8-1.3-.3-1.1-.8.2-1.3-.3-1.1-1.1.1-.7-.1-1.8-.5-2.5-.7-1-.8-2-.4-4.9 0-.5.6-.5 1.1-.2.7.4.7 1.2 0 2.5s-.7 2.1 0 2.5c1 .6 1.2 0 1.3-5 0-1.9-.4-2.9-1.2-2.7-.9.2-.9-.3.2-1.8 1.4-2.1 1.2-7.4-.3-6.5-.5.3-1.2.1-1.5-.5-.4-.6-.1-.9.7-.8.7.2 1.4-.7 1.6-1.9.3-1.8-.1-2.1-2-1.7-2.1.4-2.1.4-.3-.5 4-1.9 4.1-1.5 4.1 13.9zm473.4-14.5c0 1.3-4.5 10.5-5.1 10.5-1.3 0-1.5-4.4-.4-6.5 1.5-2.9 5.5-5.8 5.5-4zm-16.8 8.7c-.7.7-1.2.8-1.2.2s.3-1.4.7-1.7c.3-.4.9-.5 1.2-.2.2.3-.1 1.1-.7 1.7zm8.5 2.4c0 1-.4 1.1-1.4.3-1-.9-1.3-.7-1.3 1 0 1.1-.4 2.1-1 2.1-1.1 0-1.4-5.3-.4-6.3.9-.9 4.1 1.4 4.1 2.9zm-452.3-.8c.3.5-.1.9-.9.9s-1.2-.4-.9-.9c.3-.4.7-.8.9-.8s.6.4.9.8zm79.1.2c.3.5.1 1-.4 1-.6 0-1.1-.5-1.1-1 0-.6.2-1 .4-1 .3 0 .8.4 1.1 1zm377.2 3.2c-.3.8-.6.5-.6-.6-.1-1.1.2-1.7.5-1.3.3.3.4 1.2.1 1.9zm-207.1 1.2c.2 1.3-.1 1.4-1 .7-.7-.6-1.5-.9-1.8-.6-.2.3-.5-.1-.5-.9 0-2 3-1.3 3.3.8zm196.4.2c0 .8.5 1.4 1 1.4.6 0 1 .5 1 1.1 0 .8-.4.8-1.4 0-1.6-1.3-2.9-5.4-1.5-4.5.5.3.9 1.2.9 2zm-130.5-.6c.3.5.1 1-.4 1-.6 0-1.1-.5-1.1-1 0-.6.2-1 .4-1 .3 0 .8.4 1.1 1zm141.1 9.7c-.6 3.2-2.2 9.5-4.2 16.2-.3.8-.7 1.1-1 .9-.5-.6 4.7-20.8 5.4-20.8.2 0 .1 1.7-.2 3.7zm-473.1 3.3c-.3.5.5 1.5 1.9 2.1 2.3 1.1 2.4 1.6 2.3 7.7-.2 6.8-1.4 8.5-3.8 5.5-.8-1-.9-1.4-.2-1 1.8 1.1 3.4-2.5 1.8-4-.7-.6-1.5-1-1.7-.7-.3.2-.5-.3-.5-1 0-.8.3-1.5.6-1.4 2.8.3 3.8-2 1.6-3.9-.4-.4-.5-.3-.1.4.3.6.2 1.4-.4 1.8-.5.3-1.1.1-1.1-.4-.3-2-.4-2.6-1.1-3.7-.4-.6-.5-1.4-.1-1.8 1-.9 1.5-.7.8.4zm473.5 14.2c-5.9 19.9-5.8 19.7-5.9 17.3-.1-1.1-.8-3.8-1.6-6.1-.7-2.3-1.7-6.5-2.1-9.5s-1.2-5.8-1.8-6.2c-.7-.5-.3-.7.9-.5 1.7.3 2 1.2 2.3 6.1.2 3.1.7 5.7 1.2 5.7.6 0 1 .8 1 1.7.1 3.1 2.6-2.6 4.5-10.1 1.7-6.8 4.5-13.9 5.3-13.2.2.2-1.5 6.9-3.8 14.8zm-401.5 54.5v63.1l-2.5 2c-1.4 1.1-3.5 2.9-4.7 3.9-1.2 1.1-3.4 2.8-4.8 3.9-4.9 3.6-6.5 5.1-5.8 5.8.3.3-.1.6-1.1.6-1.4 0-7.3 3.8-14.3 9.2-.9.8-1.2-14.6-1.3-68.5 0-38.1.3-72.6.6-76.6l.7-7.1 16.6.2 16.6.3zm264.7-63c-1.4.3-2 .9-1.5 1.6.4.7 0 .7-1-.1-1.7-1.5-6.1-.7-5.2.9.4.5.1.9-.4.9-.6 0-1.1-.7-1.1-1.5s-.4-1.5-1-1.5c-.5 0-.6.8-.3 1.7.5 1.3.2 1.5-1.1 1-1-.4-2.3-.7-2.9-.7-.7 0-.6-.4.3-1 1.2-.8 1.1-1-.5-.7-1.1.1-2.6.6-3.2 1-.7.5-1.3.4-1.3-.1 0-.6-1.4-.6-3.6.1s-3.8.7-4.2.1c-1-1.4-4.2-1.7-4.2-.4 0 .7 1 2 2.3 3l2.2 1.8v68.1c0 37.5.3 68 .6 67.8.3-.1 5.8-4.3 12.2-9.2l11.6-9 .3-54.5c.2-69.6.1-64.3 1.6-64.7.6-.3 1.2-1.1 1.2-1.9s.3-1.4.8-1.4c.4 0 .7 27.9.7 62.1 0 57.8.1 62.1 1.8 63.6.9.9 1.7 1.3 1.7.9s1-.1 2.3.6c1.2.7 2.8 1.1 3.5 1 .9-.2 1.2 1.7 1.2 6.8v7h-8.9c-9.2 0-12.1-.5-12.1-2.2 0-.5.4-.7.8-.4.5.3 2.8-.1 5.3-.9 4.3-1.3 3.8-1.8-2.3-1.8-2.7 0-2.2-3.2.7-5.1 1.6-1.1 2.5-1.2 2.5-.5 0 .8.4.8 1.5-.1 1.2-1 1.7-.7 2.6 1.4 1.3 2.8 2.4 3.3 3.4 1.5.4-.6 1.3-.8 2.1-.5 1 .4 1.4-.2 1.4-1.8s-.6-2.3-1.7-2.3c-3.5 0-4.3-.3-4.3-1.6 0-.8-.7-1.4-1.5-1.4s-1.5.7-1.5 1.4c0 .8-.3 1.2-.8.9-2-1.2-12.2 7.4-12.2 10.2 0 2.3-2.5 4.8-3.4 3.3-.7-1.1-4.6-.3-4.6 1 0 .5 1.3.8 2.8.7 3.8-.3 4.7.5 5 4.6l.3 3.5-9.7.3c-8.2.3-9.7.1-10.5-1.4-1-1.8-1.3-146.9-.3-150.6.6-2.2.8-2.2 17.8-2.1 9.4.1 16.1.4 14.8.6zm12.1 1c-.7.2-1.9.2-2.5 0-.7-.3-.2-.5 1.2-.5s1.9.2 1.3.5zm-15.3 1.3c0 .5-.7 1-1.5 1s-1.5-.5-1.5-1c0-.6.7-1 1.5-1s1.5.4 1.5 1zm-252 13.4c0 .3-.4.8-1 1.1-.5.3-1 .1-1-.4 0-.6.5-1.1 1-1.1.6 0 1 .2 1 .4zm-66 3c0 .3-.4.8-1 1.1-.5.3-1 .1-1-.4 0-.6.5-1.1 1-1.1.6 0 1 .2 1 .4zm327.7 11.8c-.2 1.8-.4.6-.4-2.7s.2-4.8.4-3.3.2 4.2 0 6zm17-5c-.3.7-.5.2-.5-1.2s.2-1.9.5-1.3c.2.7.2 1.9 0 2.5zm-215.1.1c.8-.3 1.4-.3 1.4 0 0 1.4-3 1.4-4.1-.1-1.1-1.4-1.1-1.5 0-.5.7.6 2 .9 2.7.6zm203.4-.3c0 .5-.5 1-1.1 1-.5 0-.7-.5-.4-1 .3-.6.8-1 1.1-1 .2 0 .4.4.4 1zm-59 1c0 .5-.5 1-1.1 1-.5 0-.7-.5-.4-1 .3-.6.8-1 1.1-1 .2 0 .4.4.4 1zm123 0c0 .5-.5 1-1.1 1-.5 0-.7-.5-.4-1 .3-.6.8-1 1.1-1 .2 0 .4.4.4 1zm94.3-.3c-.7.2-1.9.2-2.5 0-.7-.3-.2-.5 1.2-.5s1.9.2 1.3.5zm-350.3 2.4c0 .6-.4.7-1 .4-.5-.3-1-1.1-1-1.6 0-.6.5-.7 1-.4.6.3 1 1.1 1 1.6zm-135 1.4c0 1.4-.4 2.5-.8 2.5-.7 0-.8-3.1-.3-4.8.4-1.1 1.1.3 1.1 2.3zm454-.5c0 .5-.5 1-1.1 1-.5 0-.7-.5-.4-1 .3-.6.8-1 1.1-1 .2 0 .4.4.4 1zm-334 .4c0 .3-.4.8-1 1.1-.5.3-1 .1-1-.4 0-.6.5-1.1 1-1.1.6 0 1 .2 1 .4zm210.3.3c-1.3.2-3.3.2-4.5 0-1.3-.2-.3-.4 2.2-.4s3.5.2 2.3.4zm6.7.3c0 .5-.2 1-.4 1-.3 0-.8-.5-1.1-1-.3-.6-.1-1 .4-1 .6 0 1.1.4 1.1 1zm66.5 5.4c1.4 1.2-2.7-1.1-4.7-2.7-1-.8-1.8-1.8-1.8-2.2 0-.7 1.3.2 6.5 4.9zm64.2-3.2c-.3.8-.6.5-.6-.6-.1-1.1.2-1.7.5-1.3.3.3.4 1.2.1 1.9zm26.3-1.2c0 .5-.2 1-.4 1-.3 0-.8-.5-1.1-1-.3-.6-.1-1 .4-1 .6 0 1.1.4 1.1 1zm7-.6c0 .3-.4.8-1 1.1-.5.3-1 .1-1-.4 0-.6.5-1.1 1-1.1.6 0 1 .2 1 .4zm5.5.6c.3.5.1 1-.4 1-.6 0-1.1-.5-1.1-1 0-.6.2-1 .4-1 .3 0 .8.4 1.1 1zm-22.2.6c1.1 1.1-.3 2.4-1.8 1.8-.8-.4-1.2-1-.9-1.5.6-1.1 1.8-1.2 2.7-.3zm-365.5 3.5c-.3.8-.7.3-1.1-1-.4-1.7-.3-2.1.5-1.3.5.5.8 1.6.6 2.3zm220-.7c-1.3 1.3-4.8 1-4.8-.4 0-.9 4-1.8 5.2-1.2.4.1.2.9-.4 1.6zm72.2-.3c0 .6-.4.7-1 .4-.5-.3-1-1.1-1-1.6 0-.6.5-.7 1-.4.6.3 1 1.1 1 1.6zm37 .3c0 .2-.8 1-1.7 1.7-1.6 1.3-1.7 1.2-.4-.4s2.1-2.1 2.1-1.3zm-126.3 5.3c-.3 1-.5.2-.5-1.7s.2-2.7.5-1.8c.2 1 .2 2.6 0 3.5zm114.3-.2c-2.4 2.5-4.6 4.5-4.9 4.5s0-.5.7-1.2 1.2-2 1.2-3 .5-1.5 1.3-1.2c.7.2 2.2-.4 3.2-1.6 1-1.1 2.1-2 2.4-2s-1.5 2-3.9 4.5zm30-3.5c0 .5-.4 1-1 1-.5 0-1-.5-1-1 0-.6.5-1 1-1 .6 0 1 .4 1 1zm-347.6 5c-.5.5-1-.3-1.1-1.8-.1-2.2 0-2.4.9-.8.6 1 .6 2.2.2 2.6zm217.5-3.7c-.2.1-1.3.9-2.4 1.7-1.9 1.4-1.9 1.4-.6-.3.7-.9 1.8-1.7 2.4-1.7s.8.1.6.3zm65.5 2.6c-.2.3-1.2-.3-2.2-1.3-1.6-1.7-1.6-1.8.5-.5 1.2.7 2 1.5 1.7 1.8zm29.6-.9c0 .5-.4 1-1 1-.5 0-1-.5-1-1 0-.6.5-1 1-1 .6 0 1 .4 1 1zm-178.3 4.7c-.3 1-.5.2-.5-1.7s.2-2.7.5-1.8c.2 1 .2 2.6 0 3.5zm77.7-1.8c-.7.8-3.5-.9-2.9-1.9.4-.6 1.1-.5 2 .3.7.6 1.1 1.4.9 1.6zm-185.4-.3c0 .8-.5 1.2-1 .9-.6-.4-.8-1.1-.5-1.6.9-1.4 1.5-1.1 1.5.7zm324-.2c0 .2-.7.9-1.5 1.6-1.3 1.1-1.4 1-.9-.4s2.4-2.3 2.4-1.2zm25 .6c0 .5-.5 1-1.1 1-.5 0-.7-.5-.4-1 .3-.6.8-1 1.1-1 .2 0 .4.4.4 1zm-484 1c0 .5-.5 1-1.1 1-.5 0-.7-.5-.4-1 .3-.6.8-1 1.1-1 .2 0 .4.4.4 1zm74.3.1c-.6.6-.9 1.8-.6 2.5.3.8.1 1.4-.5 1.4-1.8 0-2-2.4-.3-3.7 2-1.6 2.9-1.7 1.4-.2zm240.2.8c-.8 1.3-3.5 1.5-3.5.2 0-.5.8-1.1 1.8-1.3 2.1-.5 2.6-.2 1.7 1.1zm177.3-.2c-1 .2-2.8.2-4 0-1.3-.2-.5-.4 1.7-.4 2.2-.1 3.2.1 2.3.4zm-511.8 2.3c0 1.1-.4 2-1 2-.5 0-1-.9-1-2s.5-2 1-2c.6 0 1 .9 1 2zm159.4-.4c.3.8.2 1.2-.4.9s-1-1-1-1.6c0-1.4.7-1.1 1.4.7zm108.3-1c-.3.3-1.2.4-1.9.1-.8-.3-.5-.6.6-.6 1.1-.1 1.7.2 1.3.5zm21 7.6c-.2 1.8-.4.6-.4-2.7s.2-4.8.4-3.3.2 4.2 0 6zm-131.8-4.2c2.5 2.1 2.9 2.7 1.3 2.4-2.1-.6-7.2-5.4-5.6-5.4.5.1 2.4 1.4 4.3 3zm283.1-2.6c0 1.1-1.9 1.5-2.5.6-.3-.5.1-1 .9-1 .9 0 1.6.2 1.6.4zm-419 2.2c0 .8-.4 1.2-1 .9-.5-.3-1-1-1-1.6 0-.5.5-.9 1-.9.6 0 1 .7 1 1.6zm58.5-.6c.3.5.1 1-.4 1-.6 0-1.1-.5-1.1-1 0-.6.2-1 .4-1 .3 0 .8.4 1.1 1zm56.1 1.8c-.4.3-1.4-.2-2.4-1.2-1.6-1.8-1.6-1.8.6-.6 1.3.6 2.1 1.4 1.8 1.8zm357.1-1.3c-.5 1.5-3.4 1.8-3.4.3 0-.8.9-1.4 1.9-1.4s1.7.5 1.5 1.1zm-212 2.7c-.3.7-.5.2-.5-1.2s.2-1.9.5-1.3c.2.7.2 1.9 0 2.5zm76.8-1.2c-2 2.2-3.5 2.6-3.5 1 0-.6.7-1 1.5-1s1.5-.5 1.5-1c0-.6.5-1 1.2-1 .6 0 .3.9-.7 2zm-142.5 0c0 .5-.5 1-1.1 1-.5 0-.7-.5-.4-1 .3-.6.8-1 1.1-1 .2 0 .4.4.4 1zm125.7 1.2c-.3.8-.6.5-.6-.6-.1-1.1.2-1.7.5-1.3.3.3.4 1.2.1 1.9zm-250.7-.2c-1.9 1.3-3 1.3-3 0 0-.6 1-1 2.3-1 1.8 0 1.9.2.7 1zm64.5 1c1 1.1 1.3 2 .7 2s-1.6-.9-2.2-2-.9-2-.7-2 1.2.9 2.2 2zm117.2.2c-.3.8-.6.5-.6-.6-.1-1.1.2-1.7.5-1.3.3.3.4 1.2.1 1.9zm62.5 6.2c-.2 3.6-.7 6.6-1.1 6.6-.6 0-.7-4.5-.2-14 .1-1 .4-1.1.9-.4.4.7.5 4.2.4 7.8zm119.5-7.8c-.3.3-1.2.4-1.9.1-.8-.3-.5-.6.6-.6 1.1-.1 1.7.2 1.3.5zm10.3.5c0 1-2.7 1.9-3.4 1.2-1.1-1.2-.6-1.9 1.4-1.9 1.1 0 2 .3 2 .7zm-464 .9c0 .5-.5 1-1.1 1-.5 0-.7-.5-.4-1 .3-.6.8-1 1.1-1 .2 0 .4.4.4 1zm149.4 2.8c-.3 1.5-1 3.1-1.6 3.7-.8.7-.9.5-.4-.8.3-1 .6-3 .6-4.3 0-1.4.4-2.3.9-1.9.5.3.7 1.8.5 3.3zm117.6.2c0 2.2-.4 4-1 4-.5 0-1-1.8-1-4s.5-4 1-4c.6 0 1 1.8 1 4zm173-3c0 .5-.2 1-.4 1-.3 0-.8-.5-1.1-1-.3-.6-.1-1 .4-1 .6 0 1.1.4 1.1 1zm30 4.2c-.4 4.9-.5 5-.8 1.4-.3-3.4.2-6.6 1-6.6.2 0 .1 2.4-.2 5.2zm-388.6-3.4c.2.4-.4 1.3-1.5 2-1.6 1.1-1.9.9-1.9-.8 0-1.9 2.4-2.8 3.4-1.2zm268.1.1c.3.5.1 1.2-.5 1.6-.5.3-1-.1-1-.9 0-1.8.6-2.1 1.5-.7zm130.2 1.3c-.3.8-.6.5-.6-.6-.1-1.1.2-1.7.5-1.3.3.3.4 1.2.1 1.9zm-405.3 2c.4 1.7.2 2.8-.4 2.8-.5 0-1-1.4-1-3.2 0-3.6.4-3.5 1.4.4zm70.7 0c1.6 3 0 3.6-2.1.8-1.1-1.4-2-2.8-2-3.2 0-1.4 3.1.4 4.1 2.4zm72.3 4.9c-2 2.2-5.4 2.5-5.4.4 0-.8.6-1.2 1.3-1 2 .8 3.8-1 4.1-4.1.5-4.2.9-4.3 1.3-.6.3 2.3-.1 4-1.3 5.3zm63.3-5.9c-.3.8-.6.5-.6-.6-.1-1.1.2-1.7.5-1.3.3.3.4 1.2.1 1.9zm137.2 4.9c-1.8 1.1-2.5.1-1.1-1.3.7-.7 1.3-2.3 1.4-3.8.1-1.8.2-1.6.5.9.3 2.1 0 3.7-.8 4.2zm28.1-6.7c0 .3-.4.8-1 1.1-.5.3-1 .1-1-.4 0-.6.5-1.1 1-1.1.6 0 1 .2 1 .4zm-167.9 4.6c.5 0 .9.4.9 1 0 .5-1.1 1-2.4 1-2.5 0-3.1-2.4-1.1-4.6.7-.9 1.1-.7 1.3.7.2 1 .8 1.9 1.3 1.9zm65.4-.6c.8-.3 1.5-1.3 1.5-2.1s.4-1.2 1-.8c1.4.9.1 3.1-2.6 4.4-3.3 1.5-3.1 1.6-3.2-2.2 0-2.8.1-2.9.9-1 .5 1.5 1.4 2.1 2.4 1.7zm98.6-.7 2.4 2.6-2.7-1.9c-1.5-1-2.8-2.2-2.8-2.7 0-1.2.5-.8 3.1 2zm-283.4 3.5c.3.7-.8.2-2.5-1-1.7-1.3-3.5-2.8-3.9-3.4-.3-.7.8-.2 2.5 1 1.7 1.3 3.5 2.8 3.9 3.4zm55.8-4.2c.3.5.1 1-.4 1-.6 0-1.1-.5-1.1-1 0-.6.2-1 .4-1 .3 0 .8.4 1.1 1zm-194 1c-.3.5-1.1 1-1.6 1-.6 0-.7-.5-.4-1 .3-.6 1.1-1 1.6-1 .6 0 .7.4.4 1zm86.2 1.2c-.3.8-.6.5-.6-.6-.1-1.1.2-1.7.5-1.3.3.3.4 1.2.1 1.9zm373 7c-.2 1.8-.4.4-.4-3.2s.2-5 .4-3.3c.2 1.8.2 4.8 0 6.5zm26.7-7.6c.3.9.6 2.1.5 2.7 0 .7-.4.2-.9-1-.6-1.5-1.5-2.1-3-1.8-1.1.2-1.8 0-1.5-.6 1-1.5 4.2-1 4.9.7zm-50.9.4c.3.5.1 1-.4 1-.6 0-1.1-.5-1.1-1 0-.6.2-1 .4-1 .3 0 .8.4 1.1 1zm-440.8 1.5c0 .8-.4 1.2-.9.9s-.6-1-.3-1.5c.9-1.3 1.2-1.1 1.2.6zm-14.2 1.5c.3.5-.1 1-.9 1-.9 0-1.6-.5-1.6-1 0-.6.4-1 .9-1 .6 0 1.3.4 1.6 1zm4.8.7c-.7.2-1.9.2-2.5 0-.7-.3-.2-.5 1.2-.5s1.9.2 1.3.5zm65.9 1.9c-.5 3.5-1.1 4.4-2.8 4.4-1.4 0-1.5-.2-.3-1.7.8-.9 1.3-2.5 1.1-3.6-.2-1.2.1-1.8 1-1.5.7.3 1.2 1.4 1 2.4zm134.1-1.2c.4 1 .1 1.3-.9.9-.7-.3-1.4-.9-1.4-1.4 0-1.4 1.7-1 2.3.5zm61.7-.4c0 .5-.4 1-1 1-.5 0-1-.5-1-1 0-.6.5-1 1-1 .6 0 1 .4 1 1zm-117.3.6c-.3.3-1.2.4-1.9.1-.8-.3-.5-.6.6-.6 1.1-.1 1.7.2 1.3.5zm127.3 1.4c-.6 1.1-1.6 1.8-2.1 1.4-.6-.3-.3-1.2.8-2 2.4-1.8 2.6-1.7 1.3.6zm198.2 3.5c.3-.3.8.1 1.1 1 .9 2.3-.4 1.8-5.1-1.6-2.3-1.7-3.9-3.5-3.6-4.1.4-.5 2 .4 3.8 2.1s3.5 2.9 3.8 2.6zm-465.4-3.8c-2.1.2-5.7.2-8 0-2.4-.2-.7-.4 3.7-.4s6.3.2 4.3.4zm275.6.8c-.4.8-.8 1.5-1 1.5s-.4-.7-.4-1.5.4-1.5 1-1.5c.5 0 .7.7.4 1.5zm-287.8.3c.6.4 1.4 1.9 1.8 3.4.5 2.1.3 2.8-.9 2.8-1.1 0-1.4-.6-.9-2.4.4-1.7 0-2.7-1.3-3.5-1-.6-1.3-1-.8-1.1.6 0 1.5.4 2.1.8zm211.4 2.3c0 1.6-.4 2.8-.9 2.5s-.8-1.7-.8-3.1.3-2.5.8-2.5.9 1.4.9 3.1zm63.2-1.4c1.9 1.7 2.5 6.3.8 6.3-.5 0-1-1-1-2.2s-.7-3-1.7-4c-2-2.3-.6-2.4 1.9-.1zm-57.1 3.5c.2 2 0 4-.4 4.4s-.7-1.4-.7-4.1c0-5.6.7-5.7 1.1-.3zm235.3.1c.4 1.9.3 2.6-.4 2.2-.5-.3-1-1.8-1-3.2 0-3.2.5-2.8 1.4 1zm-164.7 1c-2.7 2.3-3.6 3.8-3.1 5 .8 2.1 1.3 2.1 3.6 0 1.4-1.3 2.1-1.4 3-.5s.8 1.2-.4 1.2c-.9 0-1.8.9-2.1 2-.3 1.3-1.1 1.8-2 1.4-1.7-.6-2.9 1.7-1.7 3.7.7 1.1 1.3 1 3.2-.6l2.3-2-1.7 2.1c-2.1 2.4-2.5 7.9-.5 6.8.6-.4.3.2-.7 1.4-1.1 1.2-2.2 2.2-2.6 2.2-1.4 0-1.9-4.3-.8-6.3.7-1.3.7-2.2 0-2.6-.6-.3-1-3-.9-6 .2-4.8.6-5.7 3.7-8.2 1.9-1.6 3.7-2.9 4-2.9.3.1-1.2 1.5-3.3 3.3zm149.6-.7c-.9 1.5-1.9 2.1-2.1 1.5-.6-1.9.6-4.1 2.3-4.1 1.4 0 1.3.3-.2 2.6zm-278.8-.7c.3.5.2 1.2-.3 1.5s-.9-.1-.9-.9c0-1.7.3-1.9 1.2-.6zm88.2 1.3c-.3.8-.6.5-.6-.6-.1-1.1.2-1.7.5-1.3.3.3.4 1.2.1 1.9zm-137.1 1.3c-.3.9.1 1.2 1.3 1 1-.2 1.8.3 1.8 1.1 0 1.5-1.6 1.8-3.2.6-1.4-.9-1.7-5.5-.4-4.6.6.3.8 1.2.5 1.9zm162.4.5c0 1.6-.4 3-.8 3-.5 0-.9-1.4-1-3 0-1.7.4-3 .9-3s.9 1.3.9 3zm52-2.6c0 .2-.9.6-2 .9s-1.8.1-1.4-.4c.5-.9 3.4-1.3 3.4-.5zm-302.3 3.8c-.3.7-.5.2-.5-1.2s.2-1.9.5-1.3c.2.7.2 1.9 0 2.5zm449.3.3c0 .5-.5.3-1-.5s-1-2-1-2.5c0-.6.5-.3 1 .5s1 1.9 1 2.5zm-246.3 9.5c-.1 7.4-.6 11.9-1.2 11.7-.5-.1-.9-1.3-.9-2.7.1-1.4.2-6.7.3-11.8.1-5 .5-9.2 1-9.2.6 0 .9 5 .8 12zm161.1-5.5c0 3.5-.2 6.7-.7 6.9-.5.4-.8-12.1-.2-13.2.5-1 .8.7.9 6.3zm89.5-1.5c-.6 2.2-.7 2.2-1.4.4-.4-1-.8-2.8-.8-3.9-.1-1.7.1-1.8 1.4-.5.9 1 1.2 2.4.8 4zm5.3-1.2c-1.8 1.6-1.9 1.6-1.2-.1.3-1 .6-2.4.6-3 0-.8.4-.7 1.2.1 1 .9.8 1.6-.6 3zm31.6-1.3c.3 1.4.1 2.5-.3 2.5-.5 0-.9-1.1-.9-2.5s.2-2.5.4-2.5.6 1.1.8 2.5zm-194.6 1.9c-.6 1.9-1.4 3.2-1.8 3-.4-.3-.5-1.1-.3-1.9.3-.8.7-2.2 1-3 .2-.8.8-1.5 1.3-1.5s.4 1.5-.2 3.4zm141.1-1.2c-.3.8-.6.5-.6-.6-.1-1.1.2-1.7.5-1.3.3.3.4 1.2.1 1.9zm30.3-.2c0 .5-.7 1-1.6 1-.8 0-1.2-.5-.9-1 .3-.6 1-1 1.6-1 .5 0 .9.4.9 1zm-482.2 2.5c-.3.3-.9-.2-1.2-1.2-.6-1.4-.5-1.5.5-.6.7.7 1 1.5.7 1.8zm198.2 4.2c0 3.1-.3 5.3-.7 4.9-1-1-1.1-11.6-.1-11 .4.3.8 3 .8 6.1zm24.8-4.3c-.1 1.4-.6 2.2-1 2-1.2-.7-1-4.4.2-4.4.5 0 .9 1.1.8 2.4zm1.9-.2c-.3.8-.6.5-.6-.6-.1-1.1.2-1.7.5-1.3.3.3.4 1.2.1 1.9zm43 0c-.3.8-.6.5-.6-.6-.1-1.1.2-1.7.5-1.3.3.3.4 1.2.1 1.9zm48.5-1.3c-.8.4-1.3 1.1-1.3 1.5.1.3-.1.6-.4.6s-.5-.2-.5-.5v-1.5c0-.6.8-1 1.8-1 1.3 0 1.4.2.4.9zm185.8 1.2c0 1.7-.5 2-3 1.7-3.2-.4-3.7-2.1-.8-2.3 1-.1 2.1-.5 2.5-.8 1-1.1 1.3-.8 1.3 1.4zm-493 1.1c0 1.6-.3 1.9-1.1 1.1-.6-.6-.8-1.6-.5-2.2 1.1-1.7 1.6-1.3 1.6 1.1zm8.8 8.8c.1 9.9.1 10-2.3 10-1.3 0-2.7-.5-3.1-1.2-.5-.8 0-.9 1.4-.6 2.3.6 2.4.5 2.5-4.7.1-2.3-.4-3.1-2.3-3.6-2.3-.6-2.3-.9-.2-1.3 2-.4 2.9-1.8 2.4-4.1-.4-2.3-1.3-3-3.4-2.6-.5 0-.8-.1-.8-.4 0-.8 4.4-2.4 5.1-1.9.4.2.7 4.9.7 10.4zm91.2-6c0 2.7-.4 5-1 5-.5 0-.9-1.7-.7-3.7.1-2.4-.2-3.8-1-3.8-.6 0-1.5-.4-2-.9-.4-.5-.3-.7.2-.3.6.3 1.7.2 2.5-.4.8-.5 1.6-.9 1.8-.9.1 0 .2 2.2.2 5zm95 .9c-.1 4.3-.2 4.5-1.6 2.6-.9-1.3-1.1-2.1-.4-2.3.7-.3.7-.9-.2-2-1-1.2-1-1.4 0-.8.6.4 1.2.3 1.2-.1 0-.5-.6-1.5-1.2-2.2-1.1-1-1-1.1.5-.6 1.3.6 1.7 1.8 1.7 5.4zm61.6-3.8c.3.5-.4.9-1.5.9-1.2 0-2.4 0-2.8.1-.5 0-.9-.6-1.1-1.4-.2-1 .4-1.3 2.3-1 1.4.3 2.8.9 3.1 1.4zm-55.9 2.6c-.3 1-.5.4-.5-1.2 0-1.7.2-2.4.5-1.8.2.7.2 2.1 0 3zm237.3-1.1c0 .2-.7.4-1.5.4s-1.5-.4-1.5-1c0-.5.7-.7 1.5-.4.8.4 1.5.8 1.5 1zm17.4 0c.3.8.2 1.2-.4.9s-1-1-1-1.6c0-1.4.7-1.1 1.4.7zm11.1-.5c1.1 1.7.2 1.8-1.9.3-1.7-1.2-1.7-1.4-.4-1.4.9 0 2 .5 2.3 1.1zm-158.5.9c0 .5-.8 1.4-1.8 1.9-1.4.7-1.9.6-1.9-.4 0-.8.4-1.2.8-.9.4.2 1 0 1.4-.6.8-1.3 1.5-1.3 1.5 0zm192-.6c0 .2-.7.6-1.5 1-.8.3-1.5.1-1.5-.4 0-.6.7-1 1.5-1s1.5.2 1.5.4zm-405.6 3c-.3.7 1.2 3.1 3.4 5.2 5.2 5.3 6.4 8.7 1.2 3.8-2.1-2-3.6-4.2-3.3-4.7.3-.6.1-.7-.6-.3-.6.4-1.9.2-2.7-.5-1.3-1-1.2-1.4.2-3 2-2.3 2.5-2.4 1.8-.5zm119.6-.4c0 .5-.4 1-1 1-.5 0-1-.5-1-1 0-.6.5-1 1-1 .6 0 1 .4 1 1zm89 1c0 .5-.5 1.2-1 1.5-.6.4-.8 1-.5 1.5.8 1.2-.9 2-2.3 1.1-1.9-1.2.2-6.3 2.3-5.5.8.3 1.5 1 1.5 1.4zm141.8 1.6c-.3 1.4-.5 1.2-1-.9-.3-1.9-.2-2.5.4-1.9s.8 1.8.6 2.8zm24.3-1.3c-1 .9-1.1.8-.5-.6.3-1 .9-1.5 1.2-1.2s0 1.1-.7 1.8zm-476.1-.3c0 .5-.5 1-1.1 1-.5 0-.7-.5-.4-1 .3-.6.8-1 1.1-1 .2 0 .4.4.4 1zm6.5.8c-.3.3-1.1 0-1.8-.7-.9-1-.8-1.1.6-.5 1 .3 1.5.9 1.2 1.2zm433.5 1.6c0 .5-.7.3-1.5-.4s-1.2-1.7-.9-2.2c.7-1 2.4.9 2.4 2.6zm28.6 4.6c.9 5 1.9 7.6 3.6 9.2 1.3 1.3 1.7 1.8.9 1.1-1.1-1-1.7-.9-2.7.5-1.2 1.5-1.3 1.4-1.4-1.3 0-1.7-.4-4.6-.9-6.5-1.3-5.2-2.1-11.3-1.3-10.6.4.4 1.2 3.8 1.8 7.6zm-259.6-4.9c0 .5-.4.9-1 .9-.5 0-1-.7-1-1.6 0-.8.5-1.2 1-.9.6.3 1 1 1 1.6zm13.7 2.6c-.3 1-.5.4-.5-1.2 0-1.7.2-2.4.5-1.8.2.7.2 2.1 0 3zm32-1.5c-.3.8-.6.5-.6-.6-.1-1.1.2-1.7.5-1.3.3.3.4 1.2.1 1.9zm118.8-1.2c.3.6-.1.7-.9.4-1.8-.7-2.1-1.4-.7-1.4.6 0 1.3.4 1.6 1zm91.5 1.1c0 .6-.4.7-1 .4-.5-.3-1-1.1-1-1.6 0-.6.5-.7 1-.4.6.3 1 1.1 1 1.6zm45.1 1.6c-.9 1.6-1 1.4-1.1-1.2 0-2.1.3-2.6 1.1-1.8s.8 1.6 0 3zm-503.3-1.5c-.3.7-1.6 1.3-3.1 1.3-2.8.2-3.7-.9-1.4-1.8 2.3-1 4.9-.7 4.5.5zm294.9 1.4c.1 1.8-.2 2.3-.9 1.6-.6-.6-.8-1.8-.5-2.6.9-2.2 1.2-2 1.4 1zm196.3.1c0 2.9-1.2 2.4-1.7-.7-.2-1.1.2-2 .7-2 .6 0 1 1.2 1 2.7zm-497.9 2.2c1.6.5 2.9 1.2 2.9 1.6 0 1.2-6.5-2.3-6.6-3.6 0-.8.1-.9.3-.2.2.6 1.7 1.6 3.4 2.2zm264.4-2.1c-1 1-5.5 1.3-5.5.4 0-1.5 1-1.9 3.6-1.4 1.4.2 2.2.7 1.9 1zm50.3-.6c-.3.7-1.1 1.3-1.9 1.3-.9 0-1.4 1-1.4 2.6.1 1.4-.4 2.6-1.1 2.6-1.9 0-.7-4 1.7-6 2.5-2 3.2-2.2 2.7-.5zm163.2 2c0 .7-.5.6-1.3-.1-.8-.6-1.7-.8-2-.4-1.3 1.2-.7 4.4.8 4.9.8.4 1.2 1 .9 1.6-.9 1.4-3.4-1.1-3.4-3.4 0-1.1.5-2.8 1.1-3.9.8-1.6 1.3-1.8 2.5-.8.8.6 1.4 1.6 1.4 2.1zm-270.3 0c-.3.8-.6.5-.6-.6-.1-1.1.2-1.7.5-1.3.3.3.4 1.2.1 1.9zm13.3-1.8c0 .3-.4.8-1 1.1-.5.3-1 .1-1-.4 0-.6.5-1.1 1-1.1.6 0 1 .2 1 .4zm156 0c0 .2-.8 1-1.7 1.7-1.6 1.3-1.7 1.2-.4-.4s2.1-2.1 2.1-1.3zm109 1.1c1 1.2 1 1.5-.4 1.5-.9 0-1.6-.7-1.6-1.5s.2-1.5.4-1.5.9.7 1.6 1.5zm-218.3 7.2c-.2 1.6-.4.3-.4-2.7s.2-4.3.4-2.8c.2 1.6.2 4 0 5.5zm-261-4.1c-.9.9-2.8-.6-2.1-1.8.4-.6 1-.6 1.7.1.6.6.8 1.3.4 1.7zm447.2 1.4c0 1-.3.8-.9-.5-1.2-2.7-1.2-4.3 0-2.5.5.8.9 2.2.9 3zm-456.8-1.4c1.2 1.4 1.1 1.6-.5 1.3-1.1-.2-2.1-1-2.4-1.7-.5-1.7 1.3-1.5 2.9.4zm15.6.6c-.3.8-.6.5-.6-.6-.1-1.1.2-1.7.5-1.3.3.3.4 1.2.1 1.9zm189.3 2.4c0 2.1-.4 3.3-1 2.9-.5-.3-1-2.2-1-4.1 0-2.1.4-3.3 1-2.9.6.3 1 2.2 1 4.1zm55.7 9.1c-.2 2.7-.3.5-.3-4.7s.1-7.4.3-4.8c.2 2.7.2 6.9 0 9.5zm55.6-.2c-1 .7-1.4 1.7-1 2.1.4.5 1.2.2 1.7-.6.6-1 1 2.3 1 9.4 0 9.7-.2 10.8-1.4 9.1-.8-1.1-1.2-2.3-.9-2.8.2-.4-.1-.6-.9-.5-.7.2-1.2-.3-1-1 .1-.8-.3-1.2-1-1-.7.3-1.3 1.6-1.3 2.9 0 1.8-.5 2.3-1.9 2.1-1.3-.2-1.6.1-1 1 .4.7-.5.2-2.1-1.1-2.5-1.9-3.1-2-3.3-.7-.2.9-.7 1.6-1 1.7-.4 0-1.5.2-2.4.4s-2.1-.2-2.6-.8c-1.5-2-1-4.3 1-4.3 1.1 0 1.4.4.8 1-1.6 1.6-1.2 3.4.8 3.2 1.3-.2 1.7-1.3 1.7-4.4 0-3.2.3-3.8 1.3-3 .7.6 1.1 1.7.8 2.4s.2 1.2 1.2 1.2c.9 0 2.4.1 3.2.3s1.5-.1 1.5-.6c.2-2.2 1.7-5.6 2.2-5.1.7.6 4.3-3.3 4.3-4.6 0-.4-1.4.5-3.1 2.2-3 2.8-4.2 3.4-6.1 3.1-.5 0-.8.6-.8 1.5 0 .8-.5 1.2-1.1.9-.7-.5-.5-1.3.6-2.5 2.2-2.4 1-4.7-1.3-2.8-1.5 1.2-1.6 1.1-.3-.4.7-1 1.7-1.5 2.2-1.2s.6-.1.3-.9c-.2-.7-.1-2.4.4-3.8.5-1.3.5-3.5.1-4.9s-.7-2-.8-1.5c-.1.6-.9 1.5-1.9 2.2-1.5.9-1.9.8-1.9-.3 0-.7.5-1.1 1-.7.5.3.7-.3.3-1.3-.3-1.1-.1-2.6.4-3.4s1-1 1-.4c0 .7 1.1.9 2.5.6 1.4-.2 2.6 0 2.6.7.3 2.6.4 3 1.1 3.7.4.4.3 1.3-.3 2.1-.6.7-.8 1.3-.5 1.3.4 0 0 1-.8 2.2-3.5 5-.5 8.1 3.2 3.3 1.1-1.3 2.3-2.1 2.7-1.7.5.4.5.1.1-.6-.4-.6-1.4-1.2-2.2-1.2-1.4 0-1.3-.2 0-1.6.9-.8 1.4-1.9 1.1-2.4s0-1.2.6-1.6c.8-.5.9-.3.4.7-.5.8-.5 1.1 0 .7.4-.4.8-2.9.8-5.5-.1-7.3 1.2-7.7 1.5-.4.2 5.1 0 6.5-1.5 7.6zm-115.9-11c-.4.8-1.1 1.2-1.6.9-.6-.4-.5-1 .3-1.5 1.9-1.2 1.9-1.1 1.3.6zm11.8 3.4c-.6.3-1.2 2.4-1.5 4.6-.2 2.6-.4 1.6-.5-3-.2-6.7-.1-6.9 1.4-4.6 1.1 1.5 1.3 2.5.6 3zm95.4-1.2c-1.1 1.1-1.9-.6-1.1-2.4.8-1.7.8-1.7 1.2 0 .3 1 .2 2.1-.1 2.4zm68.9-2c-.2 1-.4 1.9-.4 2.1-.1.2-.6 0-1.1-.3-.8-.5-.7-1.1.1-2.1 1.5-1.8 1.8-1.8 1.4.3zm88.2 3c-.3 1-.5.2-.5-1.7s.2-2.7.5-1.8c.2 1 .2 2.6 0 3.5zm36.2 8.8c-.1 18.5-.1 18.5-1.1 18.5-.5 0-.6-.5-.3-1 1.2-1.9-.2-1-2.6 1.7-2.2 2.5-2.2 2.6-.1.9 1.2-1.1 2.2-1.4 2.2-.8s.7 1.8 1.6 2.6c.8.9 1 1.6.4 1.6s-1.3-.7-1.7-1.5c-.5-1.4-.7-1.4-2.3 0-2.3 2-2.7 1.3-3.3-5.5-.2-3-.2-4.2 0-2.7.3 2.2.9 2.8 2.6 2.5 1.5-.2 2.1-.9 1.9-2.1-.2-.9.2-1.7.8-1.7s1-4.7 1-13.2c0-7.2.2-12.9.5-12.7.2.3.4 6.3.4 13.4zm-214.9-11.5c0 .5-.4 1-1 1-.5 0-1-.5-1-1 0-.6.5-1 1-1 .6 0 1 .4 1 1zm224 1.5c0 1.4-.2 2.5-.4 2.5s-.6-1.1-.8-2.5c-.3-1.4-.1-2.5.3-2.5.5 0 .9 1.1.9 2.5zm3.4 11.9c.1 7.4-.2 12.9-.6 12.3-.9-1.5-1.1-27.3-.2-26.4.4.4.7 6.7.8 14.1zm-248.4-13c0 .3-.4.8-1 1.1-.5.3-1 .1-1-.4 0-.6.5-1.1 1-1.1.6 0 1 .2 1 .4zm91.5.5c.3.5.2 1.2-.3 1.5s-.9-.1-.9-.9c0-1.7.3-1.9 1.2-.6zm-251.8 3.6c-.3.6.4 1.2 1.6 1.2 2.3.2 3.7 1.9 3.7 4.8-.1 1.8-.1 1.9-1.1.2-.5-.9-1.6-1.7-2.3-1.7-1.3 0-1.5 2.7-.3 4.6.3.6.5 2.1.2 3.3-.2 1.1 0 2.1.6 2.1.9 0 1.3-1.5 1-3.4-.1-.5.6-.3 1.5.5 1 .8 1.5.9 1.1.3-.3-.6 0-2 .8-3 1.3-1.7 1.3-1.5.4 1.6-.6 1.9-1.1 4-1.3 4.7-.1.7-.6 1.6-1.1 2-.4.4-.5.2 0-.6.6-1 .4-1.2-.5-.6-1 .6-.9 1.1.5 2.1 1 .7 2.1 1.2 2.4 1s.7 2.4.9 5.7c.1 4.4-.1 5.8-.8 4.7-.6-.9-1-1-1-.3 0 .6.5 1.5 1 1.8.6.3 1 2.2 1 4.2 0 4.3-.8 4-1.2-.4-.1-1.8-.6-2.9-1.1-2.6-.8.5 0 7.8 1 9.5.2.5.6 4.3.8 8.5.3 8.1-.4 7.9-2.6-.7-1-3.9-1.3-4.2-2.3-2.7-.7.9-1.6 1.4-1.9 1-.4-.3-.7.5-.6 1.8 0 1.3.3 1.8.6 1.1.2-.6.9-1.2 1.5-1.2s.3.9-.7 2c-1.7 1.9-1.7 2 .7 4.8 1.3 1.6 3.1 2.8 3.9 2.7 1.2-.2 1.5.6 1.4 3.1-.2 1.9-.8 4-1.4 4.8-.6.7-.7 1.7-.3 2.1.8.9-5.4-3.3-8.1-5.4-1.6-1.3-1.6-1.6-.2-3.7 1.8-2.7 2-7.1.4-7.6-1-.3-1.1-5.1-.9-51.7 0-3.8.2-4.2 1.5-3.1.9.7 1.4 1.8 1.2 2.5zm274.9.5c0 2.1-.7 4.5-1.3 5.2-.9.8-1.3.9-1.3.1 0-.7.5-1.5 1-1.8.7-.4.7-1.2 0-2.4-.5-1-.7-2.1-.5-2.5.3-.3.2-.3-.2 0-.8.6-.9 1.1-1.2 3.9-.2 2.2-1.6 1.8-1.8-.5-.1-1.5 3.8-6 5.2-6 .2 0 .2 1.8.1 4zm115.4 3.2c0 3.9-.2 6.9-.4 6.7-.7-.7-1.4-12.7-.8-13.3 1.1-1.1 1.2-.5 1.2 6.6zm-494.7-4.7c-.3.9-.8 1.4-1 1.1-.3-.3-.2-.9.2-1.5.9-1.6 1.5-1.3.8.4zm225.4 1.7c-.3.7-.5.2-.5-1.2s.2-1.9.5-1.3c.2.7.2 1.9 0 2.5zm145.9-1.7c-.1.8-.5 1.7-.8 2.1-.5.4-.4-1.6.1-3.4.3-.9.9.1.7 1.3zm99.2 4.3c1.4 6.9 1.5 9.5.3 8.8-1.4-.9-3.4-14.6-2.1-14.6.4 0 1.1 2.6 1.8 5.8zm27.9-3.6c-.3.8-.6.5-.6-.6-.1-1.1.2-1.7.5-1.3.3.3.4 1.2.1 1.9zm-232.7 1.1c0 1.3-.7 3.2-1.5 4.3-1.3 1.7-1.4 1.7-1.5.1 0-.9.5-1.7 1.2-1.7.9 0 .9-.3 0-1.2-1.7-1.7-1.5-3.8.3-3.8.9 0 1.5.9 1.5 2.3zm192-.8c0 .8-.2 1.5-.4 1.5s-.6-.7-1-1.5c-.3-.8-.1-1.5.4-1.5.6 0 1 .7 1 1.5zm-261.7 4.7c-.6 6.1-1.3 6-1.3-.1 0-2.9.4-5 .9-4.7.4.3.6 2.5.4 4.8zm82.4-2c-.3.7-.5.2-.5-1.2s.2-1.9.5-1.3c.2.7.2 1.9 0 2.5zm-271.4-1.5c-.7.2-1.9.2-2.5 0-.7-.3-.2-.5 1.2-.5s1.9.2 1.3.5zm9.4 3c-.3 1-.5.4-.5-1.2 0-1.7.2-2.4.5-1.8.2.7.2 2.1 0 3zm95.6-2.2c.4.8.3 1.6-.1 1.9s-.9-.4-.9-1.5c-.2-2.3.3-2.5 1-.4zm-119.6.1c-.3.3-1.2.4-1.9.1-.8-.3-.5-.6.6-.6 1.1-.1 1.7.2 1.3.5zm209.9 1c-.3.9-.6 1.8-.6 2 0 .3-.4.3-1-.1-1.1-.7-.2-3.5 1.2-3.5.6 0 .7.7.4 1.6zm155.4-1.2c0 .2-.8 1-1.7 1.7-1.6 1.3-1.7 1.2-.4-.4s2.1-2.1 2.1-1.3zm132 3.1c.5-.3 1.2-.1 1.5.5.4.6.1.9-.7.8-1.7-.4-2.3 4.5-.8 7.2 1 1.8 1.4 1.9 2.8.8 1.5-1.2 1.6-1.1.3.4-.7 1-1.7 1.5-2.2 1.2s-.9-.1-.9.5-.6.8-1.2.6c-.9-.4-1.2-2.2-1-5.3.2-2.6.3-6.1.4-7.7 0-2.3.1-2.5.5-.7.2 1.2.8 2 1.3 1.7zm-482.5-.6c-.3.6-2 1.1-3.6 1.1-1.8 0-2.8-.4-2.4-1s1.1-.8 1.6-.5c.5.4 1.7.2 2.6-.4 2-1.1 2.8-.7 1.8.8zm217.8 11.2c-.4.4-.6-2.4-.3-6.4l.5-7.2.3 6.4c.2 3.5-.1 6.8-.5 7.2zm43.8-8.8c-.8.8-1.1.3-1.1-1.9.1-2.5.2-2.7 1.1-1.1.8 1.4.8 2.2 0 3zm-52.7-2.5c.3.5-.1.9-.9.9s-1.2-.4-.9-.9c.3-.4.7-.8.9-.8s.6.4.9.8zm134 0c.3.5-.1.9-.9.9s-1.2-.4-.9-.9c.3-.4.7-.8.9-.8s.6.4.9.8zm-127.4 1.1c0 .6-.4 1.3-1 1.6-.5.3-1-.1-1-.9 0-.9.5-1.6 1-1.6.6 0 1 .4 1 .9zm35.5.1c.3.5.1 1-.4 1-.6 0-1.1-.5-1.1-1 0-.6.2-1 .4-1 .3 0 .8.4 1.1 1zm15.7 2.9c-.4 3.7-.5 3.8-2.1 2.3-1.7-1.6-1.7-1.8.2-4 1.1-1.2 2.1-2.2 2.2-2.2 0 0-.1 1.8-.3 3.9zm9.6-.9c-.2.6-.8.6-1.8 0-1.3-.9-1.3-1.1 0-2 1.5-1 2.5 0 1.8 2zm89.2 0c0 1.9-1.7 3.6-2.7 2.6-.3-.3-.2-1.3.2-2.3.5-1 .7-2.2.6-2.6-.1-.5.3-.6.9-.2.5.3 1 1.5 1 2.5zm-134.6-.4c.3.8.2 1.2-.4.9s-1-1-1-1.6c0-1.4.7-1.1 1.4.7zm-232.1.1c-.7.2-1.9.2-2.5 0-.7-.3-.2-.5 1.2-.5s1.9.2 1.3.5zm9.9 1.5c-.7.7-1.3 2.3-1.3 3.7-.1 2-.3 2.1-.6.7-.5-1.9 1.6-7 2.6-6.1.2.3-.1 1.1-.7 1.7zm249.1-.1c-.6.6-1.7.8-2.4.3-.9-.5-.8-.9.7-1.4 2.3-.9 3.1-.3 1.7 1.1zm211.1-.8c.3-.4.1.8-.5 2.6-1.3 3.7-1.4 3.7-2.3-.8-.5-2.7-.4-3.1.7-2.2.8.6 1.7.8 2.1.4zm-274 .6c.3.5-.1 1.4-.8 2-1.2 1-1.3.8-.9-.8.6-2.3.9-2.5 1.7-1.2zm289.6.1c0 .5-.5 1-1.1 1-.5 0-.7-.5-.4-1 .3-.6.8-1 1.1-1 .2 0 .4.4.4 1zm18 .5c0 .8-.2 1.5-.4 1.5s-.6-.7-1-1.5c-.3-.8-.1-1.5.4-1.5.6 0 1 .7 1 1.5zm-504.4.7c.4.6.3.8-.4.4-.5-.3-1.2-.1-1.4.4-.2.7-1 .6-2.1-.2-1.7-1.3-1.6-1.4.7-1.6 1.4-.1 2.8.3 3.2 1zm272.5 2c-.3 2.1-.6 2.6-.9 1.5-.3-1.7.3-4.7 1.1-4.7.2 0 .1 1.5-.2 3.2zm25.8-1.8c.8 1 .8 1.6-.2 2.4-1 .9-1.3.6-1.3-1.3 0-2.9 0-2.9 1.5-1.1zm27.4.4c1.5 1.7 1.5 1.8-.7 1.8-2.1 0-2.5-.8-1.7-3.4.2-.5.9-.1 2.4 1.6zm-72.3.9c0 .2-.5 1.3-1.1 2.4-.5 1.1-1 4.9-1 8.5 0 4.6-.4 6.4-1.2 6.1-.8-.2-1.1-2.6-1-6.8.1-3.5.2-7.6.2-9.1.1-2.1.5-2.5 2.1-2.1 1.1.3 2 .7 2 1zm10-1.3c0 .2-.8 1-1.7 1.7-1.6 1.3-1.7 1.2-.4-.4s2.1-2.1 2.1-1.3zm78.3 1.1c-.3.9-.8 1.4-1 1.1-.3-.3-.2-.9.2-1.5.9-1.6 1.5-1.3.8.4zm-334.8.5c-.3.5-1.2 1-1.8 1-.7 0-.6-.4.3-1 1.9-1.2 2.3-1.2 1.5 0zm200.5 1.5c-1.1 1.3-1 1.8.6 3s2.2 1.2 4.3-.2c1.6-1 2.2-1.1 1.9-.2-.8 2.3-4.3 2.8-6.7 1-2-1.6-2.2-2.1-1.1-4 .6-1.3 1.4-2 1.7-1.7s0 1.3-.7 2.1zm9-2.1c0 .3-.4.8-1 1.1-.5.3-1 .1-1-.4 0-.6.5-1.1 1-1.1.6 0 1 .2 1 .4zm157.4 3.4c-.9 2-1.1 2.8-1.3 4.4-.1 1-.4.9-1-.1-1.1-1.7-.6-4.8 1.1-6.8 1.5-1.8 2.4-.1 1.2 2.5zm-373.1-1.7c-1.6 1.6-6.7 2.1-5.4.5.5-.6 2.2-1.3 3.7-1.4 2.1-.2 2.5.1 1.7.9zm501.5 19.9c-2.5 3.2-5.5 3.9-6.4 1.5-.4-.8-1-1.3-1.4-1s-1.3-.2-2-1c-.9-1-.9-1.5-.1-1.5.6 0 1.1.4 1.1 1 0 .5.3.9.8.8.4-.1 1.6.3 2.8.9 1.8 1.1 2.4.8 4.2-1.7 1.8-2.4 2.2-4.5 2.4-11.7l.2-8.8.3 9.3c.3 8.4.2 9.6-1.9 12.2zm-516.5-17.5c-.7 2.1-1.2 1.9-1-.4 0-1.1.5-1.8.9-1.5s.5 1.1.1 1.9zm5.5 4.6.3 6.5-2.8-.2c-4.3-.2-4.3-.3-4.3-2.4 0-1.7.3-1.9 1.9-1 2.9 1.5 4.3 1.2 3.9-.8-.2-.9-1-1.6-1.6-1.5-.7.2-1.2-.2-1.2-.7 0-.6.7-1 1.5-1s1.5-.9 1.5-2-.7-2-1.5-2-1.5-.5-1.5-1.1.8-.9 1.8-.7c1.4.3 1.8 1.6 2 6.9zm402.7-5.1c-.3.5-1.3.6-2.1.3-1.2-.4-1.3-.8-.3-1.4 1.5-.9 3.2-.2 2.4 1.1zm-390.5 1.2c0 1.8-.2 2-.9.8-.6-.8-.7-1.8-.5-2.2.9-1.4 1.4-.9 1.4 1.4zm68.7 1c-.3.7-.5.2-.5-1.2s.2-1.9.5-1.3c.2.7.2 1.9 0 2.5zm48.6-1.2c-.3 1.1-.9 2.3-1.4 2.6s-.6-.2-.3-1c.4-1 .1-1.6-.7-1.7-.8 0-.5-.4.6-.9s2.1-.9 2.2-.9c0-.1-.1.8-.4 1.9zm2.8-.7c-.6.8-.7 1.8-.3 2.2.4.5.1.5-.6.1-1-.6-1-1.1-.1-2.2.6-.8 1.4-1.4 1.6-1.4.3 0 0 .6-.6 1.3zm134.6.9c-.3.8-.6.5-.6-.6-.1-1.1.2-1.7.5-1.3.3.3.4 1.2.1 1.9zm7.5 1c-.7.7-1 .5-.7-.8.5-2.9.6-3 1.2-1.6.3.8.1 1.8-.5 2.4zm104.4-1.7c-.3 2-1.6 3.1-1.6 1.3 0-1.3.8-2.8 1.6-2.8.1 0 .1.7 0 1.5zm18.9-.5c-.3.5-1.1 1-1.6 1-.6 0-.7-.5-.4-1 .3-.6 1.1-1 1.6-1 .6 0 .7.4.4 1zm-188.4 1.7c1.3 1.6 1.2 1.7-.3.4-1-.7-1.8-1.5-1.8-1.7 0-.8.8-.3 2.1 1.3zm125.9-.7c.3.1.9.2 1.3.1.5-.1.6.3.2.9-.5.8-1.1.8-1.9.1-.7-.6-1.5-.8-1.8-.5s-.9.1-1.2-.4c-.5-.9 1.4-.9 3.4-.2zm7.5-.1c.3.5.2 1.2-.3 1.5s-.9-.1-.9-.9c0-1.7.3-1.9 1.2-.6zm159.2 2.3c-.3.7-.5.2-.5-1.2s.2-1.9.5-1.3c.2.7.2 1.9 0 2.5zm-494-.4c-1 1-1.7 2.8-1.7 4s-.4 2.2-.9 2.2c-1.3 0-.1-4.1 1.7-6.3.8-.9 1.7-1.7 2-1.7s-.2.8-1.1 1.8zm369.1 4.6c.1-1.1.4-2.3.7-2.6 1.1-1 5.5 1.7 5.5 3.3s-2.6 3.4-4.2 3.1c-1.2-.3-1 2.2.2 3.4.8.8.5 1.5-.7 2.5-1 .7-1.5.9-1.1.5.4-.5.4-1.4-.1-2-1.1-1.4.5-5.9 1.9-5.1.5.3 1 .1 1-.4 0-1.4-.6-1.4-3.1 0-1.1.5-1.7 1.4-1.5 1.8.3.4-.2.8-1 .8-1 0-1.1-.4-.4-1.1.5-.5 1-2.8 1-5.1 0-2.9-.3-3.6-1-2.5-.5.8-1 1-1 .4 0-.5.6-1.6 1.3-2.3 1-1 1.3-.4 1.8 3.1.3 2.4.7 3.4.7 2.2zm131.9-5.8c-.3.3-1.2.4-1.9.1-.8-.3-.5-.6.6-.6 1.1-.1 1.7.2 1.3.5zm-237.6 3.7c-.8.8-1.1.7-1.1-.4 0-2 1.3-3.4 1.8-1.9.3.7-.1 1.7-.7 2.3zm31.6-1.4c-.1 2.2-2.9 2.1-3.2 0-.2-.8.6-1.6 1.6-1.6 1.1-.1 1.7.5 1.6 1.6zm-75.4 2c-1.8 1.9-1.9 1.9-1.9.1 0-1 .4-1.7.7-1.4.4.2 1.1-.1 1.4-.7.4-.5.9-.8 1.2-.5.3.2-.3 1.4-1.4 2.5zm40.4.8c-.3 1-.5.4-.5-1.2 0-1.7.2-2.4.5-1.8.2.7.2 2.1 0 3zm89.9-1.2c.1 1-.7 1.5-2.4 1.5-2.4 0-2.3-1.4.1-1.5.7-.1 1.1-.7.9-1.5s0-1.1.4-.7.9 1.4 1 2.2zm-20.6-.4c0 1.4-3.4 1.9-4.2.7-.6-1-.8-1-.9.2 0 1.1-.2 1.1-.6.2-.3-.9-.9-1-1.7-.3-.9.8-1.3.7-1.3-.2 0-.8 1.5-1.3 4.4-1.3 2.4 0 4.3.3 4.3.7zm75.3.8c-1.1.9-1.8 2.2-1.5 2.9.4 1.2-1 1.7-2.1.6-1-1 2.2-5.1 4-5.1 1.4 0 1.3.3-.4 1.6zm-276.9.3c-.3.4-1.1.5-1.9.1-2.1-.7-1.9-1.2.4-1 1.1 0 1.8.5 1.5.9zm127.8 5c-.6.6-1.1.2-1.5-1.1-.3-1.2-.1-1.9.4-1.5.5.3 1-.5 1-1.8.2-1.8.3-1.7.6.6.3 1.6 0 3.3-.5 3.8zm2.5-3c-.3.7-.5.2-.5-1.2s.2-1.9.5-1.3c.2.7.2 1.9 0 2.5zm75.9-1.7c-.3.8-.1 1.6.4 1.6.6.1 1.5.2 2.2.3.6 0 1.2.8 1.3 1.7.3 2-3.5 2-5.1 0-.8-1-1.1.2-1.1 4.8 0 6.6.8 8.2 2.9 5.4 2.3-3.1 4.5-2.5 3.9 1-.1.5.3.6.9.2.6-.3.7-1.2.3-1.8-.4-.7.2-.5 1.2.3 1.3 1 1.6 1.1 1.1.2-.6-.9-.3-1.2.9-1 1.8.3 3-2.8 1.5-3.7-.5-.3-.7.4-.5 1.5s0 1.8-.6 1.5c-.5-.4-.7-1.1-.4-1.6.4-.5.1-.9-.4-.9-.6 0-1.1.6-1.1 1.2 0 1-.2 1-.8.1-.5-.8-1.3-.9-2.2-.3-.9.5-1.9.5-2.8-.2-.7-.6-1.2-.7-1.1-.2.4 2.1-.2 3.5-1.2 2.9-1.4-.9 1.2-4.7 3.4-5.1.9-.1 1.5.2 1.1.7-.3.5 0 .9.5.9.6 0 1.1-.6 1.2-1.3 0-.9.2-.9.6.1.2.6.9 1 1.4.6 1.7-1 5-1.3 4.4-.3-.4.5-.2.9.4.9.5 0 1.2-.4 1.6-1 .3-.5 1.3-.6 2.2-.3 1.2.5 1.4.3.8-.7-.5-.9-.4-1.1.4-.6.6.4.9 1.2.6 1.7s.1.6.9.3c.9-.3 1.6-1.1 1.6-1.8s.3-.7.8.2c.7 1 .8 4.2.3 8.4-.1.4-4.7.7-10.3.7-14.1-.1-13.3-.3-13.3 3-.1 1.6.3 2.7.8 2.4.4-.3 1.1.5 1.4 1.7l.6 2.2 1.2-2.2c.8-1.5 1.5-1.9 1.9-1.1.4.6.2 1.1-.4 1.1s-.8.5-.5 1c.9 1.4 3.8-.9 3.2-2.5-.3-.6.5-1.1 1.9-1.1 1.3 0 2.4.2 2.4.5 0 .4.4 1.2.9 2 .7 1.1 1.3.9 3.1-.9l2.3-2.3 1.2 2.3 1.2 2.2.6-2.1c.3-1.1.1-1.9-.4-1.5-.5.3-.9-.2-.9-1s-1.2-1.6-2.7-1.9c-1.9-.3-1.4-.4 1.5-.6l4.4-.1-.6 4c-.4 3.1-.2 3.9.7 3.4.6-.4.9-.3.4.1-1.3 1.5-5 1.6-5.9.3-.6-1-.8-1-.8-.1 0 1.6-5.6 1.7-6.5.3-.4-.6-1.2-.7-1.8-.3-2 1.5-6.7 1.5-8.4.1-1.2-.9-1.5-1-.9-.1.4.7.3 1.3-.2 1.3-.6 0-.9-5.4-.8-13.3.1-9.9.4-13.1 1.4-13 .6.2 1.2-.2 1.2-.7 0-.6.3-1 .6-1s.4.7 0 1.5zm167.4 0c0 .8-.7 1.5-1.5 1.5s-1.5-.7-1.5-1.5.7-1.5 1.5-1.5 1.5.7 1.5 1.5zm-279.9 9.2c-.8 1.4-.9.9-.6-2.2.6-7.3.8-8 1.2-3.8.2 2.4 0 5.1-.6 6zm265.9-6.7c0 3.2-2 4-5 2-1.3-.8-1.3-1 .2-1 .9 0 2-.9 2.3-2 1-3 2.5-2.4 2.5 1zm-96.5-.3c-.2 1-.4 1.9-.4 2.1-.1.2-.6 0-1.1-.3-.8-.5-.7-1.1.1-2.1 1.5-1.8 1.8-1.8 1.4.3zm-304.5-.1c0 .8-1.9 1.3-2.4.6-.3-.5.1-.9.9-.9s1.5.2 1.5.3zm48.3 1c-.3.9-2.3 1.3-3.6.6-.4-.2-.5-.7-.2-1.2.7-1.1 4.1-.6 3.8.6zm190.6.1c-.6.7-1.5 1-2 .7-1.3-.8-.3-2.1 1.5-2.1 1.2 0 1.3.4.5 1.4zm17.5-.4c-.5.8-.3.8.7-.1 2-1.8 3.8-1.5 3.2.7-.7 2.6-7.2 2.8-7 .2 0-.9.9-1.8 1.9-1.8 1.2-.1 1.6.3 1.2 1zm12.9 1.3c-.4 1-.9 1.2-1.5.6-1.2-1.2-.1-3.5 1.2-2.7.5.3.6 1.3.3 2.1zm39.7-1c-.3.5-.8.8-1.2.6-.5-.1-.8.5-.8 1.4 0 .8-.5 1.2-1 .9-.8-.5-.8-1.1-.1-1.9.6-.7.8-1.5.5-1.9-.3-.3.2-.4 1.3-.3 1 .2 1.6.7 1.3 1.2zm-316 0c0 .8-1.9 1.3-2.4.6-.3-.5.1-.9.9-.9s1.5.2 1.5.3zm46.6.6c.3.4-.1.5-1 .4-.8-.1-1.8-.5-2.2-.8-.3-.4.1-.5 1-.4.8.1 1.8.5 2.2.8zm202.7.9c-.8.8-1.3.7-1.8-.2-.5-.8-.4-1 .3-.5.7.4 1.2.2 1.2-.5s.3-.9.7-.6c.4.4.2 1.2-.4 1.8zm172.7-.2c0 2.6-1.6 3.5-2.4 1.5-1-2.5-.7-3.4.9-3.4.8 0 1.5.9 1.5 1.9zm-430.3 2.3c-.3.7-.5.2-.5-1.2s.2-1.9.5-1.3c.2.7.2 1.9 0 2.5zm14.1-1c-.5 1.5-3.6 1.9-4.5.6-.4-.7.2-.9 1.5-.6 1.2.4 2.2.2 2.2-.3s.3-.9.6-.9.4.5.2 1.2zm38.5.2c1.1-.1 1.6 0 1.2.4-1.3 1.3-5.5.9-5.5-.6 0-1 .4-1.2 1.3-.5.6.6 2 .9 3 .7zm-49.8.6c.3.5.1 1-.4 1-.6 0-1.1-.5-1.1-1 0-.6.2-1 .4-1 .3 0 .8.4 1.1 1zm57.9-.2c.3.5-.1.9-.9.9s-1.2-.4-.9-.9c.3-.4.7-.8.9-.8s.6.4.9.8zm10.3-.2c-.3.3-1.2.4-1.9.1-.8-.3-.5-.6.6-.6 1.1-.1 1.7.2 1.3.5zm-14.6 4.6c.3.1 1.2-.2 2-.8 2.4-2 8.6-.4 8.6 2.1 0 1-.5 1.1-1.6.5-.9-.5-2.3-.4-3.3.1-1.2.7-1.8.6-1.8-.2 0-.9-.3-.9-1.4 0-1 .9-1.6.8-2.6-.4-.7-.8-1.9-1.5-2.6-1.5-.8 0-1.4-.5-1.4-1 0-1 .9-.7 4.1 1.2zm270.3 3.4c.3 2.7.5 5.9.5 7 .1 1.2.8 2.4 1.6 2.8.8.3 1.4.1 1.2-.4-.1-.5.9-2 2.3-3.2 1.4-1.3 2-1.9 1.4-1.5-.8.5-1.2.3-1-.7.3-2.4 1.2-2.8 2.6-1 1.6 1.8 2.1 5.4.8 5.4-.4 0-.8.7-.8 1.5 0 1.1-1.2 1.5-4.8 1.5h-4.8l-.1-8.6c-.1-9.3.4-10.6 1.1-2.8zm112.6-5.2c0 .3-.4.8-1 1.1-.5.3-1 .1-1-.4 0-.6.5-1.1 1-1.1.6 0 1 .2 1 .4zm-447.2 1.3c-1 .2-2.6.2-3.5 0-1-.3-.2-.5 1.7-.5s2.7.2 1.8.5zm7.9-.1c-.3.3-1.2.4-1.9.1-.8-.3-.5-.6.6-.6 1.1-.1 1.7.2 1.3.5zm9 0c-.3.3-1.2.4-1.9.1-.8-.3-.5-.6.6-.6 1.1-.1 1.7.2 1.3.5zm293.5 5.9c-1.2 2.2-2.2 3.1-2.5 2.3-.4-.9-.6-.7-.6.4-.1.9.3 1.9.8 2.2 1.1.7.2 4.6-1 4.6-1 0-1.2-6.4-.2-9.8.4-1.8.8-2 1.4-1 .6.9.9.7.9-.9 0-1.2.6-2.3 1.3-2.6 2-.7 1.9.9-.1 4.8zm65.2-4c-.4.8-.1 1.5.5 1.5s1.1.5 1.1 1.1c0 .8-.4.9-1.3 0-.8-.6-1.7-.8-2-.4-.4.3-.7.2-.7-.3 0-.9 2-3.4 2.7-3.4.1 0 0 .7-.3 1.5zm70.2.6c1.9 2.2 1.9 2.2-.3.8-1.3-.8-2.3-1.7-2.3-2.1 0-1.2.6-.9 2.6 1.3zm-422.9 6.4c.1 6.4-.1 7.5-1.5 7.6-1.3.1-1.4.2-.2.5 1.2.4 1.6 2.9 1.8 12.9l.3 12.5h-6.5c-7.1 0-6.9.1-6.8-6 .1-9.7.2-10 2.1-10 1 0 2.1.9 2.4 2 .5 2.1 2.7 2.8 2.7.9 0-.5-.4-.7-1-.4-.5.3-1-.1-1-.9 0-1.8 1.1-2.1 2.6-.6.6.6.9-.7 1-3.5 0-2.5-.4-4.5-.8-4.5s-.8.6-.8 1.2c0 .9-.4.8-1-.2-.8-1.3-1.3-1.3-3.1-.2-1.1.8-1.8.9-1.4.3.3-.7-.2-1.1-1.3-1.1-1.9 0-3.8 2.7-2.7 3.8.3.3.5 0 .5-.7s.4-1 .8-.7c1.2.7.2 7.6-1.2 7.7-.6 0-3.1 0-5.6-.1-5-.2-8.2-2-3.5-2 3.3 0 2.7-1.2-.7-1.4-1.3-.1-2.3-.7-2.3-1.6 0-1.2 1.2-1.5 5.3-1.4 5.3.1 6.1-.3 4-2.4-.9-.9-1.5-.9-2.5 0-1.1.9-1.3.8-1.1-.3s-1.1-1.4-5.9-1.4c-3.3 0-6.5-.3-6.9-.8-.4-.4 6.4-.7 15.1-.7s15.5-.3 15.1-.7c-.3-.4-2-.7-3.7-.8-1.6-.1-3.6-.9-4.5-1.8-.8-.9-1.1-1.5-.8-1.2 1 .6 3.4-2.1 3.4-3.9 0-.8.5-1.8 1-2.1.6-.4 1 .6 1 2.2 0 2 .3 2.4.9 1.4.5-.8.7-2 .4-2.8-.3-.7.2-1.3 1.1-1.3s1.6-.8 1.7-1.8c0-1.4.2-1.4.9.3.8 2 .9 2 .9-.1.1-1.7.9-3.4 1.6-3.4 0 0 .2 3.4.2 7.5zm-12-1.8c-.3 1-.5.2-.5-1.7s.2-2.7.5-1.8c.2 1 .2 2.6 0 3.5zm205.7-3.1c.3.8.2 1.2-.4.9s-1-1-1-1.6c0-1.4.7-1.1 1.4.7zm88.7 1.3c-.4 1.4-.6 3.7-.5 5.1s-.1 2.9-.4 3.5c-.4.5-.7 1.6-.8 2.3-.2.8-.5 1.7-.8 2-.4.3-.4-.5-.2-1.9.2-1.3.5-2.4.6-2.4.7 0 .6-5.6-.1-6-.5-.4-.5-1.3.1-2.4.5-1 .7-2 .5-2.3-.3-.3.1-.5.9-.5 1 0 1.2.8.7 2.6zm-106.1-1.1c0 .5-.7.9-1.5.9s-1.2-.4-.9-.9c.3-.4.9-.8 1.5-.8.5 0 .9.4.9.8zm138.8 1.7c-.3.3-.9-.2-1.2-1.2-.6-1.4-.5-1.5.5-.6.7.7 1 1.5.7 1.8zm48.3-.2c-1 .9-1.1.8-.5-.6.3-1 .9-1.5 1.2-1.2s0 1.1-.7 1.8zm58.2 5.4c-.7 1.6-.8 1.6-1.1-.2-.7-4-1.2-5-2.1-3.7-.4.7-1.5 1-2.4.6-2.1-.8-2.2-2.4-.1-2.4.9 0 1.3-.5.9-1.3-.4-.6.7.3 2.4 2 2.1 2.3 2.8 3.8 2.4 5zm-372.7-4.1c0 1.3-.4 2-.8 1.8-.4-.3-.9 0-.9.5-.1.6-.3 1.5-.4 2.1-.1.5-.3 1.3-.4 1.7-.1.5-1.1-.3-2.2-1.7-1.6-2.1-1.9-2.2-1.7-.6.2 1.1-.4 2-1.3 2.1-.9.2-1.5-.4-1.4-1.4.2-2.5 1.5-4.2 2.7-3.5.7.4.8.2.4-.4-.9-1.5.6-1.6 2-.2.7.7 1.1.6 1.1-.3s-1.4-1.3-4.3-1.3c-2.4 0-4.1.3-3.8.7.3.5 1.2.5 2.2.2 1.5-.6 1.5-.4.4.9-.7.9-2.2 1.5-3.2 1.3-2.5-.5-3.5 1.2-2 3 1 1.2.9 1.5-.8 1.5-1.5 0-2-.5-1.6-1.5.4-.8.2-1.5-.4-1.5s-.9-.8-.8-1.8c.2-.9.7-1.5 1.2-1.4.5.2.8.9.6 1.5-.2.7.2.6 1.1-.1.8-.7 1.8-.8 2.3-.4.4.4.2-.1-.5-1-.7-1-1.7-1.6-2.1-1.3-.5.3-1.1.1-1.5-.5s2.5-.9 7.8-.8c7.9.2 8.3.3 8.3 2.4zm2.8-1.1c-.4.8-1 1.2-1.5.9-1.1-.6-.2-2.4 1.1-2.4.5 0 .7.7.4 1.5zm322.6-.5c0 .5-1.5.9-3.2.9l-3.3-.1 3-.8c1.7-.4 3.1-.8 3.3-.9.1 0 .2.3.2.9zm49.7 2.2c-.3.8-.6.5-.6-.6-.1-1.1.2-1.7.5-1.3.3.3.4 1.2.1 1.9zm-445-.6c-.3.3-1.2.4-1.9.1-.8-.3-.5-.6.6-.6 1.1-.1 1.7.2 1.3.5zm200.3 1.6c0 1.8-.2 2-.9.8-.6-.8-.7-1.8-.5-2.2.9-1.4 1.4-.9 1.4 1.4zm109.1 1.4c-.5 1.6-1 2.1-1 1.2-.1-1.8 1-5.1 1.5-4.5.2.1-.1 1.6-.5 3.3zm-104.4-2c-.3.3-1.2.4-1.9.1-.8-.3-.5-.6.6-.6 1.1-.1 1.7.2 1.3.5zm6 0c-.3.3-1.2.4-1.9.1-.8-.3-.5-.6.6-.6 1.1-.1 1.7.2 1.3.5zm5.6.1c-.7.2-2.1.2-3 0-1-.3-.4-.5 1.2-.5 1.7 0 2.4.2 1.8.5zm57.7.3c0 .5-1 1-2.2 1.2-1.3.2-2.2.9-2 1.7.3 1.2 0 1.2-1.2.2-.8-.7-1.3-1.8-1-2.4.5-1.4 6.4-1.9 6.4-.7zm4.4.2c-.3.4-.9.8-1.5.8-.5 0-.9-.4-.9-.8 0-.5.7-.9 1.5-.9s1.2.4.9.9zm-279.8 3.5c-1.1 1.1-1.9-.6-1.1-2.4.8-1.7.8-1.7 1.2 0 .3 1 .2 2.1-.1 2.4zm3.9.2-.7 3.1-12.1-.2-12.2-.2 11.8-.3c11.5-.4 11.7-.4 11.7-2.7s.9-4 1.8-3.2c.2.3.1 1.8-.3 3.5zm125.1-1.5c-.2 1.7.3 2.6 1.5 2.9 1.1.3 2.2.1 2.5-.4s0-.8-.6-.7c-.7.2-1.4-.8-1.6-2.2-.3-2.2-.3-2.3.7-.6.9 1.5 1.3 1.6 2 .5.6-1 .8-.6.5 1.1-.3 1.4-.5 2.8-.5 3.1-.1.4-1.6.7-3.4.7-3.1 0-3.3-.1-2.9-3.4.2-1.9.8-3.4 1.2-3.4.5 0 .7 1.1.6 2.4zm209.4-1.4c0 .4-.6 1.2-1.3 1.8-1 .8-1.3.6-1.3-.7 0-1 .6-1.8 1.3-1.8s1.3.4 1.3.7zm9.4 1.1c-.3.5-1 .6-1.6.3-.5-.4-.2.5.7 2 1.7 2.5 1.7 2.6-.2 2.6-2.5 0-3.5-.9-2.5-2.4.7-1.1.8-1.6 1.1-3.6 0-.5.8-.7 1.6-.4.8.4 1.2 1 .9 1.5zm-149.4-.3c0 1.3-1.2 2.2-2.2 1.6s-.1-2.4 1.3-2.4c.5 0 .9.4.9.8zm11.6.5c.8-.3 1.4 0 1.4.7 0 1.5-3.3.9-3.6-.8-.1-.7 0-.8.2-.3.3.6 1.2.7 2 .4zm236.1 2.4c-.3 1-.5.4-.5-1.2 0-1.7.2-2.4.5-1.8.2.7.2 2.1 0 3zm-438.7.1c0 1.9-.5 2.9-1.5 2.9-1.8 0-1.8.1-.5-3.1 1.2-3.4 2-3.3 2 .2zm92.2-1.3c.3 0 .8.2 1 .5s.1.4-.1.3c-.2-.2-1.1.3-2 .9-.9.7-1.3.8-.9.4.4-.5.2-1.6-.5-2.4-1-1.3-.9-1.4.3-.7.8.6 1.8 1 2.2 1zm106.8 1.9c0 .6-.5.4-1-.4-.9-1.3-1-1.3-1.1 0-.1.8-.1 1.9 0 2.3.1.5-.2.6-.7.3-.7-.4-.8-3-.3-5.5.2-.8 3.1 2.2 3.1 3.3zm12-.4c0 3-1.1 3.6-4.3 2.4-1.2-.4-1.2-1-.3-3 1.6-3.5 4.6-3.2 4.6.6zm-77.6 1.1c-1 1.6-2.3.9-2.1-1 .1-1.5.4-1.7 1.4-.9.7.5 1 1.4.7 1.9zm60.6 8.1c-.6 3.5-.8 2.9-.8-3.7 0-5.9.2-7.1.7-4.3.4 2 .4 5.6.1 8zm41.3-8.2c-.7 2.8-1.3 2.5-1.3-.6 0-1.4.4-2.3.9-2s.7 1.5.4 2.6zm-264.3-.5c0 .6-.8 1.1-1.8 1.1s-1.9-.5-1.9-1.1.9-1.1 1.9-1.1 1.8.5 1.8 1.1zm170.7 1.1c-.9.9-2.8-.6-2.1-1.8.4-.6 1-.6 1.7.1.6.6.8 1.3.4 1.7zm9.3-.5c0 .6-.4.7-1 .4-.5-.3-1-1.1-1-1.6 0-.6.5-.7 1-.4.6.3 1 1.1 1 1.6zm37.9-.5c.2.2 1.1-.2 1.9-.8 1.2-1 1.4-.9 1.1.7-.4 1.6-1.2 1.9-6.2 1.8-8.4-.1-8.9-.2-8.2-1.2.3-.6 1.4-.8 2.5-.6s2.2 0 2.5-.6c.5-.8 5.2-.3 6.4.7zm223.8-.1c0 .8-.4 1.2-.9.9s-.6-1-.3-1.5c.9-1.3 1.2-1.1 1.2.6zm-264.7.7c0 .4-.7.8-1.5.8s-1.5-.4-1.5-.8c0-.5.7-.9 1.5-.9s1.5.4 1.5.9zm155.6 1.3c0 2.6-1.1 3.4-1.9 1.2-.5-1.4.2-3.7 1.2-3.7.4 0 .7 1.1.7 2.5zm84.4-1.5c0 .5-.4 1-1 1-.5 0-1-.5-1-1 0-.6.5-1 1-1 .6 0 1 .4 1 1zm-3.6 1.2c-.3.4-.9.8-1.5.8-.5 0-.9-.4-.9-.8 0-.5.7-.9 1.5-.9s1.2.4.9.9zm-257.4 2.8c0 .5-.8.7-1.7.5-1-.2-2.9-.4-4.3-.4-1.7-.1-2.1-.4-1.2-.9 1.5-1 7.2-.3 7.2.8zm253-.5c0-.6 2-1 4.5-1 4.3-.1 5.6.7 3.5 2-.5.3-1 0-1-.7 0-.8-.3-.9-.8-.3-.4.6-2 1.1-3.7 1-2.4 0-3.1.5-3.3 2.5-.3 2-.2 2.2 1.1 1.2 1.8-1.5 3-.2 1.6 1.8-1.3 2.3-1.1 2.9 1.1 2.7 1.2-.1 1.6-.5 1.1-1s-.7-1.6-.4-2.3c.4-1.1.9-1.2 1.9-.3 1.2 1 1.3.8.8-.7-.4-1.4-.3-1.5.4-.6.6.9.5 2.6-.4 5-.7 2-1.3 4.5-1.4 5.4 0 2.7-8 2.3-8-.4 0-1 .5-1.8 1-1.8.6 0 1 .5 1 1.2 0 .6.3.8.7.5.3-.4-.1-1.5-.9-2.4-1.6-1.8-2.2-8.1-1.1-11.7.4-1.5.7-1.6 1.4-.5.5.8.9.9.9.4zm36.4-.7c.3.5-.1.9-.9.9s-1.2-.4-.9-.9c.3-.4.7-.8.9-.8s.6.4.9.8zm-495.9 1.2c.3.5.1 1-.4 1-.6 0-1.1-.5-1.1-1 0-.6.2-1 .4-1 .3 0 .8.4 1.1 1zm57 0c-.6 1-5.4.9-6.1-.1-.2-.5 1.1-.8 3-.7s3.3.4 3.1.8zm220.5-.6c0 .3-.4.8-1 1.1-.5.3-1 .1-1-.4 0-.6.5-1.1 1-1.1.6 0 1 .2 1 .4zm9 .6c.3.2 1.2.3 2 .4 1 .1 1.6 1.4 1.8 4.2.3 4 .3 4.1-2.8 3.6-3-.4-3.9-1.6-2-2.7.7-.4.7-1.2 0-2.4-.5-1-.6-2.1-.3-2.5 1-.9-1-.7-2.7.3-1.5 1-3.3.5-2.6-.8.4-.6 5.5-.7 6.6-.1zm92.6 1.5c.1.8-.9 2.1-2.2 3-2.8 1.8-3.4 0-.6-2.2 1-.8 1.1-1.1.2-.7-1.3.7-1.3.6-.1-.9 1.5-1.8 2.4-1.6 2.7.8zm27.2-1.3c1.8 1.8 4.2 1.8 4.3 0 0-1.4.2-1.3.9.3.8 1.9.9 1.9.9.1.1-2 .1-2 1.6 0 1.1 1.5 1.4 1.6 1.5.4 0-.9 1-1.6 2.4-1.8 1.8-.1 2.3.3 2.2 1.6-.2 1.1-1.3 1.8-3.2 1.9-1.6 0-3.7.2-4.6.2-1.3.1-1.8.9-1.8 2.9 0 1.6-.9 4.7-2 7-1.1 2.2-2 5-2 6.2 0 1.1-.4 2-.9 2-1.1 0-1.9-8-.9-8.6.4-.3.8-1.4.8-2.5s-.3-1.8-.8-1.5c-1 .6-.8-5.6.3-7.3.5-1 .4-1.2-.3-.7-.7.4-1.2.2-1.2-.3 0-1.4 1.3-1.4 2.8.1zm-341.8 2.2c0 .3-.4.8-1 1.1-.5.3-1 .1-1-.4 0-.6.5-1.1 1-1.1.6 0 1 .2 1 .4zm146.5.5c.3.5.2 1.2-.3 1.5s-.9-.1-.9-.9c0-1.7.3-1.9 1.2-.6zm66.9 1.2c-.2.4 0 1 .6 1.4.5.3 1-.1 1-1 0-2.5 3.2-1.4 3.6 1.2.4 2.1 0 2.3-4.1 2.3-4.2 0-5.8-1.1-3.5-2.5.6-.4.8-1 .6-1.4-.3-.4.1-.8.9-.8s1.2.4.9.8zm-242.1 1.4c-.3.9-.8 1.4-1 1.1-.3-.3-.2-.9.2-1.5.9-1.6 1.5-1.3.8.4zm178.3-.3c.4.7.4 1-.1.6-.4-.4-1.5-.2-2.4.5-1.4 1.1-1.4 1-.2-.6 1.6-2 1.8-2.1 2.7-.5zm-165.2 1.4c.8 2.2 0 3-1.7 1.6-.8-.7-1.6-.9-1.9-.6s-.9 0-1.4-.7c-.4-.7-.3-1 .4-.5.6.3 1.3.2 1.7-.4.9-1.5 2.2-1.2 2.9.6zm10.8.6c-.3 1.3-1 2.6-1.6 3-.8.5-.7.8.2.8.6 0 1.2.7 1.2 1.5s.5 1.5 1 1.5c.6 0 1 .9 1 1.9s.7 2.1 1.5 2.5c.8.3 1.5 1.7 1.5 3.1 0 2.4-.2 2.5-6.5 2.5-5.9 0-6.5-.2-6.5-2 0-1.2.6-3.3 1.3-4.8s1.2-3.7 1.1-5c-.1-1.2.1-2 .5-1.6.6.5.7.9 1 3.5 0 .5.6.7 1.2.3.6-.3.8-1.5.6-2.6-.6-2.1 1.1-6.8 2.4-6.8.4 0 .5 1 .1 2.2zm322.8-.2c-.6 1.1-1.6 1.7-2.2 1.4-.7-.5-.5-1.2.7-2.1 2.5-1.8 2.8-1.7 1.5.7zm37.5-1c.4.6-1.2 1-3.9 1-2.5 0-4.6-.5-4.6-1 0-.6 1.8-1 3.9-1 2.2 0 4.3.4 4.6 1zm-399.1.8c.3.5-.1.9-.9.9s-1.2-.4-.9-.9c.3-.4.7-.8.9-.8s.6.4.9.8zm11.1.1c.3.5.2 1.2-.3 1.5s-.9-.1-.9-.9c0-1.7.3-1.9 1.2-.6zm-3 1.1c.3.5.1 1-.4 1-.6 0-1.1-.5-1.1-1 0-.6.2-1 .4-1 .3 0 .8.4 1.1 1zm12 0c.3.5.1 1-.4 1-.6 0-1.1-.5-1.1-1 0-.6.2-1 .4-1 .3 0 .8.4 1.1 1zm374.5 1.1c0 .6-2.5 1.9-3.6 1.9-.2 0-.4-.6-.4-1.3s.9-1.3 2-1.3 2 .3 2 .7zm-416.4 2.5c.1.9 0 1.3-.4 1-.3-.4-.7-1.4-.8-2.2-.1-.9 0-1.3.4-1 .3.4.7 1.4.8 2.2zm274.7-.1c-.7 2.1-1.3 1.9-1.3-.6 0-1.1.4-1.8 1-1.4.5.3.7 1.2.3 2zm146.2.5c-.2 2.7-1.5 5.7-1.5 3.3 0-.6-1.7-.8-4.2-.6-3.7.4-4 .3-2.9-1.1.8-.9 2.6-1.6 4.2-1.6 2.9 0 3.9-1.4 1.7-2.3-.7-.3-.4-.6.8-.6 1.7-.1 2 .4 1.9 2.9zm-421.6 2.4c.6.4.8 1.3.4 2.2-.4 1.2-.8 1.1-2.1-.7-1.2-1.7-1.6-1.8-2.4-.8-.8 1.1-.8 1.1-.4-.1.3-.8.9-2.4 1.3-3.4.6-1.9.7-1.9 1.4.1.4 1.2 1.2 2.4 1.8 2.7zm30.6-2.4c-1.5 2.4-1.3 4.7.3 4.6.9 0 1.6.4 1.5 1s.5 1.1 1.2 1.1c1.1 0 1.2-.4.3-1.4-.8-1-.8-1.7.1-2.6 1.5-1.5 3.2.8 2.4 3.2-.4 1.3-.2 1.3.7-.1 1-1.6 1.2-1.6 3 0 1.1.9 2 2.7 2 4 0 2.2-.2 2.3-8.2 2-7.8-.3-8.1-.4-8.5-2.8-.2-1.9-.1-2.2.7-1s1 1 1.2-1c.1-1.4.2-3.2.4-4 .1-.8.2-2.1.3-2.8.1-.6.8-1.2 1.7-1.2.8 0 1.2.4.9 1zm51.5 2c0 .8-1 2-2.2 2.5-1.3.6-2.2 2.1-2.4 3.9-.4 3.5-.1 3.3-4.9 3.8l-4 .3-.1-6-.1-6h6.8c5.5 0 6.9.3 6.9 1.5zm410.8 1.5c-.3.3-.9-.2-1.2-1.2-.6-1.4-.5-1.5.5-.6.7.7 1 1.5.7 1.8zm-252.7.7c-.4 1.3-.6 3-.3 3.8.5 1.3.3 1.3-1.1.1-1.1-.9-1.7-1-1.7-.2 0 .6-.4 1.1-1 1.1-.5 0-1-.7-1-1.6 0-2.2 2-4 5.7-5.3.1-.1-.1.9-.6 2.1zm3.9-.7c.4-.3 1 .2 1.4 1 .3.8.2 1.5-.2 1.5-1.2 0-3.2-2.3-3.1-3.5 0-.5.3-.4.6.3.2.6.8 1 1.3.7zm267.1 1.7c-.3 2.1-.6 2.6-.9 1.5-.3-1.7.3-4.7 1.1-4.7.2 0 .1 1.5-.2 3.2zm-488.1-1.1c0 1.5-1.8 1.9-2.3.6-.3-.8.1-1.4.9-1.4s1.4.4 1.4.8zm262.7 1.4c0 .8-.4 1.5-.9 1.5-1 0-1.1-1.4-.1-2.3.9-1 1-.9 1 .8zm128.7.9c-.6 1.5 3.3 2.9 4.1 1.5.3-.4 1.2-.6 2.1-.2 2.6 1-.5 3.3-4.5 3.3-3.6 0-3.7-.1-3.3-3.5.2-1.9.8-3.2 1.3-3 .4.3.6 1.2.3 1.9zm-45.9-.4c-.3.5-1.1 1-1.6 1-.6 0-.7-.5-.4-1 .3-.6 1.1-1 1.6-1 .6 0 .7.4.4 1zm92.3.4c.3.3-1.1.6-3.2.6-2 0-3.5-.4-3.2-.9.6-.9 5.4-.7 6.4.3zm-456.4 2.1c-.2 1.4 0 2.5.5 2.5s1.1-1 1.3-2.3c.4-2.7 2.1-2 2.3 1 .1 2.1-.3 2.2-6.6 2.1-4.8-.1-6.6-.5-6.6-1.5 0-.9.4-1 1.1-.3 1.3 1.3 2.9 1.3 2.1.1-.3-.6.3-.8 1.3-.6s2.5-.1 3.3-.6 1-.9.6-.9c-.5 0-.5-.5-.2-1 1-1.7 1.4-1.1.9 1.5zm249.1-1.5c.3.5.2 1-.4 1-.5 0-1.3-.5-1.6-1-.3-.6-.2-1 .4-1 .5 0 1.3.4 1.6 1zm211.2-.4c-.3.3-1.2.4-1.9.1-.8-.3-.5-.6.6-.6 1.1-.1 1.7.2 1.3.5zm-441.6 2.7c.6 1 .5 1.8-.1 2.2-.5.3-1-.3-1-1.5s-.4-1.8-1.1-1.5c-.6.4-.8 1.3-.5 2.1.4 1.2-.3 1.4-3.4 1.2-2.5-.1-4-.7-4-1.5 0-.9.6-1 2.7-.2 2.6 1 4.9-.4 3.7-2.2-.2-.4.3-.6 1.2-.5s2 1 2.5 1.9zm210.4-1.2c-.4.6.2 1.3 1.4 1.6 2.2.6 2.8 2.7 1.1 3.8-1.1.7-4.2-4.9-3.3-5.9 1-1 1.5-.7.8.5zm145.2.7c-2.4 2.6-2.1 3.5 1.6 5.6 1.7 1.1 4.1 3 5.2 4.4 1.9 2.2 2.2 2.3 3.4.8 1.1-1.4 1.1-1.6-.3-1.6-1.8 0-2.2-2.5-.5-3.6.6-.3 1.8.2 2.7 1.2 1.6 1.7 1.6 1.7-.3.3-1.8-1.3-1.9-1.3-.6.3.7 1 1.7 1.5 2.2 1.2 1.7-1 6.8 3.6 7.1 6.4.2 2 .8 2.6 2.3 2.5 2.3-.3 6.5 1.6 6.5 2.9 0 .5-.4.6-1 .3-.5-.3-.7 0-.4.8.4 1.2-.8 2.1-5.9 4.5-.5.3-.4-.5.2-1.6.8-1.6.7-2.1-.4-2.6-.8-.3-1.5-1.3-1.5-2.1 0-.9-.5-1.3-1-1-.6.4-.8 1.1-.5 1.6s-.1.6-.9.3c-.9-.4-1.8.1-2.2 1-.3.9-1.4 1.6-2.3 1.6-2.2 0-10.4-6.7-9.1-7.5.5-.3 1.3.1 1.6.9.3.9 1.9 2.2 3.5 3 2.5 1.2 3 1.2 4.1-.2 1.1-1.5 1.1-1.5-.3-.4-1.4 1-1.8 1-2.4-.5-.5-1-.7-2.7-.6-3.8.1-1.6-.5-2-3.1-2.2-2.3 0-4.1-1.1-6.5-3.7-1.8-2-4-3.6-4.8-3.6-2.2 0-1.9-.7 1.8-4 3.6-3.3 4.8-3.9 2.4-1.2zm31.1.7c-.2 1.8-.7 2.4-1.8 2-1.2-.5-1.2-.3.2 1.1 1.1 1.1 2.2 1.4 3.5.9 4.4-2 12.5-.5 9.1 1.6-1 .7-1 .9 0 .9.8 0 1.2 1.9 1.2 6 0 3.3-.3 6-.6 6s-2.9-1.7-5.9-3.8c-5.4-3.7-7.1-6.2-5.4-7.9.6-.6.4-1-.5-1-.8 0-1.3.4-1 .9.6 1 .1 1-2 .2-.9-.3-1.6-1-1.6-1.6 0-.5.5-.6 1-.3.6.3 1 .1 1-.4 0-.6-.4-1.1-.8-1.1-.5 0-.9-.7-.9-1.4 0-.8.3-1.5.6-1.4 2 .2 3.1-.4 3.1-1.7 0-.8.2-1.5.5-1.5s.4 1.1.3 2.5zm-359.8-1.1c0 .2-.8 1-1.7 1.7-1.6 1.3-1.7 1.2-.4-.4s2.1-2.1 2.1-1.3zm31.3 1c.3.8-.1 1.7-1 2-2 .8-2.5.3-1.7-1.8.8-2 2-2.1 2.7-.2zm38.2.6c1 1.1 1.6 2 1.3 2s-1.3-.9-2.3-2-1.6-2-1.3-2 1.3.9 2.3 2zm263.4-.6c1 1.2.8 1.3-.8.9-1.2-.3-1.8-.9-1.5-1.4.7-1.2 1-1.1 2.3.5zm-149.9 3.6c.7 1.4 0 2.4-3.5 4.9-2.4 1.7-5.2 3.1-6.4 3.1-1.1 0-2.3.5-2.7 1.2s-.3.8.4.4 1.2-.2 1.2.3c0 .6-.6 1.1-1.3 1.1s-2.4 1.5-3.7 3.2l-2.4 3.3 2.9-1.9c1.7-1.1 3.5-2.5 4-3.2.6-.7 3.7-3.1 6.9-5.3 6.8-4.7 9.4-4.3 6.4.9-1.7 2.9-1.7 3 .5 3 2 .1 1.9.3-.8 1.7-1.6.9-3.4 2.2-3.8 3-.7 1.1-1.2 1.1-3-.2-3-2.1-6.4-1.9-7.7.5-.8 1.4-.8 2 0 2 .6 0 .9.4.5 1-.3.5-1.1.7-1.8.5-.7-.3-1.7-.1-2.3.3-1.8 1.2-3.5 5.1-2.8 6.3.3.6-.6.3-2.1-.7-2.6-1.7-2.7-1.8-.9-3.4 2.9-2.5 2.9-4.4 0-2.4-1.4.8-3 1.3-3.5 1-.5-.4-1.3-.1-1.7.5-.4.8-.3.9.4.5s1.2-.5 1.2-.3-1.8 1.7-4.1 3.1c-2.2 1.5-3.9 3-3.6 3.3.3.2 1.9-.5 3.6-1.8 2.7-2 3.4-2.1 5.8-.9 1.7.7 2.3 1.4 1.5 1.7-.7.3-1.9-.1-2.8-.7-.8-.7-1.8-1-2.1-.6-.4.4-.2 1.1.5 1.5.9.5.5 1.4-1.3 3.1-1.4 1.3-2.5 1.8-2.5 1.2 0-.7-1.7-2-3.7-2.9-2.1-1-3.9-1.8-4.1-1.9-.9-.5 2-4.3 4.5-5.9 2.3-1.5 2.6-1.6 1.5-.2-1.5 1.8-.8 3.7 1.4 3.7.8 0 1.4-1 1.4-2.5 0-1.4.5-2.5 1-2.5.6 0 1-.5 1-1.1 0-.5-.6-.7-1.2-.3-.7.4.3-.8 2.2-2.7 4-4 11.2-9.1 9.2-6.7-1.1 1.3-1.1 2.1-.1 4l1.2 2.3 1-2.5c.5-1.4 1.3-3.3 1.8-4.2 1.2-2.4 1.1-3-.3-2.2-2.1 1.2.3-1.1 5.7-5.4 5.2-4.1 6.4-4.2 8.5-.2zm230-2.5c0 .8-.2 1.5-.4 1.5s-.6-.7-1-1.5c-.3-.8-.1-1.5.4-1.5.6 0 1 .7 1 1.5zm-143.8 1.7c-.7.7-1.2.8-1.2.2 0-1.4 1.2-2.6 1.9-1.9.2.3-.1 1.1-.7 1.7zm192 1.3c-.5 1.5-1.6 2.9-2.5 3.1-.9.1-1.5-.2-1.1-.7.3-.5 1-.6 1.6-.3.6.4.9.1.6-.7-.5-1.4 1-5.4 1.7-4.7.3.2.1 1.7-.3 3.3zm-221.2-1.5c0 .5-.6.9-1.2.7-.7-.1-1.2.4-1 1.1.3 1.8-2 1-2.6-.8-.3-.7 0-1 .6-.6.6.3 1.3.2 1.7-.4.8-1.3 2.5-1.3 2.5 0zm150 0c0 .5-.5 1-1.1 1-.5 0-.7-.5-.4-1 .3-.6.8-1 1.1-1 .2 0 .4.4.4 1zm66.3 0c-1.3.5-2.3 1.8-2.3 2.8s-.6 1.9-1.3 1.9c-.8 0-1.4-.6-1.4-1.3s.5-1 1-.7c.6.4.8 0 .4-.9-.7-2-.4-2.3 3-2.5 2.6-.2 2.7-.1.6.7zm-166.3 1.5c0 .8-.7 1.5-1.5 1.5-.9 0-1.2-.6-.9-1.5.4-.8 1-1.5 1.5-1.5s.9.7.9 1.5zm-341.3 1.1c-.3.3-1.2.4-1.9.1-.8-.3-.5-.6.6-.6 1.1-.1 1.7.2 1.3.5zm6 2.6c0 1.5-.3 2.5-.8 2.3-.4-.3-.7.3-.6 1.3.1 2.5 2.3 2.4 2.4-.1.4-4.8 2.4-3.3 2.8 2 .2 2.1.4 3.8.5 3.8s.4 3.9.6 8.7l.5 8.8h-2.9c-3 0-3.6-.9-4.8-6.3-.2-1.1-1.1-2.8-1.9-4-.9-1.3-1.1-2.5-.5-3.2 1.1-1.3-1.7-1.4-3.8-.1-.8.5-1.2-.1-1.2-2 0-2.3.2-2.5 1.6-1.3s1.6 1.1 1.2-.6c-.2-1.1-.9-1.9-1.5-1.8s-1-.5-.9-1.5c.2-.9.9-1.7 1.7-1.7s1.5-.6 1.5-1.3c.1-.6.3-1.5.4-2 .1-.4.2-1.1 0-1.7-.1-.5.8-.1 1.9.9 1.2 1.1 2.1 1.4 2.1.8v-2c0-.4-.4-.7-.9-.7s-1.3-.3-1.7-.8c-.4-.4.4-.6 1.7-.5 1.9.2 2.5.8 2.6 3zm474.8.8c-3 3.1-5 3.9-4.2 1.7.2-.6.9-1.1 1.6-1 .6.2 1.8-.8 2.7-2.2s1.9-2.3 2.2-2-.7 1.9-2.3 3.5zm-105.5-2.6c0 .2-.8 1-1.7 1.7-1.6 1.3-1.7 1.2-.4-.4s2.1-2.1 2.1-1.3zm-241 3.6c1.9 1.6 2.9 3 2.3 3-.7 0-1.3-.5-1.3-1 0-.6-.8-1-1.8-1-.9 0-2.3-.9-3-2-1.7-2.8-.3-2.4 3.8 1zm167 4.1c0 5.5-1 7.4-2.5 4.9-.4-.6-3.6-3.3-7.2-6l-6.5-4.9 7.4-.3c4-.2 7.6-.2 8.1 0 .4.2.7 3 .7 6.3zm37-5c0 1.4-1.6 1.1-2.9-.5-1-1.2-.8-1.3.8-.9 1.2.3 2.1.9 2.1 1.4zm39 1c0 .6-.4.7-1 .4-.5-.3-1-1.1-1-1.6 0-.6.5-.7 1-.4.6.3 1 1.1 1 1.6zm-133-.1c0 .5-.5 1-1.1 1-.5 0-.7-.5-.4-1 .3-.6.8-1 1.1-1 .2 0 .4.4.4 1zm.1 8.3c-.8.8-1.1.5-1.1-1.2 0-1.2-.4-1.9-1-1.6-1.7 1.1-1.1-.7.8-2.1 1.5-1.1 1.7-1 2 1.3.2 1.4-.1 3-.7 3.6zm107-4c-1 .9-1.1.8-.5-.6.3-1 .9-1.5 1.2-1.2s0 1.1-.7 1.8zm159.9-1.9c0 .3-.4.8-1 1.1-.5.3-1 .1-1-.4 0-.6.5-1.1 1-1.1.6 0 1 .2 1 .4zm-164.1 2.7c-2.2 1.4-3.3 1-1.9-.6.7-.8 1.7-1.2 2.2-.9.6.4.5 1-.3 1.5zm32.6-1.2c.3.5.2 1.2-.3 1.5s-.9-.1-.9-.9c0-1.7.3-1.9 1.2-.6zm-241 1c.3.5.2 1.2-.3 1.5s-.9-.1-.9-.9c0-1.7.3-1.9 1.2-.6zm339.5 1.7c0 1.4-.4 2.3-1 1.9-.5-.3-1 .1-1 .9 0 2.1 1.7 2 2.8 0 .5-.9 1.7-1.4 2.7-1.3 1.3.3.8 1.1-2.5 3.8-4 3.2-6.5 3.6-4 .6.9-1.1.9-1.5.1-1.5-.9 0-.9-.5-.1-2 .6-1.1.8-2 .4-2-.3 0-.1-.7.6-1.5 1.7-2.1 2-1.9 2 1.1zm-364.8 2.3c2.8 1.4 3 3.5.2 2.4-.9-.3-1.4 0-1.2.7s-.3 1.4-1 1.5c-.7.2-.8.1-.2-.2s.4-1.3-.5-2.6c-1.6-2.3-2-4-.7-3.5.4.2 1.9 1 3.4 1.7zm18.4.9c-.3.3-.1 1.1.5 1.8.7.8.7 1.4-.1 1.9-.5.3-1.1.3-1.1-.2-.6-3.6-.5-5.2.3-4.7.5.3.7.9.4 1.2zm213.1-.7c-.9.6-1.6 1.3-1.4 1.7s-.4 1.5-1.5 2.4c-2.4 2.4-2.3 1.3.3-2.3 1.1-1.6 2.6-2.9 3.2-2.9.7 0 .4.5-.6 1.1zm-216.2 1.1c.4.3.2.9-.3 1.2s-1.5-.1-2.1-.8c-1-1.1-.9-1.4.3-1.2.9.1 1.8.5 2.1.8zm209.6 2.1c-.6.8-.7 1.8-.3 2.2.4.5.2.5-.5.1-1.4-.8-.6-3.6.9-3.6.7 0 .6.5-.1 1.3zm174.5 1.7c.1 2.5-.3 3.1-2.5 3.6-1.4.3-3.1.7-3.7.9s-1.7-.2-2.3-.8c-.8-.8-1.7-.5-3.3.9-2.2 1.9-2.2 1.9-.8 0 1.4-1.8 1.3-1.9-.2-1.3-2 .7-4.5-1.8-2.8-2.8.7-.4 1.9 0 2.7.8 1.4 1.4 1.7 1.4 3.2-.2.9-.9 1.5-1.5 1.4-1.3-.1.3.4 1.1 1.2 1.9 1.6 1.6 3.9.8 2.9-.9-.4-.7-.2-.8.5-.4.6.4.9 1.2.6 1.7s.1.6.8.3c.8-.3 1.4-1.3 1.2-2.2-.2-1.5.2-3.2.8-3.2.1 0 .3 1.4.3 3zm-368.1-1c.3.6-.1.7-.9.4-1.8-.7-2.1-1.4-.7-1.4.6 0 1.3.4 1.6 1zm169.6.7c1.3 1.6 1.2 1.7-.3.4-1.7-1.3-2.2-2.1-1.4-2.1.2 0 1 .8 1.7 1.7zm-224 1c0 .5.2 1.6.4 2.5.4 2.2.1 2.2-3 .2-1.4-.9-2.2-2-1.9-2.5.6-1.1 4.4-1.2 4.5-.2zm220.9.8c.7.9.8 1.5.2 1.5-.5 0-1.2-.7-1.6-1.5-.3-.8-.4-1.5-.2-1.5s.9.7 1.6 1.5zm134-.5c0 .5-.4 1-1 1-.5 0-1-.5-1-1 0-.6.5-1 1-1 .6 0 1 .4 1 1zm34.9 7.4c.2 7.6-1.2 10.7-3.1 7.2-.9-1.6-1.1-1.6-2.4.1-1.2 1.7-1.3 1.7-1.4 0 0-2.5.4-3.2 1.8-3.1 1.7.2 1.5-1.3-.3-2.3-1.2-.7-1.1-1.1.7-2.2s2-1.1 1.5.1c-.3.8-.2 2 .2 2.7.4.6.8-.9.8-3.4.1-2.5-.4-4.5-.9-4.5-.6 0-.5-.6.2-1.5 2-2.5 2.7-.9 2.9 6.9zm-253.9-7c0 .9-3 1.4-3.5.6-.4-.6.3-1 1.4-1 1.2 0 2.1.2 2.1.4zm225.1 1.3c.1 1 .1 2.2 0 2.7s.3 1.2 1 1.6c1.9 1.3.1 4.9-2.2 4.3-1.8-.5-1.8-.7-.5-2.2 1.1-1.2 1.2-1.9.3-3.2-.7-.9-1.8-1.4-2.5-1.1-.9.3-.7-.4.4-1.7 2.2-2.6 3.4-2.7 3.5-.4zm21.7 2c.2 2-.1 2.4-.9 1.6-.7-.7-.9-1.9-.6-2.7.9-2.3 1.2-2 1.5 1.1zm-387.2-.5c.4.6-.4 2-1.8 3.2-7.4 6.1-6.9 5.9-8.5 4.3-1.3-1.2-1-1.7 1.9-4.1 1.8-1.4 3.8-3 4.3-3.6 1.4-1.3 3.2-1.2 4.1.2zm320.9.2c1.8 1.3 1.8 1.4-.4 2.6-1.9 1-2.2 1-1.7-.2.4-.7-.1-.3-1 .9-2.1 2.9-2.9 2.9-3.1.1-.4-4.3 2.7-6 6.2-3.4zm-408.2 2.2c-.4 1.2-.8 1.3-1.4.3-.9-1.5-.2-3.2 1.1-2.4.5.3.6 1.3.3 2.1zm106.6-1.3c-.2.1-1.3.9-2.4 1.7-1.9 1.4-1.9 1.4-.6-.3.7-.9 1.8-1.7 2.4-1.7s.8.1.6.3zm414.1.1c0 .3-.4.8-1 1.1-.5.3-1 .1-1-.4 0-.6.5-1.1 1-1.1.6 0 1 .2 1 .4zm-427.6 2.7c1.9 1.5 3 1.8 3.9 1.1.8-.7 1.8-.6 3 .2 2.2 1.7 2.2 2.8-.3 4.8-1.9 1.7-3.7.8-2.5-1.2.3-.6 0-1-.8-1s-1.7.7-2.1 1.5c-.3.8-2.3 1.8-4.5 2.1-4 .6-4.8 2.4-1 2.4 1.9 0 2.6 1.4 1.1 2.4-.9.6-9.7-5.2-9.7-6.4 0-.8 8.5-7.9 9.6-7.9.4-.1 1.8.8 3.3 2zm18.1-1.2c.7 1.2-2.9 3.3-4 2.3-.5-.4-.5.1-.2 1 .7 2-.3 2.4-2 .7-.9-.9-.6-1.6 1-3 2.5-2 4.3-2.4 5.2-1zm7 1.1c.3.5.2 1-.4 1-.5 0-1.3-.5-1.6-1-.3-.6-.2-1 .4-1 .5 0 1.3.4 1.6 1zm352 1c-.3.5-1.2 1-1.8 1-.7 0-.6-.4.3-1 1.9-1.2 2.3-1.2 1.5 0zm14.5 2.2c0 1.7-.3 2.8-.7 2.4-.9-.9-1.3-3.8-.7-4.8 1-1.5 1.4-.8 1.4 2.4zm36.6-1.7c-.2.7 0 1.7.6 2.3 1.2 1.2-.7 2.7-2.2 1.7-1.6-1-1.2-5.2.5-5.2.9 0 1.4.6 1.1 1.2zm-444.1 4.7c1.4 2.1 1.4 2.4-.2 3.6-1.5 1.1-1.9 1.1-2.1-.2-.3-1.4-.6-1.4-2.7 0-1.6 1.1-2.9 1.3-4 .6-1.5-.8-1.3-1.3 1.6-3.5 4.2-3.3 5.3-3.3 7.4-.5zm407.5 2.2c0 .3-.4.8-1 1.1-.5.3-1 .1-1-.4 0-.6.5-1.1 1-1.1.6 0 1 .2 1 .4zm35.5.6c.3.5.1 1-.4 1-.6 0-1.1-.5-1.1-1 0-.6.2-1 .4-1 .3 0 .8.4 1.1 1zm-434 4.4c3.6 3.3 4.3 4.5 3.1 4.9-1 .4-1.3.1-1-.7.6-1.7-4.2-5-5.2-3.5-.3.6.4 1.8 1.6 2.6 1.5 1.1 1.9 1.8 1.1 2.6-.7.7-2.5 0-6.1-2.4l-5.1-3.4 2.8-2.2c1.6-1.3 3.1-2.3 3.5-2.3.3 0 2.7 2 5.3 4.4zm89.1-2.3c3.3 2 3.4 2.3 3.4 8.5v6.4h-6.5c-4.9 0-6.7-.4-7.1-1.5-.4-.9-1.9-1.5-4-1.5h-3.4v12h13v14h-13v5.3c0 5.1.2 5.6 4 8.6l4 3.2v-11.1h13v17.2c0 9.5.5 19.1 1 21.3s.8 4.1.6 4.2c-.2.2-8.3-6.1-18.2-13.9l-17.9-14.3.3-28.2c.2-18.9-.1-28.9-.8-30.3-1.1-2-.8-2 13.6-2 13.1 0 15 .2 18 2.1zm22.4 2.6c1.1 2.7 3.1 7 4.4 9.8l2.4 5 4.6-9.8 4.7-9.7h14.9l-.1 28.7v28.8l-6.1 4.3c-9.3 6.7-8.7 7.3-9-8.9l-.3-14.3-3.5 8.9c-2 5-4 8.9-4.5 8.8-.5 0-2.7-4.3-5-9.4l-4-9.3-.3 14.7c-.1 8.1-.6 14.7-1 14.7-.4-.1-3.7-2.3-7.4-5.1l-6.8-4.9v-57h14.9zm66.7-2.5c2.3 2.1 2.3 2.2 2.3 29.3v27.1l-7 5.2c-3.8 2.8-7.2 5.2-7.5 5.2s-.5-5-.5-11v-11h-6v10.3c0 5.7-.3 10.6-.6 11-.3.3-3.5-1.7-7-4.5l-6.4-5.2v-27c0-34-1.3-31.6 17.4-31.6 11.9 0 13.2.2 15.3 2.2zm36.6.6c2.5 2.6 2.7 3.5 2.7 10.5v7.7h-15v-3.5c0-3.3-.2-3.5-3.5-3.5h-3.5v40.1l3.5-2.7c2.8-2.1 3.5-3.3 3.5-6v-3.4h15v14.8l-9 6.6c-5 3.7-9.4 6.7-9.9 6.9-.4.1-4.5-2.7-8.9-6.2l-8.2-6.4v-51.5l2.6-3.1 2.6-3.1h12.7c12.6 0 12.7 0 15.4 2.8zm37.1-.7c3.5 2.1 3.6 2.2 3.6 8.5v6.4h-7c-5.6 0-7-.3-7-1.5 0-1.1-1.1-1.5-3.5-1.5h-3.6l.3 8.1.3 8.1 10 5.4 10 5.3.5 23.3c.3 12.8.4 23.5.3 23.6-.1.2-7.8-5.8-17.2-13.3l-17.1-13.7v-12.8h6.8c5.9 0 6.8.3 7.7 2.2.6 1.1 2 2.8 3.3 3.6 2.3 1.5 2.3 1.5 2-2.8l-.3-4.3-9.7-5.5-9.8-5.5v-16.3c0-9.8-.4-16.5-1-16.9-3-1.9.3-2.5 13.4-2.5 12.9 0 14.9.2 18 2.1zm-293.4-.2c0 .6-.4 1.3-1 1.6-.5.3-1-.1-1-.9 0-.9.5-1.6 1-1.6.6 0 1 .4 1 .9zm427.2 1.8c.2 1-.2 2.9-.9 4.3-1.2 2.4-1.3 2.4-1.3-1.8s1.4-5.8 2.2-2.5zm-39.5 2.5c-.3.7-.5.2-.5-1.2s.2-1.9.5-1.3c.2.7.2 1.9 0 2.5zm35.3.2c0 1.4-.8 2.7-1.7 3.1-1.5.5-1.6.4-.5-.6.6-.7 1.2-2.1 1.2-3.1s.2-1.8.5-1.8.5 1.1.5 2.4zm13.6.6c1.6 0 1.6.2.4 1-.9.5-1.8.6-2.4 0s-2.4.2-4.7 2c-4 3.2-4.9 3.6-4.9 1.9 0-.5.4-.8 1-.4.5.3 1.9-1.2 3.2-3.4 2-3.5 2.5-3.8 3.9-2.5.8.8 2.4 1.4 3.5 1.4zm-479.6-1c0 .5-.9 1-2 1s-2-.5-2-1c0-.6.9-1 2-1s2 .4 2 1zm4.7-.4c-.3.3-1.2.4-1.9.1-.8-.3-.5-.6.6-.6 1.1-.1 1.7.2 1.3.5zm69.7 2.3c1 1.1 1.5 2.5 1.1 3.1-.6.9-1 .9-1.6-.1-.7-1.1-.9-1-.9.5 0 1.3-.4 1.6-1.2.9-1.7-1.3-5.6-1.4-6.3-.2-.4.5 0 .9.8.9s1.7.9 2 2c.6 2.4-.7 2.6-3.7.3l-2.2-1.7 4.3-3.8c5.1-4.4 5.4-4.5 7.7-1.9zm367.3 1.3c-.3.7-.5.2-.5-1.2s.2-1.9.5-1.3c.2.7.2 1.9 0 2.5zm68.8-2.2c-.3.5-.1 1 .5 1s.9.4.5.9c-.3.5.1 1.5.8 2.3.7.7 1.3 2.2 1.4 3.3.3 4.6.8 6.2 2 6.2.6 0 1-.4.7-.8-.2-.4.1-1.1.7-1.4.5-.4.8-1.3.5-2.1-.3-.7-.1-1.6.3-1.9 1.2-.7 2.1 3.3 2.7 11.5l.6 6.7-3.9-.2c-3-.1-3.8-.5-3.8-2.1-.1-3.4-1.6-6.3-2.9-5.8-1 .4-1.2-1.6-1-8.8.3-10.5.2-9.8 1-9.8.3 0 .2.4-.1 1zm-59.8.6c-.3.3-1.2.4-1.9.1-.8-.3-.5-.6.6-.6 1.1-.1 1.7.2 1.3.5zm4.8 1.4c-.3.5-1.2 1-1.8 1-.7 0-.6-.4.3-1 1.9-1.2 2.3-1.2 1.5 0zm-22.5 2.1c0 .6-.4.7-1 .4-.5-.3-1-1.1-1-1.6 0-.6.5-.7 1-.4.6.3 1 1.1 1 1.6zm29-1.1c0 .5-.4 1-1 1-.5 0-1-.5-1-1 0-.6.5-1 1-1 .6 0 1 .4 1 1zm20.1 3.3c-.8.8-1.1.5-1.1-.9 0-2.7 1.4-4.1 1.8-1.9.2.9-.1 2.2-.7 2.8zm-33.1-1.8c-.7.8-1.6 1.2-2.1.9-1.3-.8-.1-2.4 1.8-2.4 1.3 0 1.3.3.3 1.5zm-368 1.7c0 .6-.7.7-1.6.4-1.1-.4-1.5-.2-1.1.7.4 1-.4 1.4-2.6 1.5l-3.2.1 2.9-2.4c2.8-2.2 5.6-2.4 5.6-.3zm-16.6 5.3c.6 1.7.4 1.8-1.8.9-2-.8-2.1-2.4-.2-2.4.8 0 1.6.7 2 1.5zm5.6 1c-1.3 1.4-2.6 2.3-2.8 2-.7-.7 2.9-4.5 4.1-4.5.6 0 0 1.1-1.3 2.5zm-9 1.2c0-.5.5-.5 1.1-.1.8.4.7.9-.2 1.5-1.3.8-2.9-.6-2.9-2.6 0-.6.5-.3 1 .5s1 1.1 1 .7zm10.5 1.3c-.3.5-1 1-1.6 1-.5 0-.9-.5-.9-1 0-.6.7-1 1.6-1 .8 0 1.2.4.9 1zm398.5 7.1c0 1.1-.4 1.8-1 1.4-.5-.3-.7-1.2-.3-2 .7-2.1 1.3-1.9 1.3.6zm-414.6 4.9c-.6.6-1 .2-1.1-1.2-.2-1.6.1-1.8 1-.9.7.7.8 1.4.1 2.1zm-3.5 1.4c.9 1.1.6 1.5-1.9 1.8-3.5.5-3.5.5-1.4-1.6 1.9-1.9 1.9-1.9 3.3-.2zm427.8 0c-.4.9 0 1.2 1.1 1 2.3-.6 6.7 3 5.7 4.5-.4.7-3.2 2.8-6.2 4.8-4.2 2.7-5.8 3.2-6.7 2.3-.8-.9-.6-1.1.9-.8 1.7.3 2-.3 2-3.9 0-2.3.4-4.5.8-4.9s.7-1.6.7-2.6.5-1.8 1.1-1.8.9.6.6 1.4zm-435.3 6.7c-2.1 2.3-3.8 1.5-2.4-1.1.6-1.2 1.6-1.7 2.6-1.3 1.3.5 1.3.8-.2 2.4zm447.6 2.1c0 1.4-3.3 0-3.6-1.5-.2-1.3.1-1.4 1.7-.4 1 .6 1.9 1.5 1.9 1.9zm5.8 4.5c.8.7.9 1.4.2 1.8s-.7 1.3 0 2.6c.6 1.1 1.5 1.7 1.9 1.5.5-.3 1.6.3 2.6 1.4 1.6 1.7 1.6 2.1.1 4.2-.9 1.2-1.6 1.7-1.6 1s-.4-1.1-.8-.8c-.4.2-1.4.1-2.2-.5-1-.6-1.1-.9-.2-.9.6 0 1.2-.8 1.1-1.8 0-1-.3-1.2-.6-.4-.2.6-.9 1-1.4.6-.9-.5-1.3.8-1 3.6.1 1.1-.3.9-1.4-.5-1.4-1.8-1.4-2.1.7-3.8 1.3-1 1.6-1.5.8-1.1-1.3.7-1.3.5-.2-.9 1.2-1.4 1.1-2-.2-3.9-.9-1.2-1.6-1.9-1.6-1.4s-.7.3-1.5-.4c-1.2-1-1.3-1.6-.4-2.6 1.2-1.5 2-1.1 5.7 2.3zm-28.8-1.3c0 .2-.8 1-1.7 1.7-1.6 1.3-1.7 1.2-.4-.4s2.1-2.1 2.1-1.3zm16 1.8c0 .6-.6.5-1.5-.2-.8-.7-1.5-1.4-1.5-1.6s.7-.1 1.5.2c.8.4 1.5 1.1 1.5 1.6zm-479.7 1.9c1-.8 1.4-.7 1.4.4 0 .8-.5 1.2-1.1.9s-.4 0 .5.8c2.1 1.8 3.1 5.6 1.3 5.4-.7-.1-1.7-.6-2.1-1.1-.4-.4-.2-.5.5-.1.6.4 1.2.2 1.2-.3 0-1.6-1.6-1.3-3 .4-1.7 2-2.5 1.9-6-.7l-2.9-2.1 3.1-2.3c2.4-1.8 3.5-2.1 4.5-1.3.9.8 1.7.8 2.6 0zm485.7 3c.7 1.2.6 2-.1 2.5-1.3.8-3-1.6-2.2-3 .3-.5.1-.6-.6-.2-.6.4-.9 1.2-.5 1.7.3.6-.3.5-1.5-.3-1.9-1.2-2-1.4-.5-2.5 1.9-1.4 4.1-.7 5.4 1.8zm16.1 4.2c-.9 1.2-.8 1.6.3 2 .9.4 1.9 0 2.3-.7.6-1.1 2.8.1 8.8 4.9 4.4 3.4 7.9 6.7 7.8 7.3-.2.6.3.9 1.1.6.7-.3 1.9.2 2.6 1.1 1.1 1.3 1.1 1.8-.3 3.1-.9.8-1.3.9-.8.3 1.5-1.8-5.7-6.3-7.5-4.8-1.7 1.4 0 5.3 2 4.6.7-.3 1.9-.1 2.6.3 2 1.3-.3 3.5-3.7 3.7-1.5 0-2-.1-1-.4 2.2-.6 2.2-1.5-.2-3.3-1.1-.7-1.8-1.8-1.5-2.2.3-.5-.6-.6-2-.2-1.6.4-2.6.2-2.6-.5 0-1 1.3-1.5 3.2-1.2.3 0 .5-.7.4-1.6-.2-.9-1.1-1.8-2.1-1.9s-2.2-.7-2.8-1.3c-1.6-1.6-3.1-1.3-1.8.2.8 1.1.6 1.8-.9 3.2-1.1 1-2.3 1.5-2.7 1.2-.3-.4-1.2.1-2 1.1-.8.9-1.2 1.1-.8.4.3-.6.2-1.2-.4-1.2-1.8 0-4.2-3.2-3.6-4.9.3-.9-.5-.5-1.7.9-1.3 1.4-1.9 2-1.4 1.3s.6-1.3.4-1.3c-.3 0 1-1.6 2.9-3.6 1.8-2 3.2-4.1 3.1-4.7-.1-.7.2-2.3.6-3.6.6-1.6 1.1-2 1.9-1.2.7.7.7 1.4-.2 2.4zm-513.5-.1c.5.7.3.8-.6.3s-1.1-.4-.6.4c.4.6 1.3.8 1.9.4.7-.4 2-.9 3.1-1 1.5-.3 1.6 0 .7 1.1-.9 1-.8 1.6.3 2.5.8.7 1.2 1.9.9 2.8-.4 1.1-.2 1.4.8 1.1 2.2-.7 3.6 1.5 3.4 5.5-.2 2 .1 4 .6 4.3.8.5 1.3-1.6 1-4.3-.2-1.8 1.9-2.6 2.5-.9.3.9 1.3 1.6 2.2 1.6.8 0 1.2.3.8.7s-1.5.8-2.4.8c-1.1 0-1.7.8-1.6 2.2.2 3.8-5.2-.4-6.1-4.8-.7-3.2-3.9-5.6-5-3.9-.5.8-1.1.7-2.1-.1-1.1-.9-1.8-.9-2.6-.1-.9.9-.8 1.2.5 1.2 2.1 0 2.2 1.3.2 3-1.5 1.2-5.5.5-5.5-1.1 0-.5-.6-.9-1.4-.9s-1.8-.4-2.1-1c-.7-1.1 2.1-5.6 3.3-5.4.4.1 1.6-.2 2.7-.7 1.1-.4 1.6-.8 1.1-.8-.5-.1-.1-1 .9-2.1 2.1-2.3 2.2-2.4 3.1-.8zm493.4-.3c0 .6-.4 1.3-1 1.6-.5.3-1-.1-1-.9 0-.9.5-1.6 1-1.6.6 0 1 .4 1 .9zm-474.3 3.6c.7 2-.2 2.9-2.1 2.2-.9-.4-1.3-1.3-1-2.2.8-1.9 2.3-1.9 3.1 0zm-5.7 1.6c0-.8.3-1.1.6-.8.4.4.2 1.3-.4 2-.7.8-.8 1.8-.4 2.3.4.4-.1.3-1-.5-.9-.7-1.4-1.9-1.1-2.8.5-1.2.7-1.2 1.4-.1s.9 1 .9-.1zm6 3.9c0 .5-.4 1-.9 1-.6 0-1.3-.5-1.6-1-.3-.6.1-1 .9-1 .9 0 1.6.4 1.6 1zm503.6 4.5c-1 .8-2.2 1.2-2.7 1-.4-.3-1 0-1.2.5-.3.6-.4.5-.3-.2s1.3-1.5 2.7-1.9c3.5-1 3.6-1 1.5.6zm-501.6 1.3c0 .5-.7.9-1.5.9s-1.5-.4-1.5-.9c0-.4.7-.8 1.5-.8s1.5.4 1.5.8zm-19.5 4.2c1 1.1 1.6 2 1.3 2s-1.3-.9-2.3-2-1.6-2-1.3-2 1.3.9 2.3 2zm514.1 1.6c.1.9 0 1.3-.4 1-.3-.4-.7-1.4-.8-2.2-.1-.9 0-1.3.4-1 .3.4.7 1.4.8 2.2zm7.9.4c-.3.5-1.4 1-2.3.9-1.4 0-1.3-.2.3-.9 2.7-1.1 2.7-1.1 2 0z"/><path d="m31.7 12.1c.7.7 1.5 1 1.8.7s-.2-.9-1.2-1.2c-1.4-.6-1.5-.5-.6.5zm109.6 18.6c-1.6.6-1.8 16.3-.3 16.3.5 0 .9-1 .8-2.3-.1-3.7.2-7.1.6-6.6.3.2.8 3.8 1.1 7.9.4 4.1.9 7.7 1.1 7.9s.4-5 .4-11.7c0-12.4-.2-13-3.7-11.5zm1.5 32.3c-.7 2.4-.3 3.8.8 2.8.3-.4.4-1.7.2-3l-.3-2.3zm.2 6.1c0 .5-.4.7-1 .4-.5-.3-1-.1-1 .4 0 1.6 1.6 1.3 3-.4.9-1 .9-1.5.1-1.5-.6 0-1.1.5-1.1 1.1zm-1.4 6.4c.3.7.1 1.6-.4 1.9-1.6.9-.2 4.5 1.4 3.9 1-.4 1.2 0 .8 1.1-.3.9-.2 1.6.3 1.6s1-2 1-4.4c.1-3.5-.3-4.5-1.7-4.9-1.2-.3-1.7 0-1.4.8zm-.3 12.3c.1 1.3.7 1.8 1.9 1.4 1.1-.2 1.7-.5 1.6-.6-.2-.1-1.1-.7-2-1.5-1.5-1.1-1.7-1-1.5.7zm-109.8 35.1c-.3.5-.2 1.2.3 1.5s.9-.1.9-.9c0-1.7-.3-1.9-1.2-.6zm61.2 103.8c-.8 1.4-.4 18.3.5 18.3.4 0 .8-4.3.8-9.5 0-8.9-.3-10.6-1.3-8.8zm20.7 6.7c.7 7.5.7 7.6-2.2 9.3-3.6 2.3-11.8 9.3-10.8 9.3.4 0 4.9-3.3 9.9-7.3 5.1-4 12.1-9.5 15.7-12.2s6.7-5 6.9-5.2.2-.6-.2-.9c-.5-.5-7.9 4.5-9.7 6.6-.3.3-2.2 1.9-4.2 3.4l-3.8 2.8v-6c0-3.4-.5-6.4-1.1-6.8-.8-.5-.9 1.5-.5 7z"/><path d="m116 227.2c0 .9.5 2 1 2.3 1.3.8 1.3-.5 0-2.5-.8-1.3-1-1.3-1 .2zm-14.8 2.5c-.7.3-2 1.9-2.8 3.6l-1.6 3.2 2.8-2.6c1.6-1.5 3.5-2.4 4.2-2.2.6.3 1.2-.2 1.2-1.1 0-1.6-1.3-1.9-3.8-.9zm-23.6 2.5c.3.5 1 .6 1.5.3 1.3-.9 1.1-1.2-.6-1.2-.8 0-1.2.4-.9.9zm79.8.6c.4.3 1.4.7 2.2.8.9.1 1.3 0 1-.4-.4-.3-1.4-.7-2.2-.8-.9-.1-1.3 0-1 .4zm-47.9 3.3c-.4.6-.5 1.2-.2 1.5.2.3.7-.2 1-1.1.7-1.7.1-2-.8-.4zm-26.2 3.4c-1.7 1.9-3.5 3.5-4.1 3.5s-1.4.5-1.7 1c-.4.7 1.6 1 5.9.8 6.1-.2 6.6-.4 6.6-2.5 0-1.3-.4-2.3-1-2.3-.5 0-1-.9-1-2 0-2.9-1.3-2.5-4.7 1.5zm3 3.2c-.7.2-1.9.2-2.5 0-.7-.3-.2-.5 1.2-.5s1.9.2 1.3.5zm-19.3 1.4c0 .5 1.8.9 4 .9s4-.3 4-.8c0-.4-1.8-.8-4-.9s-4 .3-4 .8zm-13.3 4.6c-1.1 1-.8 4.5.2 3.8.6-.3.9-1.4.8-2.5-.1-2.3-.1-2.2-1-1.3zm14.1 7.5c.9.9 1.5.9 2.4 0s.7-1.2-1.2-1.2-2.1.3-1.2 1.2zm4.2-.3c0 1.1 8.7 1.3 12.5.2 2.3-.6 1.2-.8-4.7-.9-4.3-.1-7.8.3-7.8.7zm22 30.1c0 .5.5 1 1.1 1 .5 0 .7-.5.4-1-.3-.6-.8-1-1.1-1-.2 0-.4.4-.4 1zm-57 .4c0 .2 1.4.6 3 .8 1.7.3 3 .1 3-.4 0-.4-1.3-.8-3-.8-1.6 0-3 .2-3 .4zm35.5 4.6c-.3.5.1 1 .9 1 .9 0 1.6-.5 1.6-1 0-.6-.4-1-.9-1-.6 0-1.3.4-1.6 1zm3 2c-.3.5-.1 1 .4 1 .6 0 1.1-.5 1.1-1 0-.6-.2-1-.4-1-.3 0-.8.4-1.1 1zm-22.3 11.2c-1.9 1.9-1.4 2.8 1.6 2.8 2.1 0 2.8-.5 2.9-2 .2-2.3-2.6-2.7-4.5-.8zm6 6.6c-1.5 1.3-2 2-1.2 1.4s1.8-1.1 2.3-1.1c.4-.1 1-.1 1.5-.2.4-.1 1.5-.2 2.4-.3 2.5-.2 2.2-2.1-.3-2.2-1.1-.1-3.3 1-4.7 2.4zm337.8-292.7c0 .5.5.7 1 .4.6-.3 1-.8 1-1.1 0-.2-.4-.4-1-.4-.5 0-1 .5-1 1.1zm2 1.2c0 .2.6 1 1.4 1.6 1.1.9 1.6.9 2.2-.1.4-.7.4-1-.1-.6-.4.4-1.4.3-2.2-.3-.7-.6-1.3-.9-1.3-.6zm31.4.4c.3.6.1 1.3-.6 1.5-1.7.6-1.8 11.5-.2 11.5 1.3 0 1-7.9-.2-9.9-.4-.6-.3-.8.4-.4 1.6 1 2.6-1.4 1.2-2.7-1-.9-1.1-.9-.6 0z"/><path d="m431.4 28.1c.6 7 1.6 7.5 1.4.6-.1-3.2-.6-5.7-1-5.7-.5 0-.6 2.3-.4 5.1zm-3.4 6.8c0 .5.6 1.2 1.3 1.4 1 .4 1 .6 0 .6-.7.1-1.3.6-1.3 1.1 0 .7.6.7 1.9.1 1-.6 2-.8 2.3-.6.3.3.5-.2.5-1s-.2-1.3-.5-1c-.3.2-1.3 0-2.3-.6-1.2-.6-1.9-.6-1.9 0zm135.9 6.3c.5 1.2.9 2.6 1 3 0 .5.3.8.6.8 2.7 0 2.9-.1 1.5-1-.8-.5-1.5-1.7-1.5-2.6 0-1-.6-1.9-1.3-2.1-.9-.4-1 .1-.3 1.9zm3.2 6.4c0 1.1.3 1.4.6.6.3-.7.2-1.6-.1-1.9-.3-.4-.6.2-.5 1.3zm-3.7.5c-.3.6-.2 1.5.4 2.1s1.1.2 1.5-1.1c.5-2.2-.7-2.9-1.9-1zm-134 2.1c-.5.7-.6 4-.3 7.3.6 6.5.8 6.1 1.5-2.8.4-5.9.3-6.6-1.2-4.5zm1 13.6c-1.6 1.1-1.3 8.2.4 8.2 1.2 0 1.2-.3.2-1.5-.9-1-.9-1.5-.1-1.5.6 0 1.1-.7 1.1-1.5s-.5-1.5-1.1-1.5c-.8 0-.8-.5.1-1.5 1.3-1.6 1.1-1.9-.6-.7zm133.3 19.2c-.3 1.1-.1 2.3.4 2.6s.9.2 1-.3c0-.4.2-1.6.4-2.6.5-2.4-1.1-2.2-1.8.3zm-134.1 21.8c-.3.5.1.9.9.9s1.2-.4.9-.9c-.3-.4-.7-.8-.9-.8s-.6.4-.9.8zm135.4 1.2c-2.4 1.5-.7 1.8 2 .3 1.4-.7 1.8-1.3 1-1.3s-2.2.4-3 1zm-134.9 10.6c0 1.1.3 1.4.6.6.3-.7.2-1.6-.1-1.9-.3-.4-.6.2-.5 1.3zm.2 15.9c0 .8.4 1.2.9.9s.6-1 .3-1.5c-.9-1.3-1.2-1.1-1.2.6zm93.8 42.1c0 1.1.3 1.4.6.6.3-.7.2-1.6-.1-1.9-.3-.4-.6.2-.5 1.3zm-85.5 18.6c.3.5 1 .6 1.5.3 1.3-.9 1.1-1.2-.6-1.2-.8 0-1.2.4-.9.9zm-1.5 6.4c.4 2.1-.2 3.5-1.1 2.9-1.6-1-1.2 1.1.5 2.5 1.1.9 1.9 1 2.8.1 1-.8 1.4-.7 1.4.5 0 1-.8 1.4-2.6 1.2-2.3-.3-2.6.1-2.8 3-.1 1.8-.8 4.3-1.6 5.6-1.4 2.1-1.4 2.4.1 3.7 4.7 3.9 9.3 7.1 9.8 6.7.3-.3-1.8-2.2-4.6-4.3-5-3.7-5.8-4.9-4-6 .6-.3 1-1.5 1-2.5s.5-2.2 1.2-2.6c.6-.4.8-.3.4.4-.3.6-.2 1.3.3 1.6 1 .7 2.4-2.2 1.6-3.4-.3-.4.5-1.1 1.8-1.5 1.4-.4 1.7-.8.9-1.2-1-.4-1-.8 0-2.1.8-.9.8-1.3.2-.9-.7.4-1.5 0-1.8-.9-.3-.8-.2-1.2.3-.9s1.2.1 1.5-.4c.4-.5-.2-.8-1.1-.6-1 .1-2.4-.2-3.1-.8s-1.2-.6-1.1-.1zm103.9 54.4c0 .5.5 1 1 1 .6 0 1-.5 1-1 0-.6-.4-1-1-1-.5 0-1 .4-1 1zm-8.8 11.3c.1 1.7.3 2.7.5 2 .3-.8 1.3-.8 4 .3 1.9.8 3.6 1.4 3.8 1.2s-1.7-1.8-4-3.5l-4.4-3.3zm1.4 5.2c-.3.9 0 1.5.9 1.5.8 0 1.5.6 1.5 1.4 0 2.5 2.8 2.6 4.4.1 1.9-2.9 2-3.5.5-3.5-.5 0-.8.4-.4.9 1.1 1.9-1.2 1.9-2.5 0-1.7-2.3-3.6-2.5-4.4-.4zm5.6 8.6c.2.6.8 1 1.3 1s1.1-.4 1.3-1-.4-1.1-1.3-1.1-1.5.5-1.3 1.1zm5.9 25.2c0 1.7 5.8 6.1 6.7 5.2.4-.4.1-1-.7-1.3s-2.5-1.5-3.8-2.8-2.3-1.8-2.2-1.1zm-380.6-251.3c-.3.5-.1 1 .4 1 .6 0 1.1-.5 1.1-1 0-.6-.2-1-.4-1-.3 0-.8.4-1.1 1zm45.9 2.2c-.3.5 2.5.7 6.3.7 7.3-.1 6.8-.6-1-1.1-2.7-.2-5.1 0-5.3.4zm21.1-.2c-.3.5-.2 1 .4 1 .5 0 1.3-.5 1.6-1 .3-.6.2-1-.4-1-.5 0-1.3.4-1.6 1z"/><path d="m237 54.7c-.8.3-1.8 1.1-2.2 1.7-.5.7-5.2 1.1-13 1.1h-12.3l-.5 11c-.6 13.1-1.8 12.9-1.6-.3.1-5-.2-9.2-.5-9.2-.4 0-.8 4.7-.8 10.5-.1 8.2.2 10.5 1.2 10.5s1.4 1.6 1.6 5.1c.1 4.3-.1 5-1.2 4.1-1-.9-1.4-.8-1.4.3 0 .7.5 1.3 1.1 1.2 1.7-.3 2 11.4.4 12.4-.9.6-.9.9-.1.9.9 0 1.2 8.5 1.3 33.7 0 18.6.2 35 .3 36.4.2 2.2 2.7 4.7 12.6 12.3 6.8 5.3 12.4 9.6 12.5 9.6 0 0-.2-3.5-.5-7.7-.3-4.3-.4-34.1-.3-66.2.3-58.8.4-60 3.6-60.1.3 0 .4 1.3.2 3-.3 1.7-.1 3 .5 3s.9-2.8.8-7c-.1-3.8-.2-7-.2-6.9 0 0-.7.3-1.5.6zm-.5 6.4c-1 1.5-2.5 1-1.9-.6.4-.8 1-1.2 1.5-.9s.7 1 .4 1.5zm-21.5 73.1c0 .5-.5.8-1 .8-.6 0 0 1.4 1.2 3.1 2.3 3.1 3.4 10.9 1.4 10.9-.6 0-.5.5.2 1.2s1.2 2.3 1.2 3.7c0 2.4-.1 2.4-1.7.8-1.4-1.4-1.5-1.9-.5-2.6 1.1-.6 1.1-1 0-1.8-2.4-1.9-3.9-2.5-3.6-1.5.2.6-.1 1.2-.7 1.3-.5.2-1.1-.8-1.3-2.4-.4-3.3.4-3.4 3.6-.5 2 1.8 2.4 1.9 1.9.5-.4-1-.2-1.7.6-1.7.9 0 .9-.2 0-.8-.7-.4-1.1-1.8-.8-3 .2-1.4-.1-2.2-1-2.2-.8 0-1.2-.6-.9-1.3.2-.7-.5-2.3-1.6-3.5-2.5-2.7-1.8-4.7 1-2.9 1.1.6 2 1.5 2 1.9zm5.7 6.9c.2 1.1-.1 1.8-.6 1.4-.6-.3-.9-1.4-.8-2.5.2-2.3 1-1.7 1.4 1.1zm-9.6 13.2c-1 .9-1.1.8-.5-.6.3-1 .9-1.5 1.2-1.2s0 1.1-.7 1.8zm9.9.7c0 1.5 4 5.1 4.9 4.5.5-.3.7.4.4 1.4-.4 1.7-.8 1.8-2.4.8-1.1-.7-1.7-1.8-1.4-2.5.3-.9 0-1-1.3-.3-1.4.8-1.7.5-1.8-2-.1-1.6.2-2.9.7-2.9s.9.4.9 1zm-8.7 4.9c.1 1.1 1.2 3.3 2.4 4.9 2.1 2.5 2.4 2.5 3.3.9.6-.9 1.6-1.7 2.3-1.7s.6.4-.3 1c-1.2.8-1.1 1 .8 1 1.6 0 2.2-.6 2.2-2.1 0-1.2.4-1.7 1.1-1.4.6.4.9 1.9.7 3.5-.1 1.5.2 3.4.8 4.1.6.8 1.1 2.6 1.2 4 .1 2.3-.2 2.5-3.1 2.4-2.3-.1-3.3-.7-3.6-2-.3-1.6-.1-1.7 1.2-.7 2.3 2 3-1.2.7-3.3-2.6-2.4-4-1.1-3.3 3.1.5 3.2.4 3.6-1.3 3.2-1.2-.2-1.9-1.2-2-2.6-.1-1.2-.5-2.6-.9-3-.5-.4-.5.1-.2 1 .6 1.7-.6 3.1-3 3.4-.7.1-1.3-.4-1.3-1.2 0-.9.5-1.2 1.2-.8.8.5.9.2.3-1.2-.4-1-1-5.3-1.3-9.4-.3-5.6-.1-7.2.8-6.4.6.6 1.2 2.1 1.3 3.3zm19.3-1.4c.1.8-.2 1.5-.6 1.5-.5 0-.8-.9-.7-2 .1-2.1 1-1.8 1.3.5zm0 14.4c.5 3.2.3 4.2-.6 3.6-.6-.4-.9-1.3-.6-2 .2-.7-.2-1.6-1.1-1.9-1.3-.5-1.3-.9-.2-2.3 1-1.2 1-1.4.2-.9-.9.5-1.3 0-1.3-1.6 0-3.9 2.9.2 3.6 5.1z"/><path d="m211 165.7c0 .5.9 1.8 2 2.8s2 1.4 2 .8c0-.5-.9-1.8-2-2.8s-2-1.4-2-.8zm15.8-110c.6.2 1.8.2 2.5 0 .6-.3.1-.5-1.3-.5s-1.9.2-1.2.5zm-64.4 7.8c0 5 .3 7.4 1 7.2 1.4-.5 1.5-10 .2-10.9-.7-.5-.7-.8.2-.8.6 0 1.2-.7 1.2-1.5s-.6-1.5-1.3-1.5c-.9 0-1.3 2.1-1.3 7.5zm115.1.5c-.3.5-.1 1 .4 1 .6 0 1.1-.5 1.1-1 0-.6-.2-1-.4-1-.3 0-.8.4-1.1 1zm-.5 3.9c0 .6.5 1.3 1 1.6.6.3 1-.1 1-.9 0-.9-.4-1.6-1-1.6-.5 0-1 .4-1 .9zm-41 2.1c0 .6.5 1 1 1 .6 0 1 .5 1 1.1 0 .5-.4.8-.9.4-1-.6-1 5.2 0 7 .3.5.5 2.2.4 3.7-.1 1.6.2 2.8.6 2.8.6 0 .5-5.4-.1-7-.1-.3-.1-1 0-1.5 1.1-4.3.9-7.3-.5-7.9-.8-.3-1.5-.1-1.5.4zm-72.7 1.7c-.7.3-1.3 1.1-1.3 1.9 0 .9.5 1.2 1.3.8 1-.6 1-.4 0 .7-1.7 1.8-1.6 7.1.2 9.5.8 1 1.5 1.4 1.5.7 0-.6-.5-1.5-1-1.8-.8-.5-.7-1.1.1-2.1.9-1.1.8-1.4-.2-1.4-1.1 0-1.2-.2-.1-.9 1.7-1.1 1.2-8-.5-7.4zm114.3.8c.4.8.8 1.5 1 1.5s.4-.7.4-1.5-.4-1.5-1-1.5c-.5 0-.7.7-.4 1.5zm.5 4.1c0 1.1.3 1.4.6.6.3-.7.2-1.6-.1-1.9-.3-.4-.6.2-.5 1.3zm-115.6 11.4c.4.6 1.1.8 1.6.5 1.4-.9 1.1-1.5-.7-1.5-.8 0-1.2.5-.9 1zm122.7 104c0 1.9.2 2.7.5 1.7.2-.9.2-2.5 0-3.5-.3-.9-.5-.1-.5 1.8zm-102.2 8c0 .6.8 1 1.7.8 1.2-.2 1.7.5 1.9 2.7.1 1.6.2 3.4.3 3.8 0 .5 1.6 0 3.4-1.1 1.7-1.1 3.8-1.7 4.5-1.5.6.3 1.2-.2 1.2-1.1s.7-1.6 1.6-1.6c1.2 0 1.4.7.9 3.2-.4 1.8-1.2 3.8-1.7 4.5s-.5 1.3 0 1.7c.6.3 1.5-.1 2.2-.9s.9-1.5.6-1.5c-.4 0 0-1 .8-2.2.9-1.2 1.6-3 1.6-4s.4-1.8.9-1.8c.4 0 .7 1.1.6 2.5-.2 1.4 0 2.7.4 3 .4.2.7-1.2.6-3.1-.2-2.5 0-3.3.7-2.6.6.6 1.2 3.8 1.3 7.2l.3 6.2-11.9-.4-11.9-.3.1 2.5c.1 1.8.3 2 .6.7.4-1.6 1.6-1.8 10.6-1.7 5.6.1 11 .1 12 .1 1.5-.1 1.7-1.2 1.7-7.9v-7.7h-7.2c-4 0-7.8.3-8.5.8-.6.4-1.4.3-1.8-.3-.8-1.3-7.5-1.3-7.5 0zm10.5 1.7c-.1 1.1-.9 1.7-1.9 1.5-.9-.2-1.5.1-1.4.5.2.4-.1.9-.6 1.1-.6.1-1.1-.4-1.2-1.3s.5-1.5 1.6-1.5c1 0 2.2-.5 2.5-1 .9-1.5 1.4-1.2 1 .7zm15.5-1.9c0 .5.3 1.2.7 1.6 1 1 1.1 4.6.1 4.6-.4 0-.8 1.2-.8 2.7 0 1.4.3 2.3.7 1.9s.8-1.3.8-1.9c0-.7.5-1.4 1-1.7.6-.3 1.1 2.6 1.3 7.7.3 7.8.2 8.2-2 8.6-1.3.2.3.5 3.4.6 3.1 0 6.5.4 7.5.7 1.7.5 1.7.5.1-.6-1.3-.8-1.8-2.4-1.8-6.1 0-2.8.4-4.8.9-4.5 1 .7.9-1.3-.1-2.9-.8-1.3-.5-7.7.5-9.2.4-.6.3-1.4-.2-1.7-.5-.4-1.2-.2-1.6.4s-1.2.7-1.8.3c-.9-.5-.9-.3-.1.8.7.8 1.2 5.7 1.3 11.6l.2 10.3h-2.5c-2.4 0-2.5-.1-2.8-9.6-.2-5.2 0-10.2.5-10.9.4-.8.2-1.7-.5-2.2-1.9-1.1-4.8-1.4-4.8-.5zm4.1 2.3c-.2.8-.4 1.9-.4 2.6s-.4 1-.9.7-.6-1-.2-1.5c.3-.5.1-1.6-.6-2.4-.9-1.1-.7-1.3.7-1 1 .1 1.6.9 1.4 1.6z"/><path d="m222.9 200.4c-.5 4.2-.3 7.3.6 8.5.8 1.2.7 1.3-.5.6s-1.3-.6-.3.6c.6.8 1.2 3.4 1.1 5.7 0 4.2 1.1 7.4 1.3 3.6 0-1 .2-4.6.4-7.9.1-3.3.3-6.2.5-6.5.1-.3.2-.9.1-1.4s.5-1.6 1.3-2.5c1.3-1.5 1.2-1.6-1.5-1.7-1.6-.1-3 .3-3 1zm-46.3.8c.3.4.9.6 1.4.3s1.1-.1 1.5.4c.3.6-.3 1.5-1.4 2-1.1.6-2.3 2.5-2.6 4.3-.4 1.8-1.2 3.9-1.7 4.5-.7.9-.3 1.5 1.7 2.3 5.3 2 5.3 2.1 5.7-8.9.2-5.3.2-5.5-2.4-5.6-1.5-.1-2.5.2-2.2.7zm3.3 10c-.7 1.3-1.2 2.4-1.1 2.5.1.2-.1.3-.5.2-.5-.1-.7-.5-.5-1 .1-.5-.2-.9-.8-.9-.5 0-.7-.7-.4-1.5.4-.8 1.5-1.5 2.5-1.5 1.7 0 1.8.3.8 2.2zm4.4-9.5c-.8.3-1.3 2.2-1.3 4.5 0 4.6 1.1 4.5 1.5 0 .1-1.6.5-3.5.9-4.1.8-1.2.7-1.2-1.1-.4zm47.7 1.3c0 .5-.8.7-1.7.3-1.2-.3-1 .1.5 1.2 2.5 1.8 5.1.8 3.8-1.4-.9-1.4-2.6-1.4-2.6-.1zm4 4.1c0 .5.5.7 1 .4.6-.3 1-.8 1-1.1 0-.2-.4-.4-1-.4-.5 0-1 .5-1 1.1zm-45.9 1.2c-.8 1-.7 1.4.2 1.4.8 0 1.4-.6 1.4-1.4 0-.7-.1-1.3-.2-1.3-.2 0-.8.6-1.4 1.3zm3 2.1c-.8 1-.9 1.6-.1 2.1.5.3 1 .5 1.1.3.4-1.8.7-3.8.4-3.8-.1 0-.8.6-1.4 1.4zm61.5.9c.3 1 .9 1.5 1.2 1.2s0-1.1-.7-1.8c-1-.9-1.1-.8-.5.6z"/><path d="m166 212.3c0 .8 8.6 8.2 19.1 16.3 27.1 21.1 27.9 21.7 27.9 20.7 0-.5-2.1-2.2-4.7-3.8l-4.6-3 5.4-1.1c4.5-1 4.9-1.2 2-1.3-3-.1-3.2-.3-2-1.8 1-1.1 1-1.4.2-.9-1 .5-1.3-.9-1.3-5.8v-6.6h-3.4c-2.1 0-3.6.6-4 1.5-.3.8-.9 1.5-1.3 1.4-2-.3-2.4.2-1.3 1.6.7.8 2.3 1.5 3.6 1.5 1.5 0 2.4.6 2.4 1.5 0 .8-.9 1.5-2.1 1.5-1.1 0-1.8-.4-1.5-.8.3-.5-.1-.9-.9-.9s-1.5.4-1.5.8c0 .9 4.1 2.4 5.5 2 .6-.1.5.3-.2 1-.6.6-.9 1.8-.6 2.5.8 2.3-1 1.6-4.7-1.7-1.9-1.7-5.5-4.4-8-6.1s-4.9-3.6-5.5-4.2c-.5-.7-2.6-2.3-4.5-3.6-4-2.8-6.9-5.2-11.1-9.4-2-1.9-2.9-2.3-2.9-1.3zm40.8 20c.2 4.8-.1 6.7-1.3 7.7s-1.5 1-1.5-.3c0-.9.4-1.8.8-2.1.5-.3.8-2.2.7-4.3-.1-3.5-.3-3.8-3.2-3.8-1.7 0-3.5-.4-3.9-.8-.5-.4-.1-.5.7-.2.9.3 2.2-.1 2.9-1 .7-.8 2-1.5 2.9-1.5 1.3 0 1.7 1.2 1.9 6.3zm-18.2-15.2c.4.8 3 .6 3.8-.2.3-.3-.5-.5-1.9-.5-1.3 0-2.2.3-1.9.7zm9-.3c-.3.5.1.9.9.9s1.2-.4.9-.9c-.3-.4-.7-.8-.9-.8s-.6.4-.9.8z"/><path d="m206.7 216.6c-.3.4-.3 1.9 0 3.5l.5 2.8-6.3.4-6.4.3 6.8.2 6.7.2v-4c0-4-.2-4.5-1.3-3.4zm-27.7 1.9c0 .8.7 1.5 1.6 1.5 1.4 0 1.4-.3.4-1.5-.7-.8-1.4-1.5-1.6-1.5s-.4.7-.4 1.5zm55 3.5-2.5.8 2.8.1c1.5.1 2.7-.4 2.7-.9 0-.6-.1-1-.2-.9-.2.1-1.4.5-2.8.9zm-6.7.7c.9.2 2.3.2 3 0 .6-.3-.1-.5-1.8-.5-1.6 0-2.2.2-1.2.5zm-37.5 1c.7.3 1.6.2 1.9-.1.4-.3-.2-.6-1.3-.5-1.1 0-1.4.3-.6.6zm35 1c.7.3 1.6.2 1.9-.1.4-.3-.2-.6-1.3-.5-1.1 0-1.4.3-.6.6zm5.2.3c0 .5.6 1 1.4 1s1.8-.5 2.1-1c.3-.6-.3-1-1.4-1-1.2 0-2.1.4-2.1 1zm5.4.7c.2 1-.1 2.1-.6 2.4-.6.4.2.6 1.6.6 3.9 0 4.2 1 1.2 3.8-4.1 3.8-6 4.5-12.3 4.7l-5.8.2 5.3.3c2.8.2 5.2.7 5.2 1 0 .8-8.1 8.3-9 8.3-.4 0-1.1.7-1.4 1.6-.8 2 3.5-1 9.6-6.8 2.4-2.4 6.3-5.9 8.6-7.9 3-2.5 4-4.1 3.6-5.3-.4-1.1-1.3-1.5-2.5-1.1-1.4.5-1.9.1-1.9-1.4 0-1.2-.4-2.1-.9-2.1s-.8.8-.7 1.7zm-45.6 0c.7.3 1.6.2 1.9-.1.4-.3-.2-.6-1.3-.5-1.1 0-1.4.3-.6.6zm6 0c.7.3 1.6.2 1.9-.1.4-.3-.2-.6-1.3-.5-1.1 0-1.4.3-.6.6zm17.3.6c-.6.8-.7 1.8-.3 2.2.4.5-.2.5-1.3.1s-1.6-.4-1.2 0 .2 1.3-.5 2.1c-.8 1.1-.7 1.2.5.7 1.8-.7 1.8 2.3-.1 3.5-.7.4-.5 1.1.8 1.9 1.9 1.1 2 .9 1.8-2.9-.1-2.6.4-4.4 1.3-5 1.2-.7 1.2-.9 0-.9-1.1 0-1.1-.3-.1-1.5.7-.8 1-1.5.7-1.5-.2 0-1 .6-1.6 1.3z"/><path d="m216 226.1c0 .5.5.7 1 .4.6-.4 1 1.8 1 5.9 0 4.6-.4 6.6-1.2 6.7-.7 0-.3.5 1 1.1 1.2.6 2.6.8 3 .3.4-.4.1-1-.5-1.2-.8-.3-1.3-2.4-1.3-5.4 0-3.8.3-4.8 1.3-4.3.8.6.8.3-.1-.9-.8-.9-1.1-2.1-.7-2.7.3-.6-.3-1-1.4-1-1.2 0-2.1.5-2.1 1.1zm13.8 3c1.6 1.9 3.2 1.7 3.2-.5 0-.8-1.1-1.4-2.4-1.4-2.2 0-2.3.2-.8 1.9zm-4.8.9c0 .5.5 1 1.1 1 .5 0 .7-.5.4-1-.3-.6-.8-1-1.1-1-.2 0-.4.4-.4 1zm-3 .9c0 .6.4 1.2.8 1.5.5.3.9-.1.9-.9s-.4-1.5-.9-1.5c-.4 0-.8.4-.8.9zm1 9.1c-.9.6-1 1-.3 1 .6 0 1.5-.5 1.8-1 .8-1.2.4-1.2-1.5 0zm-7.9 2.7c1.1.3 1.4 1.2 1.1 3.6-.4 2.8-.3 3 1.1 1.9.8-.7 1.4-2.2 1.2-3.4-.4-1.6-.2-1.8 1-.8s1.5.9 1.5-.4c0-1.2-.9-1.6-3.7-1.5-2.1.1-3.1.3-2.2.6zm195.5-195.1c-.4 1-.1 1.4.6 1.2 1.5-.5 2.3-2.8 1-2.8-.5 0-1.3.7-1.6 1.6zm-.2 11.2c.3.6.2 1.3-.3 1.6-.9.6-.6 5 .5 6.7.2.4-.2 1-.8 1.2-1 .4-1 .6 0 .6.7.1 1 .6.6 1.3-.4.6-.3.8.3.5 1.3-.8 1.4-11.5.1-12.3-.6-.4-.8-.2-.4.4zm.7 14.4c0 1-.6 1.8-1.3 1.8-.9 0-.9.3 0 1.2 1.6 1.6 2.5.5 1.9-2.4-.3-1.4-.5-1.6-.6-.6zm-.9 9.5c0 2.8.2 3.3.8 1.8.6-1.7.3-5.5-.5-5.5-.2 0-.3 1.7-.3 3.7zm-30.8 118.5-1.9 2.3 2.3-1.9c2.1-1.8 2.7-2.6 1.9-2.6-.2 0-1.2 1-2.3 2.2zm-19.8 0c.3.4.9.8 1.5.8.5 0 .9-.4.9-.8 0-.5-.7-.9-1.5-.9s-1.2.4-.9.9zm24.5.4c-1 .7-2 1.1-2.3.9-.3-.3-.5.2-.5 1 0 1 .4 1.2 1.2.5.7-.5 1.6-.6 2-.2.5.4.5.1.1-.6-.4-.6-.2-1.3.3-1.3 2.6-.3 3-.4 3.5-1 1.2-1.1-2.5-.5-4.3.7zm17.6.5c.7.7 1.5 1 1.8.7s-.2-.9-1.2-1.2c-1.4-.6-1.5-.5-.6.5zm-3.6 1.3c-.8 1-.9 1.6-.1 2.1.5.3 1 .5 1.1.3.4-1.8.7-3.8.4-3.8-.1 0-.8.6-1.4 1.4zm-21.4.7c.7.7 1.5 1 1.8.7s-.2-.9-1.2-1.2c-1.4-.6-1.5-.5-.6.5zm7.3 3c-.1 2.1-.2 2.2-1.3.8-1.4-1.8-7.7-2.1-7.7-.4 0 1.2 2.8 1.4 4.7.2 1.3-.8 3.6 1.6 2.5 2.9-.4.5.2.1 1.4-.9 1.1-.9 2.5-1.4 2.9-1 .5.5.3-.1-.5-1.2s-1.6-2.2-1.7-2.4c-.2-.2-.3.7-.3 2zm-77.4 3.9c.7.7 1.9.7 3.5.1 2.3-.9 2.2-1-1-1-2.4-.1-3.2.2-2.5.9zm16.9 0c.4.6 1.1.8 1.6.5 1.4-.9 1.1-1.5-.7-1.5-.8 0-1.2.5-.9 1zm6 0c.4.6 1.1.8 1.6.5 1.4-.9 1.1-1.5-.7-1.5-.8 0-1.2.5-.9 1zm43.3 8.7c.6.2 1.8.2 2.5 0 .6-.3.1-.5-1.3-.5s-1.9.2-1.2.5zm5.5 0c.9.2 2.3.2 3 0 .6-.3-.1-.5-1.8-.5-1.6 0-2.2.2-1.2.5zm-17.2 12.9c0 1.1.3 1.4.6.6.3-.7.2-1.6-.1-1.9-.3-.4-.6.2-.5 1.3zm-290.6-174.7c.5 4 1.5 5.4 1.5 2.1 0-1.3.3-2 .7-1.6s.6 31.5.5 69.1c-.2 37.7 0 68.5.4 68.5s6-4.3 12.6-9.6l11.8-9.6v-49.6c0-27.3.2-53.3.5-57.7.6-12.8 1.5-12.1-12.8-11.7-8 .2-11.9 0-11.2-.7.6-.5 2.4-1.1 4-1.3 2-.3 1-.5-2.7-.8l-5.8-.5zm8.5 80.1c-.5 4-.3 5 .8 5 1.2 0 1.2.4-.2 2.4-1.5 2.3-1.4 2.5.4 3.1 1.1.4 2 .9 2.1 1.3 0 .4.2 1.7.5 3 .2 1.3 0 2.1-.5 1.7-.5-.3-1.2-.1-1.6.5-.3.5.1 1 .9 1 2.3 0 2.3 17.1.1 19-.8.7-1.5 1.9-1.5 2.6 0 .8-.3 1.4-.7 1.4-1 0-.9-7.3.1-8.8.3-.6.2-1.3-.4-1.7s-.7-1.3-.2-2.1c1.1-2-.6-14.7-2.1-15.6s-1.7-10.8-.3-10.5c.6.1 1.2-1.5 1.4-3.6.2-2 .7-3.7 1.1-3.7s.5 2.2.1 5zm5 2.1c0 .6.7.9 1.5.5 1.3-.4 1.4-.2.5 1.4-.6 1.1-1.7 2-2.5 2-.7 0-1.5 1-1.8 2.2-.2 1.3-.4.2-.4-2.5-.1-3.4.2-4.7 1.3-4.7.8 0 1.4.5 1.4 1.1zm5.2 6.6c-.2 1.2-.8 2-1.3 1.7-1.4-.8-1.1-4.1.4-4.1.9 0 1.2.9.9 2.4zm-3.2 6.2c0 1.7-1.8 2.1-2.4.6-.3-.9 0-1.5.9-1.5.8 0 1.5.4 1.5.9zm5 5.3c0 .6-.7.5-1.5-.2s-1.5-1.7-1.5-2.2c0-.6.7-.5 1.5.2s1.5 1.7 1.5 2.2zm3.3-1.5c-.3.7-.6 1.3-.8 1.3s-.5-.6-.8-1.3c-.3-.8.1-1.4.8-1.4s1.1.6.8 1.4zm-16.5 2.2c.2 1.2 0 3-.4 3.9s-.6 2-.6 2.4c.1.5-.2.8-.8.8-.5 0-1-2.3-1-5.1 0-3.6.4-4.9 1.3-4.7.6.3 1.3 1.5 1.5 2.7zm10.3-.8c1.6 1.1 3.3 1.8 3.8 1.4.5-.3 1.3-.1 1.6.5.4.7-.5 1-2.4.8-1.7-.1-3.1-.5-3.1-.9s-.9-.9-2-1.2-2-1-2-1.6c0-1.6.8-1.4 4.1 1zm.4 10.6c-.2.7 0 1.5.5 1.8.7.4.7 1.3 0 2.4-.5 1-.7 2-.5 2.3.3.3-.1.5-.9.5-1.1 0-1.2-.4-.3-2 1-1.6.8-2.1-1-3.4-2.2-1.5-3.1-5.2-1.6-6.7 1-.9 4.4 3.6 3.8 5.1zm6-2.7c.3.5.1 1-.4 1-.6 0-1.1-.5-1.1-1 0-.6.2-1 .4-1 .3 0 .8.4 1.1 1zm-16.8 6.1c.2 3 0 3.9-.6 2.9-.6-.8-.7-1.8-.5-2.2.3-.4 0-.8-.5-.8-.6 0-1.1-1.2-1.1-2.6 0-4.5 2.5-2.1 2.7 2.7zm7.8-.1c.3.5.1 1-.4 1-.6 0-1.1-.5-1.1-1 0-.6.2-1 .4-1 .3 0 .8.4 1.1 1zm-.5 4.5c1.1 1.3.9 2-1 4-1.3 1.3-2.7 2.2-3.1 1.9-.5-.3-.6.2-.3 1.1.7 1.7-2.3 6.8-3.5 6-.5-.2-.8.1-.7.8 0 .6-.3 1.3-.9 1.4-.5.2-1-.2-.9-.7.1-.6.2-3.8.3-7.3l.2-6.2 1.9 2.3 1.9 2.2 1.5-2.2c.9-1.2 1.6-2.8 1.6-3.5 0-1.8 1.5-1.6 3 .2z"/><path d="m76.6 144.3c.3 1 .9 1.5 1.2 1.2s0-1.1-.7-1.8c-1-.9-1.1-.8-.5.6zm6.5 33.3c0 1.1.3 1.4.6.6.3-.7.2-1.6-.1-1.9-.3-.4-.6.2-.5 1.3zm9-122.2c1.2 1 9.9 1.6 9.9.7 0-.7-2.2-1.1-5.2-1.1-2.8 0-4.9.2-4.7.4zm-21 10.2c0 1.1.3 1.4.6.6.3-.7.2-1.6-.1-1.9-.3-.4-.6.2-.5 1.3zm29.4 3.5c-.4.6-.5 1.2-.2 1.5.2.3.7-.2 1-1.1.7-1.7.1-2-.8-.4zm-30.3 12.4c.1 6.9.5 12 .9 11.4 1.1-1.9 1.1-22.7-.1-23.4-.7-.4-1 3.4-.8 12zm29.9-1.9c0 1.1.3 1.4.6.6.3-.7.2-1.6-.1-1.9-.3-.4-.6.2-.5 1.3zm.2 5.9c0 2.2.2 3 .4 1.7.2-1.2.2-3 0-4-.3-.9-.5.1-.4 2.3zm-.2 8.1c0 1.1.3 1.4.6.6.3-.7.2-1.6-.1-1.9-.3-.4-.6.2-.5 1.3zm236.5-27.9c.2 8.5.3 9.3 1.4 9.3 1.4 0 1.2-3.3-.2-4.9-1-1.1-1-1.3 0-.7.9.5 1.2-.6 1.2-4.3 0-3.5-.4-5.1-1.3-5.1s-1.2 1.7-1.1 5.7zm29.9-4.8c-.3.5-.1 1.2.5 1.6.5.3 1-.1 1-.9 0-1.8-.6-2.1-1.5-.7zm.8 8.1c0 3 .2 4.3.4 2.7.2-1.5.2-3.9 0-5.5-.2-1.5-.4-.2-.4 2.8zm-31.3 7.9c0 .6.5 1.3 1.1 1.7.8.5.8.9-.1 1.4-.7.4-.9 1.7-.4 3.4.9 3.7 1.9 2.3 2-3 .1-3.1-.3-4.4-1.3-4.4-.7 0-1.3.4-1.3.9zm31.1 3.7c0 1.1.3 1.4.6.6.3-.7.2-1.6-.1-1.9-.3-.4-.6.2-.5 1.3zm-30.5 8c-.5 1.4-.4 1.5.9.4 1.7-1.4 1.9-2 .6-2-.5 0-1.2.7-1.5 1.6zm30.9 98.4c-.3.5-1.2.7-1.9.4-.8-.3-1.6.3-1.8 1.4-.4 1.6 0 1.9 2.3 1.8 1.5-.1 3.1-.5 3.6-.9.4-.5.4-.8-.2-.7-2.2.5-2.7-.1-1.5-1.5.7-.8 1-1.5.7-1.5s-.8.4-1.2 1zm7.1 4.1c.2.4-.6 1-1.8 1.2-1.6.3-1.3.4.8.4 2.9-.1 4.6-2.4 1.8-2.4-.7 0-1.1.4-.8.8zm-23.6-18.7c0 .2.7.9 1.5 1.6.9.7 1.5.8 1.5.2 0-.5-.7-1.2-1.5-1.6-.8-.3-1.5-.4-1.5-.2zm4.5.5c-.3.5-.2 1.2.3 1.5s.9-.1.9-.9c0-1.7-.3-1.9-1.2-.6zm-205.2-5.4c.1 1.1.7 2.6 1.1 3.4.7 1.1.6 1.2-.5.6-1.2-.8-1.2-.6 0 .8.8 1 1.4 3.2 1.4 5s.2 2.4.4 1.4c.3-.9 1.1-1.7 1.9-1.7.9 0 1.4-.7 1.2-1.8-.2-1 .2-1.6 1-1.4.8.1 1.1-.2.7-.7-.3-.6-1.2-.8-2-.4-.9.3-1.5-.1-1.5-.8 0-.8-.9-2.5-2-3.9-1.8-2.2-2-2.3-1.7-.5zm-1.3 14.2c.1 2.7 2.4 6.3 3.5 5.5.6-.4 1.1-2 1.3-3.6.3-2.6.1-2.8-1.3-1.6-1.3 1.1-1.5 1.1-1.3 0 .2-.7-.3-1.5-.9-1.7-.8-.3-1.3.3-1.3 1.4zm2.2 11.8c0 1.6.2 2.2.5 1.2.2-.9.2-2.3 0-3-.3-.6-.5.1-.5 1.8zm-.2 17.2c0 1 1.1 2.8 2.4 4 1.9 1.9 2.3 1.9 2.3.5 0-.9-.7-2.2-1.6-2.9-.9-.6-1.3-1.5-.8-1.9.4-.4.7-.2.7.5s.5.9 1.1.5c.8-.4.7-.9-.2-1.5-2.2-1.4-3.9-1-3.9.8zm231.4-38.8c1.3 2.1 4.4 3.2 5.2 1.9.4-.7.3-1-.1-.5-.5.4-1.9 0-3.3-.9-1.3-.9-2.1-1.1-1.8-.5zm16 8.3c-1.4 2.2-1.4 4.1 0 2.9.7-.6 1.5-.8 1.9-.5.3.3.4-.1.3-1-.3-2.3-1.3-2.9-2.2-1.4zm-6.4 12.8c0 .5.5 1 1.1 1 .5 0 .7-.5.4-1-.3-.6-.8-1-1.1-1-.2 0-.4.4-.4 1zm-211.6-11.9c-.3.5-1 .6-1.6.3-.7-.4-.8-.2-.4.5.5.7 1.3.8 1.9.4.7-.5 2.4-.8 4-.7 3.3.1 2.7-.8-.8-1.2-1.3-.1-2.7.2-3.1.7zm-47.8 7.7c-.3.5.1.9.9.9s1.2-.4.9-.9c-.3-.4-.7-.8-.9-.8s-.6.4-.9.8zm1.3 12.1c-.2 1.4-.2 3.8 0 5.3.1.9.4.9 1.1-.2.5-.9.5-1.9-.1-2.6-.7-.8-.6-1.3.3-1.6s.9-.6 0-1.2c-.7-.4-1.3-.2-1.3.3zm-17.9 6.3c0 .4.7.8 1.5.8s1.5-.4 1.5-.8c0-.5-.7-.9-1.5-.9s-1.5.4-1.5.9zm16.5 10.9c-.4.6-.5 1.2-.2 1.5.2.3.7-.2 1-1.1.7-1.7.1-2-.8-.4zm368.2-11.6c-.4.8-.2 1.7.3 2 .6.4 1-.3 1-1.4 0-2.5-.6-2.7-1.3-.6zm-41.1-6.7c-.3.5.1.9.9.9s1.2-.4.9-.9c-.3-.4-.7-.8-.9-.8s-.6.4-.9.8zm-10.4 3.4c.2.7-.3 1.2-1 1-.9-.1-.8.5.4 2.3.9 1.4 2.1 2.2 2.7 1.8s.4-1-.6-1.8c-1.1-.8-1.3-1.5-.6-2.2.8-.8.7-1.3 0-1.8-.7-.4-1-.1-.9.7zm-411.2 9.2c0 .2.8 1 1.8 1.7 1.5 1.3 1.6 1.2.3-.4s-2.1-2.1-2.1-1.3zm395.5 19.5c-.3.5-.1 1.2.5 1.6.5.3 1 .3 1-.2 0-.4.4-.2.9.6.5.7 1.4 1.2 2.1.9.8-.2.3-1-1.3-2.1-1.4-.9-2.9-1.3-3.2-.8zm-159.5-1.4c-.7.9-1.1 1.8-.8 2 .3.3 1.1-.1 1.8-1s1.1-1.8.8-2c-.3-.3-1.1.1-1.8 1zm-233.4-.6c-.4.5-.2 1.2.3 1.5.5.4 1.2.2 1.5-.3.4-.5.2-1.2-.3-1.5-.5-.4-1.2-.2-1.5.3zm0 4.3c.3.5 1 .6 1.5.3 1.3-.9 1.1-1.2-.6-1.2-.8 0-1.2.4-.9.9zm502.4 11.2c0 .2.8 1 1.8 1.7 1.5 1.3 1.6 1.2.3-.4s-2.1-2.1-2.1-1.3zm-416 7.4c0 1.1 3.7 3.2 4.4 2.5.8-.9-1.4-3.3-3-3.3-.8 0-1.4.3-1.4.8zm-8.4 11.1c-.4.5-.2 1.2.3 1.5.5.4 1.2.2 1.5-.3.4-.5.2-1.2-.3-1.5-.5-.4-1.2-.2-1.5.3zm165.4 20.6v9.5h6v-19h-6zm260.5 39.5c-.2.4.1.7.8.7s1.7.2 2.4.4c.6.2 1.2-.1 1.2-.6.1-1.1-3.7-1.6-4.4-.5zm-.4 3.9c-1.4.9-1.2 4.4.3 4.5.5.1 1.4-.7 2-1.6 1.3-2.1-.3-4.1-2.3-2.9zm-512.6-5.1c.2 1.5-.2 1.9-2 1.6-1.7-.1-2.2.2-1.8 1.3.4.9 1.4 1.3 2.9.9 1.2-.3 2.6-.1 2.9.4.4.6 1.1.8 1.6.4.6-.4.6-1.1-.1-1.9-.8-1-.8-1.5 0-2 .6-.4 1.4-.4 1.7-.1.4.3.1.6-.6.6-.9 0-.9.4.1 1.4.9 1 1.5 1 2 .3 1-1.6-1.2-3.9-3-3.2-.8.3-2.1 0-2.8-.6-1-.8-1.2-.7-.9.9zm19 .2c-.3.5-.1 1 .4 1 .6 0 1.1-.5 1.1-1 0-.6-.2-1-.4-1-.3 0-.8.4-1.1 1z"/></svg>